%
M48
M72
T01C0.0236
T02C0.0394
T03C0.0400
T04C0.0433
T05C0.0551
%
T01
X15406Y15013
X15406Y15800
X24461Y18556
X26036Y17572
X26430Y17965
X26036Y16981
X26036Y16587
X26036Y16194
X26036Y15800
X25249Y16194
X25249Y16587
X28005Y15800
X28792Y15800
X29579Y16194
X29579Y16981
X29579Y17768
X28792Y17965
X28005Y17965
X29973Y18556
X37454Y22887
X39816Y23674
X39816Y24855
X37454Y26036
X39028Y15800
X39028Y15013
X22493Y25642
X22493Y26430
X20524Y25249
X15406Y39028
X15406Y39816
X39028Y39422
X39028Y38635
T02
X21467Y28217
X21467Y27217
T03
X13871Y26324
X13871Y25324
X13871Y24324
X13871Y23324
X13871Y22324
X13871Y21324
X13871Y28611
X13871Y29611
X13871Y30611
X13871Y31611
X13871Y32611
X13871Y33611
X32713Y36363
X33713Y36363
X33713Y37363
X32713Y37363
X34713Y37363
X34713Y36363
T04
X41194Y31690
X41194Y30690
X41194Y29690
X41194Y28690
X41194Y27690
X41194Y26690
X41194Y25690
X41194Y24690
X41194Y23690
X41194Y22690
X23843Y30166
X23843Y31166
T05
X22473Y30111
X22473Y24324
X31961Y24324
X31961Y30111
M30
