G75*
%MOIN*%
%OFA0B0*%
%FSLAX25Y25*%
%IPPOS*%
%LPD*%
%AMOC8*
5,1,8,0,0,1.08239X$1,22.5*
%
%ADD10C,0.01600*%
%ADD11C,0.00500*%
%ADD12C,0.00400*%
%ADD13C,0.00000*%
%ADD14C,0.00472*%
D10*
X0002094Y0024535D02*
X0011937Y0025913D01*
X0025716Y0012134D02*
X0024535Y0002094D01*
X0024535Y0002093D02*
X0025182Y0002010D01*
X0025831Y0001943D01*
X0026482Y0001891D01*
X0027133Y0001856D01*
X0027785Y0001836D01*
X0028438Y0001833D01*
X0029090Y0001845D01*
X0029742Y0001873D01*
X0030393Y0001918D01*
X0031042Y0001978D01*
X0031690Y0002054D01*
X0032336Y0002147D01*
X0032980Y0002255D01*
X0033620Y0002378D01*
X0034258Y0002517D01*
X0034891Y0002672D01*
X0035521Y0002843D01*
X0036147Y0003029D01*
X0036767Y0003230D01*
X0037383Y0003446D01*
X0037993Y0003677D01*
X0038597Y0003923D01*
X0039195Y0004184D01*
X0039787Y0004459D01*
X0040371Y0004749D01*
X0040949Y0005053D01*
X0041518Y0005371D01*
X0042080Y0005703D01*
X0042633Y0006049D01*
X0043178Y0006408D01*
X0043714Y0006781D01*
X0044240Y0007166D01*
X0044757Y0007564D01*
X0045264Y0007975D01*
X0045761Y0008398D01*
X0046247Y0008833D01*
X0046722Y0009280D01*
X0047186Y0009738D01*
X0047639Y0010208D01*
X0048081Y0010689D01*
X0048510Y0011180D01*
X0048927Y0011681D01*
X0049332Y0012193D01*
X0049724Y0012715D01*
X0050103Y0013246D01*
X0050469Y0013786D01*
X0050822Y0014335D01*
X0051161Y0014892D01*
X0051486Y0015457D01*
X0051798Y0016031D01*
X0052095Y0016611D01*
X0052378Y0017199D01*
X0052647Y0017794D01*
X0052900Y0018395D01*
X0053139Y0019002D01*
X0053364Y0019615D01*
X0053572Y0020233D01*
X0053766Y0020856D01*
X0053945Y0021484D01*
X0054108Y0022115D01*
X0054255Y0022751D01*
X0054387Y0023390D01*
X0054503Y0024032D01*
X0054603Y0024677D01*
X0054688Y0025323D01*
X0054757Y0025972D01*
X0054809Y0026623D01*
X0054846Y0027274D01*
X0054867Y0027926D01*
X0054872Y0028579D01*
X0054860Y0029231D01*
X0054833Y0029883D01*
X0054790Y0030534D01*
X0054731Y0031184D01*
X0054656Y0031832D01*
X0054565Y0032478D01*
X0054458Y0033121D01*
X0054336Y0033762D01*
X0054198Y0034400D01*
X0054044Y0035034D01*
X0053875Y0035664D01*
X0053691Y0036290D01*
X0053491Y0036911D01*
X0053276Y0037527D01*
X0053275Y0037527D02*
X0138315Y0122567D01*
X0406031Y0122567D01*
X0491071Y0037527D01*
X0506819Y0053275D02*
X0421779Y0138315D01*
X0421779Y0406031D01*
X0506819Y0491071D01*
X0491071Y0506819D02*
X0406031Y0421779D01*
X0138315Y0421779D01*
X0053275Y0506819D01*
X0037527Y0491071D02*
X0122567Y0406031D01*
X0122567Y0138315D01*
X0037527Y0053275D01*
X0011936Y0025913D02*
X0011878Y0026314D01*
X0011830Y0026716D01*
X0011792Y0027120D01*
X0011764Y0027524D01*
X0011746Y0027929D01*
X0011738Y0028334D01*
X0011739Y0028739D01*
X0011751Y0029144D01*
X0011772Y0029549D01*
X0011803Y0029953D01*
X0011845Y0030356D01*
X0011896Y0030758D01*
X0011957Y0031159D01*
X0012027Y0031558D01*
X0012108Y0031955D01*
X0012198Y0032350D01*
X0012298Y0032743D01*
X0012407Y0033133D01*
X0012526Y0033520D01*
X0012655Y0033904D01*
X0012792Y0034286D01*
X0012940Y0034663D01*
X0013096Y0035037D01*
X0013261Y0035407D01*
X0013436Y0035773D01*
X0013619Y0036134D01*
X0013811Y0036491D01*
X0014012Y0036843D01*
X0014221Y0037190D01*
X0014439Y0037531D01*
X0014665Y0037868D01*
X0014899Y0038198D01*
X0015142Y0038523D01*
X0015392Y0038842D01*
X0015650Y0039154D01*
X0015915Y0039461D01*
X0016188Y0039760D01*
X0016469Y0040053D01*
X0016756Y0040339D01*
X0017050Y0040617D01*
X0017351Y0040889D01*
X0017658Y0041153D01*
X0017972Y0041409D01*
X0018292Y0041657D01*
X0018618Y0041898D01*
X0018950Y0042131D01*
X0019288Y0042355D01*
X0019631Y0042571D01*
X0019979Y0042778D01*
X0020332Y0042977D01*
X0020689Y0043168D01*
X0021052Y0043349D01*
X0021418Y0043522D01*
X0021789Y0043685D01*
X0022164Y0043839D01*
X0022542Y0043985D01*
X0022924Y0044120D01*
X0023309Y0044247D01*
X0023697Y0044364D01*
X0024088Y0044471D01*
X0024481Y0044569D01*
X0024876Y0044657D01*
X0025274Y0044735D01*
X0025673Y0044804D01*
X0026074Y0044863D01*
X0026477Y0044912D01*
X0026880Y0044951D01*
X0027284Y0044980D01*
X0027689Y0045000D01*
X0028094Y0045009D01*
X0028499Y0045008D01*
X0028904Y0044998D01*
X0029309Y0044978D01*
X0029713Y0044947D01*
X0030116Y0044907D01*
X0030518Y0044857D01*
X0030919Y0044797D01*
X0031318Y0044728D01*
X0031716Y0044648D01*
X0032111Y0044559D01*
X0032504Y0044460D01*
X0032894Y0044352D01*
X0033282Y0044234D01*
X0033667Y0044106D01*
X0034048Y0043970D01*
X0034426Y0043824D01*
X0034800Y0043668D01*
X0035171Y0043504D01*
X0035537Y0043330D01*
X0035899Y0043148D01*
X0036256Y0042957D01*
X0036609Y0042757D01*
X0036956Y0042548D01*
X0037298Y0042331D01*
X0037635Y0042106D01*
X0037966Y0041873D01*
X0038292Y0041631D01*
X0038611Y0041382D01*
X0038924Y0041125D01*
X0039231Y0040860D01*
X0039532Y0040588D01*
X0039825Y0040309D01*
X0040112Y0040022D01*
X0040391Y0039729D01*
X0040663Y0039428D01*
X0040928Y0039121D01*
X0041185Y0038808D01*
X0041434Y0038489D01*
X0041676Y0038163D01*
X0041909Y0037832D01*
X0042134Y0037495D01*
X0042351Y0037153D01*
X0042560Y0036806D01*
X0042760Y0036453D01*
X0042951Y0036096D01*
X0043133Y0035734D01*
X0043307Y0035368D01*
X0043471Y0034997D01*
X0043627Y0034623D01*
X0043773Y0034245D01*
X0043909Y0033864D01*
X0044037Y0033479D01*
X0044155Y0033091D01*
X0044263Y0032701D01*
X0044362Y0032308D01*
X0044451Y0031913D01*
X0044531Y0031515D01*
X0044600Y0031116D01*
X0044660Y0030715D01*
X0044710Y0030313D01*
X0044750Y0029910D01*
X0044781Y0029506D01*
X0044801Y0029101D01*
X0044811Y0028696D01*
X0044812Y0028291D01*
X0044803Y0027886D01*
X0044783Y0027481D01*
X0044754Y0027077D01*
X0044715Y0026674D01*
X0044666Y0026271D01*
X0044607Y0025870D01*
X0044538Y0025471D01*
X0044460Y0025073D01*
X0044372Y0024678D01*
X0044274Y0024285D01*
X0044167Y0023894D01*
X0044050Y0023506D01*
X0043923Y0023121D01*
X0043788Y0022739D01*
X0043642Y0022361D01*
X0043488Y0021986D01*
X0043325Y0021615D01*
X0043152Y0021249D01*
X0042971Y0020886D01*
X0042780Y0020529D01*
X0042581Y0020176D01*
X0042374Y0019828D01*
X0042158Y0019485D01*
X0041934Y0019147D01*
X0041701Y0018815D01*
X0041460Y0018489D01*
X0041212Y0018169D01*
X0040956Y0017855D01*
X0040692Y0017548D01*
X0040420Y0017247D01*
X0040142Y0016953D01*
X0039856Y0016666D01*
X0039563Y0016385D01*
X0039264Y0016112D01*
X0038957Y0015847D01*
X0038645Y0015589D01*
X0038326Y0015339D01*
X0038001Y0015096D01*
X0037671Y0014862D01*
X0037334Y0014636D01*
X0036993Y0014418D01*
X0036646Y0014209D01*
X0036294Y0014008D01*
X0035937Y0013816D01*
X0035576Y0013633D01*
X0035210Y0013458D01*
X0034840Y0013293D01*
X0034466Y0013137D01*
X0034089Y0012989D01*
X0033707Y0012852D01*
X0033323Y0012723D01*
X0032936Y0012604D01*
X0032546Y0012495D01*
X0032153Y0012395D01*
X0031758Y0012305D01*
X0031361Y0012224D01*
X0030962Y0012154D01*
X0030561Y0012093D01*
X0030159Y0012042D01*
X0029756Y0012000D01*
X0029352Y0011969D01*
X0028947Y0011948D01*
X0028542Y0011936D01*
X0028137Y0011935D01*
X0027732Y0011943D01*
X0027327Y0011961D01*
X0026923Y0011989D01*
X0026519Y0012027D01*
X0026117Y0012075D01*
X0025716Y0012133D01*
X0002094Y0024535D02*
X0002006Y0025176D01*
X0001933Y0025819D01*
X0001876Y0026463D01*
X0001835Y0027109D01*
X0001810Y0027755D01*
X0001800Y0028402D01*
X0001806Y0029049D01*
X0001828Y0029695D01*
X0001866Y0030341D01*
X0001920Y0030986D01*
X0001989Y0031629D01*
X0002074Y0032270D01*
X0002175Y0032909D01*
X0002291Y0033546D01*
X0002423Y0034179D01*
X0002570Y0034809D01*
X0002732Y0035435D01*
X0002910Y0036057D01*
X0003103Y0036675D01*
X0003311Y0037287D01*
X0003534Y0037895D01*
X0003772Y0038496D01*
X0004024Y0039092D01*
X0004291Y0039681D01*
X0004572Y0040264D01*
X0004867Y0040840D01*
X0005176Y0041408D01*
X0005499Y0041968D01*
X0005836Y0042521D01*
X0006186Y0043065D01*
X0006549Y0043600D01*
X0006925Y0044126D01*
X0007314Y0044643D01*
X0007715Y0045151D01*
X0008129Y0045648D01*
X0008555Y0046135D01*
X0008992Y0046612D01*
X0009441Y0047077D01*
X0009901Y0047532D01*
X0010373Y0047975D01*
X0010855Y0048407D01*
X0011347Y0048827D01*
X0011849Y0049234D01*
X0012362Y0049629D01*
X0012883Y0050012D01*
X0013414Y0050381D01*
X0013954Y0050738D01*
X0014502Y0051081D01*
X0015059Y0051411D01*
X0015623Y0051727D01*
X0016195Y0052029D01*
X0016775Y0052317D01*
X0017361Y0052591D01*
X0017953Y0052850D01*
X0018552Y0053095D01*
X0019157Y0053325D01*
X0019767Y0053541D01*
X0020382Y0053741D01*
X0021002Y0053927D01*
X0021626Y0054097D01*
X0022254Y0054251D01*
X0022885Y0054391D01*
X0023520Y0054515D01*
X0024158Y0054623D01*
X0024798Y0054716D01*
X0025441Y0054793D01*
X0026085Y0054854D01*
X0026730Y0054900D01*
X0027376Y0054930D01*
X0028023Y0054944D01*
X0028670Y0054942D01*
X0029317Y0054924D01*
X0029963Y0054891D01*
X0030608Y0054842D01*
X0031251Y0054777D01*
X0031893Y0054696D01*
X0032533Y0054600D01*
X0033170Y0054488D01*
X0033804Y0054361D01*
X0034435Y0054218D01*
X0035062Y0054060D01*
X0035686Y0053886D01*
X0036304Y0053698D01*
X0036918Y0053494D01*
X0037527Y0053275D01*
X0012133Y0518630D02*
X0012075Y0518229D01*
X0012027Y0517827D01*
X0011989Y0517423D01*
X0011961Y0517019D01*
X0011943Y0516614D01*
X0011935Y0516209D01*
X0011936Y0515804D01*
X0011948Y0515399D01*
X0011969Y0514994D01*
X0012000Y0514590D01*
X0012042Y0514187D01*
X0012093Y0513785D01*
X0012154Y0513384D01*
X0012224Y0512985D01*
X0012305Y0512588D01*
X0012395Y0512193D01*
X0012495Y0511800D01*
X0012604Y0511410D01*
X0012723Y0511023D01*
X0012852Y0510639D01*
X0012989Y0510257D01*
X0013137Y0509880D01*
X0013293Y0509506D01*
X0013458Y0509136D01*
X0013633Y0508770D01*
X0013816Y0508409D01*
X0014008Y0508052D01*
X0014209Y0507700D01*
X0014418Y0507353D01*
X0014636Y0507012D01*
X0014862Y0506675D01*
X0015096Y0506345D01*
X0015339Y0506020D01*
X0015589Y0505701D01*
X0015847Y0505389D01*
X0016112Y0505082D01*
X0016385Y0504783D01*
X0016666Y0504490D01*
X0016953Y0504204D01*
X0017247Y0503926D01*
X0017548Y0503654D01*
X0017855Y0503390D01*
X0018169Y0503134D01*
X0018489Y0502886D01*
X0018815Y0502645D01*
X0019147Y0502412D01*
X0019485Y0502188D01*
X0019828Y0501972D01*
X0020176Y0501765D01*
X0020529Y0501566D01*
X0020886Y0501375D01*
X0021249Y0501194D01*
X0021615Y0501021D01*
X0021986Y0500858D01*
X0022361Y0500704D01*
X0022739Y0500558D01*
X0023121Y0500423D01*
X0023506Y0500296D01*
X0023894Y0500179D01*
X0024285Y0500072D01*
X0024678Y0499974D01*
X0025073Y0499886D01*
X0025471Y0499808D01*
X0025870Y0499739D01*
X0026271Y0499680D01*
X0026674Y0499631D01*
X0027077Y0499592D01*
X0027481Y0499563D01*
X0027886Y0499543D01*
X0028291Y0499534D01*
X0028696Y0499535D01*
X0029101Y0499545D01*
X0029506Y0499565D01*
X0029910Y0499596D01*
X0030313Y0499636D01*
X0030715Y0499686D01*
X0031116Y0499746D01*
X0031515Y0499815D01*
X0031913Y0499895D01*
X0032308Y0499984D01*
X0032701Y0500083D01*
X0033091Y0500191D01*
X0033479Y0500309D01*
X0033864Y0500437D01*
X0034245Y0500573D01*
X0034623Y0500719D01*
X0034997Y0500875D01*
X0035368Y0501039D01*
X0035734Y0501213D01*
X0036096Y0501395D01*
X0036453Y0501586D01*
X0036806Y0501786D01*
X0037153Y0501995D01*
X0037495Y0502212D01*
X0037832Y0502437D01*
X0038163Y0502670D01*
X0038489Y0502912D01*
X0038808Y0503161D01*
X0039121Y0503418D01*
X0039428Y0503683D01*
X0039729Y0503955D01*
X0040022Y0504234D01*
X0040309Y0504521D01*
X0040588Y0504814D01*
X0040860Y0505115D01*
X0041125Y0505422D01*
X0041382Y0505735D01*
X0041631Y0506054D01*
X0041873Y0506380D01*
X0042106Y0506711D01*
X0042331Y0507048D01*
X0042548Y0507390D01*
X0042757Y0507737D01*
X0042957Y0508090D01*
X0043148Y0508447D01*
X0043330Y0508809D01*
X0043504Y0509175D01*
X0043668Y0509546D01*
X0043824Y0509920D01*
X0043970Y0510298D01*
X0044106Y0510679D01*
X0044234Y0511064D01*
X0044352Y0511452D01*
X0044460Y0511842D01*
X0044559Y0512235D01*
X0044648Y0512630D01*
X0044728Y0513028D01*
X0044797Y0513427D01*
X0044857Y0513828D01*
X0044907Y0514230D01*
X0044947Y0514633D01*
X0044978Y0515037D01*
X0044998Y0515442D01*
X0045008Y0515847D01*
X0045009Y0516252D01*
X0045000Y0516657D01*
X0044980Y0517062D01*
X0044951Y0517466D01*
X0044912Y0517869D01*
X0044863Y0518272D01*
X0044804Y0518673D01*
X0044735Y0519072D01*
X0044657Y0519470D01*
X0044569Y0519865D01*
X0044471Y0520258D01*
X0044364Y0520649D01*
X0044247Y0521037D01*
X0044120Y0521422D01*
X0043985Y0521804D01*
X0043839Y0522182D01*
X0043685Y0522557D01*
X0043522Y0522928D01*
X0043349Y0523294D01*
X0043168Y0523657D01*
X0042977Y0524014D01*
X0042778Y0524367D01*
X0042571Y0524715D01*
X0042355Y0525058D01*
X0042131Y0525396D01*
X0041898Y0525728D01*
X0041657Y0526054D01*
X0041409Y0526374D01*
X0041153Y0526688D01*
X0040889Y0526995D01*
X0040617Y0527296D01*
X0040339Y0527590D01*
X0040053Y0527877D01*
X0039760Y0528158D01*
X0039461Y0528431D01*
X0039154Y0528696D01*
X0038842Y0528954D01*
X0038523Y0529204D01*
X0038198Y0529447D01*
X0037868Y0529681D01*
X0037531Y0529907D01*
X0037190Y0530125D01*
X0036843Y0530334D01*
X0036491Y0530535D01*
X0036134Y0530727D01*
X0035773Y0530910D01*
X0035407Y0531085D01*
X0035037Y0531250D01*
X0034663Y0531406D01*
X0034286Y0531554D01*
X0033904Y0531691D01*
X0033520Y0531820D01*
X0033133Y0531939D01*
X0032743Y0532048D01*
X0032350Y0532148D01*
X0031955Y0532238D01*
X0031558Y0532319D01*
X0031159Y0532389D01*
X0030758Y0532450D01*
X0030356Y0532501D01*
X0029953Y0532543D01*
X0029549Y0532574D01*
X0029144Y0532595D01*
X0028739Y0532607D01*
X0028334Y0532608D01*
X0027929Y0532600D01*
X0027524Y0532582D01*
X0027120Y0532554D01*
X0026716Y0532516D01*
X0026314Y0532468D01*
X0025913Y0532410D01*
X0025913Y0532409D02*
X0024535Y0542252D01*
X0012134Y0518630D02*
X0002094Y0519811D01*
X0002093Y0519811D02*
X0002010Y0519164D01*
X0001943Y0518515D01*
X0001891Y0517864D01*
X0001856Y0517213D01*
X0001836Y0516561D01*
X0001833Y0515908D01*
X0001845Y0515256D01*
X0001873Y0514604D01*
X0001918Y0513953D01*
X0001978Y0513304D01*
X0002054Y0512656D01*
X0002147Y0512010D01*
X0002255Y0511366D01*
X0002378Y0510726D01*
X0002517Y0510088D01*
X0002672Y0509455D01*
X0002843Y0508825D01*
X0003029Y0508199D01*
X0003230Y0507579D01*
X0003446Y0506963D01*
X0003677Y0506353D01*
X0003923Y0505749D01*
X0004184Y0505151D01*
X0004459Y0504559D01*
X0004749Y0503975D01*
X0005053Y0503397D01*
X0005371Y0502828D01*
X0005703Y0502266D01*
X0006049Y0501713D01*
X0006408Y0501168D01*
X0006781Y0500632D01*
X0007166Y0500106D01*
X0007564Y0499589D01*
X0007975Y0499082D01*
X0008398Y0498585D01*
X0008833Y0498099D01*
X0009280Y0497624D01*
X0009738Y0497160D01*
X0010208Y0496707D01*
X0010689Y0496265D01*
X0011180Y0495836D01*
X0011681Y0495419D01*
X0012193Y0495014D01*
X0012715Y0494622D01*
X0013246Y0494243D01*
X0013786Y0493877D01*
X0014335Y0493524D01*
X0014892Y0493185D01*
X0015457Y0492860D01*
X0016031Y0492548D01*
X0016611Y0492251D01*
X0017199Y0491968D01*
X0017794Y0491699D01*
X0018395Y0491446D01*
X0019002Y0491207D01*
X0019615Y0490982D01*
X0020233Y0490774D01*
X0020856Y0490580D01*
X0021484Y0490401D01*
X0022115Y0490238D01*
X0022751Y0490091D01*
X0023390Y0489959D01*
X0024032Y0489843D01*
X0024677Y0489743D01*
X0025323Y0489658D01*
X0025972Y0489589D01*
X0026623Y0489537D01*
X0027274Y0489500D01*
X0027926Y0489479D01*
X0028579Y0489474D01*
X0029231Y0489486D01*
X0029883Y0489513D01*
X0030534Y0489556D01*
X0031184Y0489615D01*
X0031832Y0489690D01*
X0032478Y0489781D01*
X0033121Y0489888D01*
X0033762Y0490010D01*
X0034400Y0490148D01*
X0035034Y0490302D01*
X0035664Y0490471D01*
X0036290Y0490655D01*
X0036911Y0490855D01*
X0037527Y0491070D01*
X0053275Y0506819D02*
X0053494Y0507428D01*
X0053698Y0508042D01*
X0053886Y0508660D01*
X0054060Y0509284D01*
X0054218Y0509911D01*
X0054361Y0510542D01*
X0054488Y0511176D01*
X0054600Y0511813D01*
X0054696Y0512453D01*
X0054777Y0513095D01*
X0054842Y0513738D01*
X0054891Y0514383D01*
X0054924Y0515029D01*
X0054942Y0515676D01*
X0054944Y0516323D01*
X0054930Y0516970D01*
X0054900Y0517616D01*
X0054854Y0518261D01*
X0054793Y0518905D01*
X0054716Y0519548D01*
X0054623Y0520188D01*
X0054515Y0520826D01*
X0054391Y0521461D01*
X0054251Y0522092D01*
X0054097Y0522720D01*
X0053927Y0523344D01*
X0053741Y0523964D01*
X0053541Y0524579D01*
X0053325Y0525189D01*
X0053095Y0525794D01*
X0052850Y0526393D01*
X0052591Y0526985D01*
X0052317Y0527571D01*
X0052029Y0528151D01*
X0051727Y0528723D01*
X0051411Y0529287D01*
X0051081Y0529844D01*
X0050738Y0530392D01*
X0050381Y0530932D01*
X0050012Y0531463D01*
X0049629Y0531984D01*
X0049234Y0532497D01*
X0048827Y0532999D01*
X0048407Y0533491D01*
X0047975Y0533973D01*
X0047532Y0534445D01*
X0047077Y0534905D01*
X0046612Y0535354D01*
X0046135Y0535791D01*
X0045648Y0536217D01*
X0045151Y0536631D01*
X0044643Y0537032D01*
X0044126Y0537421D01*
X0043600Y0537797D01*
X0043065Y0538160D01*
X0042521Y0538510D01*
X0041968Y0538847D01*
X0041408Y0539170D01*
X0040840Y0539479D01*
X0040264Y0539774D01*
X0039681Y0540055D01*
X0039092Y0540322D01*
X0038496Y0540574D01*
X0037895Y0540812D01*
X0037287Y0541035D01*
X0036675Y0541243D01*
X0036057Y0541436D01*
X0035435Y0541614D01*
X0034809Y0541776D01*
X0034179Y0541923D01*
X0033546Y0542055D01*
X0032909Y0542171D01*
X0032270Y0542272D01*
X0031629Y0542357D01*
X0030986Y0542426D01*
X0030341Y0542480D01*
X0029695Y0542518D01*
X0029049Y0542540D01*
X0028402Y0542546D01*
X0027755Y0542536D01*
X0027109Y0542511D01*
X0026463Y0542470D01*
X0025819Y0542413D01*
X0025176Y0542340D01*
X0024535Y0542252D01*
X0518630Y0532213D02*
X0518229Y0532271D01*
X0517827Y0532319D01*
X0517423Y0532357D01*
X0517019Y0532385D01*
X0516614Y0532403D01*
X0516209Y0532411D01*
X0515804Y0532410D01*
X0515399Y0532398D01*
X0514994Y0532377D01*
X0514590Y0532346D01*
X0514187Y0532304D01*
X0513785Y0532253D01*
X0513384Y0532192D01*
X0512985Y0532122D01*
X0512588Y0532041D01*
X0512193Y0531951D01*
X0511800Y0531851D01*
X0511410Y0531742D01*
X0511023Y0531623D01*
X0510639Y0531494D01*
X0510257Y0531357D01*
X0509880Y0531209D01*
X0509506Y0531053D01*
X0509136Y0530888D01*
X0508770Y0530713D01*
X0508409Y0530530D01*
X0508052Y0530338D01*
X0507700Y0530137D01*
X0507353Y0529928D01*
X0507012Y0529710D01*
X0506675Y0529484D01*
X0506345Y0529250D01*
X0506020Y0529007D01*
X0505701Y0528757D01*
X0505389Y0528499D01*
X0505082Y0528234D01*
X0504783Y0527961D01*
X0504490Y0527680D01*
X0504204Y0527393D01*
X0503926Y0527099D01*
X0503654Y0526798D01*
X0503390Y0526491D01*
X0503134Y0526177D01*
X0502886Y0525857D01*
X0502645Y0525531D01*
X0502412Y0525199D01*
X0502188Y0524861D01*
X0501972Y0524518D01*
X0501765Y0524170D01*
X0501566Y0523817D01*
X0501375Y0523460D01*
X0501194Y0523097D01*
X0501021Y0522731D01*
X0500858Y0522360D01*
X0500704Y0521985D01*
X0500558Y0521607D01*
X0500423Y0521225D01*
X0500296Y0520840D01*
X0500179Y0520452D01*
X0500072Y0520061D01*
X0499974Y0519668D01*
X0499886Y0519273D01*
X0499808Y0518875D01*
X0499739Y0518476D01*
X0499680Y0518075D01*
X0499631Y0517672D01*
X0499592Y0517269D01*
X0499563Y0516865D01*
X0499543Y0516460D01*
X0499534Y0516055D01*
X0499535Y0515650D01*
X0499545Y0515245D01*
X0499565Y0514840D01*
X0499596Y0514436D01*
X0499636Y0514033D01*
X0499686Y0513631D01*
X0499746Y0513230D01*
X0499815Y0512831D01*
X0499895Y0512433D01*
X0499984Y0512038D01*
X0500083Y0511645D01*
X0500191Y0511255D01*
X0500309Y0510867D01*
X0500437Y0510482D01*
X0500573Y0510101D01*
X0500719Y0509723D01*
X0500875Y0509349D01*
X0501039Y0508978D01*
X0501213Y0508612D01*
X0501395Y0508250D01*
X0501586Y0507893D01*
X0501786Y0507540D01*
X0501995Y0507193D01*
X0502212Y0506851D01*
X0502437Y0506514D01*
X0502670Y0506183D01*
X0502912Y0505857D01*
X0503161Y0505538D01*
X0503418Y0505225D01*
X0503683Y0504918D01*
X0503955Y0504617D01*
X0504234Y0504324D01*
X0504521Y0504037D01*
X0504814Y0503758D01*
X0505115Y0503486D01*
X0505422Y0503221D01*
X0505735Y0502964D01*
X0506054Y0502715D01*
X0506380Y0502473D01*
X0506711Y0502240D01*
X0507048Y0502015D01*
X0507390Y0501798D01*
X0507737Y0501589D01*
X0508090Y0501389D01*
X0508447Y0501198D01*
X0508809Y0501016D01*
X0509175Y0500842D01*
X0509546Y0500678D01*
X0509920Y0500522D01*
X0510298Y0500376D01*
X0510679Y0500240D01*
X0511064Y0500112D01*
X0511452Y0499994D01*
X0511842Y0499886D01*
X0512235Y0499787D01*
X0512630Y0499698D01*
X0513028Y0499618D01*
X0513427Y0499549D01*
X0513828Y0499489D01*
X0514230Y0499439D01*
X0514633Y0499399D01*
X0515037Y0499368D01*
X0515442Y0499348D01*
X0515847Y0499338D01*
X0516252Y0499337D01*
X0516657Y0499346D01*
X0517062Y0499366D01*
X0517466Y0499395D01*
X0517869Y0499434D01*
X0518272Y0499483D01*
X0518673Y0499542D01*
X0519072Y0499611D01*
X0519470Y0499689D01*
X0519865Y0499777D01*
X0520258Y0499875D01*
X0520649Y0499982D01*
X0521037Y0500099D01*
X0521422Y0500226D01*
X0521804Y0500361D01*
X0522182Y0500507D01*
X0522557Y0500661D01*
X0522928Y0500824D01*
X0523294Y0500997D01*
X0523657Y0501178D01*
X0524014Y0501369D01*
X0524367Y0501568D01*
X0524715Y0501775D01*
X0525058Y0501991D01*
X0525396Y0502215D01*
X0525728Y0502448D01*
X0526054Y0502689D01*
X0526374Y0502937D01*
X0526688Y0503193D01*
X0526995Y0503457D01*
X0527296Y0503729D01*
X0527590Y0504007D01*
X0527877Y0504293D01*
X0528158Y0504586D01*
X0528431Y0504885D01*
X0528696Y0505192D01*
X0528954Y0505504D01*
X0529204Y0505823D01*
X0529447Y0506148D01*
X0529681Y0506478D01*
X0529907Y0506815D01*
X0530125Y0507156D01*
X0530334Y0507503D01*
X0530535Y0507855D01*
X0530727Y0508212D01*
X0530910Y0508573D01*
X0531085Y0508939D01*
X0531250Y0509309D01*
X0531406Y0509683D01*
X0531554Y0510060D01*
X0531691Y0510442D01*
X0531820Y0510826D01*
X0531939Y0511213D01*
X0532048Y0511603D01*
X0532148Y0511996D01*
X0532238Y0512391D01*
X0532319Y0512788D01*
X0532389Y0513187D01*
X0532450Y0513588D01*
X0532501Y0513990D01*
X0532543Y0514393D01*
X0532574Y0514797D01*
X0532595Y0515202D01*
X0532607Y0515607D01*
X0532608Y0516012D01*
X0532600Y0516417D01*
X0532582Y0516822D01*
X0532554Y0517226D01*
X0532516Y0517630D01*
X0532468Y0518032D01*
X0532410Y0518433D01*
X0532409Y0518433D02*
X0542252Y0519811D01*
X0518630Y0532212D02*
X0519811Y0542252D01*
X0519164Y0542335D01*
X0518515Y0542402D01*
X0517864Y0542454D01*
X0517213Y0542489D01*
X0516561Y0542509D01*
X0515908Y0542512D01*
X0515256Y0542500D01*
X0514604Y0542472D01*
X0513953Y0542427D01*
X0513304Y0542367D01*
X0512656Y0542291D01*
X0512010Y0542198D01*
X0511366Y0542090D01*
X0510726Y0541967D01*
X0510088Y0541828D01*
X0509455Y0541673D01*
X0508825Y0541502D01*
X0508199Y0541316D01*
X0507579Y0541115D01*
X0506963Y0540899D01*
X0506353Y0540668D01*
X0505749Y0540422D01*
X0505151Y0540161D01*
X0504559Y0539886D01*
X0503975Y0539596D01*
X0503397Y0539292D01*
X0502828Y0538974D01*
X0502266Y0538642D01*
X0501713Y0538296D01*
X0501168Y0537937D01*
X0500632Y0537564D01*
X0500106Y0537179D01*
X0499589Y0536781D01*
X0499082Y0536370D01*
X0498585Y0535947D01*
X0498099Y0535512D01*
X0497624Y0535065D01*
X0497160Y0534607D01*
X0496707Y0534137D01*
X0496265Y0533656D01*
X0495836Y0533165D01*
X0495419Y0532664D01*
X0495014Y0532152D01*
X0494622Y0531630D01*
X0494243Y0531099D01*
X0493877Y0530559D01*
X0493524Y0530010D01*
X0493185Y0529453D01*
X0492860Y0528888D01*
X0492548Y0528314D01*
X0492251Y0527734D01*
X0491968Y0527146D01*
X0491699Y0526551D01*
X0491446Y0525950D01*
X0491207Y0525343D01*
X0490982Y0524730D01*
X0490774Y0524112D01*
X0490580Y0523489D01*
X0490401Y0522861D01*
X0490238Y0522230D01*
X0490091Y0521594D01*
X0489959Y0520955D01*
X0489843Y0520313D01*
X0489743Y0519668D01*
X0489658Y0519022D01*
X0489589Y0518373D01*
X0489537Y0517722D01*
X0489500Y0517071D01*
X0489479Y0516419D01*
X0489474Y0515766D01*
X0489486Y0515114D01*
X0489513Y0514462D01*
X0489556Y0513811D01*
X0489615Y0513161D01*
X0489690Y0512513D01*
X0489781Y0511867D01*
X0489888Y0511224D01*
X0490010Y0510583D01*
X0490148Y0509945D01*
X0490302Y0509311D01*
X0490471Y0508681D01*
X0490655Y0508055D01*
X0490855Y0507434D01*
X0491070Y0506818D01*
X0506819Y0491071D02*
X0507428Y0490852D01*
X0508042Y0490648D01*
X0508660Y0490460D01*
X0509284Y0490286D01*
X0509911Y0490128D01*
X0510542Y0489985D01*
X0511176Y0489858D01*
X0511813Y0489746D01*
X0512453Y0489650D01*
X0513095Y0489569D01*
X0513738Y0489504D01*
X0514383Y0489455D01*
X0515029Y0489422D01*
X0515676Y0489404D01*
X0516323Y0489402D01*
X0516970Y0489416D01*
X0517616Y0489446D01*
X0518261Y0489492D01*
X0518905Y0489553D01*
X0519548Y0489630D01*
X0520188Y0489723D01*
X0520826Y0489831D01*
X0521461Y0489955D01*
X0522092Y0490095D01*
X0522720Y0490249D01*
X0523344Y0490419D01*
X0523964Y0490605D01*
X0524579Y0490805D01*
X0525189Y0491021D01*
X0525794Y0491251D01*
X0526393Y0491496D01*
X0526985Y0491755D01*
X0527571Y0492029D01*
X0528151Y0492317D01*
X0528723Y0492619D01*
X0529287Y0492935D01*
X0529844Y0493265D01*
X0530392Y0493608D01*
X0530932Y0493965D01*
X0531463Y0494334D01*
X0531984Y0494717D01*
X0532497Y0495112D01*
X0532999Y0495519D01*
X0533491Y0495939D01*
X0533973Y0496371D01*
X0534445Y0496814D01*
X0534905Y0497269D01*
X0535354Y0497734D01*
X0535791Y0498211D01*
X0536217Y0498698D01*
X0536631Y0499195D01*
X0537032Y0499703D01*
X0537421Y0500220D01*
X0537797Y0500746D01*
X0538160Y0501281D01*
X0538510Y0501825D01*
X0538847Y0502378D01*
X0539170Y0502938D01*
X0539479Y0503506D01*
X0539774Y0504082D01*
X0540055Y0504665D01*
X0540322Y0505254D01*
X0540574Y0505850D01*
X0540812Y0506451D01*
X0541035Y0507059D01*
X0541243Y0507671D01*
X0541436Y0508289D01*
X0541614Y0508911D01*
X0541776Y0509537D01*
X0541923Y0510167D01*
X0542055Y0510800D01*
X0542171Y0511437D01*
X0542272Y0512076D01*
X0542357Y0512717D01*
X0542426Y0513360D01*
X0542480Y0514005D01*
X0542518Y0514651D01*
X0542540Y0515297D01*
X0542546Y0515944D01*
X0542536Y0516591D01*
X0542511Y0517237D01*
X0542470Y0517883D01*
X0542413Y0518527D01*
X0542340Y0519170D01*
X0542252Y0519811D01*
X0532213Y0025716D02*
X0532271Y0026117D01*
X0532319Y0026519D01*
X0532357Y0026923D01*
X0532385Y0027327D01*
X0532403Y0027732D01*
X0532411Y0028137D01*
X0532410Y0028542D01*
X0532398Y0028947D01*
X0532377Y0029352D01*
X0532346Y0029756D01*
X0532304Y0030159D01*
X0532253Y0030561D01*
X0532192Y0030962D01*
X0532122Y0031361D01*
X0532041Y0031758D01*
X0531951Y0032153D01*
X0531851Y0032546D01*
X0531742Y0032936D01*
X0531623Y0033323D01*
X0531494Y0033707D01*
X0531357Y0034089D01*
X0531209Y0034466D01*
X0531053Y0034840D01*
X0530888Y0035210D01*
X0530713Y0035576D01*
X0530530Y0035937D01*
X0530338Y0036294D01*
X0530137Y0036646D01*
X0529928Y0036993D01*
X0529710Y0037334D01*
X0529484Y0037671D01*
X0529250Y0038001D01*
X0529007Y0038326D01*
X0528757Y0038645D01*
X0528499Y0038957D01*
X0528234Y0039264D01*
X0527961Y0039563D01*
X0527680Y0039856D01*
X0527393Y0040142D01*
X0527099Y0040420D01*
X0526798Y0040692D01*
X0526491Y0040956D01*
X0526177Y0041212D01*
X0525857Y0041460D01*
X0525531Y0041701D01*
X0525199Y0041934D01*
X0524861Y0042158D01*
X0524518Y0042374D01*
X0524170Y0042581D01*
X0523817Y0042780D01*
X0523460Y0042971D01*
X0523097Y0043152D01*
X0522731Y0043325D01*
X0522360Y0043488D01*
X0521985Y0043642D01*
X0521607Y0043788D01*
X0521225Y0043923D01*
X0520840Y0044050D01*
X0520452Y0044167D01*
X0520061Y0044274D01*
X0519668Y0044372D01*
X0519273Y0044460D01*
X0518875Y0044538D01*
X0518476Y0044607D01*
X0518075Y0044666D01*
X0517672Y0044715D01*
X0517269Y0044754D01*
X0516865Y0044783D01*
X0516460Y0044803D01*
X0516055Y0044812D01*
X0515650Y0044811D01*
X0515245Y0044801D01*
X0514840Y0044781D01*
X0514436Y0044750D01*
X0514033Y0044710D01*
X0513631Y0044660D01*
X0513230Y0044600D01*
X0512831Y0044531D01*
X0512433Y0044451D01*
X0512038Y0044362D01*
X0511645Y0044263D01*
X0511255Y0044155D01*
X0510867Y0044037D01*
X0510482Y0043909D01*
X0510101Y0043773D01*
X0509723Y0043627D01*
X0509349Y0043471D01*
X0508978Y0043307D01*
X0508612Y0043133D01*
X0508250Y0042951D01*
X0507893Y0042760D01*
X0507540Y0042560D01*
X0507193Y0042351D01*
X0506851Y0042134D01*
X0506514Y0041909D01*
X0506183Y0041676D01*
X0505857Y0041434D01*
X0505538Y0041185D01*
X0505225Y0040928D01*
X0504918Y0040663D01*
X0504617Y0040391D01*
X0504324Y0040112D01*
X0504037Y0039825D01*
X0503758Y0039532D01*
X0503486Y0039231D01*
X0503221Y0038924D01*
X0502964Y0038611D01*
X0502715Y0038292D01*
X0502473Y0037966D01*
X0502240Y0037635D01*
X0502015Y0037298D01*
X0501798Y0036956D01*
X0501589Y0036609D01*
X0501389Y0036256D01*
X0501198Y0035899D01*
X0501016Y0035537D01*
X0500842Y0035171D01*
X0500678Y0034800D01*
X0500522Y0034426D01*
X0500376Y0034048D01*
X0500240Y0033667D01*
X0500112Y0033282D01*
X0499994Y0032894D01*
X0499886Y0032504D01*
X0499787Y0032111D01*
X0499698Y0031716D01*
X0499618Y0031318D01*
X0499549Y0030919D01*
X0499489Y0030518D01*
X0499439Y0030116D01*
X0499399Y0029713D01*
X0499368Y0029309D01*
X0499348Y0028904D01*
X0499338Y0028499D01*
X0499337Y0028094D01*
X0499346Y0027689D01*
X0499366Y0027284D01*
X0499395Y0026880D01*
X0499434Y0026477D01*
X0499483Y0026074D01*
X0499542Y0025673D01*
X0499611Y0025274D01*
X0499689Y0024876D01*
X0499777Y0024481D01*
X0499875Y0024088D01*
X0499982Y0023697D01*
X0500099Y0023309D01*
X0500226Y0022924D01*
X0500361Y0022542D01*
X0500507Y0022164D01*
X0500661Y0021789D01*
X0500824Y0021418D01*
X0500997Y0021052D01*
X0501178Y0020689D01*
X0501369Y0020332D01*
X0501568Y0019979D01*
X0501775Y0019631D01*
X0501991Y0019288D01*
X0502215Y0018950D01*
X0502448Y0018618D01*
X0502689Y0018292D01*
X0502937Y0017972D01*
X0503193Y0017658D01*
X0503457Y0017351D01*
X0503729Y0017050D01*
X0504007Y0016756D01*
X0504293Y0016469D01*
X0504586Y0016188D01*
X0504885Y0015915D01*
X0505192Y0015650D01*
X0505504Y0015392D01*
X0505823Y0015142D01*
X0506148Y0014899D01*
X0506478Y0014665D01*
X0506815Y0014439D01*
X0507156Y0014221D01*
X0507503Y0014012D01*
X0507855Y0013811D01*
X0508212Y0013619D01*
X0508573Y0013436D01*
X0508939Y0013261D01*
X0509309Y0013096D01*
X0509683Y0012940D01*
X0510060Y0012792D01*
X0510442Y0012655D01*
X0510826Y0012526D01*
X0511213Y0012407D01*
X0511603Y0012298D01*
X0511996Y0012198D01*
X0512391Y0012108D01*
X0512788Y0012027D01*
X0513187Y0011957D01*
X0513588Y0011896D01*
X0513990Y0011845D01*
X0514393Y0011803D01*
X0514797Y0011772D01*
X0515202Y0011751D01*
X0515607Y0011739D01*
X0516012Y0011738D01*
X0516417Y0011746D01*
X0516822Y0011764D01*
X0517226Y0011792D01*
X0517630Y0011830D01*
X0518032Y0011878D01*
X0518433Y0011936D01*
X0518433Y0011937D02*
X0519811Y0002094D01*
X0532212Y0025716D02*
X0542252Y0024535D01*
X0542335Y0025182D01*
X0542402Y0025831D01*
X0542454Y0026482D01*
X0542489Y0027133D01*
X0542509Y0027785D01*
X0542512Y0028438D01*
X0542500Y0029090D01*
X0542472Y0029742D01*
X0542427Y0030393D01*
X0542367Y0031042D01*
X0542291Y0031690D01*
X0542198Y0032336D01*
X0542090Y0032980D01*
X0541967Y0033620D01*
X0541828Y0034258D01*
X0541673Y0034891D01*
X0541502Y0035521D01*
X0541316Y0036147D01*
X0541115Y0036767D01*
X0540899Y0037383D01*
X0540668Y0037993D01*
X0540422Y0038597D01*
X0540161Y0039195D01*
X0539886Y0039787D01*
X0539596Y0040371D01*
X0539292Y0040949D01*
X0538974Y0041518D01*
X0538642Y0042080D01*
X0538296Y0042633D01*
X0537937Y0043178D01*
X0537564Y0043714D01*
X0537179Y0044240D01*
X0536781Y0044757D01*
X0536370Y0045264D01*
X0535947Y0045761D01*
X0535512Y0046247D01*
X0535065Y0046722D01*
X0534607Y0047186D01*
X0534137Y0047639D01*
X0533656Y0048081D01*
X0533165Y0048510D01*
X0532664Y0048927D01*
X0532152Y0049332D01*
X0531630Y0049724D01*
X0531099Y0050103D01*
X0530559Y0050469D01*
X0530010Y0050822D01*
X0529453Y0051161D01*
X0528888Y0051486D01*
X0528314Y0051798D01*
X0527734Y0052095D01*
X0527146Y0052378D01*
X0526551Y0052647D01*
X0525950Y0052900D01*
X0525343Y0053139D01*
X0524730Y0053364D01*
X0524112Y0053572D01*
X0523489Y0053766D01*
X0522861Y0053945D01*
X0522230Y0054108D01*
X0521594Y0054255D01*
X0520955Y0054387D01*
X0520313Y0054503D01*
X0519668Y0054603D01*
X0519022Y0054688D01*
X0518373Y0054757D01*
X0517722Y0054809D01*
X0517071Y0054846D01*
X0516419Y0054867D01*
X0515766Y0054872D01*
X0515114Y0054860D01*
X0514462Y0054833D01*
X0513811Y0054790D01*
X0513161Y0054731D01*
X0512513Y0054656D01*
X0511867Y0054565D01*
X0511224Y0054458D01*
X0510583Y0054336D01*
X0509945Y0054198D01*
X0509311Y0054044D01*
X0508681Y0053875D01*
X0508055Y0053691D01*
X0507434Y0053491D01*
X0506818Y0053276D01*
X0491071Y0037527D02*
X0490852Y0036918D01*
X0490648Y0036304D01*
X0490460Y0035686D01*
X0490286Y0035062D01*
X0490128Y0034435D01*
X0489985Y0033804D01*
X0489858Y0033170D01*
X0489746Y0032533D01*
X0489650Y0031893D01*
X0489569Y0031251D01*
X0489504Y0030608D01*
X0489455Y0029963D01*
X0489422Y0029317D01*
X0489404Y0028670D01*
X0489402Y0028023D01*
X0489416Y0027376D01*
X0489446Y0026730D01*
X0489492Y0026085D01*
X0489553Y0025441D01*
X0489630Y0024798D01*
X0489723Y0024158D01*
X0489831Y0023520D01*
X0489955Y0022885D01*
X0490095Y0022254D01*
X0490249Y0021626D01*
X0490419Y0021002D01*
X0490605Y0020382D01*
X0490805Y0019767D01*
X0491021Y0019157D01*
X0491251Y0018552D01*
X0491496Y0017953D01*
X0491755Y0017361D01*
X0492029Y0016775D01*
X0492317Y0016195D01*
X0492619Y0015623D01*
X0492935Y0015059D01*
X0493265Y0014502D01*
X0493608Y0013954D01*
X0493965Y0013414D01*
X0494334Y0012883D01*
X0494717Y0012362D01*
X0495112Y0011849D01*
X0495519Y0011347D01*
X0495939Y0010855D01*
X0496371Y0010373D01*
X0496814Y0009901D01*
X0497269Y0009441D01*
X0497734Y0008992D01*
X0498211Y0008555D01*
X0498698Y0008129D01*
X0499195Y0007715D01*
X0499703Y0007314D01*
X0500220Y0006925D01*
X0500746Y0006549D01*
X0501281Y0006186D01*
X0501825Y0005836D01*
X0502378Y0005499D01*
X0502938Y0005176D01*
X0503506Y0004867D01*
X0504082Y0004572D01*
X0504665Y0004291D01*
X0505254Y0004024D01*
X0505850Y0003772D01*
X0506451Y0003534D01*
X0507059Y0003311D01*
X0507671Y0003103D01*
X0508289Y0002910D01*
X0508911Y0002732D01*
X0509537Y0002570D01*
X0510167Y0002423D01*
X0510800Y0002291D01*
X0511437Y0002175D01*
X0512076Y0002074D01*
X0512717Y0001989D01*
X0513360Y0001920D01*
X0514005Y0001866D01*
X0514651Y0001828D01*
X0515297Y0001806D01*
X0515944Y0001800D01*
X0516591Y0001810D01*
X0517237Y0001835D01*
X0517883Y0001876D01*
X0518527Y0001933D01*
X0519170Y0002006D01*
X0519811Y0002094D01*
D11*
X0315480Y0191996D02*
X0315480Y0238708D01*
X0319417Y0238708D01*
X0315480Y0238708D02*
X0315480Y0244614D01*
X0315480Y0247567D01*
X0319417Y0247567D01*
X0315480Y0247567D02*
X0315480Y0260362D01*
X0282015Y0248551D01*
X0282015Y0291858D01*
X0315480Y0303669D01*
X0315480Y0305638D02*
X0315480Y0296779D01*
X0319417Y0296779D01*
X0315480Y0296779D02*
X0315480Y0260362D01*
X0315480Y0244614D02*
X0282015Y0232803D01*
X0262330Y0232803D01*
X0228866Y0244614D01*
X0228866Y0238708D01*
X0224929Y0238708D01*
X0228866Y0238708D02*
X0228866Y0191996D01*
X0228868Y0191898D01*
X0228874Y0191800D01*
X0228883Y0191702D01*
X0228897Y0191605D01*
X0228914Y0191508D01*
X0228935Y0191412D01*
X0228960Y0191317D01*
X0228988Y0191223D01*
X0229021Y0191131D01*
X0229056Y0191039D01*
X0229096Y0190949D01*
X0229138Y0190861D01*
X0229185Y0190774D01*
X0229234Y0190690D01*
X0229287Y0190607D01*
X0229343Y0190527D01*
X0229403Y0190448D01*
X0229465Y0190372D01*
X0229530Y0190299D01*
X0229598Y0190228D01*
X0229669Y0190160D01*
X0229742Y0190095D01*
X0229818Y0190033D01*
X0229897Y0189973D01*
X0229977Y0189917D01*
X0230060Y0189864D01*
X0230144Y0189815D01*
X0230231Y0189768D01*
X0230319Y0189726D01*
X0230409Y0189686D01*
X0230501Y0189651D01*
X0230593Y0189618D01*
X0230687Y0189590D01*
X0230782Y0189565D01*
X0230878Y0189544D01*
X0230975Y0189527D01*
X0231072Y0189513D01*
X0231170Y0189504D01*
X0231268Y0189498D01*
X0231366Y0189496D01*
X0252488Y0189496D01*
X0252488Y0179653D01*
X0266267Y0179653D01*
X0266267Y0175716D01*
X0278078Y0175716D01*
X0278078Y0179653D01*
X0266267Y0179653D01*
X0252488Y0189496D02*
X0291858Y0189496D01*
X0291858Y0179653D01*
X0278078Y0179653D01*
X0291858Y0189496D02*
X0312980Y0189496D01*
X0313078Y0189498D01*
X0313176Y0189504D01*
X0313274Y0189513D01*
X0313371Y0189527D01*
X0313468Y0189544D01*
X0313564Y0189565D01*
X0313659Y0189590D01*
X0313753Y0189618D01*
X0313845Y0189651D01*
X0313937Y0189686D01*
X0314027Y0189726D01*
X0314115Y0189768D01*
X0314202Y0189815D01*
X0314286Y0189864D01*
X0314369Y0189917D01*
X0314449Y0189973D01*
X0314528Y0190033D01*
X0314604Y0190095D01*
X0314677Y0190160D01*
X0314748Y0190228D01*
X0314816Y0190299D01*
X0314881Y0190372D01*
X0314943Y0190448D01*
X0315003Y0190527D01*
X0315059Y0190607D01*
X0315112Y0190690D01*
X0315161Y0190774D01*
X0315208Y0190861D01*
X0315250Y0190949D01*
X0315290Y0191039D01*
X0315325Y0191131D01*
X0315358Y0191223D01*
X0315386Y0191317D01*
X0315411Y0191412D01*
X0315432Y0191508D01*
X0315449Y0191605D01*
X0315463Y0191702D01*
X0315472Y0191800D01*
X0315478Y0191898D01*
X0315480Y0191996D01*
X0313512Y0193964D02*
X0313512Y0203275D01*
X0301701Y0191464D01*
X0311012Y0191464D01*
X0311110Y0191466D01*
X0311208Y0191472D01*
X0311306Y0191481D01*
X0311403Y0191495D01*
X0311500Y0191512D01*
X0311596Y0191533D01*
X0311691Y0191558D01*
X0311785Y0191586D01*
X0311877Y0191619D01*
X0311969Y0191654D01*
X0312059Y0191694D01*
X0312147Y0191736D01*
X0312234Y0191783D01*
X0312318Y0191832D01*
X0312401Y0191885D01*
X0312481Y0191941D01*
X0312560Y0192001D01*
X0312636Y0192063D01*
X0312709Y0192128D01*
X0312780Y0192196D01*
X0312848Y0192267D01*
X0312913Y0192340D01*
X0312975Y0192416D01*
X0313035Y0192495D01*
X0313091Y0192575D01*
X0313144Y0192658D01*
X0313193Y0192742D01*
X0313240Y0192829D01*
X0313282Y0192917D01*
X0313322Y0193007D01*
X0313357Y0193099D01*
X0313390Y0193191D01*
X0313418Y0193285D01*
X0313443Y0193380D01*
X0313464Y0193476D01*
X0313481Y0193573D01*
X0313495Y0193670D01*
X0313504Y0193768D01*
X0313510Y0193866D01*
X0313512Y0193964D01*
X0319417Y0238709D02*
X0319548Y0238711D01*
X0319679Y0238717D01*
X0319810Y0238726D01*
X0319941Y0238740D01*
X0320071Y0238758D01*
X0320200Y0238779D01*
X0320329Y0238804D01*
X0320457Y0238833D01*
X0320584Y0238866D01*
X0320711Y0238902D01*
X0320835Y0238942D01*
X0320959Y0238986D01*
X0321082Y0239034D01*
X0321202Y0239085D01*
X0321322Y0239140D01*
X0321439Y0239198D01*
X0321555Y0239259D01*
X0321669Y0239324D01*
X0321781Y0239393D01*
X0321891Y0239465D01*
X0321999Y0239539D01*
X0322105Y0239618D01*
X0322208Y0239699D01*
X0322308Y0239783D01*
X0322406Y0239870D01*
X0322502Y0239960D01*
X0322595Y0240053D01*
X0322685Y0240149D01*
X0322772Y0240247D01*
X0322856Y0240347D01*
X0322937Y0240450D01*
X0323016Y0240556D01*
X0323090Y0240664D01*
X0323162Y0240774D01*
X0323231Y0240886D01*
X0323296Y0241000D01*
X0323357Y0241116D01*
X0323415Y0241233D01*
X0323470Y0241353D01*
X0323521Y0241473D01*
X0323569Y0241596D01*
X0323613Y0241720D01*
X0323653Y0241844D01*
X0323689Y0241971D01*
X0323722Y0242098D01*
X0323751Y0242226D01*
X0323776Y0242355D01*
X0323797Y0242484D01*
X0323815Y0242614D01*
X0323829Y0242745D01*
X0323838Y0242876D01*
X0323844Y0243007D01*
X0323846Y0243138D01*
X0323844Y0243269D01*
X0323838Y0243400D01*
X0323829Y0243531D01*
X0323815Y0243662D01*
X0323797Y0243792D01*
X0323776Y0243921D01*
X0323751Y0244050D01*
X0323722Y0244178D01*
X0323689Y0244305D01*
X0323653Y0244432D01*
X0323613Y0244556D01*
X0323569Y0244680D01*
X0323521Y0244803D01*
X0323470Y0244923D01*
X0323415Y0245043D01*
X0323357Y0245160D01*
X0323296Y0245276D01*
X0323231Y0245390D01*
X0323162Y0245502D01*
X0323090Y0245612D01*
X0323016Y0245720D01*
X0322937Y0245826D01*
X0322856Y0245929D01*
X0322772Y0246029D01*
X0322685Y0246127D01*
X0322595Y0246223D01*
X0322502Y0246316D01*
X0322406Y0246406D01*
X0322308Y0246493D01*
X0322208Y0246577D01*
X0322105Y0246658D01*
X0321999Y0246737D01*
X0321891Y0246811D01*
X0321781Y0246883D01*
X0321669Y0246952D01*
X0321555Y0247017D01*
X0321439Y0247078D01*
X0321322Y0247136D01*
X0321202Y0247191D01*
X0321082Y0247242D01*
X0320959Y0247290D01*
X0320835Y0247334D01*
X0320711Y0247374D01*
X0320584Y0247410D01*
X0320457Y0247443D01*
X0320329Y0247472D01*
X0320200Y0247497D01*
X0320071Y0247518D01*
X0319941Y0247536D01*
X0319810Y0247550D01*
X0319679Y0247559D01*
X0319548Y0247565D01*
X0319417Y0247567D01*
X0319417Y0296779D02*
X0319548Y0296781D01*
X0319679Y0296787D01*
X0319810Y0296796D01*
X0319941Y0296810D01*
X0320071Y0296828D01*
X0320200Y0296849D01*
X0320329Y0296874D01*
X0320457Y0296903D01*
X0320584Y0296936D01*
X0320711Y0296972D01*
X0320835Y0297012D01*
X0320959Y0297056D01*
X0321082Y0297104D01*
X0321202Y0297155D01*
X0321322Y0297210D01*
X0321439Y0297268D01*
X0321555Y0297329D01*
X0321669Y0297394D01*
X0321781Y0297463D01*
X0321891Y0297535D01*
X0321999Y0297609D01*
X0322105Y0297688D01*
X0322208Y0297769D01*
X0322308Y0297853D01*
X0322406Y0297940D01*
X0322502Y0298030D01*
X0322595Y0298123D01*
X0322685Y0298219D01*
X0322772Y0298317D01*
X0322856Y0298417D01*
X0322937Y0298520D01*
X0323016Y0298626D01*
X0323090Y0298734D01*
X0323162Y0298844D01*
X0323231Y0298956D01*
X0323296Y0299070D01*
X0323357Y0299186D01*
X0323415Y0299303D01*
X0323470Y0299423D01*
X0323521Y0299543D01*
X0323569Y0299666D01*
X0323613Y0299790D01*
X0323653Y0299914D01*
X0323689Y0300041D01*
X0323722Y0300168D01*
X0323751Y0300296D01*
X0323776Y0300425D01*
X0323797Y0300554D01*
X0323815Y0300684D01*
X0323829Y0300815D01*
X0323838Y0300946D01*
X0323844Y0301077D01*
X0323846Y0301208D01*
X0323844Y0301339D01*
X0323838Y0301470D01*
X0323829Y0301601D01*
X0323815Y0301732D01*
X0323797Y0301862D01*
X0323776Y0301991D01*
X0323751Y0302120D01*
X0323722Y0302248D01*
X0323689Y0302375D01*
X0323653Y0302502D01*
X0323613Y0302626D01*
X0323569Y0302750D01*
X0323521Y0302873D01*
X0323470Y0302993D01*
X0323415Y0303113D01*
X0323357Y0303230D01*
X0323296Y0303346D01*
X0323231Y0303460D01*
X0323162Y0303572D01*
X0323090Y0303682D01*
X0323016Y0303790D01*
X0322937Y0303896D01*
X0322856Y0303999D01*
X0322772Y0304099D01*
X0322685Y0304197D01*
X0322595Y0304293D01*
X0322502Y0304386D01*
X0322406Y0304476D01*
X0322308Y0304563D01*
X0322208Y0304647D01*
X0322105Y0304728D01*
X0321999Y0304807D01*
X0321891Y0304881D01*
X0321781Y0304953D01*
X0321669Y0305022D01*
X0321555Y0305087D01*
X0321439Y0305148D01*
X0321322Y0305206D01*
X0321202Y0305261D01*
X0321082Y0305312D01*
X0320959Y0305360D01*
X0320835Y0305404D01*
X0320711Y0305444D01*
X0320584Y0305480D01*
X0320457Y0305513D01*
X0320329Y0305542D01*
X0320200Y0305567D01*
X0320071Y0305588D01*
X0319941Y0305606D01*
X0319810Y0305620D01*
X0319679Y0305629D01*
X0319548Y0305635D01*
X0319417Y0305637D01*
X0319417Y0305638D02*
X0315480Y0305638D01*
X0315480Y0337134D01*
X0309575Y0350913D01*
X0288905Y0350913D01*
X0288905Y0333197D01*
X0287921Y0333197D01*
X0287921Y0362193D01*
X0287919Y0362291D01*
X0287913Y0362389D01*
X0287904Y0362487D01*
X0287890Y0362584D01*
X0287873Y0362681D01*
X0287852Y0362777D01*
X0287827Y0362872D01*
X0287799Y0362966D01*
X0287766Y0363058D01*
X0287731Y0363150D01*
X0287691Y0363240D01*
X0287649Y0363328D01*
X0287602Y0363415D01*
X0287553Y0363499D01*
X0287500Y0363582D01*
X0287444Y0363662D01*
X0287384Y0363741D01*
X0287322Y0363817D01*
X0287257Y0363890D01*
X0287189Y0363961D01*
X0287118Y0364029D01*
X0287045Y0364094D01*
X0286969Y0364156D01*
X0286890Y0364216D01*
X0286810Y0364272D01*
X0286727Y0364325D01*
X0286643Y0364374D01*
X0286556Y0364421D01*
X0286468Y0364463D01*
X0286378Y0364503D01*
X0286286Y0364538D01*
X0286194Y0364571D01*
X0286100Y0364599D01*
X0286005Y0364624D01*
X0285909Y0364645D01*
X0285812Y0364662D01*
X0285715Y0364676D01*
X0285617Y0364685D01*
X0285519Y0364691D01*
X0285421Y0364693D01*
X0258925Y0364693D01*
X0258827Y0364691D01*
X0258729Y0364685D01*
X0258631Y0364676D01*
X0258534Y0364662D01*
X0258437Y0364645D01*
X0258341Y0364624D01*
X0258246Y0364599D01*
X0258152Y0364571D01*
X0258060Y0364538D01*
X0257968Y0364503D01*
X0257878Y0364463D01*
X0257790Y0364421D01*
X0257703Y0364374D01*
X0257619Y0364325D01*
X0257536Y0364272D01*
X0257456Y0364216D01*
X0257377Y0364156D01*
X0257301Y0364094D01*
X0257228Y0364029D01*
X0257157Y0363961D01*
X0257089Y0363890D01*
X0257024Y0363817D01*
X0256962Y0363741D01*
X0256902Y0363662D01*
X0256846Y0363582D01*
X0256793Y0363499D01*
X0256744Y0363415D01*
X0256697Y0363328D01*
X0256655Y0363240D01*
X0256615Y0363150D01*
X0256580Y0363058D01*
X0256547Y0362966D01*
X0256519Y0362872D01*
X0256494Y0362777D01*
X0256473Y0362681D01*
X0256456Y0362584D01*
X0256442Y0362487D01*
X0256433Y0362389D01*
X0256427Y0362291D01*
X0256425Y0362193D01*
X0256425Y0333197D01*
X0255441Y0333197D01*
X0255441Y0350913D01*
X0234771Y0350913D01*
X0228866Y0337134D01*
X0228866Y0305638D01*
X0224929Y0305638D01*
X0228866Y0305638D02*
X0228866Y0296779D01*
X0228866Y0260362D01*
X0228866Y0247567D01*
X0228866Y0244614D01*
X0228866Y0247567D02*
X0224929Y0247567D01*
X0224798Y0247565D01*
X0224667Y0247559D01*
X0224536Y0247550D01*
X0224405Y0247536D01*
X0224275Y0247518D01*
X0224146Y0247497D01*
X0224017Y0247472D01*
X0223889Y0247443D01*
X0223762Y0247410D01*
X0223635Y0247374D01*
X0223511Y0247334D01*
X0223387Y0247290D01*
X0223264Y0247242D01*
X0223144Y0247191D01*
X0223024Y0247136D01*
X0222907Y0247078D01*
X0222791Y0247017D01*
X0222677Y0246952D01*
X0222565Y0246883D01*
X0222455Y0246811D01*
X0222347Y0246737D01*
X0222241Y0246658D01*
X0222138Y0246577D01*
X0222038Y0246493D01*
X0221940Y0246406D01*
X0221844Y0246316D01*
X0221751Y0246223D01*
X0221661Y0246127D01*
X0221574Y0246029D01*
X0221490Y0245929D01*
X0221409Y0245826D01*
X0221330Y0245720D01*
X0221256Y0245612D01*
X0221184Y0245502D01*
X0221115Y0245390D01*
X0221050Y0245276D01*
X0220989Y0245160D01*
X0220931Y0245043D01*
X0220876Y0244923D01*
X0220825Y0244803D01*
X0220777Y0244680D01*
X0220733Y0244556D01*
X0220693Y0244432D01*
X0220657Y0244305D01*
X0220624Y0244178D01*
X0220595Y0244050D01*
X0220570Y0243921D01*
X0220549Y0243792D01*
X0220531Y0243662D01*
X0220517Y0243531D01*
X0220508Y0243400D01*
X0220502Y0243269D01*
X0220500Y0243138D01*
X0220502Y0243007D01*
X0220508Y0242876D01*
X0220517Y0242745D01*
X0220531Y0242614D01*
X0220549Y0242484D01*
X0220570Y0242355D01*
X0220595Y0242226D01*
X0220624Y0242098D01*
X0220657Y0241971D01*
X0220693Y0241844D01*
X0220733Y0241720D01*
X0220777Y0241596D01*
X0220825Y0241473D01*
X0220876Y0241353D01*
X0220931Y0241233D01*
X0220989Y0241116D01*
X0221050Y0241000D01*
X0221115Y0240886D01*
X0221184Y0240774D01*
X0221256Y0240664D01*
X0221330Y0240556D01*
X0221409Y0240450D01*
X0221490Y0240347D01*
X0221574Y0240247D01*
X0221661Y0240149D01*
X0221751Y0240053D01*
X0221844Y0239960D01*
X0221940Y0239870D01*
X0222038Y0239783D01*
X0222138Y0239699D01*
X0222241Y0239618D01*
X0222347Y0239539D01*
X0222455Y0239465D01*
X0222565Y0239393D01*
X0222677Y0239324D01*
X0222791Y0239259D01*
X0222907Y0239198D01*
X0223024Y0239140D01*
X0223144Y0239085D01*
X0223264Y0239034D01*
X0223387Y0238986D01*
X0223511Y0238942D01*
X0223635Y0238902D01*
X0223762Y0238866D01*
X0223889Y0238833D01*
X0224017Y0238804D01*
X0224146Y0238779D01*
X0224275Y0238758D01*
X0224405Y0238740D01*
X0224536Y0238726D01*
X0224667Y0238717D01*
X0224798Y0238711D01*
X0224929Y0238709D01*
X0228866Y0260362D02*
X0262330Y0248551D01*
X0262330Y0291858D01*
X0228866Y0303669D01*
X0224929Y0305637D02*
X0224798Y0305635D01*
X0224667Y0305629D01*
X0224536Y0305620D01*
X0224405Y0305606D01*
X0224275Y0305588D01*
X0224146Y0305567D01*
X0224017Y0305542D01*
X0223889Y0305513D01*
X0223762Y0305480D01*
X0223635Y0305444D01*
X0223511Y0305404D01*
X0223387Y0305360D01*
X0223264Y0305312D01*
X0223144Y0305261D01*
X0223024Y0305206D01*
X0222907Y0305148D01*
X0222791Y0305087D01*
X0222677Y0305022D01*
X0222565Y0304953D01*
X0222455Y0304881D01*
X0222347Y0304807D01*
X0222241Y0304728D01*
X0222138Y0304647D01*
X0222038Y0304563D01*
X0221940Y0304476D01*
X0221844Y0304386D01*
X0221751Y0304293D01*
X0221661Y0304197D01*
X0221574Y0304099D01*
X0221490Y0303999D01*
X0221409Y0303896D01*
X0221330Y0303790D01*
X0221256Y0303682D01*
X0221184Y0303572D01*
X0221115Y0303460D01*
X0221050Y0303346D01*
X0220989Y0303230D01*
X0220931Y0303113D01*
X0220876Y0302993D01*
X0220825Y0302873D01*
X0220777Y0302750D01*
X0220733Y0302626D01*
X0220693Y0302502D01*
X0220657Y0302375D01*
X0220624Y0302248D01*
X0220595Y0302120D01*
X0220570Y0301991D01*
X0220549Y0301862D01*
X0220531Y0301732D01*
X0220517Y0301601D01*
X0220508Y0301470D01*
X0220502Y0301339D01*
X0220500Y0301208D01*
X0220502Y0301077D01*
X0220508Y0300946D01*
X0220517Y0300815D01*
X0220531Y0300684D01*
X0220549Y0300554D01*
X0220570Y0300425D01*
X0220595Y0300296D01*
X0220624Y0300168D01*
X0220657Y0300041D01*
X0220693Y0299914D01*
X0220733Y0299790D01*
X0220777Y0299666D01*
X0220825Y0299543D01*
X0220876Y0299423D01*
X0220931Y0299303D01*
X0220989Y0299186D01*
X0221050Y0299070D01*
X0221115Y0298956D01*
X0221184Y0298844D01*
X0221256Y0298734D01*
X0221330Y0298626D01*
X0221409Y0298520D01*
X0221490Y0298417D01*
X0221574Y0298317D01*
X0221661Y0298219D01*
X0221751Y0298123D01*
X0221844Y0298030D01*
X0221940Y0297940D01*
X0222038Y0297853D01*
X0222138Y0297769D01*
X0222241Y0297688D01*
X0222347Y0297609D01*
X0222455Y0297535D01*
X0222565Y0297463D01*
X0222677Y0297394D01*
X0222791Y0297329D01*
X0222907Y0297268D01*
X0223024Y0297210D01*
X0223144Y0297155D01*
X0223264Y0297104D01*
X0223387Y0297056D01*
X0223511Y0297012D01*
X0223635Y0296972D01*
X0223762Y0296936D01*
X0223889Y0296903D01*
X0224017Y0296874D01*
X0224146Y0296849D01*
X0224275Y0296828D01*
X0224405Y0296810D01*
X0224536Y0296796D01*
X0224667Y0296787D01*
X0224798Y0296781D01*
X0224929Y0296779D01*
X0228866Y0296779D01*
X0245958Y0308515D02*
X0245958Y0309220D01*
X0246663Y0309925D01*
X0250186Y0309925D01*
X0250186Y0310629D02*
X0250186Y0309220D01*
X0249482Y0312161D02*
X0250186Y0312866D01*
X0250186Y0314275D01*
X0249482Y0314980D01*
X0248777Y0314980D01*
X0248072Y0314275D01*
X0247368Y0314980D01*
X0246663Y0314980D01*
X0245958Y0314275D01*
X0245958Y0312866D01*
X0246663Y0312161D01*
X0248072Y0313570D02*
X0248072Y0314275D01*
X0245958Y0308515D02*
X0246663Y0307811D01*
X0262330Y0307606D02*
X0282015Y0307606D01*
X0315480Y0319417D01*
X0262330Y0307606D02*
X0228866Y0319417D01*
X0230834Y0203275D02*
X0242645Y0191464D01*
X0233334Y0191464D01*
X0233236Y0191466D01*
X0233138Y0191472D01*
X0233040Y0191481D01*
X0232943Y0191495D01*
X0232846Y0191512D01*
X0232750Y0191533D01*
X0232655Y0191558D01*
X0232561Y0191586D01*
X0232469Y0191619D01*
X0232377Y0191654D01*
X0232287Y0191694D01*
X0232199Y0191736D01*
X0232112Y0191783D01*
X0232028Y0191832D01*
X0231945Y0191885D01*
X0231865Y0191941D01*
X0231786Y0192001D01*
X0231710Y0192063D01*
X0231637Y0192128D01*
X0231566Y0192196D01*
X0231498Y0192267D01*
X0231433Y0192340D01*
X0231371Y0192416D01*
X0231311Y0192495D01*
X0231255Y0192575D01*
X0231202Y0192658D01*
X0231153Y0192742D01*
X0231106Y0192829D01*
X0231064Y0192917D01*
X0231024Y0193007D01*
X0230989Y0193099D01*
X0230956Y0193191D01*
X0230928Y0193285D01*
X0230903Y0193380D01*
X0230882Y0193476D01*
X0230865Y0193573D01*
X0230851Y0193670D01*
X0230842Y0193768D01*
X0230836Y0193866D01*
X0230834Y0193964D01*
X0230834Y0203275D01*
D12*
X0204675Y0267769D02*
X0204675Y0270838D01*
X0204675Y0280269D02*
X0204675Y0283338D01*
X0206210Y0281804D02*
X0203140Y0281804D01*
X0319873Y0282348D02*
X0319873Y0279279D01*
X0319873Y0280813D02*
X0324477Y0280813D01*
X0322942Y0279279D01*
X0324477Y0277744D02*
X0324477Y0274675D01*
X0324477Y0276210D02*
X0319873Y0276210D01*
X0319873Y0271606D02*
X0324477Y0271606D01*
X0324477Y0273140D02*
X0324477Y0270071D01*
X0322942Y0268536D02*
X0319873Y0268536D01*
X0322175Y0268536D02*
X0322175Y0265467D01*
X0322942Y0265467D02*
X0324477Y0267002D01*
X0322942Y0268536D01*
X0322942Y0265467D02*
X0319873Y0265467D01*
X0320640Y0263932D02*
X0319873Y0263165D01*
X0319873Y0260863D01*
X0324477Y0260863D01*
X0324477Y0263165D01*
X0323710Y0263932D01*
X0322942Y0263932D01*
X0322175Y0263165D01*
X0322175Y0260863D01*
X0322175Y0263165D02*
X0321408Y0263932D01*
X0320640Y0263932D01*
D13*
X0316858Y0243236D02*
X0316860Y0243341D01*
X0316866Y0243446D01*
X0316876Y0243550D01*
X0316890Y0243654D01*
X0316908Y0243758D01*
X0316930Y0243860D01*
X0316955Y0243962D01*
X0316985Y0244063D01*
X0317018Y0244162D01*
X0317055Y0244260D01*
X0317096Y0244357D01*
X0317141Y0244452D01*
X0317189Y0244545D01*
X0317240Y0244637D01*
X0317296Y0244726D01*
X0317354Y0244813D01*
X0317416Y0244898D01*
X0317480Y0244981D01*
X0317548Y0245061D01*
X0317619Y0245138D01*
X0317693Y0245212D01*
X0317770Y0245284D01*
X0317849Y0245353D01*
X0317931Y0245418D01*
X0318015Y0245481D01*
X0318102Y0245540D01*
X0318191Y0245596D01*
X0318282Y0245649D01*
X0318375Y0245698D01*
X0318469Y0245743D01*
X0318565Y0245785D01*
X0318663Y0245823D01*
X0318762Y0245857D01*
X0318863Y0245888D01*
X0318964Y0245914D01*
X0319067Y0245937D01*
X0319170Y0245956D01*
X0319274Y0245971D01*
X0319378Y0245982D01*
X0319483Y0245989D01*
X0319588Y0245992D01*
X0319693Y0245991D01*
X0319798Y0245986D01*
X0319902Y0245977D01*
X0320006Y0245964D01*
X0320110Y0245947D01*
X0320213Y0245926D01*
X0320315Y0245901D01*
X0320416Y0245873D01*
X0320515Y0245840D01*
X0320614Y0245804D01*
X0320711Y0245764D01*
X0320806Y0245721D01*
X0320900Y0245673D01*
X0320992Y0245623D01*
X0321082Y0245569D01*
X0321170Y0245511D01*
X0321255Y0245450D01*
X0321338Y0245386D01*
X0321419Y0245319D01*
X0321497Y0245249D01*
X0321572Y0245175D01*
X0321644Y0245100D01*
X0321714Y0245021D01*
X0321780Y0244940D01*
X0321844Y0244856D01*
X0321904Y0244770D01*
X0321960Y0244682D01*
X0322014Y0244591D01*
X0322064Y0244499D01*
X0322110Y0244405D01*
X0322153Y0244309D01*
X0322192Y0244211D01*
X0322227Y0244113D01*
X0322258Y0244012D01*
X0322286Y0243911D01*
X0322310Y0243809D01*
X0322330Y0243706D01*
X0322346Y0243602D01*
X0322358Y0243498D01*
X0322366Y0243393D01*
X0322370Y0243288D01*
X0322370Y0243184D01*
X0322366Y0243079D01*
X0322358Y0242974D01*
X0322346Y0242870D01*
X0322330Y0242766D01*
X0322310Y0242663D01*
X0322286Y0242561D01*
X0322258Y0242460D01*
X0322227Y0242359D01*
X0322192Y0242261D01*
X0322153Y0242163D01*
X0322110Y0242067D01*
X0322064Y0241973D01*
X0322014Y0241881D01*
X0321960Y0241790D01*
X0321904Y0241702D01*
X0321844Y0241616D01*
X0321780Y0241532D01*
X0321714Y0241451D01*
X0321644Y0241372D01*
X0321572Y0241297D01*
X0321497Y0241223D01*
X0321419Y0241153D01*
X0321338Y0241086D01*
X0321255Y0241022D01*
X0321170Y0240961D01*
X0321082Y0240903D01*
X0320992Y0240849D01*
X0320900Y0240799D01*
X0320806Y0240751D01*
X0320711Y0240708D01*
X0320614Y0240668D01*
X0320515Y0240632D01*
X0320416Y0240599D01*
X0320315Y0240571D01*
X0320213Y0240546D01*
X0320110Y0240525D01*
X0320006Y0240508D01*
X0319902Y0240495D01*
X0319798Y0240486D01*
X0319693Y0240481D01*
X0319588Y0240480D01*
X0319483Y0240483D01*
X0319378Y0240490D01*
X0319274Y0240501D01*
X0319170Y0240516D01*
X0319067Y0240535D01*
X0318964Y0240558D01*
X0318863Y0240584D01*
X0318762Y0240615D01*
X0318663Y0240649D01*
X0318565Y0240687D01*
X0318469Y0240729D01*
X0318375Y0240774D01*
X0318282Y0240823D01*
X0318191Y0240876D01*
X0318102Y0240932D01*
X0318015Y0240991D01*
X0317931Y0241054D01*
X0317849Y0241119D01*
X0317770Y0241188D01*
X0317693Y0241260D01*
X0317619Y0241334D01*
X0317548Y0241411D01*
X0317480Y0241491D01*
X0317416Y0241574D01*
X0317354Y0241659D01*
X0317296Y0241746D01*
X0317240Y0241835D01*
X0317189Y0241927D01*
X0317141Y0242020D01*
X0317096Y0242115D01*
X0317055Y0242212D01*
X0317018Y0242310D01*
X0316985Y0242409D01*
X0316955Y0242510D01*
X0316930Y0242612D01*
X0316908Y0242714D01*
X0316890Y0242818D01*
X0316876Y0242922D01*
X0316866Y0243026D01*
X0316860Y0243131D01*
X0316858Y0243236D01*
X0316858Y0301110D02*
X0316860Y0301215D01*
X0316866Y0301320D01*
X0316876Y0301424D01*
X0316890Y0301528D01*
X0316908Y0301632D01*
X0316930Y0301734D01*
X0316955Y0301836D01*
X0316985Y0301937D01*
X0317018Y0302036D01*
X0317055Y0302134D01*
X0317096Y0302231D01*
X0317141Y0302326D01*
X0317189Y0302419D01*
X0317240Y0302511D01*
X0317296Y0302600D01*
X0317354Y0302687D01*
X0317416Y0302772D01*
X0317480Y0302855D01*
X0317548Y0302935D01*
X0317619Y0303012D01*
X0317693Y0303086D01*
X0317770Y0303158D01*
X0317849Y0303227D01*
X0317931Y0303292D01*
X0318015Y0303355D01*
X0318102Y0303414D01*
X0318191Y0303470D01*
X0318282Y0303523D01*
X0318375Y0303572D01*
X0318469Y0303617D01*
X0318565Y0303659D01*
X0318663Y0303697D01*
X0318762Y0303731D01*
X0318863Y0303762D01*
X0318964Y0303788D01*
X0319067Y0303811D01*
X0319170Y0303830D01*
X0319274Y0303845D01*
X0319378Y0303856D01*
X0319483Y0303863D01*
X0319588Y0303866D01*
X0319693Y0303865D01*
X0319798Y0303860D01*
X0319902Y0303851D01*
X0320006Y0303838D01*
X0320110Y0303821D01*
X0320213Y0303800D01*
X0320315Y0303775D01*
X0320416Y0303747D01*
X0320515Y0303714D01*
X0320614Y0303678D01*
X0320711Y0303638D01*
X0320806Y0303595D01*
X0320900Y0303547D01*
X0320992Y0303497D01*
X0321082Y0303443D01*
X0321170Y0303385D01*
X0321255Y0303324D01*
X0321338Y0303260D01*
X0321419Y0303193D01*
X0321497Y0303123D01*
X0321572Y0303049D01*
X0321644Y0302974D01*
X0321714Y0302895D01*
X0321780Y0302814D01*
X0321844Y0302730D01*
X0321904Y0302644D01*
X0321960Y0302556D01*
X0322014Y0302465D01*
X0322064Y0302373D01*
X0322110Y0302279D01*
X0322153Y0302183D01*
X0322192Y0302085D01*
X0322227Y0301987D01*
X0322258Y0301886D01*
X0322286Y0301785D01*
X0322310Y0301683D01*
X0322330Y0301580D01*
X0322346Y0301476D01*
X0322358Y0301372D01*
X0322366Y0301267D01*
X0322370Y0301162D01*
X0322370Y0301058D01*
X0322366Y0300953D01*
X0322358Y0300848D01*
X0322346Y0300744D01*
X0322330Y0300640D01*
X0322310Y0300537D01*
X0322286Y0300435D01*
X0322258Y0300334D01*
X0322227Y0300233D01*
X0322192Y0300135D01*
X0322153Y0300037D01*
X0322110Y0299941D01*
X0322064Y0299847D01*
X0322014Y0299755D01*
X0321960Y0299664D01*
X0321904Y0299576D01*
X0321844Y0299490D01*
X0321780Y0299406D01*
X0321714Y0299325D01*
X0321644Y0299246D01*
X0321572Y0299171D01*
X0321497Y0299097D01*
X0321419Y0299027D01*
X0321338Y0298960D01*
X0321255Y0298896D01*
X0321170Y0298835D01*
X0321082Y0298777D01*
X0320992Y0298723D01*
X0320900Y0298673D01*
X0320806Y0298625D01*
X0320711Y0298582D01*
X0320614Y0298542D01*
X0320515Y0298506D01*
X0320416Y0298473D01*
X0320315Y0298445D01*
X0320213Y0298420D01*
X0320110Y0298399D01*
X0320006Y0298382D01*
X0319902Y0298369D01*
X0319798Y0298360D01*
X0319693Y0298355D01*
X0319588Y0298354D01*
X0319483Y0298357D01*
X0319378Y0298364D01*
X0319274Y0298375D01*
X0319170Y0298390D01*
X0319067Y0298409D01*
X0318964Y0298432D01*
X0318863Y0298458D01*
X0318762Y0298489D01*
X0318663Y0298523D01*
X0318565Y0298561D01*
X0318469Y0298603D01*
X0318375Y0298648D01*
X0318282Y0298697D01*
X0318191Y0298750D01*
X0318102Y0298806D01*
X0318015Y0298865D01*
X0317931Y0298928D01*
X0317849Y0298993D01*
X0317770Y0299062D01*
X0317693Y0299134D01*
X0317619Y0299208D01*
X0317548Y0299285D01*
X0317480Y0299365D01*
X0317416Y0299448D01*
X0317354Y0299533D01*
X0317296Y0299620D01*
X0317240Y0299709D01*
X0317189Y0299801D01*
X0317141Y0299894D01*
X0317096Y0299989D01*
X0317055Y0300086D01*
X0317018Y0300184D01*
X0316985Y0300283D01*
X0316955Y0300384D01*
X0316930Y0300486D01*
X0316908Y0300588D01*
X0316890Y0300692D01*
X0316876Y0300796D01*
X0316866Y0300900D01*
X0316860Y0301005D01*
X0316858Y0301110D01*
X0221976Y0301110D02*
X0221978Y0301215D01*
X0221984Y0301320D01*
X0221994Y0301424D01*
X0222008Y0301528D01*
X0222026Y0301632D01*
X0222048Y0301734D01*
X0222073Y0301836D01*
X0222103Y0301937D01*
X0222136Y0302036D01*
X0222173Y0302134D01*
X0222214Y0302231D01*
X0222259Y0302326D01*
X0222307Y0302419D01*
X0222358Y0302511D01*
X0222414Y0302600D01*
X0222472Y0302687D01*
X0222534Y0302772D01*
X0222598Y0302855D01*
X0222666Y0302935D01*
X0222737Y0303012D01*
X0222811Y0303086D01*
X0222888Y0303158D01*
X0222967Y0303227D01*
X0223049Y0303292D01*
X0223133Y0303355D01*
X0223220Y0303414D01*
X0223309Y0303470D01*
X0223400Y0303523D01*
X0223493Y0303572D01*
X0223587Y0303617D01*
X0223683Y0303659D01*
X0223781Y0303697D01*
X0223880Y0303731D01*
X0223981Y0303762D01*
X0224082Y0303788D01*
X0224185Y0303811D01*
X0224288Y0303830D01*
X0224392Y0303845D01*
X0224496Y0303856D01*
X0224601Y0303863D01*
X0224706Y0303866D01*
X0224811Y0303865D01*
X0224916Y0303860D01*
X0225020Y0303851D01*
X0225124Y0303838D01*
X0225228Y0303821D01*
X0225331Y0303800D01*
X0225433Y0303775D01*
X0225534Y0303747D01*
X0225633Y0303714D01*
X0225732Y0303678D01*
X0225829Y0303638D01*
X0225924Y0303595D01*
X0226018Y0303547D01*
X0226110Y0303497D01*
X0226200Y0303443D01*
X0226288Y0303385D01*
X0226373Y0303324D01*
X0226456Y0303260D01*
X0226537Y0303193D01*
X0226615Y0303123D01*
X0226690Y0303049D01*
X0226762Y0302974D01*
X0226832Y0302895D01*
X0226898Y0302814D01*
X0226962Y0302730D01*
X0227022Y0302644D01*
X0227078Y0302556D01*
X0227132Y0302465D01*
X0227182Y0302373D01*
X0227228Y0302279D01*
X0227271Y0302183D01*
X0227310Y0302085D01*
X0227345Y0301987D01*
X0227376Y0301886D01*
X0227404Y0301785D01*
X0227428Y0301683D01*
X0227448Y0301580D01*
X0227464Y0301476D01*
X0227476Y0301372D01*
X0227484Y0301267D01*
X0227488Y0301162D01*
X0227488Y0301058D01*
X0227484Y0300953D01*
X0227476Y0300848D01*
X0227464Y0300744D01*
X0227448Y0300640D01*
X0227428Y0300537D01*
X0227404Y0300435D01*
X0227376Y0300334D01*
X0227345Y0300233D01*
X0227310Y0300135D01*
X0227271Y0300037D01*
X0227228Y0299941D01*
X0227182Y0299847D01*
X0227132Y0299755D01*
X0227078Y0299664D01*
X0227022Y0299576D01*
X0226962Y0299490D01*
X0226898Y0299406D01*
X0226832Y0299325D01*
X0226762Y0299246D01*
X0226690Y0299171D01*
X0226615Y0299097D01*
X0226537Y0299027D01*
X0226456Y0298960D01*
X0226373Y0298896D01*
X0226288Y0298835D01*
X0226200Y0298777D01*
X0226110Y0298723D01*
X0226018Y0298673D01*
X0225924Y0298625D01*
X0225829Y0298582D01*
X0225732Y0298542D01*
X0225633Y0298506D01*
X0225534Y0298473D01*
X0225433Y0298445D01*
X0225331Y0298420D01*
X0225228Y0298399D01*
X0225124Y0298382D01*
X0225020Y0298369D01*
X0224916Y0298360D01*
X0224811Y0298355D01*
X0224706Y0298354D01*
X0224601Y0298357D01*
X0224496Y0298364D01*
X0224392Y0298375D01*
X0224288Y0298390D01*
X0224185Y0298409D01*
X0224082Y0298432D01*
X0223981Y0298458D01*
X0223880Y0298489D01*
X0223781Y0298523D01*
X0223683Y0298561D01*
X0223587Y0298603D01*
X0223493Y0298648D01*
X0223400Y0298697D01*
X0223309Y0298750D01*
X0223220Y0298806D01*
X0223133Y0298865D01*
X0223049Y0298928D01*
X0222967Y0298993D01*
X0222888Y0299062D01*
X0222811Y0299134D01*
X0222737Y0299208D01*
X0222666Y0299285D01*
X0222598Y0299365D01*
X0222534Y0299448D01*
X0222472Y0299533D01*
X0222414Y0299620D01*
X0222358Y0299709D01*
X0222307Y0299801D01*
X0222259Y0299894D01*
X0222214Y0299989D01*
X0222173Y0300086D01*
X0222136Y0300184D01*
X0222103Y0300283D01*
X0222073Y0300384D01*
X0222048Y0300486D01*
X0222026Y0300588D01*
X0222008Y0300692D01*
X0221994Y0300796D01*
X0221984Y0300900D01*
X0221978Y0301005D01*
X0221976Y0301110D01*
X0221976Y0243236D02*
X0221978Y0243341D01*
X0221984Y0243446D01*
X0221994Y0243550D01*
X0222008Y0243654D01*
X0222026Y0243758D01*
X0222048Y0243860D01*
X0222073Y0243962D01*
X0222103Y0244063D01*
X0222136Y0244162D01*
X0222173Y0244260D01*
X0222214Y0244357D01*
X0222259Y0244452D01*
X0222307Y0244545D01*
X0222358Y0244637D01*
X0222414Y0244726D01*
X0222472Y0244813D01*
X0222534Y0244898D01*
X0222598Y0244981D01*
X0222666Y0245061D01*
X0222737Y0245138D01*
X0222811Y0245212D01*
X0222888Y0245284D01*
X0222967Y0245353D01*
X0223049Y0245418D01*
X0223133Y0245481D01*
X0223220Y0245540D01*
X0223309Y0245596D01*
X0223400Y0245649D01*
X0223493Y0245698D01*
X0223587Y0245743D01*
X0223683Y0245785D01*
X0223781Y0245823D01*
X0223880Y0245857D01*
X0223981Y0245888D01*
X0224082Y0245914D01*
X0224185Y0245937D01*
X0224288Y0245956D01*
X0224392Y0245971D01*
X0224496Y0245982D01*
X0224601Y0245989D01*
X0224706Y0245992D01*
X0224811Y0245991D01*
X0224916Y0245986D01*
X0225020Y0245977D01*
X0225124Y0245964D01*
X0225228Y0245947D01*
X0225331Y0245926D01*
X0225433Y0245901D01*
X0225534Y0245873D01*
X0225633Y0245840D01*
X0225732Y0245804D01*
X0225829Y0245764D01*
X0225924Y0245721D01*
X0226018Y0245673D01*
X0226110Y0245623D01*
X0226200Y0245569D01*
X0226288Y0245511D01*
X0226373Y0245450D01*
X0226456Y0245386D01*
X0226537Y0245319D01*
X0226615Y0245249D01*
X0226690Y0245175D01*
X0226762Y0245100D01*
X0226832Y0245021D01*
X0226898Y0244940D01*
X0226962Y0244856D01*
X0227022Y0244770D01*
X0227078Y0244682D01*
X0227132Y0244591D01*
X0227182Y0244499D01*
X0227228Y0244405D01*
X0227271Y0244309D01*
X0227310Y0244211D01*
X0227345Y0244113D01*
X0227376Y0244012D01*
X0227404Y0243911D01*
X0227428Y0243809D01*
X0227448Y0243706D01*
X0227464Y0243602D01*
X0227476Y0243498D01*
X0227484Y0243393D01*
X0227488Y0243288D01*
X0227488Y0243184D01*
X0227484Y0243079D01*
X0227476Y0242974D01*
X0227464Y0242870D01*
X0227448Y0242766D01*
X0227428Y0242663D01*
X0227404Y0242561D01*
X0227376Y0242460D01*
X0227345Y0242359D01*
X0227310Y0242261D01*
X0227271Y0242163D01*
X0227228Y0242067D01*
X0227182Y0241973D01*
X0227132Y0241881D01*
X0227078Y0241790D01*
X0227022Y0241702D01*
X0226962Y0241616D01*
X0226898Y0241532D01*
X0226832Y0241451D01*
X0226762Y0241372D01*
X0226690Y0241297D01*
X0226615Y0241223D01*
X0226537Y0241153D01*
X0226456Y0241086D01*
X0226373Y0241022D01*
X0226288Y0240961D01*
X0226200Y0240903D01*
X0226110Y0240849D01*
X0226018Y0240799D01*
X0225924Y0240751D01*
X0225829Y0240708D01*
X0225732Y0240668D01*
X0225633Y0240632D01*
X0225534Y0240599D01*
X0225433Y0240571D01*
X0225331Y0240546D01*
X0225228Y0240525D01*
X0225124Y0240508D01*
X0225020Y0240495D01*
X0224916Y0240486D01*
X0224811Y0240481D01*
X0224706Y0240480D01*
X0224601Y0240483D01*
X0224496Y0240490D01*
X0224392Y0240501D01*
X0224288Y0240516D01*
X0224185Y0240535D01*
X0224082Y0240558D01*
X0223981Y0240584D01*
X0223880Y0240615D01*
X0223781Y0240649D01*
X0223683Y0240687D01*
X0223587Y0240729D01*
X0223493Y0240774D01*
X0223400Y0240823D01*
X0223309Y0240876D01*
X0223220Y0240932D01*
X0223133Y0240991D01*
X0223049Y0241054D01*
X0222967Y0241119D01*
X0222888Y0241188D01*
X0222811Y0241260D01*
X0222737Y0241334D01*
X0222666Y0241411D01*
X0222598Y0241491D01*
X0222534Y0241574D01*
X0222472Y0241659D01*
X0222414Y0241746D01*
X0222358Y0241835D01*
X0222307Y0241927D01*
X0222259Y0242020D01*
X0222214Y0242115D01*
X0222173Y0242212D01*
X0222136Y0242310D01*
X0222103Y0242409D01*
X0222073Y0242510D01*
X0222048Y0242612D01*
X0222026Y0242714D01*
X0222008Y0242818D01*
X0221994Y0242922D01*
X0221984Y0243026D01*
X0221978Y0243131D01*
X0221976Y0243236D01*
D14*
X0233433Y0296661D02*
X0233433Y0313328D01*
X0236766Y0316661D02*
X0243433Y0316661D01*
X0243433Y0296661D01*
X0233433Y0296661D01*
M02*
