G75*
%MOIN*%
%OFA0B0*%
%FSLAX25Y25*%
%IPPOS*%
%LPD*%
%AMOC8*
5,1,8,0,0,1.08239X$1,22.5*
%
%ADD10C,0.05937*%
%ADD11R,0.07400X0.07400*%
%ADD12OC8,0.07400*%
%ADD13R,0.06496X0.06496*%
%ADD14C,0.06496*%
%ADD15C,0.07400*%
%ADD16C,0.03962*%
%ADD17C,0.00600*%
%ADD18C,0.03100*%
%ADD19C,0.01800*%
D10*
X0211704Y0272173D02*
X0217641Y0272173D01*
X0217641Y0282173D02*
X0211704Y0282173D01*
D11*
X0327134Y0363630D03*
D12*
X0337134Y0363630D03*
X0347134Y0363630D03*
X0347134Y0373630D03*
X0337134Y0373630D03*
X0327134Y0373630D03*
D13*
X0238433Y0311661D03*
X0411937Y0226897D03*
D14*
X0411937Y0236897D03*
X0411937Y0246897D03*
X0411937Y0256897D03*
X0411937Y0266897D03*
X0411937Y0276897D03*
X0411937Y0286897D03*
X0411937Y0296897D03*
X0411937Y0306897D03*
X0411937Y0316897D03*
X0238433Y0301661D03*
D15*
X0138708Y0306110D03*
X0138708Y0316110D03*
X0138708Y0326110D03*
X0138708Y0336110D03*
X0138708Y0296110D03*
X0138708Y0286110D03*
X0138708Y0263236D03*
X0138708Y0253236D03*
X0138708Y0243236D03*
X0138708Y0233236D03*
X0138708Y0223236D03*
X0138708Y0213236D03*
D16*
X0154063Y0150126D03*
X0154063Y0158000D03*
X0244614Y0185559D03*
X0260362Y0175716D03*
X0264299Y0179653D03*
X0260362Y0169811D03*
X0260362Y0165874D03*
X0260362Y0161937D03*
X0260362Y0158000D03*
X0252488Y0161937D03*
X0252488Y0165874D03*
X0280047Y0158000D03*
X0287921Y0158000D03*
X0295795Y0161937D03*
X0295795Y0169811D03*
X0295795Y0177685D03*
X0287921Y0179653D03*
X0280047Y0179653D03*
X0299732Y0185559D03*
X0374535Y0228866D03*
X0398157Y0236740D03*
X0398157Y0248551D03*
X0374535Y0260362D03*
X0390283Y0158000D03*
X0390283Y0150126D03*
X0224929Y0256425D03*
X0224929Y0264299D03*
X0205244Y0252488D03*
X0154063Y0390283D03*
X0154063Y0398157D03*
X0390283Y0394220D03*
X0390283Y0386346D03*
D17*
X0360756Y0368630D02*
X0284968Y0368630D01*
X0202291Y0285952D01*
X0210165Y0278078D01*
X0217547Y0278078D01*
X0244122Y0251504D01*
X0270204Y0251504D01*
X0271681Y0257901D02*
X0279555Y0257901D01*
X0283984Y0253472D01*
X0283984Y0235263D01*
X0281031Y0230834D02*
X0257409Y0230834D01*
X0256425Y0229850D01*
X0244614Y0229850D01*
X0212134Y0262330D01*
X0202291Y0262330D01*
X0138807Y0325815D01*
X0138708Y0326110D01*
X0138708Y0316110D02*
X0138807Y0315972D01*
X0146189Y0315972D01*
X0208197Y0253964D01*
X0208197Y0252980D01*
X0232803Y0228374D01*
X0266760Y0228374D01*
X0284476Y0210657D01*
X0283000Y0208197D02*
X0285952Y0208197D01*
X0286937Y0209181D01*
X0286937Y0212134D01*
X0284476Y0214594D01*
X0304653Y0234771D01*
X0280047Y0259378D01*
X0272173Y0259378D01*
X0261838Y0269712D01*
X0257901Y0269712D01*
X0257901Y0272173D01*
X0243630Y0286445D01*
X0227389Y0286445D01*
X0215086Y0284968D02*
X0215086Y0282508D01*
X0214673Y0282173D01*
X0215086Y0284968D02*
X0238216Y0308098D01*
X0238216Y0311543D01*
X0238433Y0311661D01*
X0260854Y0280539D02*
X0262330Y0280539D01*
X0268236Y0286445D01*
X0297271Y0286445D01*
X0314004Y0266760D02*
X0384378Y0266760D01*
X0384378Y0341071D01*
X0386838Y0342547D02*
X0360756Y0368630D01*
X0386838Y0342547D02*
X0386838Y0325815D01*
X0411937Y0300716D01*
X0411937Y0296897D01*
X0411937Y0286897D02*
X0411937Y0283000D01*
X0416366Y0278571D01*
X0416366Y0223452D01*
X0383393Y0190480D01*
X0249535Y0190480D01*
X0223452Y0216563D01*
X0225421Y0220008D02*
X0252488Y0192941D01*
X0275618Y0192941D01*
X0299240Y0192941D01*
X0305145Y0198846D01*
X0296287Y0211149D02*
X0301208Y0216071D01*
X0310559Y0225421D01*
X0330736Y0225421D01*
X0311543Y0241661D02*
X0330244Y0260362D01*
X0374535Y0260362D01*
X0408492Y0260362D01*
X0411937Y0256917D01*
X0411937Y0256897D01*
X0411937Y0266760D02*
X0411937Y0266897D01*
X0411937Y0266760D02*
X0384378Y0266760D01*
X0374535Y0228866D02*
X0376504Y0226897D01*
X0411937Y0226897D01*
X0375519Y0206720D02*
X0282508Y0206720D01*
X0272665Y0216563D01*
X0275126Y0216071D02*
X0275126Y0218039D01*
X0274141Y0219023D01*
X0256425Y0219023D01*
X0247075Y0209673D01*
X0247075Y0202291D01*
X0268728Y0216563D02*
X0281031Y0204260D01*
X0333689Y0204260D01*
X0335165Y0201799D02*
X0283984Y0201799D01*
X0283000Y0208197D02*
X0275126Y0216071D01*
X0254949Y0232311D02*
X0278078Y0255441D01*
X0271681Y0257901D02*
X0262330Y0267252D01*
X0260362Y0267252D01*
X0257901Y0265283D02*
X0257901Y0269712D01*
X0257901Y0272173D02*
X0269712Y0283984D01*
X0257901Y0265283D02*
X0265775Y0257409D01*
X0281523Y0261838D02*
X0309082Y0261838D01*
X0314004Y0266760D01*
X0311543Y0241661D02*
X0304653Y0234771D01*
X0335165Y0201799D02*
X0337626Y0204260D01*
X0349929Y0204260D01*
X0202291Y0285952D02*
X0164889Y0323354D01*
X0164889Y0341071D01*
D18*
X0164889Y0341071D03*
X0227389Y0286445D03*
X0207212Y0264791D03*
X0225421Y0220008D03*
X0223452Y0216563D03*
X0247075Y0209673D03*
X0247075Y0202291D03*
X0268728Y0216563D03*
X0272665Y0216563D03*
X0284476Y0214594D03*
X0284476Y0210657D03*
X0283984Y0201799D03*
X0275618Y0192941D03*
X0296287Y0211149D03*
X0301208Y0216071D03*
X0305145Y0198846D03*
X0333689Y0204260D03*
X0349929Y0204260D03*
X0375519Y0206720D03*
X0330736Y0225421D03*
X0311543Y0241661D03*
X0283984Y0235263D03*
X0281031Y0230834D03*
X0270204Y0251504D03*
X0265775Y0257409D03*
X0260362Y0267252D03*
X0257901Y0272173D03*
X0260854Y0280539D03*
X0269712Y0283984D03*
X0281523Y0261838D03*
X0278078Y0255441D03*
X0254949Y0232311D03*
X0297271Y0286445D03*
X0384378Y0341071D03*
X0148649Y0191464D03*
X0148649Y0171779D03*
D19*
X0148649Y0191464D01*
X0154063Y0158000D02*
X0205244Y0209181D01*
X0205244Y0252488D01*
X0207212Y0264791D02*
X0224437Y0264791D01*
X0224929Y0264299D01*
M02*
