%
M48
M72
T01C0.0150
T02C0.0236
T03C0.0394
T04C0.0400
T05C0.0433
T06C0.0551
%
T01
X14865Y17178
X14865Y19146
X20721Y26479
X22739Y28644
X25790Y27217
X26036Y26725
X26578Y25741
X27020Y25150
X27808Y25544
X28152Y26184
X26971Y28398
X26085Y28054
X29727Y28644
X31154Y24166
X33074Y22542
X33369Y20426
X34993Y20426
X37552Y20672
X30515Y19885
X29629Y21115
X30121Y21607
X28448Y21459
X28448Y21066
X28398Y20180
X27562Y19294
X27267Y21656
X26873Y21656
X28103Y23083
X28398Y23526
X25495Y23231
X24707Y20967
X24707Y20229
X22345Y21656
X22542Y22001
X16489Y34107
X38438Y34107
T02
X15406Y15013
X15406Y15800
X24461Y18556
X26036Y17572
X26430Y17965
X26036Y16981
X26036Y16587
X26036Y16194
X26036Y15800
X25249Y16194
X25249Y16587
X28005Y15800
X28792Y15800
X29579Y16194
X29579Y16981
X29579Y17768
X28792Y17965
X28005Y17965
X29973Y18556
X37454Y22887
X39816Y23674
X39816Y24855
X37454Y26036
X39028Y15800
X39028Y15013
X22493Y25642
X22493Y26430
X20524Y25249
X15406Y39028
X15406Y39816
X39028Y39422
X39028Y38635
T03
X21467Y28217
X21467Y27217
T04
X13871Y26324
X13871Y25324
X13871Y24324
X13871Y23324
X13871Y22324
X13871Y21324
X13871Y28611
X13871Y29611
X13871Y30611
X13871Y31611
X13871Y32611
X13871Y33611
X32713Y36363
X33713Y36363
X33713Y37363
X32713Y37363
X34713Y37363
X34713Y36363
T05
X41194Y31690
X41194Y30690
X41194Y29690
X41194Y28690
X41194Y27690
X41194Y26690
X41194Y25690
X41194Y24690
X41194Y23690
X41194Y22690
X23843Y30166
X23843Y31166
T06
X22473Y30111
X22473Y24324
X31961Y24324
X31961Y30111
M30
