G75*
%MOIN*%
%OFA0B0*%
%FSLAX25Y25*%
%IPPOS*%
%LPD*%
%AMOC8*
5,1,8,0,0,1.08239X$1,22.5*
%
%ADD10C,0.01600*%
%ADD11C,0.00500*%
%ADD12C,0.00400*%
%ADD13C,0.00000*%
%ADD14C,0.00472*%
%ADD15C,0.00787*%
%ADD16C,0.00800*%
%ADD17C,0.00300*%
%ADD18C,0.00600*%
D10*
X0002094Y0024535D02*
X0011937Y0025913D01*
X0025716Y0012134D02*
X0024535Y0002094D01*
X0024535Y0002093D02*
X0025182Y0002010D01*
X0025831Y0001943D01*
X0026482Y0001891D01*
X0027133Y0001856D01*
X0027785Y0001836D01*
X0028438Y0001833D01*
X0029090Y0001845D01*
X0029742Y0001873D01*
X0030393Y0001918D01*
X0031042Y0001978D01*
X0031690Y0002054D01*
X0032336Y0002147D01*
X0032980Y0002255D01*
X0033620Y0002378D01*
X0034258Y0002517D01*
X0034891Y0002672D01*
X0035521Y0002843D01*
X0036147Y0003029D01*
X0036767Y0003230D01*
X0037383Y0003446D01*
X0037993Y0003677D01*
X0038597Y0003923D01*
X0039195Y0004184D01*
X0039787Y0004459D01*
X0040371Y0004749D01*
X0040949Y0005053D01*
X0041518Y0005371D01*
X0042080Y0005703D01*
X0042633Y0006049D01*
X0043178Y0006408D01*
X0043714Y0006781D01*
X0044240Y0007166D01*
X0044757Y0007564D01*
X0045264Y0007975D01*
X0045761Y0008398D01*
X0046247Y0008833D01*
X0046722Y0009280D01*
X0047186Y0009738D01*
X0047639Y0010208D01*
X0048081Y0010689D01*
X0048510Y0011180D01*
X0048927Y0011681D01*
X0049332Y0012193D01*
X0049724Y0012715D01*
X0050103Y0013246D01*
X0050469Y0013786D01*
X0050822Y0014335D01*
X0051161Y0014892D01*
X0051486Y0015457D01*
X0051798Y0016031D01*
X0052095Y0016611D01*
X0052378Y0017199D01*
X0052647Y0017794D01*
X0052900Y0018395D01*
X0053139Y0019002D01*
X0053364Y0019615D01*
X0053572Y0020233D01*
X0053766Y0020856D01*
X0053945Y0021484D01*
X0054108Y0022115D01*
X0054255Y0022751D01*
X0054387Y0023390D01*
X0054503Y0024032D01*
X0054603Y0024677D01*
X0054688Y0025323D01*
X0054757Y0025972D01*
X0054809Y0026623D01*
X0054846Y0027274D01*
X0054867Y0027926D01*
X0054872Y0028579D01*
X0054860Y0029231D01*
X0054833Y0029883D01*
X0054790Y0030534D01*
X0054731Y0031184D01*
X0054656Y0031832D01*
X0054565Y0032478D01*
X0054458Y0033121D01*
X0054336Y0033762D01*
X0054198Y0034400D01*
X0054044Y0035034D01*
X0053875Y0035664D01*
X0053691Y0036290D01*
X0053491Y0036911D01*
X0053276Y0037527D01*
X0053275Y0037527D02*
X0138315Y0122567D01*
X0406031Y0122567D01*
X0491071Y0037527D01*
X0506819Y0053275D02*
X0421779Y0138315D01*
X0421779Y0406031D01*
X0506819Y0491071D01*
X0491071Y0506819D02*
X0406031Y0421779D01*
X0138315Y0421779D01*
X0053275Y0506819D01*
X0037527Y0491071D02*
X0122567Y0406031D01*
X0122567Y0138315D01*
X0037527Y0053275D01*
X0011936Y0025913D02*
X0011878Y0026314D01*
X0011830Y0026716D01*
X0011792Y0027120D01*
X0011764Y0027524D01*
X0011746Y0027929D01*
X0011738Y0028334D01*
X0011739Y0028739D01*
X0011751Y0029144D01*
X0011772Y0029549D01*
X0011803Y0029953D01*
X0011845Y0030356D01*
X0011896Y0030758D01*
X0011957Y0031159D01*
X0012027Y0031558D01*
X0012108Y0031955D01*
X0012198Y0032350D01*
X0012298Y0032743D01*
X0012407Y0033133D01*
X0012526Y0033520D01*
X0012655Y0033904D01*
X0012792Y0034286D01*
X0012940Y0034663D01*
X0013096Y0035037D01*
X0013261Y0035407D01*
X0013436Y0035773D01*
X0013619Y0036134D01*
X0013811Y0036491D01*
X0014012Y0036843D01*
X0014221Y0037190D01*
X0014439Y0037531D01*
X0014665Y0037868D01*
X0014899Y0038198D01*
X0015142Y0038523D01*
X0015392Y0038842D01*
X0015650Y0039154D01*
X0015915Y0039461D01*
X0016188Y0039760D01*
X0016469Y0040053D01*
X0016756Y0040339D01*
X0017050Y0040617D01*
X0017351Y0040889D01*
X0017658Y0041153D01*
X0017972Y0041409D01*
X0018292Y0041657D01*
X0018618Y0041898D01*
X0018950Y0042131D01*
X0019288Y0042355D01*
X0019631Y0042571D01*
X0019979Y0042778D01*
X0020332Y0042977D01*
X0020689Y0043168D01*
X0021052Y0043349D01*
X0021418Y0043522D01*
X0021789Y0043685D01*
X0022164Y0043839D01*
X0022542Y0043985D01*
X0022924Y0044120D01*
X0023309Y0044247D01*
X0023697Y0044364D01*
X0024088Y0044471D01*
X0024481Y0044569D01*
X0024876Y0044657D01*
X0025274Y0044735D01*
X0025673Y0044804D01*
X0026074Y0044863D01*
X0026477Y0044912D01*
X0026880Y0044951D01*
X0027284Y0044980D01*
X0027689Y0045000D01*
X0028094Y0045009D01*
X0028499Y0045008D01*
X0028904Y0044998D01*
X0029309Y0044978D01*
X0029713Y0044947D01*
X0030116Y0044907D01*
X0030518Y0044857D01*
X0030919Y0044797D01*
X0031318Y0044728D01*
X0031716Y0044648D01*
X0032111Y0044559D01*
X0032504Y0044460D01*
X0032894Y0044352D01*
X0033282Y0044234D01*
X0033667Y0044106D01*
X0034048Y0043970D01*
X0034426Y0043824D01*
X0034800Y0043668D01*
X0035171Y0043504D01*
X0035537Y0043330D01*
X0035899Y0043148D01*
X0036256Y0042957D01*
X0036609Y0042757D01*
X0036956Y0042548D01*
X0037298Y0042331D01*
X0037635Y0042106D01*
X0037966Y0041873D01*
X0038292Y0041631D01*
X0038611Y0041382D01*
X0038924Y0041125D01*
X0039231Y0040860D01*
X0039532Y0040588D01*
X0039825Y0040309D01*
X0040112Y0040022D01*
X0040391Y0039729D01*
X0040663Y0039428D01*
X0040928Y0039121D01*
X0041185Y0038808D01*
X0041434Y0038489D01*
X0041676Y0038163D01*
X0041909Y0037832D01*
X0042134Y0037495D01*
X0042351Y0037153D01*
X0042560Y0036806D01*
X0042760Y0036453D01*
X0042951Y0036096D01*
X0043133Y0035734D01*
X0043307Y0035368D01*
X0043471Y0034997D01*
X0043627Y0034623D01*
X0043773Y0034245D01*
X0043909Y0033864D01*
X0044037Y0033479D01*
X0044155Y0033091D01*
X0044263Y0032701D01*
X0044362Y0032308D01*
X0044451Y0031913D01*
X0044531Y0031515D01*
X0044600Y0031116D01*
X0044660Y0030715D01*
X0044710Y0030313D01*
X0044750Y0029910D01*
X0044781Y0029506D01*
X0044801Y0029101D01*
X0044811Y0028696D01*
X0044812Y0028291D01*
X0044803Y0027886D01*
X0044783Y0027481D01*
X0044754Y0027077D01*
X0044715Y0026674D01*
X0044666Y0026271D01*
X0044607Y0025870D01*
X0044538Y0025471D01*
X0044460Y0025073D01*
X0044372Y0024678D01*
X0044274Y0024285D01*
X0044167Y0023894D01*
X0044050Y0023506D01*
X0043923Y0023121D01*
X0043788Y0022739D01*
X0043642Y0022361D01*
X0043488Y0021986D01*
X0043325Y0021615D01*
X0043152Y0021249D01*
X0042971Y0020886D01*
X0042780Y0020529D01*
X0042581Y0020176D01*
X0042374Y0019828D01*
X0042158Y0019485D01*
X0041934Y0019147D01*
X0041701Y0018815D01*
X0041460Y0018489D01*
X0041212Y0018169D01*
X0040956Y0017855D01*
X0040692Y0017548D01*
X0040420Y0017247D01*
X0040142Y0016953D01*
X0039856Y0016666D01*
X0039563Y0016385D01*
X0039264Y0016112D01*
X0038957Y0015847D01*
X0038645Y0015589D01*
X0038326Y0015339D01*
X0038001Y0015096D01*
X0037671Y0014862D01*
X0037334Y0014636D01*
X0036993Y0014418D01*
X0036646Y0014209D01*
X0036294Y0014008D01*
X0035937Y0013816D01*
X0035576Y0013633D01*
X0035210Y0013458D01*
X0034840Y0013293D01*
X0034466Y0013137D01*
X0034089Y0012989D01*
X0033707Y0012852D01*
X0033323Y0012723D01*
X0032936Y0012604D01*
X0032546Y0012495D01*
X0032153Y0012395D01*
X0031758Y0012305D01*
X0031361Y0012224D01*
X0030962Y0012154D01*
X0030561Y0012093D01*
X0030159Y0012042D01*
X0029756Y0012000D01*
X0029352Y0011969D01*
X0028947Y0011948D01*
X0028542Y0011936D01*
X0028137Y0011935D01*
X0027732Y0011943D01*
X0027327Y0011961D01*
X0026923Y0011989D01*
X0026519Y0012027D01*
X0026117Y0012075D01*
X0025716Y0012133D01*
X0002094Y0024535D02*
X0002006Y0025176D01*
X0001933Y0025819D01*
X0001876Y0026463D01*
X0001835Y0027109D01*
X0001810Y0027755D01*
X0001800Y0028402D01*
X0001806Y0029049D01*
X0001828Y0029695D01*
X0001866Y0030341D01*
X0001920Y0030986D01*
X0001989Y0031629D01*
X0002074Y0032270D01*
X0002175Y0032909D01*
X0002291Y0033546D01*
X0002423Y0034179D01*
X0002570Y0034809D01*
X0002732Y0035435D01*
X0002910Y0036057D01*
X0003103Y0036675D01*
X0003311Y0037287D01*
X0003534Y0037895D01*
X0003772Y0038496D01*
X0004024Y0039092D01*
X0004291Y0039681D01*
X0004572Y0040264D01*
X0004867Y0040840D01*
X0005176Y0041408D01*
X0005499Y0041968D01*
X0005836Y0042521D01*
X0006186Y0043065D01*
X0006549Y0043600D01*
X0006925Y0044126D01*
X0007314Y0044643D01*
X0007715Y0045151D01*
X0008129Y0045648D01*
X0008555Y0046135D01*
X0008992Y0046612D01*
X0009441Y0047077D01*
X0009901Y0047532D01*
X0010373Y0047975D01*
X0010855Y0048407D01*
X0011347Y0048827D01*
X0011849Y0049234D01*
X0012362Y0049629D01*
X0012883Y0050012D01*
X0013414Y0050381D01*
X0013954Y0050738D01*
X0014502Y0051081D01*
X0015059Y0051411D01*
X0015623Y0051727D01*
X0016195Y0052029D01*
X0016775Y0052317D01*
X0017361Y0052591D01*
X0017953Y0052850D01*
X0018552Y0053095D01*
X0019157Y0053325D01*
X0019767Y0053541D01*
X0020382Y0053741D01*
X0021002Y0053927D01*
X0021626Y0054097D01*
X0022254Y0054251D01*
X0022885Y0054391D01*
X0023520Y0054515D01*
X0024158Y0054623D01*
X0024798Y0054716D01*
X0025441Y0054793D01*
X0026085Y0054854D01*
X0026730Y0054900D01*
X0027376Y0054930D01*
X0028023Y0054944D01*
X0028670Y0054942D01*
X0029317Y0054924D01*
X0029963Y0054891D01*
X0030608Y0054842D01*
X0031251Y0054777D01*
X0031893Y0054696D01*
X0032533Y0054600D01*
X0033170Y0054488D01*
X0033804Y0054361D01*
X0034435Y0054218D01*
X0035062Y0054060D01*
X0035686Y0053886D01*
X0036304Y0053698D01*
X0036918Y0053494D01*
X0037527Y0053275D01*
X0012133Y0518630D02*
X0012075Y0518229D01*
X0012027Y0517827D01*
X0011989Y0517423D01*
X0011961Y0517019D01*
X0011943Y0516614D01*
X0011935Y0516209D01*
X0011936Y0515804D01*
X0011948Y0515399D01*
X0011969Y0514994D01*
X0012000Y0514590D01*
X0012042Y0514187D01*
X0012093Y0513785D01*
X0012154Y0513384D01*
X0012224Y0512985D01*
X0012305Y0512588D01*
X0012395Y0512193D01*
X0012495Y0511800D01*
X0012604Y0511410D01*
X0012723Y0511023D01*
X0012852Y0510639D01*
X0012989Y0510257D01*
X0013137Y0509880D01*
X0013293Y0509506D01*
X0013458Y0509136D01*
X0013633Y0508770D01*
X0013816Y0508409D01*
X0014008Y0508052D01*
X0014209Y0507700D01*
X0014418Y0507353D01*
X0014636Y0507012D01*
X0014862Y0506675D01*
X0015096Y0506345D01*
X0015339Y0506020D01*
X0015589Y0505701D01*
X0015847Y0505389D01*
X0016112Y0505082D01*
X0016385Y0504783D01*
X0016666Y0504490D01*
X0016953Y0504204D01*
X0017247Y0503926D01*
X0017548Y0503654D01*
X0017855Y0503390D01*
X0018169Y0503134D01*
X0018489Y0502886D01*
X0018815Y0502645D01*
X0019147Y0502412D01*
X0019485Y0502188D01*
X0019828Y0501972D01*
X0020176Y0501765D01*
X0020529Y0501566D01*
X0020886Y0501375D01*
X0021249Y0501194D01*
X0021615Y0501021D01*
X0021986Y0500858D01*
X0022361Y0500704D01*
X0022739Y0500558D01*
X0023121Y0500423D01*
X0023506Y0500296D01*
X0023894Y0500179D01*
X0024285Y0500072D01*
X0024678Y0499974D01*
X0025073Y0499886D01*
X0025471Y0499808D01*
X0025870Y0499739D01*
X0026271Y0499680D01*
X0026674Y0499631D01*
X0027077Y0499592D01*
X0027481Y0499563D01*
X0027886Y0499543D01*
X0028291Y0499534D01*
X0028696Y0499535D01*
X0029101Y0499545D01*
X0029506Y0499565D01*
X0029910Y0499596D01*
X0030313Y0499636D01*
X0030715Y0499686D01*
X0031116Y0499746D01*
X0031515Y0499815D01*
X0031913Y0499895D01*
X0032308Y0499984D01*
X0032701Y0500083D01*
X0033091Y0500191D01*
X0033479Y0500309D01*
X0033864Y0500437D01*
X0034245Y0500573D01*
X0034623Y0500719D01*
X0034997Y0500875D01*
X0035368Y0501039D01*
X0035734Y0501213D01*
X0036096Y0501395D01*
X0036453Y0501586D01*
X0036806Y0501786D01*
X0037153Y0501995D01*
X0037495Y0502212D01*
X0037832Y0502437D01*
X0038163Y0502670D01*
X0038489Y0502912D01*
X0038808Y0503161D01*
X0039121Y0503418D01*
X0039428Y0503683D01*
X0039729Y0503955D01*
X0040022Y0504234D01*
X0040309Y0504521D01*
X0040588Y0504814D01*
X0040860Y0505115D01*
X0041125Y0505422D01*
X0041382Y0505735D01*
X0041631Y0506054D01*
X0041873Y0506380D01*
X0042106Y0506711D01*
X0042331Y0507048D01*
X0042548Y0507390D01*
X0042757Y0507737D01*
X0042957Y0508090D01*
X0043148Y0508447D01*
X0043330Y0508809D01*
X0043504Y0509175D01*
X0043668Y0509546D01*
X0043824Y0509920D01*
X0043970Y0510298D01*
X0044106Y0510679D01*
X0044234Y0511064D01*
X0044352Y0511452D01*
X0044460Y0511842D01*
X0044559Y0512235D01*
X0044648Y0512630D01*
X0044728Y0513028D01*
X0044797Y0513427D01*
X0044857Y0513828D01*
X0044907Y0514230D01*
X0044947Y0514633D01*
X0044978Y0515037D01*
X0044998Y0515442D01*
X0045008Y0515847D01*
X0045009Y0516252D01*
X0045000Y0516657D01*
X0044980Y0517062D01*
X0044951Y0517466D01*
X0044912Y0517869D01*
X0044863Y0518272D01*
X0044804Y0518673D01*
X0044735Y0519072D01*
X0044657Y0519470D01*
X0044569Y0519865D01*
X0044471Y0520258D01*
X0044364Y0520649D01*
X0044247Y0521037D01*
X0044120Y0521422D01*
X0043985Y0521804D01*
X0043839Y0522182D01*
X0043685Y0522557D01*
X0043522Y0522928D01*
X0043349Y0523294D01*
X0043168Y0523657D01*
X0042977Y0524014D01*
X0042778Y0524367D01*
X0042571Y0524715D01*
X0042355Y0525058D01*
X0042131Y0525396D01*
X0041898Y0525728D01*
X0041657Y0526054D01*
X0041409Y0526374D01*
X0041153Y0526688D01*
X0040889Y0526995D01*
X0040617Y0527296D01*
X0040339Y0527590D01*
X0040053Y0527877D01*
X0039760Y0528158D01*
X0039461Y0528431D01*
X0039154Y0528696D01*
X0038842Y0528954D01*
X0038523Y0529204D01*
X0038198Y0529447D01*
X0037868Y0529681D01*
X0037531Y0529907D01*
X0037190Y0530125D01*
X0036843Y0530334D01*
X0036491Y0530535D01*
X0036134Y0530727D01*
X0035773Y0530910D01*
X0035407Y0531085D01*
X0035037Y0531250D01*
X0034663Y0531406D01*
X0034286Y0531554D01*
X0033904Y0531691D01*
X0033520Y0531820D01*
X0033133Y0531939D01*
X0032743Y0532048D01*
X0032350Y0532148D01*
X0031955Y0532238D01*
X0031558Y0532319D01*
X0031159Y0532389D01*
X0030758Y0532450D01*
X0030356Y0532501D01*
X0029953Y0532543D01*
X0029549Y0532574D01*
X0029144Y0532595D01*
X0028739Y0532607D01*
X0028334Y0532608D01*
X0027929Y0532600D01*
X0027524Y0532582D01*
X0027120Y0532554D01*
X0026716Y0532516D01*
X0026314Y0532468D01*
X0025913Y0532410D01*
X0025913Y0532409D02*
X0024535Y0542252D01*
X0012134Y0518630D02*
X0002094Y0519811D01*
X0002093Y0519811D02*
X0002010Y0519164D01*
X0001943Y0518515D01*
X0001891Y0517864D01*
X0001856Y0517213D01*
X0001836Y0516561D01*
X0001833Y0515908D01*
X0001845Y0515256D01*
X0001873Y0514604D01*
X0001918Y0513953D01*
X0001978Y0513304D01*
X0002054Y0512656D01*
X0002147Y0512010D01*
X0002255Y0511366D01*
X0002378Y0510726D01*
X0002517Y0510088D01*
X0002672Y0509455D01*
X0002843Y0508825D01*
X0003029Y0508199D01*
X0003230Y0507579D01*
X0003446Y0506963D01*
X0003677Y0506353D01*
X0003923Y0505749D01*
X0004184Y0505151D01*
X0004459Y0504559D01*
X0004749Y0503975D01*
X0005053Y0503397D01*
X0005371Y0502828D01*
X0005703Y0502266D01*
X0006049Y0501713D01*
X0006408Y0501168D01*
X0006781Y0500632D01*
X0007166Y0500106D01*
X0007564Y0499589D01*
X0007975Y0499082D01*
X0008398Y0498585D01*
X0008833Y0498099D01*
X0009280Y0497624D01*
X0009738Y0497160D01*
X0010208Y0496707D01*
X0010689Y0496265D01*
X0011180Y0495836D01*
X0011681Y0495419D01*
X0012193Y0495014D01*
X0012715Y0494622D01*
X0013246Y0494243D01*
X0013786Y0493877D01*
X0014335Y0493524D01*
X0014892Y0493185D01*
X0015457Y0492860D01*
X0016031Y0492548D01*
X0016611Y0492251D01*
X0017199Y0491968D01*
X0017794Y0491699D01*
X0018395Y0491446D01*
X0019002Y0491207D01*
X0019615Y0490982D01*
X0020233Y0490774D01*
X0020856Y0490580D01*
X0021484Y0490401D01*
X0022115Y0490238D01*
X0022751Y0490091D01*
X0023390Y0489959D01*
X0024032Y0489843D01*
X0024677Y0489743D01*
X0025323Y0489658D01*
X0025972Y0489589D01*
X0026623Y0489537D01*
X0027274Y0489500D01*
X0027926Y0489479D01*
X0028579Y0489474D01*
X0029231Y0489486D01*
X0029883Y0489513D01*
X0030534Y0489556D01*
X0031184Y0489615D01*
X0031832Y0489690D01*
X0032478Y0489781D01*
X0033121Y0489888D01*
X0033762Y0490010D01*
X0034400Y0490148D01*
X0035034Y0490302D01*
X0035664Y0490471D01*
X0036290Y0490655D01*
X0036911Y0490855D01*
X0037527Y0491070D01*
X0053275Y0506819D02*
X0053494Y0507428D01*
X0053698Y0508042D01*
X0053886Y0508660D01*
X0054060Y0509284D01*
X0054218Y0509911D01*
X0054361Y0510542D01*
X0054488Y0511176D01*
X0054600Y0511813D01*
X0054696Y0512453D01*
X0054777Y0513095D01*
X0054842Y0513738D01*
X0054891Y0514383D01*
X0054924Y0515029D01*
X0054942Y0515676D01*
X0054944Y0516323D01*
X0054930Y0516970D01*
X0054900Y0517616D01*
X0054854Y0518261D01*
X0054793Y0518905D01*
X0054716Y0519548D01*
X0054623Y0520188D01*
X0054515Y0520826D01*
X0054391Y0521461D01*
X0054251Y0522092D01*
X0054097Y0522720D01*
X0053927Y0523344D01*
X0053741Y0523964D01*
X0053541Y0524579D01*
X0053325Y0525189D01*
X0053095Y0525794D01*
X0052850Y0526393D01*
X0052591Y0526985D01*
X0052317Y0527571D01*
X0052029Y0528151D01*
X0051727Y0528723D01*
X0051411Y0529287D01*
X0051081Y0529844D01*
X0050738Y0530392D01*
X0050381Y0530932D01*
X0050012Y0531463D01*
X0049629Y0531984D01*
X0049234Y0532497D01*
X0048827Y0532999D01*
X0048407Y0533491D01*
X0047975Y0533973D01*
X0047532Y0534445D01*
X0047077Y0534905D01*
X0046612Y0535354D01*
X0046135Y0535791D01*
X0045648Y0536217D01*
X0045151Y0536631D01*
X0044643Y0537032D01*
X0044126Y0537421D01*
X0043600Y0537797D01*
X0043065Y0538160D01*
X0042521Y0538510D01*
X0041968Y0538847D01*
X0041408Y0539170D01*
X0040840Y0539479D01*
X0040264Y0539774D01*
X0039681Y0540055D01*
X0039092Y0540322D01*
X0038496Y0540574D01*
X0037895Y0540812D01*
X0037287Y0541035D01*
X0036675Y0541243D01*
X0036057Y0541436D01*
X0035435Y0541614D01*
X0034809Y0541776D01*
X0034179Y0541923D01*
X0033546Y0542055D01*
X0032909Y0542171D01*
X0032270Y0542272D01*
X0031629Y0542357D01*
X0030986Y0542426D01*
X0030341Y0542480D01*
X0029695Y0542518D01*
X0029049Y0542540D01*
X0028402Y0542546D01*
X0027755Y0542536D01*
X0027109Y0542511D01*
X0026463Y0542470D01*
X0025819Y0542413D01*
X0025176Y0542340D01*
X0024535Y0542252D01*
X0518630Y0532213D02*
X0518229Y0532271D01*
X0517827Y0532319D01*
X0517423Y0532357D01*
X0517019Y0532385D01*
X0516614Y0532403D01*
X0516209Y0532411D01*
X0515804Y0532410D01*
X0515399Y0532398D01*
X0514994Y0532377D01*
X0514590Y0532346D01*
X0514187Y0532304D01*
X0513785Y0532253D01*
X0513384Y0532192D01*
X0512985Y0532122D01*
X0512588Y0532041D01*
X0512193Y0531951D01*
X0511800Y0531851D01*
X0511410Y0531742D01*
X0511023Y0531623D01*
X0510639Y0531494D01*
X0510257Y0531357D01*
X0509880Y0531209D01*
X0509506Y0531053D01*
X0509136Y0530888D01*
X0508770Y0530713D01*
X0508409Y0530530D01*
X0508052Y0530338D01*
X0507700Y0530137D01*
X0507353Y0529928D01*
X0507012Y0529710D01*
X0506675Y0529484D01*
X0506345Y0529250D01*
X0506020Y0529007D01*
X0505701Y0528757D01*
X0505389Y0528499D01*
X0505082Y0528234D01*
X0504783Y0527961D01*
X0504490Y0527680D01*
X0504204Y0527393D01*
X0503926Y0527099D01*
X0503654Y0526798D01*
X0503390Y0526491D01*
X0503134Y0526177D01*
X0502886Y0525857D01*
X0502645Y0525531D01*
X0502412Y0525199D01*
X0502188Y0524861D01*
X0501972Y0524518D01*
X0501765Y0524170D01*
X0501566Y0523817D01*
X0501375Y0523460D01*
X0501194Y0523097D01*
X0501021Y0522731D01*
X0500858Y0522360D01*
X0500704Y0521985D01*
X0500558Y0521607D01*
X0500423Y0521225D01*
X0500296Y0520840D01*
X0500179Y0520452D01*
X0500072Y0520061D01*
X0499974Y0519668D01*
X0499886Y0519273D01*
X0499808Y0518875D01*
X0499739Y0518476D01*
X0499680Y0518075D01*
X0499631Y0517672D01*
X0499592Y0517269D01*
X0499563Y0516865D01*
X0499543Y0516460D01*
X0499534Y0516055D01*
X0499535Y0515650D01*
X0499545Y0515245D01*
X0499565Y0514840D01*
X0499596Y0514436D01*
X0499636Y0514033D01*
X0499686Y0513631D01*
X0499746Y0513230D01*
X0499815Y0512831D01*
X0499895Y0512433D01*
X0499984Y0512038D01*
X0500083Y0511645D01*
X0500191Y0511255D01*
X0500309Y0510867D01*
X0500437Y0510482D01*
X0500573Y0510101D01*
X0500719Y0509723D01*
X0500875Y0509349D01*
X0501039Y0508978D01*
X0501213Y0508612D01*
X0501395Y0508250D01*
X0501586Y0507893D01*
X0501786Y0507540D01*
X0501995Y0507193D01*
X0502212Y0506851D01*
X0502437Y0506514D01*
X0502670Y0506183D01*
X0502912Y0505857D01*
X0503161Y0505538D01*
X0503418Y0505225D01*
X0503683Y0504918D01*
X0503955Y0504617D01*
X0504234Y0504324D01*
X0504521Y0504037D01*
X0504814Y0503758D01*
X0505115Y0503486D01*
X0505422Y0503221D01*
X0505735Y0502964D01*
X0506054Y0502715D01*
X0506380Y0502473D01*
X0506711Y0502240D01*
X0507048Y0502015D01*
X0507390Y0501798D01*
X0507737Y0501589D01*
X0508090Y0501389D01*
X0508447Y0501198D01*
X0508809Y0501016D01*
X0509175Y0500842D01*
X0509546Y0500678D01*
X0509920Y0500522D01*
X0510298Y0500376D01*
X0510679Y0500240D01*
X0511064Y0500112D01*
X0511452Y0499994D01*
X0511842Y0499886D01*
X0512235Y0499787D01*
X0512630Y0499698D01*
X0513028Y0499618D01*
X0513427Y0499549D01*
X0513828Y0499489D01*
X0514230Y0499439D01*
X0514633Y0499399D01*
X0515037Y0499368D01*
X0515442Y0499348D01*
X0515847Y0499338D01*
X0516252Y0499337D01*
X0516657Y0499346D01*
X0517062Y0499366D01*
X0517466Y0499395D01*
X0517869Y0499434D01*
X0518272Y0499483D01*
X0518673Y0499542D01*
X0519072Y0499611D01*
X0519470Y0499689D01*
X0519865Y0499777D01*
X0520258Y0499875D01*
X0520649Y0499982D01*
X0521037Y0500099D01*
X0521422Y0500226D01*
X0521804Y0500361D01*
X0522182Y0500507D01*
X0522557Y0500661D01*
X0522928Y0500824D01*
X0523294Y0500997D01*
X0523657Y0501178D01*
X0524014Y0501369D01*
X0524367Y0501568D01*
X0524715Y0501775D01*
X0525058Y0501991D01*
X0525396Y0502215D01*
X0525728Y0502448D01*
X0526054Y0502689D01*
X0526374Y0502937D01*
X0526688Y0503193D01*
X0526995Y0503457D01*
X0527296Y0503729D01*
X0527590Y0504007D01*
X0527877Y0504293D01*
X0528158Y0504586D01*
X0528431Y0504885D01*
X0528696Y0505192D01*
X0528954Y0505504D01*
X0529204Y0505823D01*
X0529447Y0506148D01*
X0529681Y0506478D01*
X0529907Y0506815D01*
X0530125Y0507156D01*
X0530334Y0507503D01*
X0530535Y0507855D01*
X0530727Y0508212D01*
X0530910Y0508573D01*
X0531085Y0508939D01*
X0531250Y0509309D01*
X0531406Y0509683D01*
X0531554Y0510060D01*
X0531691Y0510442D01*
X0531820Y0510826D01*
X0531939Y0511213D01*
X0532048Y0511603D01*
X0532148Y0511996D01*
X0532238Y0512391D01*
X0532319Y0512788D01*
X0532389Y0513187D01*
X0532450Y0513588D01*
X0532501Y0513990D01*
X0532543Y0514393D01*
X0532574Y0514797D01*
X0532595Y0515202D01*
X0532607Y0515607D01*
X0532608Y0516012D01*
X0532600Y0516417D01*
X0532582Y0516822D01*
X0532554Y0517226D01*
X0532516Y0517630D01*
X0532468Y0518032D01*
X0532410Y0518433D01*
X0532409Y0518433D02*
X0542252Y0519811D01*
X0518630Y0532212D02*
X0519811Y0542252D01*
X0519164Y0542335D01*
X0518515Y0542402D01*
X0517864Y0542454D01*
X0517213Y0542489D01*
X0516561Y0542509D01*
X0515908Y0542512D01*
X0515256Y0542500D01*
X0514604Y0542472D01*
X0513953Y0542427D01*
X0513304Y0542367D01*
X0512656Y0542291D01*
X0512010Y0542198D01*
X0511366Y0542090D01*
X0510726Y0541967D01*
X0510088Y0541828D01*
X0509455Y0541673D01*
X0508825Y0541502D01*
X0508199Y0541316D01*
X0507579Y0541115D01*
X0506963Y0540899D01*
X0506353Y0540668D01*
X0505749Y0540422D01*
X0505151Y0540161D01*
X0504559Y0539886D01*
X0503975Y0539596D01*
X0503397Y0539292D01*
X0502828Y0538974D01*
X0502266Y0538642D01*
X0501713Y0538296D01*
X0501168Y0537937D01*
X0500632Y0537564D01*
X0500106Y0537179D01*
X0499589Y0536781D01*
X0499082Y0536370D01*
X0498585Y0535947D01*
X0498099Y0535512D01*
X0497624Y0535065D01*
X0497160Y0534607D01*
X0496707Y0534137D01*
X0496265Y0533656D01*
X0495836Y0533165D01*
X0495419Y0532664D01*
X0495014Y0532152D01*
X0494622Y0531630D01*
X0494243Y0531099D01*
X0493877Y0530559D01*
X0493524Y0530010D01*
X0493185Y0529453D01*
X0492860Y0528888D01*
X0492548Y0528314D01*
X0492251Y0527734D01*
X0491968Y0527146D01*
X0491699Y0526551D01*
X0491446Y0525950D01*
X0491207Y0525343D01*
X0490982Y0524730D01*
X0490774Y0524112D01*
X0490580Y0523489D01*
X0490401Y0522861D01*
X0490238Y0522230D01*
X0490091Y0521594D01*
X0489959Y0520955D01*
X0489843Y0520313D01*
X0489743Y0519668D01*
X0489658Y0519022D01*
X0489589Y0518373D01*
X0489537Y0517722D01*
X0489500Y0517071D01*
X0489479Y0516419D01*
X0489474Y0515766D01*
X0489486Y0515114D01*
X0489513Y0514462D01*
X0489556Y0513811D01*
X0489615Y0513161D01*
X0489690Y0512513D01*
X0489781Y0511867D01*
X0489888Y0511224D01*
X0490010Y0510583D01*
X0490148Y0509945D01*
X0490302Y0509311D01*
X0490471Y0508681D01*
X0490655Y0508055D01*
X0490855Y0507434D01*
X0491070Y0506818D01*
X0506819Y0491071D02*
X0507428Y0490852D01*
X0508042Y0490648D01*
X0508660Y0490460D01*
X0509284Y0490286D01*
X0509911Y0490128D01*
X0510542Y0489985D01*
X0511176Y0489858D01*
X0511813Y0489746D01*
X0512453Y0489650D01*
X0513095Y0489569D01*
X0513738Y0489504D01*
X0514383Y0489455D01*
X0515029Y0489422D01*
X0515676Y0489404D01*
X0516323Y0489402D01*
X0516970Y0489416D01*
X0517616Y0489446D01*
X0518261Y0489492D01*
X0518905Y0489553D01*
X0519548Y0489630D01*
X0520188Y0489723D01*
X0520826Y0489831D01*
X0521461Y0489955D01*
X0522092Y0490095D01*
X0522720Y0490249D01*
X0523344Y0490419D01*
X0523964Y0490605D01*
X0524579Y0490805D01*
X0525189Y0491021D01*
X0525794Y0491251D01*
X0526393Y0491496D01*
X0526985Y0491755D01*
X0527571Y0492029D01*
X0528151Y0492317D01*
X0528723Y0492619D01*
X0529287Y0492935D01*
X0529844Y0493265D01*
X0530392Y0493608D01*
X0530932Y0493965D01*
X0531463Y0494334D01*
X0531984Y0494717D01*
X0532497Y0495112D01*
X0532999Y0495519D01*
X0533491Y0495939D01*
X0533973Y0496371D01*
X0534445Y0496814D01*
X0534905Y0497269D01*
X0535354Y0497734D01*
X0535791Y0498211D01*
X0536217Y0498698D01*
X0536631Y0499195D01*
X0537032Y0499703D01*
X0537421Y0500220D01*
X0537797Y0500746D01*
X0538160Y0501281D01*
X0538510Y0501825D01*
X0538847Y0502378D01*
X0539170Y0502938D01*
X0539479Y0503506D01*
X0539774Y0504082D01*
X0540055Y0504665D01*
X0540322Y0505254D01*
X0540574Y0505850D01*
X0540812Y0506451D01*
X0541035Y0507059D01*
X0541243Y0507671D01*
X0541436Y0508289D01*
X0541614Y0508911D01*
X0541776Y0509537D01*
X0541923Y0510167D01*
X0542055Y0510800D01*
X0542171Y0511437D01*
X0542272Y0512076D01*
X0542357Y0512717D01*
X0542426Y0513360D01*
X0542480Y0514005D01*
X0542518Y0514651D01*
X0542540Y0515297D01*
X0542546Y0515944D01*
X0542536Y0516591D01*
X0542511Y0517237D01*
X0542470Y0517883D01*
X0542413Y0518527D01*
X0542340Y0519170D01*
X0542252Y0519811D01*
X0532213Y0025716D02*
X0532271Y0026117D01*
X0532319Y0026519D01*
X0532357Y0026923D01*
X0532385Y0027327D01*
X0532403Y0027732D01*
X0532411Y0028137D01*
X0532410Y0028542D01*
X0532398Y0028947D01*
X0532377Y0029352D01*
X0532346Y0029756D01*
X0532304Y0030159D01*
X0532253Y0030561D01*
X0532192Y0030962D01*
X0532122Y0031361D01*
X0532041Y0031758D01*
X0531951Y0032153D01*
X0531851Y0032546D01*
X0531742Y0032936D01*
X0531623Y0033323D01*
X0531494Y0033707D01*
X0531357Y0034089D01*
X0531209Y0034466D01*
X0531053Y0034840D01*
X0530888Y0035210D01*
X0530713Y0035576D01*
X0530530Y0035937D01*
X0530338Y0036294D01*
X0530137Y0036646D01*
X0529928Y0036993D01*
X0529710Y0037334D01*
X0529484Y0037671D01*
X0529250Y0038001D01*
X0529007Y0038326D01*
X0528757Y0038645D01*
X0528499Y0038957D01*
X0528234Y0039264D01*
X0527961Y0039563D01*
X0527680Y0039856D01*
X0527393Y0040142D01*
X0527099Y0040420D01*
X0526798Y0040692D01*
X0526491Y0040956D01*
X0526177Y0041212D01*
X0525857Y0041460D01*
X0525531Y0041701D01*
X0525199Y0041934D01*
X0524861Y0042158D01*
X0524518Y0042374D01*
X0524170Y0042581D01*
X0523817Y0042780D01*
X0523460Y0042971D01*
X0523097Y0043152D01*
X0522731Y0043325D01*
X0522360Y0043488D01*
X0521985Y0043642D01*
X0521607Y0043788D01*
X0521225Y0043923D01*
X0520840Y0044050D01*
X0520452Y0044167D01*
X0520061Y0044274D01*
X0519668Y0044372D01*
X0519273Y0044460D01*
X0518875Y0044538D01*
X0518476Y0044607D01*
X0518075Y0044666D01*
X0517672Y0044715D01*
X0517269Y0044754D01*
X0516865Y0044783D01*
X0516460Y0044803D01*
X0516055Y0044812D01*
X0515650Y0044811D01*
X0515245Y0044801D01*
X0514840Y0044781D01*
X0514436Y0044750D01*
X0514033Y0044710D01*
X0513631Y0044660D01*
X0513230Y0044600D01*
X0512831Y0044531D01*
X0512433Y0044451D01*
X0512038Y0044362D01*
X0511645Y0044263D01*
X0511255Y0044155D01*
X0510867Y0044037D01*
X0510482Y0043909D01*
X0510101Y0043773D01*
X0509723Y0043627D01*
X0509349Y0043471D01*
X0508978Y0043307D01*
X0508612Y0043133D01*
X0508250Y0042951D01*
X0507893Y0042760D01*
X0507540Y0042560D01*
X0507193Y0042351D01*
X0506851Y0042134D01*
X0506514Y0041909D01*
X0506183Y0041676D01*
X0505857Y0041434D01*
X0505538Y0041185D01*
X0505225Y0040928D01*
X0504918Y0040663D01*
X0504617Y0040391D01*
X0504324Y0040112D01*
X0504037Y0039825D01*
X0503758Y0039532D01*
X0503486Y0039231D01*
X0503221Y0038924D01*
X0502964Y0038611D01*
X0502715Y0038292D01*
X0502473Y0037966D01*
X0502240Y0037635D01*
X0502015Y0037298D01*
X0501798Y0036956D01*
X0501589Y0036609D01*
X0501389Y0036256D01*
X0501198Y0035899D01*
X0501016Y0035537D01*
X0500842Y0035171D01*
X0500678Y0034800D01*
X0500522Y0034426D01*
X0500376Y0034048D01*
X0500240Y0033667D01*
X0500112Y0033282D01*
X0499994Y0032894D01*
X0499886Y0032504D01*
X0499787Y0032111D01*
X0499698Y0031716D01*
X0499618Y0031318D01*
X0499549Y0030919D01*
X0499489Y0030518D01*
X0499439Y0030116D01*
X0499399Y0029713D01*
X0499368Y0029309D01*
X0499348Y0028904D01*
X0499338Y0028499D01*
X0499337Y0028094D01*
X0499346Y0027689D01*
X0499366Y0027284D01*
X0499395Y0026880D01*
X0499434Y0026477D01*
X0499483Y0026074D01*
X0499542Y0025673D01*
X0499611Y0025274D01*
X0499689Y0024876D01*
X0499777Y0024481D01*
X0499875Y0024088D01*
X0499982Y0023697D01*
X0500099Y0023309D01*
X0500226Y0022924D01*
X0500361Y0022542D01*
X0500507Y0022164D01*
X0500661Y0021789D01*
X0500824Y0021418D01*
X0500997Y0021052D01*
X0501178Y0020689D01*
X0501369Y0020332D01*
X0501568Y0019979D01*
X0501775Y0019631D01*
X0501991Y0019288D01*
X0502215Y0018950D01*
X0502448Y0018618D01*
X0502689Y0018292D01*
X0502937Y0017972D01*
X0503193Y0017658D01*
X0503457Y0017351D01*
X0503729Y0017050D01*
X0504007Y0016756D01*
X0504293Y0016469D01*
X0504586Y0016188D01*
X0504885Y0015915D01*
X0505192Y0015650D01*
X0505504Y0015392D01*
X0505823Y0015142D01*
X0506148Y0014899D01*
X0506478Y0014665D01*
X0506815Y0014439D01*
X0507156Y0014221D01*
X0507503Y0014012D01*
X0507855Y0013811D01*
X0508212Y0013619D01*
X0508573Y0013436D01*
X0508939Y0013261D01*
X0509309Y0013096D01*
X0509683Y0012940D01*
X0510060Y0012792D01*
X0510442Y0012655D01*
X0510826Y0012526D01*
X0511213Y0012407D01*
X0511603Y0012298D01*
X0511996Y0012198D01*
X0512391Y0012108D01*
X0512788Y0012027D01*
X0513187Y0011957D01*
X0513588Y0011896D01*
X0513990Y0011845D01*
X0514393Y0011803D01*
X0514797Y0011772D01*
X0515202Y0011751D01*
X0515607Y0011739D01*
X0516012Y0011738D01*
X0516417Y0011746D01*
X0516822Y0011764D01*
X0517226Y0011792D01*
X0517630Y0011830D01*
X0518032Y0011878D01*
X0518433Y0011936D01*
X0518433Y0011937D02*
X0519811Y0002094D01*
X0532212Y0025716D02*
X0542252Y0024535D01*
X0542335Y0025182D01*
X0542402Y0025831D01*
X0542454Y0026482D01*
X0542489Y0027133D01*
X0542509Y0027785D01*
X0542512Y0028438D01*
X0542500Y0029090D01*
X0542472Y0029742D01*
X0542427Y0030393D01*
X0542367Y0031042D01*
X0542291Y0031690D01*
X0542198Y0032336D01*
X0542090Y0032980D01*
X0541967Y0033620D01*
X0541828Y0034258D01*
X0541673Y0034891D01*
X0541502Y0035521D01*
X0541316Y0036147D01*
X0541115Y0036767D01*
X0540899Y0037383D01*
X0540668Y0037993D01*
X0540422Y0038597D01*
X0540161Y0039195D01*
X0539886Y0039787D01*
X0539596Y0040371D01*
X0539292Y0040949D01*
X0538974Y0041518D01*
X0538642Y0042080D01*
X0538296Y0042633D01*
X0537937Y0043178D01*
X0537564Y0043714D01*
X0537179Y0044240D01*
X0536781Y0044757D01*
X0536370Y0045264D01*
X0535947Y0045761D01*
X0535512Y0046247D01*
X0535065Y0046722D01*
X0534607Y0047186D01*
X0534137Y0047639D01*
X0533656Y0048081D01*
X0533165Y0048510D01*
X0532664Y0048927D01*
X0532152Y0049332D01*
X0531630Y0049724D01*
X0531099Y0050103D01*
X0530559Y0050469D01*
X0530010Y0050822D01*
X0529453Y0051161D01*
X0528888Y0051486D01*
X0528314Y0051798D01*
X0527734Y0052095D01*
X0527146Y0052378D01*
X0526551Y0052647D01*
X0525950Y0052900D01*
X0525343Y0053139D01*
X0524730Y0053364D01*
X0524112Y0053572D01*
X0523489Y0053766D01*
X0522861Y0053945D01*
X0522230Y0054108D01*
X0521594Y0054255D01*
X0520955Y0054387D01*
X0520313Y0054503D01*
X0519668Y0054603D01*
X0519022Y0054688D01*
X0518373Y0054757D01*
X0517722Y0054809D01*
X0517071Y0054846D01*
X0516419Y0054867D01*
X0515766Y0054872D01*
X0515114Y0054860D01*
X0514462Y0054833D01*
X0513811Y0054790D01*
X0513161Y0054731D01*
X0512513Y0054656D01*
X0511867Y0054565D01*
X0511224Y0054458D01*
X0510583Y0054336D01*
X0509945Y0054198D01*
X0509311Y0054044D01*
X0508681Y0053875D01*
X0508055Y0053691D01*
X0507434Y0053491D01*
X0506818Y0053276D01*
X0491071Y0037527D02*
X0490852Y0036918D01*
X0490648Y0036304D01*
X0490460Y0035686D01*
X0490286Y0035062D01*
X0490128Y0034435D01*
X0489985Y0033804D01*
X0489858Y0033170D01*
X0489746Y0032533D01*
X0489650Y0031893D01*
X0489569Y0031251D01*
X0489504Y0030608D01*
X0489455Y0029963D01*
X0489422Y0029317D01*
X0489404Y0028670D01*
X0489402Y0028023D01*
X0489416Y0027376D01*
X0489446Y0026730D01*
X0489492Y0026085D01*
X0489553Y0025441D01*
X0489630Y0024798D01*
X0489723Y0024158D01*
X0489831Y0023520D01*
X0489955Y0022885D01*
X0490095Y0022254D01*
X0490249Y0021626D01*
X0490419Y0021002D01*
X0490605Y0020382D01*
X0490805Y0019767D01*
X0491021Y0019157D01*
X0491251Y0018552D01*
X0491496Y0017953D01*
X0491755Y0017361D01*
X0492029Y0016775D01*
X0492317Y0016195D01*
X0492619Y0015623D01*
X0492935Y0015059D01*
X0493265Y0014502D01*
X0493608Y0013954D01*
X0493965Y0013414D01*
X0494334Y0012883D01*
X0494717Y0012362D01*
X0495112Y0011849D01*
X0495519Y0011347D01*
X0495939Y0010855D01*
X0496371Y0010373D01*
X0496814Y0009901D01*
X0497269Y0009441D01*
X0497734Y0008992D01*
X0498211Y0008555D01*
X0498698Y0008129D01*
X0499195Y0007715D01*
X0499703Y0007314D01*
X0500220Y0006925D01*
X0500746Y0006549D01*
X0501281Y0006186D01*
X0501825Y0005836D01*
X0502378Y0005499D01*
X0502938Y0005176D01*
X0503506Y0004867D01*
X0504082Y0004572D01*
X0504665Y0004291D01*
X0505254Y0004024D01*
X0505850Y0003772D01*
X0506451Y0003534D01*
X0507059Y0003311D01*
X0507671Y0003103D01*
X0508289Y0002910D01*
X0508911Y0002732D01*
X0509537Y0002570D01*
X0510167Y0002423D01*
X0510800Y0002291D01*
X0511437Y0002175D01*
X0512076Y0002074D01*
X0512717Y0001989D01*
X0513360Y0001920D01*
X0514005Y0001866D01*
X0514651Y0001828D01*
X0515297Y0001806D01*
X0515944Y0001800D01*
X0516591Y0001810D01*
X0517237Y0001835D01*
X0517883Y0001876D01*
X0518527Y0001933D01*
X0519170Y0002006D01*
X0519811Y0002094D01*
D11*
X0398614Y0128213D02*
X0415318Y0144916D01*
X0404182Y0156052D01*
X0387479Y0139348D01*
X0398614Y0128213D01*
X0374285Y0145175D02*
X0374285Y0146584D01*
X0373580Y0147289D01*
X0374285Y0148820D02*
X0371466Y0151639D01*
X0370762Y0151639D01*
X0370057Y0150934D01*
X0370057Y0149525D01*
X0370762Y0148820D01*
X0370762Y0147289D02*
X0370057Y0146584D01*
X0370057Y0145175D01*
X0370762Y0144470D01*
X0373580Y0144470D01*
X0374285Y0145175D01*
X0374285Y0148820D02*
X0374285Y0151639D01*
X0373580Y0153171D02*
X0370762Y0155989D01*
X0373580Y0155989D01*
X0374285Y0155285D01*
X0374285Y0153875D01*
X0373580Y0153171D01*
X0370762Y0153171D01*
X0370057Y0153875D01*
X0370057Y0155285D01*
X0370762Y0155989D01*
X0385357Y0163368D02*
X0385357Y0167596D01*
X0387471Y0167596D01*
X0388175Y0166891D01*
X0388175Y0165482D01*
X0387471Y0164777D01*
X0385357Y0164777D01*
X0386766Y0164777D02*
X0388175Y0163368D01*
X0389707Y0163368D02*
X0392526Y0163368D01*
X0391116Y0163368D02*
X0391116Y0167596D01*
X0389707Y0166187D01*
X0394057Y0166187D02*
X0395466Y0167596D01*
X0395466Y0163368D01*
X0394057Y0163368D02*
X0396876Y0163368D01*
X0392645Y0173748D02*
X0403669Y0173748D01*
X0404850Y0178866D02*
X0404850Y0184378D01*
X0403669Y0189496D02*
X0392645Y0189496D01*
X0392526Y0192895D02*
X0389707Y0192895D01*
X0391116Y0192895D02*
X0391116Y0197123D01*
X0389707Y0195714D01*
X0388175Y0195009D02*
X0387471Y0194305D01*
X0385357Y0194305D01*
X0384915Y0193415D02*
X0384210Y0194120D01*
X0381392Y0194120D01*
X0380687Y0193415D01*
X0380687Y0192006D01*
X0381392Y0191301D01*
X0382096Y0191301D01*
X0382801Y0192006D01*
X0382801Y0194120D01*
X0384915Y0193415D02*
X0384915Y0192006D01*
X0384210Y0191301D01*
X0384915Y0189770D02*
X0384915Y0186951D01*
X0384915Y0188360D02*
X0380687Y0188360D01*
X0382096Y0186951D01*
X0381392Y0185419D02*
X0380687Y0184715D01*
X0380687Y0183305D01*
X0381392Y0182601D01*
X0384210Y0182601D01*
X0384915Y0183305D01*
X0384915Y0184715D01*
X0384210Y0185419D01*
X0380191Y0182430D02*
X0380191Y0181021D01*
X0379486Y0180316D01*
X0378077Y0180316D02*
X0377372Y0181726D01*
X0377372Y0182430D01*
X0378077Y0183135D01*
X0379486Y0183135D01*
X0380191Y0182430D01*
X0378077Y0180316D02*
X0375963Y0180316D01*
X0375963Y0183135D01*
X0376667Y0178785D02*
X0375963Y0178080D01*
X0375963Y0175966D01*
X0380191Y0175966D01*
X0380191Y0178080D01*
X0379486Y0178785D01*
X0376667Y0178785D01*
X0391464Y0178866D02*
X0391464Y0184378D01*
X0388175Y0192895D02*
X0386766Y0194305D01*
X0388175Y0195009D02*
X0388175Y0196419D01*
X0387471Y0197123D01*
X0385357Y0197123D01*
X0385357Y0192895D01*
X0394057Y0193600D02*
X0396876Y0196419D01*
X0396876Y0193600D01*
X0396171Y0192895D01*
X0394762Y0192895D01*
X0394057Y0193600D01*
X0394057Y0196419D01*
X0394762Y0197123D01*
X0396171Y0197123D01*
X0396876Y0196419D01*
X0361977Y0209431D02*
X0361977Y0213659D01*
X0359863Y0211545D01*
X0362682Y0211545D01*
X0358332Y0209431D02*
X0355513Y0209431D01*
X0356923Y0209431D02*
X0356923Y0213659D01*
X0355513Y0212249D01*
X0353982Y0211545D02*
X0353277Y0210840D01*
X0351163Y0210840D01*
X0351163Y0209431D02*
X0351163Y0213659D01*
X0353277Y0213659D01*
X0353982Y0212954D01*
X0353982Y0211545D01*
X0352572Y0210840D02*
X0353982Y0209431D01*
X0351600Y0197123D02*
X0351600Y0196419D01*
X0348781Y0193600D01*
X0348781Y0192895D01*
X0347250Y0193600D02*
X0347250Y0196419D01*
X0346545Y0197123D01*
X0344431Y0197123D01*
X0344431Y0192895D01*
X0346545Y0192895D01*
X0347250Y0193600D01*
X0348781Y0197123D02*
X0351600Y0197123D01*
X0341879Y0209431D02*
X0341879Y0213659D01*
X0339765Y0211545D01*
X0342584Y0211545D01*
X0338234Y0211545D02*
X0337529Y0210840D01*
X0335415Y0210840D01*
X0335415Y0209431D02*
X0335415Y0213659D01*
X0337529Y0213659D01*
X0338234Y0212954D01*
X0338234Y0211545D01*
X0336824Y0210840D02*
X0338234Y0209431D01*
X0329242Y0197123D02*
X0329947Y0196419D01*
X0329947Y0195714D01*
X0329242Y0195009D01*
X0329947Y0194305D01*
X0329947Y0193600D01*
X0329242Y0192895D01*
X0327833Y0192895D01*
X0327128Y0193600D01*
X0325596Y0193600D02*
X0325596Y0196419D01*
X0324892Y0197123D01*
X0322778Y0197123D01*
X0322778Y0192895D01*
X0324892Y0192895D01*
X0325596Y0193600D01*
X0327128Y0196419D02*
X0327833Y0197123D01*
X0329242Y0197123D01*
X0329242Y0195009D02*
X0328537Y0195009D01*
X0317199Y0199588D02*
X0312971Y0199588D01*
X0312971Y0201702D01*
X0313675Y0202407D01*
X0315085Y0202407D01*
X0315789Y0201702D01*
X0315789Y0199588D01*
X0315789Y0200998D02*
X0317199Y0202407D01*
X0316494Y0203938D02*
X0317199Y0204643D01*
X0317199Y0206052D01*
X0316494Y0206757D01*
X0315085Y0206757D01*
X0314380Y0206052D01*
X0314380Y0205348D01*
X0315085Y0203938D01*
X0312971Y0203938D01*
X0312971Y0206757D01*
X0310526Y0198057D02*
X0309821Y0198057D01*
X0309821Y0195238D01*
X0310526Y0193707D02*
X0309821Y0193002D01*
X0309821Y0191593D01*
X0310526Y0190888D01*
X0313344Y0190888D01*
X0314049Y0191593D01*
X0314049Y0193002D01*
X0313344Y0193707D01*
X0313344Y0195238D02*
X0314049Y0195238D01*
X0313344Y0195238D02*
X0310526Y0198057D01*
X0291092Y0178226D02*
X0289683Y0178226D01*
X0288978Y0177521D01*
X0288978Y0176816D01*
X0289683Y0176112D01*
X0291797Y0176112D01*
X0291797Y0177521D02*
X0291092Y0178226D01*
X0291797Y0177521D02*
X0291797Y0174702D01*
X0291092Y0173998D01*
X0289683Y0173998D01*
X0288978Y0174702D01*
X0287446Y0174702D02*
X0286742Y0173998D01*
X0285332Y0173998D01*
X0284628Y0174702D01*
X0284628Y0177521D01*
X0285332Y0178226D01*
X0286742Y0178226D01*
X0287446Y0177521D01*
X0286742Y0169958D02*
X0285332Y0169958D01*
X0284628Y0169253D01*
X0284628Y0166435D01*
X0285332Y0165730D01*
X0286742Y0165730D01*
X0287446Y0166435D01*
X0288978Y0165730D02*
X0291797Y0165730D01*
X0290387Y0165730D02*
X0290387Y0169958D01*
X0288978Y0168549D01*
X0287446Y0169253D02*
X0286742Y0169958D01*
X0293328Y0169253D02*
X0293328Y0166435D01*
X0296147Y0169253D01*
X0296147Y0166435D01*
X0295442Y0165730D01*
X0294033Y0165730D01*
X0293328Y0166435D01*
X0293328Y0169253D02*
X0294033Y0169958D01*
X0295442Y0169958D01*
X0296147Y0169253D01*
X0273846Y0171779D02*
X0268925Y0171779D01*
X0271721Y0164850D02*
X0271723Y0164876D01*
X0271729Y0164902D01*
X0271738Y0164926D01*
X0271752Y0164949D01*
X0271768Y0164970D01*
X0271787Y0164988D01*
X0271809Y0165002D01*
X0271833Y0165014D01*
X0271858Y0165022D01*
X0271884Y0165026D01*
X0271910Y0165026D01*
X0271936Y0165022D01*
X0271961Y0165014D01*
X0271985Y0165002D01*
X0272007Y0164988D01*
X0272026Y0164970D01*
X0272042Y0164949D01*
X0272056Y0164926D01*
X0272065Y0164902D01*
X0272071Y0164876D01*
X0272073Y0164850D01*
X0272071Y0164824D01*
X0272065Y0164798D01*
X0272056Y0164774D01*
X0272042Y0164751D01*
X0272026Y0164730D01*
X0272007Y0164712D01*
X0271985Y0164698D01*
X0271961Y0164686D01*
X0271936Y0164678D01*
X0271910Y0164674D01*
X0271884Y0164674D01*
X0271858Y0164678D01*
X0271833Y0164686D01*
X0271809Y0164698D01*
X0271787Y0164712D01*
X0271768Y0164730D01*
X0271752Y0164751D01*
X0271738Y0164774D01*
X0271729Y0164798D01*
X0271723Y0164824D01*
X0271721Y0164850D01*
X0273846Y0163905D02*
X0268925Y0163905D01*
X0231521Y0187695D02*
X0230817Y0186990D01*
X0229407Y0186990D01*
X0228703Y0187695D01*
X0228703Y0188399D01*
X0229407Y0189104D01*
X0230817Y0189104D01*
X0231521Y0188399D01*
X0231521Y0187695D01*
X0230817Y0189104D02*
X0231521Y0189809D01*
X0231521Y0190513D01*
X0230817Y0191218D01*
X0229407Y0191218D01*
X0228703Y0190513D01*
X0228703Y0189809D01*
X0229407Y0189104D01*
X0227171Y0190513D02*
X0226467Y0191218D01*
X0225057Y0191218D01*
X0224353Y0190513D01*
X0224353Y0187695D01*
X0225057Y0186990D01*
X0226467Y0186990D01*
X0227171Y0187695D01*
X0217592Y0188081D02*
X0216888Y0188785D01*
X0217592Y0188081D02*
X0217592Y0186671D01*
X0216888Y0185967D01*
X0214069Y0185967D01*
X0213364Y0186671D01*
X0213364Y0188081D01*
X0214069Y0188785D01*
X0215478Y0190317D02*
X0215478Y0192431D01*
X0216183Y0193136D01*
X0216888Y0193136D01*
X0217592Y0192431D01*
X0217592Y0191022D01*
X0216888Y0190317D01*
X0215478Y0190317D01*
X0214069Y0191726D01*
X0213364Y0193136D01*
X0214069Y0201715D02*
X0216888Y0201715D01*
X0217592Y0202419D01*
X0217592Y0203829D01*
X0216888Y0204533D01*
X0216888Y0206065D02*
X0217592Y0206770D01*
X0217592Y0208179D01*
X0216888Y0208884D01*
X0215478Y0208884D01*
X0214774Y0208179D01*
X0214774Y0207474D01*
X0215478Y0206065D01*
X0213364Y0206065D01*
X0213364Y0208884D01*
X0214069Y0204533D02*
X0213364Y0203829D01*
X0213364Y0202419D01*
X0214069Y0201715D01*
X0200521Y0220651D02*
X0199111Y0220651D01*
X0198407Y0221356D01*
X0196875Y0220651D02*
X0194057Y0220651D01*
X0195466Y0220651D02*
X0195466Y0224879D01*
X0194057Y0223470D01*
X0192525Y0224175D02*
X0191820Y0224879D01*
X0190411Y0224879D01*
X0189706Y0224175D01*
X0189706Y0221356D01*
X0190411Y0220651D01*
X0191820Y0220651D01*
X0192525Y0221356D01*
X0198407Y0224175D02*
X0199111Y0224879D01*
X0200521Y0224879D01*
X0201225Y0224175D01*
X0201225Y0223470D01*
X0200521Y0222765D01*
X0201225Y0222061D01*
X0201225Y0221356D01*
X0200521Y0220651D01*
X0200521Y0222765D02*
X0199816Y0222765D01*
X0200415Y0242895D02*
X0203233Y0242895D01*
X0201824Y0242895D02*
X0201824Y0247123D01*
X0200415Y0245714D01*
X0198883Y0242895D02*
X0196064Y0242895D01*
X0197474Y0242895D02*
X0197474Y0247123D01*
X0196064Y0245714D01*
X0194533Y0246419D02*
X0193828Y0247123D01*
X0192419Y0247123D01*
X0191714Y0246419D01*
X0191714Y0243600D01*
X0192419Y0242895D01*
X0193828Y0242895D01*
X0194533Y0243600D01*
X0193828Y0250769D02*
X0194533Y0251474D01*
X0193828Y0250769D02*
X0192419Y0250769D01*
X0191714Y0251474D01*
X0191714Y0254293D01*
X0192419Y0254997D01*
X0193828Y0254997D01*
X0194533Y0254293D01*
X0196064Y0253588D02*
X0197474Y0254997D01*
X0197474Y0250769D01*
X0198883Y0250769D02*
X0196064Y0250769D01*
X0200415Y0250769D02*
X0203233Y0253588D01*
X0203233Y0254293D01*
X0202529Y0254997D01*
X0201119Y0254997D01*
X0200415Y0254293D01*
X0200415Y0250769D02*
X0203233Y0250769D01*
X0188336Y0268486D02*
X0186927Y0268486D01*
X0186222Y0269191D01*
X0184690Y0269191D02*
X0183986Y0268486D01*
X0182576Y0268486D01*
X0181872Y0269191D01*
X0181872Y0272009D01*
X0182576Y0272714D01*
X0183986Y0272714D01*
X0184690Y0272009D01*
X0186222Y0272009D02*
X0186927Y0272714D01*
X0188336Y0272714D01*
X0189041Y0272009D01*
X0189041Y0271305D01*
X0188336Y0270600D01*
X0189041Y0269895D01*
X0189041Y0269191D01*
X0188336Y0268486D01*
X0188336Y0270600D02*
X0187631Y0270600D01*
X0180340Y0273750D02*
X0177522Y0273750D01*
X0179636Y0275864D01*
X0179636Y0271636D01*
X0175990Y0271636D02*
X0173171Y0271636D01*
X0174581Y0271636D02*
X0174581Y0275864D01*
X0173171Y0274454D01*
X0171640Y0275159D02*
X0170935Y0275864D01*
X0169526Y0275864D01*
X0168821Y0275159D01*
X0168821Y0272340D01*
X0169526Y0271636D01*
X0170935Y0271636D01*
X0171640Y0272340D01*
X0191858Y0299338D02*
X0191858Y0308000D01*
X0198945Y0308000D02*
X0198945Y0299338D01*
X0181372Y0303919D02*
X0177144Y0303919D01*
X0177144Y0306033D01*
X0177848Y0306738D01*
X0179258Y0306738D01*
X0179962Y0306033D01*
X0179962Y0303919D01*
X0179962Y0305328D02*
X0181372Y0306738D01*
X0181372Y0308269D02*
X0181372Y0311088D01*
X0181372Y0309679D02*
X0177144Y0309679D01*
X0178553Y0308269D01*
X0179258Y0312619D02*
X0178553Y0314029D01*
X0178553Y0314733D01*
X0179258Y0315438D01*
X0180667Y0315438D01*
X0181372Y0314733D01*
X0181372Y0313324D01*
X0180667Y0312619D01*
X0179258Y0312619D02*
X0177144Y0312619D01*
X0177144Y0315438D01*
X0150127Y0316886D02*
X0150127Y0313883D01*
X0147124Y0316886D01*
X0146374Y0316886D01*
X0145623Y0316135D01*
X0145623Y0314634D01*
X0146374Y0313883D01*
X0146374Y0312282D02*
X0147875Y0312282D01*
X0148626Y0311531D01*
X0148626Y0309279D01*
X0150127Y0309279D02*
X0145623Y0309279D01*
X0145623Y0311531D01*
X0146374Y0312282D01*
X0145623Y0307678D02*
X0145623Y0306177D01*
X0145623Y0306927D02*
X0149376Y0306927D01*
X0150127Y0306177D01*
X0150127Y0305426D01*
X0149376Y0304675D01*
X0158163Y0349195D02*
X0157459Y0349899D01*
X0157459Y0351309D01*
X0158163Y0352013D01*
X0158868Y0353545D02*
X0157459Y0354954D01*
X0161687Y0354954D01*
X0161687Y0353545D02*
X0161687Y0356363D01*
X0160982Y0357895D02*
X0161687Y0358600D01*
X0161687Y0360009D01*
X0160982Y0360714D01*
X0159573Y0360714D01*
X0158868Y0360009D01*
X0158868Y0359304D01*
X0159573Y0357895D01*
X0157459Y0357895D01*
X0157459Y0360714D01*
X0155576Y0357360D02*
X0154167Y0356655D01*
X0152757Y0355246D01*
X0154871Y0355246D01*
X0155576Y0354541D01*
X0155576Y0353836D01*
X0154871Y0353132D01*
X0153462Y0353132D01*
X0152757Y0353836D01*
X0152757Y0355246D01*
X0151226Y0355246D02*
X0150521Y0354541D01*
X0148407Y0354541D01*
X0148407Y0353132D02*
X0148407Y0357360D01*
X0150521Y0357360D01*
X0151226Y0356655D01*
X0151226Y0355246D01*
X0149817Y0354541D02*
X0151226Y0353132D01*
X0153669Y0358787D02*
X0142645Y0358787D01*
X0141464Y0363905D02*
X0141464Y0369417D01*
X0142645Y0374535D02*
X0153669Y0374535D01*
X0154850Y0369417D02*
X0154850Y0363905D01*
X0164152Y0362293D02*
X0164152Y0360179D01*
X0168380Y0360179D01*
X0168380Y0362293D01*
X0167675Y0362998D01*
X0164856Y0362998D01*
X0164152Y0362293D01*
X0165561Y0364529D02*
X0164152Y0365939D01*
X0168380Y0365939D01*
X0168380Y0367348D02*
X0168380Y0364529D01*
X0160982Y0352013D02*
X0161687Y0351309D01*
X0161687Y0349899D01*
X0160982Y0349195D01*
X0158163Y0349195D01*
X0152757Y0380691D02*
X0152757Y0381395D01*
X0155576Y0384214D01*
X0155576Y0384919D01*
X0152757Y0384919D01*
X0151226Y0384214D02*
X0151226Y0382805D01*
X0150521Y0382100D01*
X0148407Y0382100D01*
X0148407Y0380691D02*
X0148407Y0384919D01*
X0150521Y0384919D01*
X0151226Y0384214D01*
X0149817Y0382100D02*
X0151226Y0380691D01*
X0140164Y0390263D02*
X0129028Y0401398D01*
X0145732Y0418102D01*
X0156867Y0406966D01*
X0140164Y0390263D01*
X0170057Y0389439D02*
X0170057Y0388030D01*
X0170762Y0387325D01*
X0173580Y0387325D01*
X0174285Y0388030D01*
X0174285Y0389439D01*
X0173580Y0390144D01*
X0174285Y0391675D02*
X0174285Y0394494D01*
X0174285Y0393085D02*
X0170057Y0393085D01*
X0171466Y0391675D01*
X0170762Y0390144D02*
X0170057Y0389439D01*
X0172171Y0396026D02*
X0172171Y0398140D01*
X0172876Y0398844D01*
X0173580Y0398844D01*
X0174285Y0398140D01*
X0174285Y0396730D01*
X0173580Y0396026D01*
X0172171Y0396026D01*
X0170762Y0397435D01*
X0170057Y0398844D01*
X0263758Y0304891D02*
X0265872Y0302777D01*
X0265872Y0305596D01*
X0267986Y0304891D02*
X0263758Y0304891D01*
X0264463Y0301245D02*
X0263758Y0300541D01*
X0263758Y0299131D01*
X0264463Y0298427D01*
X0264463Y0296895D02*
X0263758Y0296190D01*
X0263758Y0294781D01*
X0264463Y0294076D01*
X0267281Y0294076D01*
X0267986Y0294781D01*
X0267986Y0296190D01*
X0267281Y0296895D01*
X0267986Y0298427D02*
X0265167Y0301245D01*
X0264463Y0301245D01*
X0267986Y0301245D02*
X0267986Y0298427D01*
X0271632Y0299131D02*
X0272337Y0298427D01*
X0271632Y0299131D02*
X0271632Y0300541D01*
X0272337Y0301245D01*
X0273041Y0301245D01*
X0275860Y0298427D01*
X0275860Y0301245D01*
X0275155Y0302777D02*
X0275860Y0303481D01*
X0275860Y0304891D01*
X0275155Y0305596D01*
X0274451Y0305596D01*
X0273746Y0304891D01*
X0273746Y0304186D01*
X0273746Y0304891D02*
X0273041Y0305596D01*
X0272337Y0305596D01*
X0271632Y0304891D01*
X0271632Y0303481D01*
X0272337Y0302777D01*
X0272337Y0296895D02*
X0271632Y0296190D01*
X0271632Y0294781D01*
X0272337Y0294076D01*
X0275155Y0294076D01*
X0275860Y0294781D01*
X0275860Y0296190D01*
X0275155Y0296895D01*
X0279506Y0296190D02*
X0279506Y0294781D01*
X0280211Y0294076D01*
X0283029Y0294076D01*
X0283734Y0294781D01*
X0283734Y0296190D01*
X0283029Y0296895D01*
X0283734Y0298427D02*
X0280915Y0301245D01*
X0280211Y0301245D01*
X0279506Y0300541D01*
X0279506Y0299131D01*
X0280211Y0298427D01*
X0280211Y0296895D02*
X0279506Y0296190D01*
X0283734Y0298427D02*
X0283734Y0301245D01*
X0283029Y0302777D02*
X0283734Y0303481D01*
X0283734Y0304891D01*
X0283029Y0305596D01*
X0281620Y0305596D01*
X0280915Y0304891D01*
X0280915Y0304186D01*
X0281620Y0302777D01*
X0279506Y0302777D01*
X0279506Y0305596D01*
X0264836Y0292545D02*
X0264836Y0289726D01*
X0262018Y0292545D01*
X0261313Y0292545D01*
X0260608Y0291840D01*
X0260608Y0290431D01*
X0261313Y0289726D01*
X0261313Y0288195D02*
X0260608Y0287490D01*
X0260608Y0286081D01*
X0261313Y0285376D01*
X0261313Y0283845D02*
X0260608Y0283140D01*
X0260608Y0281731D01*
X0261313Y0281026D01*
X0264132Y0281026D01*
X0264836Y0281731D01*
X0264836Y0283140D01*
X0264132Y0283845D01*
X0264594Y0282409D02*
X0264594Y0276110D01*
X0261051Y0276110D01*
X0261051Y0268236D01*
X0264594Y0268236D01*
X0264594Y0261937D01*
X0279949Y0261937D01*
X0279949Y0268236D01*
X0283492Y0268236D01*
X0283492Y0276110D01*
X0279949Y0276110D01*
X0279949Y0282409D01*
X0264594Y0282409D01*
X0262069Y0282015D02*
X0262071Y0282062D01*
X0262077Y0282108D01*
X0262086Y0282154D01*
X0262100Y0282198D01*
X0262117Y0282242D01*
X0262138Y0282283D01*
X0262162Y0282323D01*
X0262189Y0282361D01*
X0262220Y0282396D01*
X0262253Y0282429D01*
X0262289Y0282459D01*
X0262328Y0282485D01*
X0262368Y0282509D01*
X0262410Y0282528D01*
X0262454Y0282545D01*
X0262499Y0282557D01*
X0262545Y0282566D01*
X0262591Y0282571D01*
X0262638Y0282572D01*
X0262684Y0282569D01*
X0262730Y0282562D01*
X0262776Y0282551D01*
X0262820Y0282537D01*
X0262863Y0282519D01*
X0262904Y0282497D01*
X0262944Y0282472D01*
X0262981Y0282444D01*
X0263016Y0282413D01*
X0263048Y0282379D01*
X0263077Y0282342D01*
X0263102Y0282304D01*
X0263125Y0282263D01*
X0263144Y0282220D01*
X0263159Y0282176D01*
X0263171Y0282131D01*
X0263179Y0282085D01*
X0263183Y0282038D01*
X0263183Y0281992D01*
X0263179Y0281945D01*
X0263171Y0281899D01*
X0263159Y0281854D01*
X0263144Y0281810D01*
X0263125Y0281767D01*
X0263102Y0281726D01*
X0263077Y0281688D01*
X0263048Y0281651D01*
X0263016Y0281617D01*
X0262981Y0281586D01*
X0262944Y0281558D01*
X0262905Y0281533D01*
X0262863Y0281511D01*
X0262820Y0281493D01*
X0262776Y0281479D01*
X0262730Y0281468D01*
X0262684Y0281461D01*
X0262638Y0281458D01*
X0262591Y0281459D01*
X0262545Y0281464D01*
X0262499Y0281473D01*
X0262454Y0281485D01*
X0262410Y0281502D01*
X0262368Y0281521D01*
X0262328Y0281545D01*
X0262289Y0281571D01*
X0262253Y0281601D01*
X0262220Y0281634D01*
X0262189Y0281669D01*
X0262162Y0281707D01*
X0262138Y0281747D01*
X0262117Y0281788D01*
X0262100Y0281832D01*
X0262086Y0281876D01*
X0262077Y0281922D01*
X0262071Y0281968D01*
X0262069Y0282015D01*
X0264836Y0285376D02*
X0262018Y0288195D01*
X0261313Y0288195D01*
X0264836Y0288195D02*
X0264836Y0285376D01*
X0252238Y0285060D02*
X0252238Y0287879D01*
X0252238Y0286470D02*
X0248010Y0286470D01*
X0249419Y0285060D01*
X0249419Y0283529D02*
X0248715Y0283529D01*
X0248010Y0282824D01*
X0248010Y0281415D01*
X0248715Y0280710D01*
X0248715Y0279179D02*
X0248010Y0278474D01*
X0248010Y0277065D01*
X0248715Y0276360D01*
X0251533Y0276360D01*
X0252238Y0277065D01*
X0252238Y0278474D01*
X0251533Y0279179D01*
X0252238Y0280710D02*
X0249419Y0283529D01*
X0252238Y0283529D02*
X0252238Y0280710D01*
X0237277Y0280734D02*
X0237277Y0277915D01*
X0234459Y0280734D01*
X0233754Y0280734D01*
X0233049Y0280029D01*
X0233049Y0278620D01*
X0233754Y0277915D01*
X0233754Y0276384D02*
X0233049Y0275679D01*
X0233049Y0274270D01*
X0233754Y0273565D01*
X0236573Y0273565D01*
X0237277Y0274270D01*
X0237277Y0275679D01*
X0236573Y0276384D01*
X0307856Y0272714D02*
X0307856Y0268486D01*
X0307856Y0269895D02*
X0309970Y0269895D01*
X0310675Y0270600D01*
X0310675Y0272009D01*
X0309970Y0272714D01*
X0307856Y0272714D01*
X0309265Y0269895D02*
X0310675Y0268486D01*
X0312206Y0268486D02*
X0315025Y0268486D01*
X0313616Y0268486D02*
X0313616Y0272714D01*
X0312206Y0271305D01*
X0316556Y0272009D02*
X0317261Y0272714D01*
X0318670Y0272714D01*
X0319375Y0272009D01*
X0319375Y0271305D01*
X0316556Y0268486D01*
X0319375Y0268486D01*
X0318670Y0280297D02*
X0317261Y0280297D01*
X0316556Y0281002D01*
X0315025Y0280297D02*
X0312206Y0280297D01*
X0313616Y0280297D02*
X0313616Y0284525D01*
X0312206Y0283116D01*
X0310675Y0283820D02*
X0310675Y0282411D01*
X0309970Y0281706D01*
X0307856Y0281706D01*
X0307856Y0280297D02*
X0307856Y0284525D01*
X0309970Y0284525D01*
X0310675Y0283820D01*
X0309265Y0281706D02*
X0310675Y0280297D01*
X0316556Y0283820D02*
X0317261Y0284525D01*
X0318670Y0284525D01*
X0319375Y0283820D01*
X0319375Y0283116D01*
X0318670Y0282411D01*
X0319375Y0281706D01*
X0319375Y0281002D01*
X0318670Y0280297D01*
X0318670Y0282411D02*
X0317966Y0282411D01*
X0378636Y0349195D02*
X0381455Y0349195D01*
X0382159Y0349899D01*
X0382159Y0351309D01*
X0381455Y0352013D01*
X0382159Y0353545D02*
X0382159Y0356363D01*
X0382159Y0354954D02*
X0377931Y0354954D01*
X0379340Y0353545D01*
X0378636Y0352013D02*
X0377931Y0351309D01*
X0377931Y0349899D01*
X0378636Y0349195D01*
X0380687Y0360179D02*
X0380687Y0362293D01*
X0381392Y0362998D01*
X0384210Y0362998D01*
X0384915Y0362293D01*
X0384915Y0360179D01*
X0380687Y0360179D01*
X0382801Y0364529D02*
X0380687Y0366643D01*
X0384915Y0366643D01*
X0382801Y0367348D02*
X0382801Y0364529D01*
X0389496Y0363512D02*
X0389496Y0358000D01*
X0390677Y0352882D02*
X0401701Y0352882D01*
X0402198Y0351454D02*
X0402198Y0347226D01*
X0400789Y0347226D02*
X0403608Y0347226D01*
X0400789Y0350045D02*
X0402198Y0351454D01*
X0399257Y0350749D02*
X0399257Y0349340D01*
X0398553Y0348635D01*
X0396439Y0348635D01*
X0396439Y0347226D02*
X0396439Y0351454D01*
X0398553Y0351454D01*
X0399257Y0350749D01*
X0397848Y0348635D02*
X0399257Y0347226D01*
X0402882Y0358000D02*
X0402882Y0363512D01*
X0401701Y0368630D02*
X0390677Y0368630D01*
X0396439Y0374785D02*
X0396439Y0379013D01*
X0398553Y0379013D01*
X0399257Y0378309D01*
X0399257Y0376899D01*
X0398553Y0376194D01*
X0396439Y0376194D01*
X0397848Y0376194D02*
X0399257Y0374785D01*
X0400789Y0374785D02*
X0403608Y0377604D01*
X0403608Y0378309D01*
X0402903Y0379013D01*
X0401494Y0379013D01*
X0400789Y0378309D01*
X0400789Y0374785D02*
X0403608Y0374785D01*
X0403029Y0387479D02*
X0414165Y0398614D01*
X0397461Y0415318D01*
X0386326Y0404182D01*
X0403029Y0387479D01*
X0379010Y0392380D02*
X0378305Y0391675D01*
X0375486Y0391675D01*
X0374782Y0392380D01*
X0374782Y0393789D01*
X0375486Y0394494D01*
X0376896Y0396026D02*
X0374782Y0398140D01*
X0379010Y0398140D01*
X0376896Y0398844D02*
X0376896Y0396026D01*
X0378305Y0394494D02*
X0379010Y0393789D01*
X0379010Y0392380D01*
X0329990Y0381380D02*
X0326988Y0381380D01*
X0328489Y0381380D02*
X0328489Y0385883D01*
X0326988Y0384382D01*
X0325386Y0385883D02*
X0323885Y0385883D01*
X0324635Y0385883D02*
X0324635Y0382130D01*
X0323885Y0381380D01*
X0323134Y0381380D01*
X0322384Y0382130D01*
X0296482Y0409431D02*
X0293663Y0409431D01*
X0296482Y0412249D01*
X0296482Y0412954D01*
X0295777Y0413659D01*
X0294368Y0413659D01*
X0293663Y0412954D01*
X0292132Y0412954D02*
X0291427Y0413659D01*
X0289313Y0413659D01*
X0289313Y0409431D01*
X0291427Y0409431D01*
X0292132Y0410135D01*
X0292132Y0412954D01*
X0279592Y0414860D02*
X0278887Y0414155D01*
X0277478Y0414155D01*
X0276773Y0414860D01*
X0275242Y0414155D02*
X0273832Y0415565D01*
X0274537Y0415565D02*
X0272423Y0415565D01*
X0272423Y0414155D02*
X0272423Y0418383D01*
X0274537Y0418383D01*
X0275242Y0417679D01*
X0275242Y0416269D01*
X0274537Y0415565D01*
X0276773Y0417679D02*
X0277478Y0418383D01*
X0278887Y0418383D01*
X0279592Y0417679D01*
X0279592Y0416974D01*
X0278887Y0416269D01*
X0279592Y0415565D01*
X0279592Y0414860D01*
X0278887Y0416269D02*
X0278182Y0416269D01*
X0408163Y0279316D02*
X0407459Y0278612D01*
X0407459Y0277202D01*
X0408163Y0276498D01*
X0407459Y0274966D02*
X0407459Y0273557D01*
X0407459Y0274261D02*
X0410982Y0274261D01*
X0411687Y0273557D01*
X0411687Y0272852D01*
X0410982Y0272147D01*
X0411687Y0276498D02*
X0408868Y0279316D01*
X0408163Y0279316D01*
X0411687Y0279316D02*
X0411687Y0276498D01*
X0169561Y0155285D02*
X0169561Y0153875D01*
X0168856Y0153171D01*
X0168151Y0153171D01*
X0167447Y0153875D01*
X0167447Y0155285D01*
X0168151Y0155989D01*
X0168856Y0155989D01*
X0169561Y0155285D01*
X0167447Y0155285D02*
X0166742Y0155989D01*
X0166037Y0155989D01*
X0165333Y0155285D01*
X0165333Y0153875D01*
X0166037Y0153171D01*
X0166742Y0153171D01*
X0167447Y0153875D01*
X0169561Y0151639D02*
X0169561Y0148820D01*
X0169561Y0150230D02*
X0165333Y0150230D01*
X0166742Y0148820D01*
X0166037Y0147289D02*
X0165333Y0146584D01*
X0165333Y0145175D01*
X0166037Y0144470D01*
X0168856Y0144470D01*
X0169561Y0145175D01*
X0169561Y0146584D01*
X0168856Y0147289D01*
X0156052Y0140164D02*
X0144916Y0129028D01*
X0128213Y0145732D01*
X0139348Y0156867D01*
X0156052Y0140164D01*
X0154871Y0168092D02*
X0155576Y0168797D01*
X0155576Y0171616D01*
X0154871Y0172320D01*
X0153462Y0172320D01*
X0152757Y0171616D01*
X0152757Y0170911D01*
X0153462Y0170206D01*
X0155576Y0170206D01*
X0154871Y0168092D02*
X0153462Y0168092D01*
X0152757Y0168797D01*
X0151226Y0168092D02*
X0149817Y0169502D01*
X0150521Y0169502D02*
X0148407Y0169502D01*
X0148407Y0168092D02*
X0148407Y0172320D01*
X0150521Y0172320D01*
X0151226Y0171616D01*
X0151226Y0170206D01*
X0150521Y0169502D01*
X0153669Y0173748D02*
X0142645Y0173748D01*
X0141464Y0178866D02*
X0141464Y0184378D01*
X0142645Y0189496D02*
X0153669Y0189496D01*
X0154850Y0184378D02*
X0154850Y0178866D01*
X0159427Y0178080D02*
X0159427Y0175966D01*
X0163655Y0175966D01*
X0163655Y0178080D01*
X0162951Y0178785D01*
X0160132Y0178785D01*
X0159427Y0178080D01*
X0161541Y0180316D02*
X0161541Y0182430D01*
X0162246Y0183135D01*
X0162951Y0183135D01*
X0163655Y0182430D01*
X0163655Y0181021D01*
X0162951Y0180316D01*
X0161541Y0180316D01*
X0160132Y0181726D01*
X0159427Y0183135D01*
X0162183Y0183305D02*
X0162888Y0182601D01*
X0165706Y0182601D01*
X0166411Y0183305D01*
X0166411Y0184715D01*
X0165706Y0185419D01*
X0166411Y0186951D02*
X0166411Y0189770D01*
X0166411Y0188360D02*
X0162183Y0188360D01*
X0163592Y0186951D01*
X0162888Y0185419D02*
X0162183Y0184715D01*
X0162183Y0183305D01*
X0162183Y0191301D02*
X0162183Y0194120D01*
X0162888Y0194120D01*
X0165706Y0191301D01*
X0166411Y0191301D01*
X0155576Y0196356D02*
X0154871Y0195651D01*
X0153462Y0195651D01*
X0152757Y0196356D01*
X0152757Y0197061D01*
X0153462Y0197765D01*
X0154871Y0197765D01*
X0155576Y0197061D01*
X0155576Y0196356D01*
X0154871Y0197765D02*
X0155576Y0198470D01*
X0155576Y0199175D01*
X0154871Y0199879D01*
X0153462Y0199879D01*
X0152757Y0199175D01*
X0152757Y0198470D01*
X0153462Y0197765D01*
X0151226Y0197765D02*
X0150521Y0197061D01*
X0148407Y0197061D01*
X0149817Y0197061D02*
X0151226Y0195651D01*
X0151226Y0197765D02*
X0151226Y0199175D01*
X0150521Y0199879D01*
X0148407Y0199879D01*
X0148407Y0195651D01*
X0149376Y0231801D02*
X0150127Y0232552D01*
X0150127Y0233303D01*
X0149376Y0234053D01*
X0145623Y0234053D01*
X0145623Y0233303D02*
X0145623Y0234804D01*
X0145623Y0236405D02*
X0145623Y0238657D01*
X0146374Y0239408D01*
X0147875Y0239408D01*
X0148626Y0238657D01*
X0148626Y0236405D01*
X0150127Y0236405D02*
X0145623Y0236405D01*
X0147124Y0241009D02*
X0145623Y0242510D01*
X0150127Y0242510D01*
X0150127Y0241009D02*
X0150127Y0244012D01*
D12*
X0184554Y0271625D02*
X0190693Y0271625D01*
X0189926Y0270858D02*
X0189926Y0272393D01*
X0189158Y0273160D01*
X0188391Y0273160D01*
X0187624Y0272393D01*
X0187624Y0270858D01*
X0186856Y0270091D01*
X0186089Y0270091D01*
X0185322Y0270858D01*
X0185322Y0272393D01*
X0186089Y0273160D01*
X0187624Y0274695D02*
X0187624Y0277764D01*
X0189926Y0276997D02*
X0185322Y0276997D01*
X0187624Y0274695D01*
X0189926Y0270858D02*
X0189158Y0270091D01*
X0189158Y0268556D02*
X0185322Y0268556D01*
X0185322Y0265487D02*
X0189158Y0265487D01*
X0189926Y0266254D01*
X0189926Y0267789D01*
X0189158Y0268556D01*
X0228241Y0218591D02*
X0228241Y0217824D01*
X0229776Y0216289D01*
X0229776Y0213987D01*
X0229776Y0216289D02*
X0231311Y0217824D01*
X0231311Y0218591D01*
X0232845Y0217824D02*
X0233613Y0218591D01*
X0235147Y0218591D01*
X0235915Y0217824D01*
X0235915Y0217056D01*
X0232845Y0213987D01*
X0235915Y0213987D01*
X0260223Y0169577D02*
X0264827Y0169577D01*
X0264827Y0168042D02*
X0264827Y0171112D01*
X0261758Y0168042D02*
X0260223Y0169577D01*
X0260991Y0166508D02*
X0261758Y0166508D01*
X0262525Y0165740D01*
X0262525Y0163438D01*
X0264827Y0163438D02*
X0260223Y0163438D01*
X0260223Y0165740D01*
X0260991Y0166508D01*
X0262525Y0165740D02*
X0263293Y0166508D01*
X0264060Y0166508D01*
X0264827Y0165740D01*
X0264827Y0163438D01*
X0277471Y0153512D02*
X0278239Y0154280D01*
X0279006Y0154280D01*
X0279773Y0153512D01*
X0280541Y0154280D01*
X0281308Y0154280D01*
X0282075Y0153512D01*
X0282075Y0151978D01*
X0281308Y0151210D01*
X0281308Y0149676D02*
X0280541Y0149676D01*
X0279773Y0148908D01*
X0279773Y0147374D01*
X0279006Y0146606D01*
X0278239Y0146606D01*
X0277471Y0147374D01*
X0277471Y0148908D01*
X0278239Y0149676D01*
X0278239Y0151210D02*
X0277471Y0151978D01*
X0277471Y0153512D01*
X0279773Y0153512D02*
X0279773Y0152745D01*
X0281308Y0149676D02*
X0282075Y0148908D01*
X0282075Y0147374D01*
X0281308Y0146606D01*
X0281308Y0145072D02*
X0277471Y0145072D01*
X0277471Y0142002D02*
X0281308Y0142002D01*
X0282075Y0142770D01*
X0282075Y0144304D01*
X0281308Y0145072D01*
X0282843Y0148141D02*
X0276704Y0148141D01*
X0369909Y0237097D02*
X0369909Y0241701D01*
X0372211Y0241701D01*
X0372978Y0240934D01*
X0372978Y0240167D01*
X0372211Y0239399D01*
X0369909Y0239399D01*
X0369909Y0237097D02*
X0372211Y0237097D01*
X0372978Y0237865D01*
X0372978Y0238632D01*
X0372211Y0239399D01*
X0374513Y0239399D02*
X0377582Y0239399D01*
X0377582Y0240167D02*
X0377582Y0237097D01*
X0374513Y0237097D02*
X0374513Y0240167D01*
X0376048Y0241701D01*
X0377582Y0240167D01*
X0379117Y0241701D02*
X0382186Y0241701D01*
X0380652Y0241701D02*
X0380652Y0237097D01*
X0383721Y0236330D02*
X0386790Y0236330D01*
X0388325Y0237865D02*
X0389092Y0237097D01*
X0390627Y0237097D01*
X0391394Y0237865D01*
X0391394Y0239399D01*
X0389860Y0239399D01*
X0391394Y0240934D02*
X0390627Y0241701D01*
X0389092Y0241701D01*
X0388325Y0240934D01*
X0388325Y0237865D01*
X0392929Y0237097D02*
X0392929Y0241701D01*
X0395998Y0237097D01*
X0395998Y0241701D01*
X0397533Y0241701D02*
X0397533Y0237097D01*
X0399835Y0237097D01*
X0400602Y0237865D01*
X0400602Y0240934D01*
X0399835Y0241701D01*
X0397533Y0241701D01*
X0399067Y0247097D02*
X0399067Y0251701D01*
X0397533Y0251701D02*
X0400602Y0251701D01*
X0395998Y0250167D02*
X0395998Y0247097D01*
X0395998Y0249399D02*
X0392929Y0249399D01*
X0392929Y0250167D02*
X0394463Y0251701D01*
X0395998Y0250167D01*
X0392929Y0250167D02*
X0392929Y0247097D01*
X0391394Y0247865D02*
X0390627Y0247097D01*
X0388325Y0247097D01*
X0388325Y0251701D01*
X0390627Y0251701D01*
X0391394Y0250934D01*
X0391394Y0250167D01*
X0390627Y0249399D01*
X0388325Y0249399D01*
X0386790Y0248632D02*
X0386790Y0251701D01*
X0386790Y0248632D02*
X0385256Y0247097D01*
X0383721Y0248632D01*
X0383721Y0251701D01*
X0390627Y0249399D02*
X0391394Y0248632D01*
X0391394Y0247865D01*
X0393696Y0257097D02*
X0392929Y0257865D01*
X0393696Y0257097D02*
X0395231Y0257097D01*
X0395998Y0257865D01*
X0395998Y0258632D01*
X0395231Y0259399D01*
X0394463Y0259399D01*
X0395231Y0259399D02*
X0395998Y0260167D01*
X0395998Y0260934D01*
X0395231Y0261701D01*
X0393696Y0261701D01*
X0392929Y0260934D01*
X0397533Y0261701D02*
X0397533Y0258632D01*
X0399067Y0257097D01*
X0400602Y0258632D01*
X0400602Y0261701D01*
X0399835Y0267097D02*
X0398300Y0267097D01*
X0397533Y0267865D01*
X0395998Y0267097D02*
X0392929Y0267097D01*
X0392929Y0271701D01*
X0395998Y0271701D01*
X0397533Y0270934D02*
X0398300Y0271701D01*
X0399835Y0271701D01*
X0400602Y0270934D01*
X0400602Y0270167D01*
X0399835Y0269399D01*
X0400602Y0268632D01*
X0400602Y0267865D01*
X0399835Y0267097D01*
X0399835Y0269399D02*
X0399067Y0269399D01*
X0394463Y0269399D02*
X0392929Y0269399D01*
X0391394Y0269399D02*
X0390627Y0268632D01*
X0388325Y0268632D01*
X0388325Y0267097D02*
X0388325Y0271701D01*
X0390627Y0271701D01*
X0391394Y0270934D01*
X0391394Y0269399D01*
X0392929Y0277097D02*
X0395998Y0277097D01*
X0394463Y0279399D02*
X0392929Y0279399D01*
X0391394Y0279399D02*
X0390627Y0278632D01*
X0388325Y0278632D01*
X0388325Y0277097D02*
X0388325Y0281701D01*
X0390627Y0281701D01*
X0391394Y0280934D01*
X0391394Y0279399D01*
X0392929Y0281701D02*
X0392929Y0277097D01*
X0392929Y0281701D02*
X0395998Y0281701D01*
X0397533Y0279399D02*
X0400602Y0279399D01*
X0399835Y0277097D02*
X0399835Y0281701D01*
X0397533Y0279399D01*
X0398300Y0287097D02*
X0397533Y0287865D01*
X0398300Y0287097D02*
X0399835Y0287097D01*
X0400602Y0287865D01*
X0400602Y0289399D01*
X0399835Y0290167D01*
X0399067Y0290167D01*
X0397533Y0289399D01*
X0397533Y0291701D01*
X0400602Y0291701D01*
X0395998Y0291701D02*
X0392929Y0291701D01*
X0392929Y0287097D01*
X0395998Y0287097D01*
X0394463Y0289399D02*
X0392929Y0289399D01*
X0391394Y0289399D02*
X0390627Y0288632D01*
X0388325Y0288632D01*
X0388325Y0287097D02*
X0388325Y0291701D01*
X0390627Y0291701D01*
X0391394Y0290934D01*
X0391394Y0289399D01*
X0392929Y0297097D02*
X0395231Y0297097D01*
X0395998Y0297865D01*
X0395998Y0298632D01*
X0395231Y0299399D01*
X0392929Y0299399D01*
X0391394Y0299399D02*
X0390627Y0298632D01*
X0388325Y0298632D01*
X0388325Y0297097D02*
X0388325Y0301701D01*
X0390627Y0301701D01*
X0391394Y0300934D01*
X0391394Y0299399D01*
X0392929Y0297097D02*
X0392929Y0301701D01*
X0395231Y0301701D01*
X0395998Y0300934D01*
X0395998Y0300167D01*
X0395231Y0299399D01*
X0397533Y0299399D02*
X0399067Y0300167D01*
X0399835Y0300167D01*
X0400602Y0299399D01*
X0400602Y0297865D01*
X0399835Y0297097D01*
X0398300Y0297097D01*
X0397533Y0297865D01*
X0397533Y0299399D02*
X0397533Y0301701D01*
X0400602Y0301701D01*
X0400602Y0307097D02*
X0400602Y0310167D01*
X0399067Y0311701D01*
X0397533Y0310167D01*
X0397533Y0307097D01*
X0395998Y0307865D02*
X0395998Y0310934D01*
X0395231Y0311701D01*
X0392929Y0311701D01*
X0392929Y0307097D01*
X0395231Y0307097D01*
X0395998Y0307865D01*
X0397533Y0309399D02*
X0400602Y0309399D01*
X0400602Y0317097D02*
X0397533Y0317097D01*
X0397533Y0321701D01*
X0395998Y0320934D02*
X0395231Y0321701D01*
X0393696Y0321701D01*
X0392929Y0320934D01*
X0392929Y0317865D01*
X0393696Y0317097D01*
X0395231Y0317097D01*
X0395998Y0317865D01*
X0391394Y0317865D02*
X0390627Y0317097D01*
X0389092Y0317097D01*
X0388325Y0317865D01*
X0389092Y0319399D02*
X0390627Y0319399D01*
X0391394Y0318632D01*
X0391394Y0317865D01*
X0389092Y0319399D02*
X0388325Y0320167D01*
X0388325Y0320934D01*
X0389092Y0321701D01*
X0390627Y0321701D01*
X0391394Y0320934D01*
X0390627Y0311701D02*
X0389092Y0311701D01*
X0388325Y0310934D01*
X0388325Y0310167D01*
X0389092Y0309399D01*
X0390627Y0309399D01*
X0391394Y0308632D01*
X0391394Y0307865D01*
X0390627Y0307097D01*
X0389092Y0307097D01*
X0388325Y0307865D01*
X0391394Y0310934D02*
X0390627Y0311701D01*
X0390627Y0231701D02*
X0389092Y0231701D01*
X0388325Y0230934D01*
X0388325Y0227865D01*
X0389092Y0227097D01*
X0390627Y0227097D01*
X0391394Y0227865D01*
X0391394Y0229399D01*
X0389860Y0229399D01*
X0391394Y0230934D02*
X0390627Y0231701D01*
X0392929Y0231701D02*
X0395998Y0227097D01*
X0395998Y0231701D01*
X0397533Y0231701D02*
X0397533Y0227097D01*
X0399835Y0227097D01*
X0400602Y0227865D01*
X0400602Y0230934D01*
X0399835Y0231701D01*
X0397533Y0231701D01*
X0392929Y0231701D02*
X0392929Y0227097D01*
X0407706Y0142902D02*
X0409877Y0140732D01*
X0410822Y0139503D02*
X0412449Y0141130D01*
X0413535Y0141130D01*
X0414620Y0140045D01*
X0414620Y0138960D01*
X0412992Y0137332D01*
X0414077Y0136247D02*
X0410822Y0139503D01*
X0410279Y0137875D02*
X0409194Y0137875D01*
X0408109Y0136790D01*
X0408109Y0135704D01*
X0410279Y0133534D01*
X0411364Y0133534D01*
X0412449Y0134619D01*
X0412449Y0135704D01*
X0410279Y0137875D01*
X0414077Y0138417D02*
X0416247Y0138417D01*
X0416790Y0140045D02*
X0417875Y0140045D01*
X0418960Y0141130D01*
X0418960Y0142215D01*
X0418418Y0142758D01*
X0417333Y0142758D01*
X0416790Y0142215D01*
X0417333Y0142758D02*
X0417333Y0143843D01*
X0416790Y0144386D01*
X0415705Y0144386D01*
X0414620Y0143301D01*
X0414620Y0142215D01*
X0409877Y0142902D02*
X0407706Y0140732D01*
X0406481Y0135162D02*
X0404311Y0132992D01*
X0405396Y0134077D02*
X0408651Y0130821D01*
X0405938Y0129194D02*
X0403768Y0131364D01*
X0402683Y0131364D01*
X0401598Y0130279D01*
X0401598Y0129194D01*
X0403768Y0127023D01*
X0404853Y0127023D01*
X0405938Y0128108D01*
X0405938Y0129194D01*
X0403226Y0125396D02*
X0399970Y0128651D01*
X0399970Y0126481D01*
X0397800Y0126481D01*
X0401055Y0123225D01*
X0399355Y0132380D02*
X0401525Y0134550D01*
X0144386Y0128641D02*
X0141130Y0128641D01*
X0143301Y0126471D01*
X0144386Y0128641D02*
X0141130Y0125386D01*
X0138417Y0128098D02*
X0138417Y0130269D01*
X0138960Y0129726D02*
X0137332Y0131354D01*
X0136247Y0130269D02*
X0139503Y0133524D01*
X0141130Y0131896D01*
X0141130Y0130811D01*
X0140045Y0129726D01*
X0138960Y0129726D01*
X0135704Y0131896D02*
X0137875Y0134067D01*
X0137875Y0135152D01*
X0136790Y0136237D01*
X0135704Y0136237D01*
X0133534Y0134067D01*
X0133534Y0132982D01*
X0134619Y0131896D01*
X0135704Y0131896D01*
X0140732Y0134469D02*
X0142902Y0136640D01*
X0140732Y0136640D02*
X0142902Y0134469D01*
X0135162Y0137865D02*
X0132992Y0140035D01*
X0134077Y0138950D02*
X0130821Y0135695D01*
X0129194Y0138407D02*
X0131364Y0140578D01*
X0131364Y0141663D01*
X0130279Y0142748D01*
X0129194Y0142748D01*
X0127023Y0140578D01*
X0127023Y0139493D01*
X0128108Y0138407D01*
X0129194Y0138407D01*
X0125396Y0141120D02*
X0128651Y0144376D01*
X0126481Y0144376D01*
X0126481Y0146546D01*
X0123225Y0143291D01*
X0132380Y0144991D02*
X0134550Y0142821D01*
X0127293Y0400586D02*
X0124038Y0403842D01*
X0126208Y0403842D01*
X0126208Y0406012D01*
X0129464Y0402757D01*
X0130006Y0404384D02*
X0131091Y0404384D01*
X0132176Y0405470D01*
X0132177Y0406555D01*
X0130006Y0408725D01*
X0128921Y0408725D01*
X0127836Y0407640D01*
X0127836Y0406555D01*
X0130006Y0404384D01*
X0133664Y0404783D02*
X0135835Y0402613D01*
X0135835Y0404783D02*
X0133664Y0402613D01*
X0134889Y0408183D02*
X0131634Y0411438D01*
X0130549Y0410353D02*
X0132719Y0412523D01*
X0134347Y0413066D02*
X0136517Y0410895D01*
X0137602Y0410895D01*
X0138687Y0411981D01*
X0138687Y0413066D01*
X0136517Y0415236D01*
X0135432Y0415236D01*
X0134347Y0414151D01*
X0134347Y0413066D01*
X0137060Y0416864D02*
X0138687Y0418491D01*
X0139773Y0418491D01*
X0140858Y0417406D01*
X0140858Y0416321D01*
X0139230Y0414693D01*
X0140315Y0413608D02*
X0137060Y0416864D01*
X0140315Y0415779D02*
X0142485Y0415779D01*
X0143571Y0416864D02*
X0145741Y0419034D01*
X0144656Y0417949D02*
X0141400Y0421204D01*
X0141400Y0419034D01*
X0144186Y0413135D02*
X0142016Y0410964D01*
X0396649Y0417053D02*
X0399905Y0420308D01*
X0399905Y0418138D01*
X0402075Y0418138D01*
X0398820Y0414882D01*
X0400447Y0414340D02*
X0400447Y0413255D01*
X0401533Y0412169D01*
X0402618Y0412169D01*
X0404788Y0414340D01*
X0404788Y0415425D01*
X0403703Y0416510D01*
X0402618Y0416510D01*
X0400447Y0414340D01*
X0400846Y0410682D02*
X0398676Y0408511D01*
X0400846Y0408511D02*
X0398676Y0410682D01*
X0404245Y0409456D02*
X0407501Y0412712D01*
X0406416Y0413797D02*
X0408586Y0411627D01*
X0409129Y0409999D02*
X0406958Y0407829D01*
X0406958Y0406744D01*
X0408044Y0405658D01*
X0409129Y0405658D01*
X0411299Y0407829D01*
X0411299Y0408914D01*
X0410214Y0409999D01*
X0409129Y0409999D01*
X0412927Y0407286D02*
X0414554Y0405658D01*
X0414554Y0404573D01*
X0413469Y0403488D01*
X0412384Y0403488D01*
X0410756Y0405116D01*
X0409671Y0404031D02*
X0412927Y0407286D01*
X0411842Y0404031D02*
X0411842Y0401860D01*
X0412927Y0400775D02*
X0417267Y0400775D01*
X0417810Y0401318D01*
X0417810Y0402403D01*
X0416725Y0403488D01*
X0415640Y0403488D01*
X0412927Y0400775D02*
X0415097Y0398605D01*
X0409198Y0400160D02*
X0407027Y0402330D01*
D13*
X0316858Y0301110D02*
X0316860Y0301215D01*
X0316866Y0301320D01*
X0316876Y0301424D01*
X0316890Y0301528D01*
X0316908Y0301632D01*
X0316930Y0301734D01*
X0316955Y0301836D01*
X0316985Y0301937D01*
X0317018Y0302036D01*
X0317055Y0302134D01*
X0317096Y0302231D01*
X0317141Y0302326D01*
X0317189Y0302419D01*
X0317240Y0302511D01*
X0317296Y0302600D01*
X0317354Y0302687D01*
X0317416Y0302772D01*
X0317480Y0302855D01*
X0317548Y0302935D01*
X0317619Y0303012D01*
X0317693Y0303086D01*
X0317770Y0303158D01*
X0317849Y0303227D01*
X0317931Y0303292D01*
X0318015Y0303355D01*
X0318102Y0303414D01*
X0318191Y0303470D01*
X0318282Y0303523D01*
X0318375Y0303572D01*
X0318469Y0303617D01*
X0318565Y0303659D01*
X0318663Y0303697D01*
X0318762Y0303731D01*
X0318863Y0303762D01*
X0318964Y0303788D01*
X0319067Y0303811D01*
X0319170Y0303830D01*
X0319274Y0303845D01*
X0319378Y0303856D01*
X0319483Y0303863D01*
X0319588Y0303866D01*
X0319693Y0303865D01*
X0319798Y0303860D01*
X0319902Y0303851D01*
X0320006Y0303838D01*
X0320110Y0303821D01*
X0320213Y0303800D01*
X0320315Y0303775D01*
X0320416Y0303747D01*
X0320515Y0303714D01*
X0320614Y0303678D01*
X0320711Y0303638D01*
X0320806Y0303595D01*
X0320900Y0303547D01*
X0320992Y0303497D01*
X0321082Y0303443D01*
X0321170Y0303385D01*
X0321255Y0303324D01*
X0321338Y0303260D01*
X0321419Y0303193D01*
X0321497Y0303123D01*
X0321572Y0303049D01*
X0321644Y0302974D01*
X0321714Y0302895D01*
X0321780Y0302814D01*
X0321844Y0302730D01*
X0321904Y0302644D01*
X0321960Y0302556D01*
X0322014Y0302465D01*
X0322064Y0302373D01*
X0322110Y0302279D01*
X0322153Y0302183D01*
X0322192Y0302085D01*
X0322227Y0301987D01*
X0322258Y0301886D01*
X0322286Y0301785D01*
X0322310Y0301683D01*
X0322330Y0301580D01*
X0322346Y0301476D01*
X0322358Y0301372D01*
X0322366Y0301267D01*
X0322370Y0301162D01*
X0322370Y0301058D01*
X0322366Y0300953D01*
X0322358Y0300848D01*
X0322346Y0300744D01*
X0322330Y0300640D01*
X0322310Y0300537D01*
X0322286Y0300435D01*
X0322258Y0300334D01*
X0322227Y0300233D01*
X0322192Y0300135D01*
X0322153Y0300037D01*
X0322110Y0299941D01*
X0322064Y0299847D01*
X0322014Y0299755D01*
X0321960Y0299664D01*
X0321904Y0299576D01*
X0321844Y0299490D01*
X0321780Y0299406D01*
X0321714Y0299325D01*
X0321644Y0299246D01*
X0321572Y0299171D01*
X0321497Y0299097D01*
X0321419Y0299027D01*
X0321338Y0298960D01*
X0321255Y0298896D01*
X0321170Y0298835D01*
X0321082Y0298777D01*
X0320992Y0298723D01*
X0320900Y0298673D01*
X0320806Y0298625D01*
X0320711Y0298582D01*
X0320614Y0298542D01*
X0320515Y0298506D01*
X0320416Y0298473D01*
X0320315Y0298445D01*
X0320213Y0298420D01*
X0320110Y0298399D01*
X0320006Y0298382D01*
X0319902Y0298369D01*
X0319798Y0298360D01*
X0319693Y0298355D01*
X0319588Y0298354D01*
X0319483Y0298357D01*
X0319378Y0298364D01*
X0319274Y0298375D01*
X0319170Y0298390D01*
X0319067Y0298409D01*
X0318964Y0298432D01*
X0318863Y0298458D01*
X0318762Y0298489D01*
X0318663Y0298523D01*
X0318565Y0298561D01*
X0318469Y0298603D01*
X0318375Y0298648D01*
X0318282Y0298697D01*
X0318191Y0298750D01*
X0318102Y0298806D01*
X0318015Y0298865D01*
X0317931Y0298928D01*
X0317849Y0298993D01*
X0317770Y0299062D01*
X0317693Y0299134D01*
X0317619Y0299208D01*
X0317548Y0299285D01*
X0317480Y0299365D01*
X0317416Y0299448D01*
X0317354Y0299533D01*
X0317296Y0299620D01*
X0317240Y0299709D01*
X0317189Y0299801D01*
X0317141Y0299894D01*
X0317096Y0299989D01*
X0317055Y0300086D01*
X0317018Y0300184D01*
X0316985Y0300283D01*
X0316955Y0300384D01*
X0316930Y0300486D01*
X0316908Y0300588D01*
X0316890Y0300692D01*
X0316876Y0300796D01*
X0316866Y0300900D01*
X0316860Y0301005D01*
X0316858Y0301110D01*
X0316858Y0243236D02*
X0316860Y0243341D01*
X0316866Y0243446D01*
X0316876Y0243550D01*
X0316890Y0243654D01*
X0316908Y0243758D01*
X0316930Y0243860D01*
X0316955Y0243962D01*
X0316985Y0244063D01*
X0317018Y0244162D01*
X0317055Y0244260D01*
X0317096Y0244357D01*
X0317141Y0244452D01*
X0317189Y0244545D01*
X0317240Y0244637D01*
X0317296Y0244726D01*
X0317354Y0244813D01*
X0317416Y0244898D01*
X0317480Y0244981D01*
X0317548Y0245061D01*
X0317619Y0245138D01*
X0317693Y0245212D01*
X0317770Y0245284D01*
X0317849Y0245353D01*
X0317931Y0245418D01*
X0318015Y0245481D01*
X0318102Y0245540D01*
X0318191Y0245596D01*
X0318282Y0245649D01*
X0318375Y0245698D01*
X0318469Y0245743D01*
X0318565Y0245785D01*
X0318663Y0245823D01*
X0318762Y0245857D01*
X0318863Y0245888D01*
X0318964Y0245914D01*
X0319067Y0245937D01*
X0319170Y0245956D01*
X0319274Y0245971D01*
X0319378Y0245982D01*
X0319483Y0245989D01*
X0319588Y0245992D01*
X0319693Y0245991D01*
X0319798Y0245986D01*
X0319902Y0245977D01*
X0320006Y0245964D01*
X0320110Y0245947D01*
X0320213Y0245926D01*
X0320315Y0245901D01*
X0320416Y0245873D01*
X0320515Y0245840D01*
X0320614Y0245804D01*
X0320711Y0245764D01*
X0320806Y0245721D01*
X0320900Y0245673D01*
X0320992Y0245623D01*
X0321082Y0245569D01*
X0321170Y0245511D01*
X0321255Y0245450D01*
X0321338Y0245386D01*
X0321419Y0245319D01*
X0321497Y0245249D01*
X0321572Y0245175D01*
X0321644Y0245100D01*
X0321714Y0245021D01*
X0321780Y0244940D01*
X0321844Y0244856D01*
X0321904Y0244770D01*
X0321960Y0244682D01*
X0322014Y0244591D01*
X0322064Y0244499D01*
X0322110Y0244405D01*
X0322153Y0244309D01*
X0322192Y0244211D01*
X0322227Y0244113D01*
X0322258Y0244012D01*
X0322286Y0243911D01*
X0322310Y0243809D01*
X0322330Y0243706D01*
X0322346Y0243602D01*
X0322358Y0243498D01*
X0322366Y0243393D01*
X0322370Y0243288D01*
X0322370Y0243184D01*
X0322366Y0243079D01*
X0322358Y0242974D01*
X0322346Y0242870D01*
X0322330Y0242766D01*
X0322310Y0242663D01*
X0322286Y0242561D01*
X0322258Y0242460D01*
X0322227Y0242359D01*
X0322192Y0242261D01*
X0322153Y0242163D01*
X0322110Y0242067D01*
X0322064Y0241973D01*
X0322014Y0241881D01*
X0321960Y0241790D01*
X0321904Y0241702D01*
X0321844Y0241616D01*
X0321780Y0241532D01*
X0321714Y0241451D01*
X0321644Y0241372D01*
X0321572Y0241297D01*
X0321497Y0241223D01*
X0321419Y0241153D01*
X0321338Y0241086D01*
X0321255Y0241022D01*
X0321170Y0240961D01*
X0321082Y0240903D01*
X0320992Y0240849D01*
X0320900Y0240799D01*
X0320806Y0240751D01*
X0320711Y0240708D01*
X0320614Y0240668D01*
X0320515Y0240632D01*
X0320416Y0240599D01*
X0320315Y0240571D01*
X0320213Y0240546D01*
X0320110Y0240525D01*
X0320006Y0240508D01*
X0319902Y0240495D01*
X0319798Y0240486D01*
X0319693Y0240481D01*
X0319588Y0240480D01*
X0319483Y0240483D01*
X0319378Y0240490D01*
X0319274Y0240501D01*
X0319170Y0240516D01*
X0319067Y0240535D01*
X0318964Y0240558D01*
X0318863Y0240584D01*
X0318762Y0240615D01*
X0318663Y0240649D01*
X0318565Y0240687D01*
X0318469Y0240729D01*
X0318375Y0240774D01*
X0318282Y0240823D01*
X0318191Y0240876D01*
X0318102Y0240932D01*
X0318015Y0240991D01*
X0317931Y0241054D01*
X0317849Y0241119D01*
X0317770Y0241188D01*
X0317693Y0241260D01*
X0317619Y0241334D01*
X0317548Y0241411D01*
X0317480Y0241491D01*
X0317416Y0241574D01*
X0317354Y0241659D01*
X0317296Y0241746D01*
X0317240Y0241835D01*
X0317189Y0241927D01*
X0317141Y0242020D01*
X0317096Y0242115D01*
X0317055Y0242212D01*
X0317018Y0242310D01*
X0316985Y0242409D01*
X0316955Y0242510D01*
X0316930Y0242612D01*
X0316908Y0242714D01*
X0316890Y0242818D01*
X0316876Y0242922D01*
X0316866Y0243026D01*
X0316860Y0243131D01*
X0316858Y0243236D01*
X0221976Y0243236D02*
X0221978Y0243341D01*
X0221984Y0243446D01*
X0221994Y0243550D01*
X0222008Y0243654D01*
X0222026Y0243758D01*
X0222048Y0243860D01*
X0222073Y0243962D01*
X0222103Y0244063D01*
X0222136Y0244162D01*
X0222173Y0244260D01*
X0222214Y0244357D01*
X0222259Y0244452D01*
X0222307Y0244545D01*
X0222358Y0244637D01*
X0222414Y0244726D01*
X0222472Y0244813D01*
X0222534Y0244898D01*
X0222598Y0244981D01*
X0222666Y0245061D01*
X0222737Y0245138D01*
X0222811Y0245212D01*
X0222888Y0245284D01*
X0222967Y0245353D01*
X0223049Y0245418D01*
X0223133Y0245481D01*
X0223220Y0245540D01*
X0223309Y0245596D01*
X0223400Y0245649D01*
X0223493Y0245698D01*
X0223587Y0245743D01*
X0223683Y0245785D01*
X0223781Y0245823D01*
X0223880Y0245857D01*
X0223981Y0245888D01*
X0224082Y0245914D01*
X0224185Y0245937D01*
X0224288Y0245956D01*
X0224392Y0245971D01*
X0224496Y0245982D01*
X0224601Y0245989D01*
X0224706Y0245992D01*
X0224811Y0245991D01*
X0224916Y0245986D01*
X0225020Y0245977D01*
X0225124Y0245964D01*
X0225228Y0245947D01*
X0225331Y0245926D01*
X0225433Y0245901D01*
X0225534Y0245873D01*
X0225633Y0245840D01*
X0225732Y0245804D01*
X0225829Y0245764D01*
X0225924Y0245721D01*
X0226018Y0245673D01*
X0226110Y0245623D01*
X0226200Y0245569D01*
X0226288Y0245511D01*
X0226373Y0245450D01*
X0226456Y0245386D01*
X0226537Y0245319D01*
X0226615Y0245249D01*
X0226690Y0245175D01*
X0226762Y0245100D01*
X0226832Y0245021D01*
X0226898Y0244940D01*
X0226962Y0244856D01*
X0227022Y0244770D01*
X0227078Y0244682D01*
X0227132Y0244591D01*
X0227182Y0244499D01*
X0227228Y0244405D01*
X0227271Y0244309D01*
X0227310Y0244211D01*
X0227345Y0244113D01*
X0227376Y0244012D01*
X0227404Y0243911D01*
X0227428Y0243809D01*
X0227448Y0243706D01*
X0227464Y0243602D01*
X0227476Y0243498D01*
X0227484Y0243393D01*
X0227488Y0243288D01*
X0227488Y0243184D01*
X0227484Y0243079D01*
X0227476Y0242974D01*
X0227464Y0242870D01*
X0227448Y0242766D01*
X0227428Y0242663D01*
X0227404Y0242561D01*
X0227376Y0242460D01*
X0227345Y0242359D01*
X0227310Y0242261D01*
X0227271Y0242163D01*
X0227228Y0242067D01*
X0227182Y0241973D01*
X0227132Y0241881D01*
X0227078Y0241790D01*
X0227022Y0241702D01*
X0226962Y0241616D01*
X0226898Y0241532D01*
X0226832Y0241451D01*
X0226762Y0241372D01*
X0226690Y0241297D01*
X0226615Y0241223D01*
X0226537Y0241153D01*
X0226456Y0241086D01*
X0226373Y0241022D01*
X0226288Y0240961D01*
X0226200Y0240903D01*
X0226110Y0240849D01*
X0226018Y0240799D01*
X0225924Y0240751D01*
X0225829Y0240708D01*
X0225732Y0240668D01*
X0225633Y0240632D01*
X0225534Y0240599D01*
X0225433Y0240571D01*
X0225331Y0240546D01*
X0225228Y0240525D01*
X0225124Y0240508D01*
X0225020Y0240495D01*
X0224916Y0240486D01*
X0224811Y0240481D01*
X0224706Y0240480D01*
X0224601Y0240483D01*
X0224496Y0240490D01*
X0224392Y0240501D01*
X0224288Y0240516D01*
X0224185Y0240535D01*
X0224082Y0240558D01*
X0223981Y0240584D01*
X0223880Y0240615D01*
X0223781Y0240649D01*
X0223683Y0240687D01*
X0223587Y0240729D01*
X0223493Y0240774D01*
X0223400Y0240823D01*
X0223309Y0240876D01*
X0223220Y0240932D01*
X0223133Y0240991D01*
X0223049Y0241054D01*
X0222967Y0241119D01*
X0222888Y0241188D01*
X0222811Y0241260D01*
X0222737Y0241334D01*
X0222666Y0241411D01*
X0222598Y0241491D01*
X0222534Y0241574D01*
X0222472Y0241659D01*
X0222414Y0241746D01*
X0222358Y0241835D01*
X0222307Y0241927D01*
X0222259Y0242020D01*
X0222214Y0242115D01*
X0222173Y0242212D01*
X0222136Y0242310D01*
X0222103Y0242409D01*
X0222073Y0242510D01*
X0222048Y0242612D01*
X0222026Y0242714D01*
X0222008Y0242818D01*
X0221994Y0242922D01*
X0221984Y0243026D01*
X0221978Y0243131D01*
X0221976Y0243236D01*
X0221976Y0301110D02*
X0221978Y0301215D01*
X0221984Y0301320D01*
X0221994Y0301424D01*
X0222008Y0301528D01*
X0222026Y0301632D01*
X0222048Y0301734D01*
X0222073Y0301836D01*
X0222103Y0301937D01*
X0222136Y0302036D01*
X0222173Y0302134D01*
X0222214Y0302231D01*
X0222259Y0302326D01*
X0222307Y0302419D01*
X0222358Y0302511D01*
X0222414Y0302600D01*
X0222472Y0302687D01*
X0222534Y0302772D01*
X0222598Y0302855D01*
X0222666Y0302935D01*
X0222737Y0303012D01*
X0222811Y0303086D01*
X0222888Y0303158D01*
X0222967Y0303227D01*
X0223049Y0303292D01*
X0223133Y0303355D01*
X0223220Y0303414D01*
X0223309Y0303470D01*
X0223400Y0303523D01*
X0223493Y0303572D01*
X0223587Y0303617D01*
X0223683Y0303659D01*
X0223781Y0303697D01*
X0223880Y0303731D01*
X0223981Y0303762D01*
X0224082Y0303788D01*
X0224185Y0303811D01*
X0224288Y0303830D01*
X0224392Y0303845D01*
X0224496Y0303856D01*
X0224601Y0303863D01*
X0224706Y0303866D01*
X0224811Y0303865D01*
X0224916Y0303860D01*
X0225020Y0303851D01*
X0225124Y0303838D01*
X0225228Y0303821D01*
X0225331Y0303800D01*
X0225433Y0303775D01*
X0225534Y0303747D01*
X0225633Y0303714D01*
X0225732Y0303678D01*
X0225829Y0303638D01*
X0225924Y0303595D01*
X0226018Y0303547D01*
X0226110Y0303497D01*
X0226200Y0303443D01*
X0226288Y0303385D01*
X0226373Y0303324D01*
X0226456Y0303260D01*
X0226537Y0303193D01*
X0226615Y0303123D01*
X0226690Y0303049D01*
X0226762Y0302974D01*
X0226832Y0302895D01*
X0226898Y0302814D01*
X0226962Y0302730D01*
X0227022Y0302644D01*
X0227078Y0302556D01*
X0227132Y0302465D01*
X0227182Y0302373D01*
X0227228Y0302279D01*
X0227271Y0302183D01*
X0227310Y0302085D01*
X0227345Y0301987D01*
X0227376Y0301886D01*
X0227404Y0301785D01*
X0227428Y0301683D01*
X0227448Y0301580D01*
X0227464Y0301476D01*
X0227476Y0301372D01*
X0227484Y0301267D01*
X0227488Y0301162D01*
X0227488Y0301058D01*
X0227484Y0300953D01*
X0227476Y0300848D01*
X0227464Y0300744D01*
X0227448Y0300640D01*
X0227428Y0300537D01*
X0227404Y0300435D01*
X0227376Y0300334D01*
X0227345Y0300233D01*
X0227310Y0300135D01*
X0227271Y0300037D01*
X0227228Y0299941D01*
X0227182Y0299847D01*
X0227132Y0299755D01*
X0227078Y0299664D01*
X0227022Y0299576D01*
X0226962Y0299490D01*
X0226898Y0299406D01*
X0226832Y0299325D01*
X0226762Y0299246D01*
X0226690Y0299171D01*
X0226615Y0299097D01*
X0226537Y0299027D01*
X0226456Y0298960D01*
X0226373Y0298896D01*
X0226288Y0298835D01*
X0226200Y0298777D01*
X0226110Y0298723D01*
X0226018Y0298673D01*
X0225924Y0298625D01*
X0225829Y0298582D01*
X0225732Y0298542D01*
X0225633Y0298506D01*
X0225534Y0298473D01*
X0225433Y0298445D01*
X0225331Y0298420D01*
X0225228Y0298399D01*
X0225124Y0298382D01*
X0225020Y0298369D01*
X0224916Y0298360D01*
X0224811Y0298355D01*
X0224706Y0298354D01*
X0224601Y0298357D01*
X0224496Y0298364D01*
X0224392Y0298375D01*
X0224288Y0298390D01*
X0224185Y0298409D01*
X0224082Y0298432D01*
X0223981Y0298458D01*
X0223880Y0298489D01*
X0223781Y0298523D01*
X0223683Y0298561D01*
X0223587Y0298603D01*
X0223493Y0298648D01*
X0223400Y0298697D01*
X0223309Y0298750D01*
X0223220Y0298806D01*
X0223133Y0298865D01*
X0223049Y0298928D01*
X0222967Y0298993D01*
X0222888Y0299062D01*
X0222811Y0299134D01*
X0222737Y0299208D01*
X0222666Y0299285D01*
X0222598Y0299365D01*
X0222534Y0299448D01*
X0222472Y0299533D01*
X0222414Y0299620D01*
X0222358Y0299709D01*
X0222307Y0299801D01*
X0222259Y0299894D01*
X0222214Y0299989D01*
X0222173Y0300086D01*
X0222136Y0300184D01*
X0222103Y0300283D01*
X0222073Y0300384D01*
X0222048Y0300486D01*
X0222026Y0300588D01*
X0222008Y0300692D01*
X0221994Y0300796D01*
X0221984Y0300900D01*
X0221978Y0301005D01*
X0221976Y0301110D01*
D14*
X0229299Y0285952D02*
X0229299Y0278078D01*
X0236307Y0278078D02*
X0236307Y0285952D01*
X0248984Y0280047D02*
X0248984Y0272173D01*
X0255992Y0272173D02*
X0255992Y0280047D01*
X0256858Y0289889D02*
X0256858Y0297763D01*
X0263866Y0297763D02*
X0263866Y0289889D01*
X0264732Y0289889D02*
X0264732Y0297763D01*
X0271740Y0297763D02*
X0271740Y0289889D01*
X0272606Y0289889D02*
X0272606Y0297763D01*
X0279614Y0297763D02*
X0279614Y0289889D01*
X0280480Y0289889D02*
X0280480Y0297763D01*
X0287488Y0297763D02*
X0287488Y0289889D01*
X0303669Y0283472D02*
X0311543Y0283472D01*
X0311543Y0276622D02*
X0303669Y0276622D01*
X0303669Y0271661D02*
X0311543Y0271661D01*
X0311543Y0264811D02*
X0303669Y0264811D01*
X0331228Y0212606D02*
X0339102Y0212606D01*
X0346976Y0212606D02*
X0354850Y0212606D01*
X0354850Y0205756D02*
X0346976Y0205756D01*
X0348945Y0200047D02*
X0359555Y0200047D01*
X0359555Y0194693D01*
X0348945Y0194693D01*
X0337901Y0194693D02*
X0327291Y0194693D01*
X0327291Y0200047D02*
X0337901Y0200047D01*
X0337901Y0194693D01*
X0339102Y0205756D02*
X0331228Y0205756D01*
X0320874Y0203275D02*
X0320874Y0195401D01*
X0314023Y0195401D02*
X0314023Y0203275D01*
X0313078Y0203275D02*
X0313078Y0195401D01*
X0306071Y0195401D02*
X0306071Y0203275D01*
X0288315Y0177252D02*
X0280441Y0177252D01*
X0280441Y0170244D02*
X0288315Y0170244D01*
X0288315Y0168984D02*
X0280441Y0168984D01*
X0280441Y0161976D02*
X0288315Y0161976D01*
X0236740Y0187960D02*
X0228866Y0187960D01*
X0228866Y0194968D02*
X0236740Y0194968D01*
X0216622Y0198354D02*
X0216622Y0190480D01*
X0209614Y0190480D02*
X0209614Y0198354D01*
X0209614Y0206228D02*
X0209614Y0214102D01*
X0216622Y0214102D02*
X0216622Y0206228D01*
X0193393Y0216897D02*
X0185519Y0216897D01*
X0185519Y0223905D02*
X0193393Y0223905D01*
X0195401Y0239141D02*
X0187527Y0239141D01*
X0187527Y0246149D02*
X0195401Y0246149D01*
X0195401Y0247015D02*
X0187527Y0247015D01*
X0187527Y0254023D02*
X0195401Y0254023D01*
X0185559Y0264732D02*
X0177685Y0264732D01*
X0177685Y0271740D02*
X0185559Y0271740D01*
X0185559Y0272606D02*
X0177685Y0272606D01*
X0177685Y0279614D02*
X0185559Y0279614D01*
X0185047Y0299732D02*
X0185047Y0307606D01*
X0178197Y0307606D02*
X0178197Y0299732D01*
X0165441Y0345008D02*
X0165441Y0352882D01*
X0158433Y0352882D02*
X0158433Y0345008D01*
X0152094Y0349456D02*
X0144220Y0349456D01*
X0144220Y0356307D02*
X0152094Y0356307D01*
X0160362Y0363315D02*
X0160362Y0378354D01*
X0167449Y0378354D01*
X0167449Y0363315D01*
X0152094Y0377015D02*
X0144220Y0377015D01*
X0144220Y0383866D02*
X0152094Y0383866D01*
X0160756Y0385756D02*
X0160756Y0417783D01*
X0178866Y0417783D01*
X0178866Y0385756D01*
X0268236Y0410480D02*
X0276110Y0410480D01*
X0276110Y0417330D02*
X0268236Y0417330D01*
X0293826Y0416582D02*
X0304437Y0416582D01*
X0304437Y0411228D01*
X0293826Y0411228D01*
X0365480Y0417783D02*
X0365480Y0385756D01*
X0376897Y0378354D02*
X0383984Y0378354D01*
X0383984Y0363315D01*
X0376897Y0363315D02*
X0376897Y0378354D01*
X0383590Y0385756D02*
X0383590Y0417783D01*
X0365480Y0417783D01*
X0392252Y0377960D02*
X0400126Y0377960D01*
X0400126Y0371110D02*
X0392252Y0371110D01*
X0385913Y0352882D02*
X0385913Y0345008D01*
X0378905Y0345008D02*
X0378905Y0352882D01*
X0392252Y0350401D02*
X0400126Y0350401D01*
X0400126Y0343551D02*
X0392252Y0343551D01*
X0406937Y0321897D02*
X0406937Y0225231D01*
X0410270Y0221897D02*
X0416937Y0221897D01*
X0416937Y0321897D01*
X0406937Y0321897D01*
X0402094Y0200795D02*
X0394220Y0200795D01*
X0394220Y0193945D02*
X0402094Y0193945D01*
X0383945Y0191464D02*
X0383945Y0199338D01*
X0376937Y0199338D02*
X0376937Y0191464D01*
X0376897Y0181031D02*
X0376897Y0165992D01*
X0383984Y0165992D01*
X0383984Y0181031D01*
X0394220Y0171267D02*
X0402094Y0171267D01*
X0402094Y0164417D02*
X0394220Y0164417D01*
X0383590Y0158590D02*
X0383590Y0126563D01*
X0365480Y0126563D01*
X0365480Y0158590D01*
X0178866Y0158590D02*
X0178866Y0126563D01*
X0160756Y0126563D01*
X0160756Y0158590D01*
X0160362Y0165992D02*
X0160362Y0181031D01*
X0167449Y0181031D02*
X0167449Y0165992D01*
X0160362Y0165992D01*
X0152094Y0164417D02*
X0144220Y0164417D01*
X0144220Y0171267D02*
X0152094Y0171267D01*
X0152094Y0191976D02*
X0144220Y0191976D01*
X0144220Y0198826D02*
X0152094Y0198826D01*
X0158433Y0199338D02*
X0158433Y0191464D01*
X0165441Y0191464D02*
X0165441Y0199338D01*
D15*
X0163511Y0164732D02*
X0163513Y0164771D01*
X0163519Y0164810D01*
X0163529Y0164848D01*
X0163542Y0164885D01*
X0163559Y0164920D01*
X0163579Y0164954D01*
X0163603Y0164985D01*
X0163630Y0165014D01*
X0163659Y0165040D01*
X0163691Y0165063D01*
X0163725Y0165083D01*
X0163761Y0165099D01*
X0163798Y0165111D01*
X0163837Y0165120D01*
X0163876Y0165125D01*
X0163915Y0165126D01*
X0163954Y0165123D01*
X0163993Y0165116D01*
X0164030Y0165105D01*
X0164067Y0165091D01*
X0164102Y0165073D01*
X0164135Y0165052D01*
X0164166Y0165027D01*
X0164194Y0165000D01*
X0164219Y0164970D01*
X0164241Y0164937D01*
X0164260Y0164903D01*
X0164275Y0164867D01*
X0164287Y0164829D01*
X0164295Y0164791D01*
X0164299Y0164752D01*
X0164299Y0164712D01*
X0164295Y0164673D01*
X0164287Y0164635D01*
X0164275Y0164597D01*
X0164260Y0164561D01*
X0164241Y0164527D01*
X0164219Y0164494D01*
X0164194Y0164464D01*
X0164166Y0164437D01*
X0164135Y0164412D01*
X0164102Y0164391D01*
X0164067Y0164373D01*
X0164030Y0164359D01*
X0163993Y0164348D01*
X0163954Y0164341D01*
X0163915Y0164338D01*
X0163876Y0164339D01*
X0163837Y0164344D01*
X0163798Y0164353D01*
X0163761Y0164365D01*
X0163725Y0164381D01*
X0163691Y0164401D01*
X0163659Y0164424D01*
X0163630Y0164450D01*
X0163603Y0164479D01*
X0163579Y0164510D01*
X0163559Y0164544D01*
X0163542Y0164579D01*
X0163529Y0164616D01*
X0163519Y0164654D01*
X0163513Y0164693D01*
X0163511Y0164732D01*
X0169417Y0125303D02*
X0169419Y0125342D01*
X0169425Y0125381D01*
X0169435Y0125419D01*
X0169448Y0125456D01*
X0169465Y0125491D01*
X0169485Y0125525D01*
X0169509Y0125556D01*
X0169536Y0125585D01*
X0169565Y0125611D01*
X0169597Y0125634D01*
X0169631Y0125654D01*
X0169667Y0125670D01*
X0169704Y0125682D01*
X0169743Y0125691D01*
X0169782Y0125696D01*
X0169821Y0125697D01*
X0169860Y0125694D01*
X0169899Y0125687D01*
X0169936Y0125676D01*
X0169973Y0125662D01*
X0170008Y0125644D01*
X0170041Y0125623D01*
X0170072Y0125598D01*
X0170100Y0125571D01*
X0170125Y0125541D01*
X0170147Y0125508D01*
X0170166Y0125474D01*
X0170181Y0125438D01*
X0170193Y0125400D01*
X0170201Y0125362D01*
X0170205Y0125323D01*
X0170205Y0125283D01*
X0170201Y0125244D01*
X0170193Y0125206D01*
X0170181Y0125168D01*
X0170166Y0125132D01*
X0170147Y0125098D01*
X0170125Y0125065D01*
X0170100Y0125035D01*
X0170072Y0125008D01*
X0170041Y0124983D01*
X0170008Y0124962D01*
X0169973Y0124944D01*
X0169936Y0124930D01*
X0169899Y0124919D01*
X0169860Y0124912D01*
X0169821Y0124909D01*
X0169782Y0124910D01*
X0169743Y0124915D01*
X0169704Y0124924D01*
X0169667Y0124936D01*
X0169631Y0124952D01*
X0169597Y0124972D01*
X0169565Y0124995D01*
X0169536Y0125021D01*
X0169509Y0125050D01*
X0169485Y0125081D01*
X0169465Y0125115D01*
X0169448Y0125150D01*
X0169435Y0125187D01*
X0169425Y0125225D01*
X0169419Y0125264D01*
X0169417Y0125303D01*
X0338767Y0197370D02*
X0338769Y0197409D01*
X0338775Y0197448D01*
X0338785Y0197486D01*
X0338798Y0197523D01*
X0338815Y0197558D01*
X0338835Y0197592D01*
X0338859Y0197623D01*
X0338886Y0197652D01*
X0338915Y0197678D01*
X0338947Y0197701D01*
X0338981Y0197721D01*
X0339017Y0197737D01*
X0339054Y0197749D01*
X0339093Y0197758D01*
X0339132Y0197763D01*
X0339171Y0197764D01*
X0339210Y0197761D01*
X0339249Y0197754D01*
X0339286Y0197743D01*
X0339323Y0197729D01*
X0339358Y0197711D01*
X0339391Y0197690D01*
X0339422Y0197665D01*
X0339450Y0197638D01*
X0339475Y0197608D01*
X0339497Y0197575D01*
X0339516Y0197541D01*
X0339531Y0197505D01*
X0339543Y0197467D01*
X0339551Y0197429D01*
X0339555Y0197390D01*
X0339555Y0197350D01*
X0339551Y0197311D01*
X0339543Y0197273D01*
X0339531Y0197235D01*
X0339516Y0197199D01*
X0339497Y0197165D01*
X0339475Y0197132D01*
X0339450Y0197102D01*
X0339422Y0197075D01*
X0339391Y0197050D01*
X0339358Y0197029D01*
X0339323Y0197011D01*
X0339286Y0196997D01*
X0339249Y0196986D01*
X0339210Y0196979D01*
X0339171Y0196976D01*
X0339132Y0196977D01*
X0339093Y0196982D01*
X0339054Y0196991D01*
X0339017Y0197003D01*
X0338981Y0197019D01*
X0338947Y0197039D01*
X0338915Y0197062D01*
X0338886Y0197088D01*
X0338859Y0197117D01*
X0338835Y0197148D01*
X0338815Y0197182D01*
X0338798Y0197217D01*
X0338785Y0197254D01*
X0338775Y0197292D01*
X0338769Y0197331D01*
X0338767Y0197370D01*
X0360421Y0197370D02*
X0360423Y0197409D01*
X0360429Y0197448D01*
X0360439Y0197486D01*
X0360452Y0197523D01*
X0360469Y0197558D01*
X0360489Y0197592D01*
X0360513Y0197623D01*
X0360540Y0197652D01*
X0360569Y0197678D01*
X0360601Y0197701D01*
X0360635Y0197721D01*
X0360671Y0197737D01*
X0360708Y0197749D01*
X0360747Y0197758D01*
X0360786Y0197763D01*
X0360825Y0197764D01*
X0360864Y0197761D01*
X0360903Y0197754D01*
X0360940Y0197743D01*
X0360977Y0197729D01*
X0361012Y0197711D01*
X0361045Y0197690D01*
X0361076Y0197665D01*
X0361104Y0197638D01*
X0361129Y0197608D01*
X0361151Y0197575D01*
X0361170Y0197541D01*
X0361185Y0197505D01*
X0361197Y0197467D01*
X0361205Y0197429D01*
X0361209Y0197390D01*
X0361209Y0197350D01*
X0361205Y0197311D01*
X0361197Y0197273D01*
X0361185Y0197235D01*
X0361170Y0197199D01*
X0361151Y0197165D01*
X0361129Y0197132D01*
X0361104Y0197102D01*
X0361076Y0197075D01*
X0361045Y0197050D01*
X0361012Y0197029D01*
X0360977Y0197011D01*
X0360940Y0196997D01*
X0360903Y0196986D01*
X0360864Y0196979D01*
X0360825Y0196976D01*
X0360786Y0196977D01*
X0360747Y0196982D01*
X0360708Y0196991D01*
X0360671Y0197003D01*
X0360635Y0197019D01*
X0360601Y0197039D01*
X0360569Y0197062D01*
X0360540Y0197088D01*
X0360513Y0197117D01*
X0360489Y0197148D01*
X0360469Y0197182D01*
X0360452Y0197217D01*
X0360439Y0197254D01*
X0360429Y0197292D01*
X0360423Y0197331D01*
X0360421Y0197370D01*
X0380047Y0164732D02*
X0380049Y0164771D01*
X0380055Y0164810D01*
X0380065Y0164848D01*
X0380078Y0164885D01*
X0380095Y0164920D01*
X0380115Y0164954D01*
X0380139Y0164985D01*
X0380166Y0165014D01*
X0380195Y0165040D01*
X0380227Y0165063D01*
X0380261Y0165083D01*
X0380297Y0165099D01*
X0380334Y0165111D01*
X0380373Y0165120D01*
X0380412Y0165125D01*
X0380451Y0165126D01*
X0380490Y0165123D01*
X0380529Y0165116D01*
X0380566Y0165105D01*
X0380603Y0165091D01*
X0380638Y0165073D01*
X0380671Y0165052D01*
X0380702Y0165027D01*
X0380730Y0165000D01*
X0380755Y0164970D01*
X0380777Y0164937D01*
X0380796Y0164903D01*
X0380811Y0164867D01*
X0380823Y0164829D01*
X0380831Y0164791D01*
X0380835Y0164752D01*
X0380835Y0164712D01*
X0380831Y0164673D01*
X0380823Y0164635D01*
X0380811Y0164597D01*
X0380796Y0164561D01*
X0380777Y0164527D01*
X0380755Y0164494D01*
X0380730Y0164464D01*
X0380702Y0164437D01*
X0380671Y0164412D01*
X0380638Y0164391D01*
X0380603Y0164373D01*
X0380566Y0164359D01*
X0380529Y0164348D01*
X0380490Y0164341D01*
X0380451Y0164338D01*
X0380412Y0164339D01*
X0380373Y0164344D01*
X0380334Y0164353D01*
X0380297Y0164365D01*
X0380261Y0164381D01*
X0380227Y0164401D01*
X0380195Y0164424D01*
X0380166Y0164450D01*
X0380139Y0164479D01*
X0380115Y0164510D01*
X0380095Y0164544D01*
X0380078Y0164579D01*
X0380065Y0164616D01*
X0380055Y0164654D01*
X0380049Y0164693D01*
X0380047Y0164732D01*
X0374141Y0125303D02*
X0374143Y0125342D01*
X0374149Y0125381D01*
X0374159Y0125419D01*
X0374172Y0125456D01*
X0374189Y0125491D01*
X0374209Y0125525D01*
X0374233Y0125556D01*
X0374260Y0125585D01*
X0374289Y0125611D01*
X0374321Y0125634D01*
X0374355Y0125654D01*
X0374391Y0125670D01*
X0374428Y0125682D01*
X0374467Y0125691D01*
X0374506Y0125696D01*
X0374545Y0125697D01*
X0374584Y0125694D01*
X0374623Y0125687D01*
X0374660Y0125676D01*
X0374697Y0125662D01*
X0374732Y0125644D01*
X0374765Y0125623D01*
X0374796Y0125598D01*
X0374824Y0125571D01*
X0374849Y0125541D01*
X0374871Y0125508D01*
X0374890Y0125474D01*
X0374905Y0125438D01*
X0374917Y0125400D01*
X0374925Y0125362D01*
X0374929Y0125323D01*
X0374929Y0125283D01*
X0374925Y0125244D01*
X0374917Y0125206D01*
X0374905Y0125168D01*
X0374890Y0125132D01*
X0374871Y0125098D01*
X0374849Y0125065D01*
X0374824Y0125035D01*
X0374796Y0125008D01*
X0374765Y0124983D01*
X0374732Y0124962D01*
X0374697Y0124944D01*
X0374660Y0124930D01*
X0374623Y0124919D01*
X0374584Y0124912D01*
X0374545Y0124909D01*
X0374506Y0124910D01*
X0374467Y0124915D01*
X0374428Y0124924D01*
X0374391Y0124936D01*
X0374355Y0124952D01*
X0374321Y0124972D01*
X0374289Y0124995D01*
X0374260Y0125021D01*
X0374233Y0125050D01*
X0374209Y0125081D01*
X0374189Y0125115D01*
X0374172Y0125150D01*
X0374159Y0125187D01*
X0374149Y0125225D01*
X0374143Y0125264D01*
X0374141Y0125303D01*
X0380047Y0379614D02*
X0380049Y0379653D01*
X0380055Y0379692D01*
X0380065Y0379730D01*
X0380078Y0379767D01*
X0380095Y0379802D01*
X0380115Y0379836D01*
X0380139Y0379867D01*
X0380166Y0379896D01*
X0380195Y0379922D01*
X0380227Y0379945D01*
X0380261Y0379965D01*
X0380297Y0379981D01*
X0380334Y0379993D01*
X0380373Y0380002D01*
X0380412Y0380007D01*
X0380451Y0380008D01*
X0380490Y0380005D01*
X0380529Y0379998D01*
X0380566Y0379987D01*
X0380603Y0379973D01*
X0380638Y0379955D01*
X0380671Y0379934D01*
X0380702Y0379909D01*
X0380730Y0379882D01*
X0380755Y0379852D01*
X0380777Y0379819D01*
X0380796Y0379785D01*
X0380811Y0379749D01*
X0380823Y0379711D01*
X0380831Y0379673D01*
X0380835Y0379634D01*
X0380835Y0379594D01*
X0380831Y0379555D01*
X0380823Y0379517D01*
X0380811Y0379479D01*
X0380796Y0379443D01*
X0380777Y0379409D01*
X0380755Y0379376D01*
X0380730Y0379346D01*
X0380702Y0379319D01*
X0380671Y0379294D01*
X0380638Y0379273D01*
X0380603Y0379255D01*
X0380566Y0379241D01*
X0380529Y0379230D01*
X0380490Y0379223D01*
X0380451Y0379220D01*
X0380412Y0379221D01*
X0380373Y0379226D01*
X0380334Y0379235D01*
X0380297Y0379247D01*
X0380261Y0379263D01*
X0380227Y0379283D01*
X0380195Y0379306D01*
X0380166Y0379332D01*
X0380139Y0379361D01*
X0380115Y0379392D01*
X0380095Y0379426D01*
X0380078Y0379461D01*
X0380065Y0379498D01*
X0380055Y0379536D01*
X0380049Y0379575D01*
X0380047Y0379614D01*
X0374141Y0419043D02*
X0374143Y0419082D01*
X0374149Y0419121D01*
X0374159Y0419159D01*
X0374172Y0419196D01*
X0374189Y0419231D01*
X0374209Y0419265D01*
X0374233Y0419296D01*
X0374260Y0419325D01*
X0374289Y0419351D01*
X0374321Y0419374D01*
X0374355Y0419394D01*
X0374391Y0419410D01*
X0374428Y0419422D01*
X0374467Y0419431D01*
X0374506Y0419436D01*
X0374545Y0419437D01*
X0374584Y0419434D01*
X0374623Y0419427D01*
X0374660Y0419416D01*
X0374697Y0419402D01*
X0374732Y0419384D01*
X0374765Y0419363D01*
X0374796Y0419338D01*
X0374824Y0419311D01*
X0374849Y0419281D01*
X0374871Y0419248D01*
X0374890Y0419214D01*
X0374905Y0419178D01*
X0374917Y0419140D01*
X0374925Y0419102D01*
X0374929Y0419063D01*
X0374929Y0419023D01*
X0374925Y0418984D01*
X0374917Y0418946D01*
X0374905Y0418908D01*
X0374890Y0418872D01*
X0374871Y0418838D01*
X0374849Y0418805D01*
X0374824Y0418775D01*
X0374796Y0418748D01*
X0374765Y0418723D01*
X0374732Y0418702D01*
X0374697Y0418684D01*
X0374660Y0418670D01*
X0374623Y0418659D01*
X0374584Y0418652D01*
X0374545Y0418649D01*
X0374506Y0418650D01*
X0374467Y0418655D01*
X0374428Y0418664D01*
X0374391Y0418676D01*
X0374355Y0418692D01*
X0374321Y0418712D01*
X0374289Y0418735D01*
X0374260Y0418761D01*
X0374233Y0418790D01*
X0374209Y0418821D01*
X0374189Y0418855D01*
X0374172Y0418890D01*
X0374159Y0418927D01*
X0374149Y0418965D01*
X0374143Y0419004D01*
X0374141Y0419043D01*
X0305303Y0413905D02*
X0305305Y0413944D01*
X0305311Y0413983D01*
X0305321Y0414021D01*
X0305334Y0414058D01*
X0305351Y0414093D01*
X0305371Y0414127D01*
X0305395Y0414158D01*
X0305422Y0414187D01*
X0305451Y0414213D01*
X0305483Y0414236D01*
X0305517Y0414256D01*
X0305553Y0414272D01*
X0305590Y0414284D01*
X0305629Y0414293D01*
X0305668Y0414298D01*
X0305707Y0414299D01*
X0305746Y0414296D01*
X0305785Y0414289D01*
X0305822Y0414278D01*
X0305859Y0414264D01*
X0305894Y0414246D01*
X0305927Y0414225D01*
X0305958Y0414200D01*
X0305986Y0414173D01*
X0306011Y0414143D01*
X0306033Y0414110D01*
X0306052Y0414076D01*
X0306067Y0414040D01*
X0306079Y0414002D01*
X0306087Y0413964D01*
X0306091Y0413925D01*
X0306091Y0413885D01*
X0306087Y0413846D01*
X0306079Y0413808D01*
X0306067Y0413770D01*
X0306052Y0413734D01*
X0306033Y0413700D01*
X0306011Y0413667D01*
X0305986Y0413637D01*
X0305958Y0413610D01*
X0305927Y0413585D01*
X0305894Y0413564D01*
X0305859Y0413546D01*
X0305822Y0413532D01*
X0305785Y0413521D01*
X0305746Y0413514D01*
X0305707Y0413511D01*
X0305668Y0413512D01*
X0305629Y0413517D01*
X0305590Y0413526D01*
X0305553Y0413538D01*
X0305517Y0413554D01*
X0305483Y0413574D01*
X0305451Y0413597D01*
X0305422Y0413623D01*
X0305395Y0413652D01*
X0305371Y0413683D01*
X0305351Y0413717D01*
X0305334Y0413752D01*
X0305321Y0413789D01*
X0305311Y0413827D01*
X0305305Y0413866D01*
X0305303Y0413905D01*
X0169417Y0419043D02*
X0169419Y0419082D01*
X0169425Y0419121D01*
X0169435Y0419159D01*
X0169448Y0419196D01*
X0169465Y0419231D01*
X0169485Y0419265D01*
X0169509Y0419296D01*
X0169536Y0419325D01*
X0169565Y0419351D01*
X0169597Y0419374D01*
X0169631Y0419394D01*
X0169667Y0419410D01*
X0169704Y0419422D01*
X0169743Y0419431D01*
X0169782Y0419436D01*
X0169821Y0419437D01*
X0169860Y0419434D01*
X0169899Y0419427D01*
X0169936Y0419416D01*
X0169973Y0419402D01*
X0170008Y0419384D01*
X0170041Y0419363D01*
X0170072Y0419338D01*
X0170100Y0419311D01*
X0170125Y0419281D01*
X0170147Y0419248D01*
X0170166Y0419214D01*
X0170181Y0419178D01*
X0170193Y0419140D01*
X0170201Y0419102D01*
X0170205Y0419063D01*
X0170205Y0419023D01*
X0170201Y0418984D01*
X0170193Y0418946D01*
X0170181Y0418908D01*
X0170166Y0418872D01*
X0170147Y0418838D01*
X0170125Y0418805D01*
X0170100Y0418775D01*
X0170072Y0418748D01*
X0170041Y0418723D01*
X0170008Y0418702D01*
X0169973Y0418684D01*
X0169936Y0418670D01*
X0169899Y0418659D01*
X0169860Y0418652D01*
X0169821Y0418649D01*
X0169782Y0418650D01*
X0169743Y0418655D01*
X0169704Y0418664D01*
X0169667Y0418676D01*
X0169631Y0418692D01*
X0169597Y0418712D01*
X0169565Y0418735D01*
X0169536Y0418761D01*
X0169509Y0418790D01*
X0169485Y0418821D01*
X0169465Y0418855D01*
X0169448Y0418890D01*
X0169435Y0418927D01*
X0169425Y0418965D01*
X0169419Y0419004D01*
X0169417Y0419043D01*
X0163511Y0379614D02*
X0163513Y0379653D01*
X0163519Y0379692D01*
X0163529Y0379730D01*
X0163542Y0379767D01*
X0163559Y0379802D01*
X0163579Y0379836D01*
X0163603Y0379867D01*
X0163630Y0379896D01*
X0163659Y0379922D01*
X0163691Y0379945D01*
X0163725Y0379965D01*
X0163761Y0379981D01*
X0163798Y0379993D01*
X0163837Y0380002D01*
X0163876Y0380007D01*
X0163915Y0380008D01*
X0163954Y0380005D01*
X0163993Y0379998D01*
X0164030Y0379987D01*
X0164067Y0379973D01*
X0164102Y0379955D01*
X0164135Y0379934D01*
X0164166Y0379909D01*
X0164194Y0379882D01*
X0164219Y0379852D01*
X0164241Y0379819D01*
X0164260Y0379785D01*
X0164275Y0379749D01*
X0164287Y0379711D01*
X0164295Y0379673D01*
X0164299Y0379634D01*
X0164299Y0379594D01*
X0164295Y0379555D01*
X0164287Y0379517D01*
X0164275Y0379479D01*
X0164260Y0379443D01*
X0164241Y0379409D01*
X0164219Y0379376D01*
X0164194Y0379346D01*
X0164166Y0379319D01*
X0164135Y0379294D01*
X0164102Y0379273D01*
X0164067Y0379255D01*
X0164030Y0379241D01*
X0163993Y0379230D01*
X0163954Y0379223D01*
X0163915Y0379220D01*
X0163876Y0379221D01*
X0163837Y0379226D01*
X0163798Y0379235D01*
X0163761Y0379247D01*
X0163725Y0379263D01*
X0163691Y0379283D01*
X0163659Y0379306D01*
X0163630Y0379332D01*
X0163603Y0379361D01*
X0163579Y0379392D01*
X0163559Y0379426D01*
X0163542Y0379461D01*
X0163529Y0379498D01*
X0163519Y0379536D01*
X0163513Y0379575D01*
X0163511Y0379614D01*
D16*
X0141208Y0341110D02*
X0136208Y0341110D01*
X0133708Y0338610D01*
X0133708Y0333610D01*
X0136208Y0331110D01*
X0133708Y0328610D01*
X0133708Y0323610D01*
X0136208Y0321110D01*
X0133708Y0318610D01*
X0133708Y0313610D01*
X0136208Y0311110D01*
X0133708Y0308610D01*
X0133708Y0303610D01*
X0136208Y0301110D01*
X0133708Y0298610D01*
X0133708Y0293610D01*
X0136208Y0291110D01*
X0133708Y0288610D01*
X0133708Y0283610D01*
X0136208Y0281110D01*
X0141208Y0281110D01*
X0143708Y0283610D01*
X0143708Y0288610D01*
X0141208Y0291110D01*
X0143708Y0293610D01*
X0143708Y0298610D01*
X0141208Y0301110D01*
X0143708Y0303610D01*
X0143708Y0308610D01*
X0141208Y0311110D01*
X0143708Y0313610D01*
X0143708Y0318610D01*
X0141208Y0321110D01*
X0143708Y0323610D01*
X0143708Y0328610D01*
X0141208Y0331110D01*
X0143708Y0333610D01*
X0143708Y0338610D01*
X0141208Y0341110D01*
X0141208Y0268236D02*
X0136208Y0268236D01*
X0133708Y0265736D01*
X0133708Y0260736D01*
X0136208Y0258236D01*
X0133708Y0255736D01*
X0133708Y0250736D01*
X0136208Y0248236D01*
X0133708Y0245736D01*
X0133708Y0240736D01*
X0136208Y0238236D01*
X0133708Y0235736D01*
X0133708Y0230736D01*
X0136208Y0228236D01*
X0133708Y0225736D01*
X0133708Y0220736D01*
X0136208Y0218236D01*
X0133708Y0215736D01*
X0133708Y0210736D01*
X0136208Y0208236D01*
X0141208Y0208236D01*
X0143708Y0210736D01*
X0143708Y0215736D01*
X0141208Y0218236D01*
X0143708Y0220736D01*
X0143708Y0225736D01*
X0141208Y0228236D01*
X0143708Y0230736D01*
X0143708Y0235736D01*
X0141208Y0238236D01*
X0143708Y0240736D01*
X0143708Y0245736D01*
X0141208Y0248236D01*
X0143708Y0250736D01*
X0143708Y0255736D01*
X0141208Y0258236D01*
X0143708Y0260736D01*
X0143708Y0265736D01*
X0141208Y0268236D01*
X0222960Y0206425D02*
X0222960Y0204063D01*
X0230441Y0198945D02*
X0235165Y0198945D01*
X0242645Y0204063D02*
X0242645Y0206425D01*
X0235165Y0211543D02*
X0230441Y0211543D01*
X0253905Y0222488D02*
X0253905Y0223669D01*
X0255086Y0223669D01*
X0288157Y0223669D02*
X0289338Y0223669D01*
X0289338Y0222488D01*
X0289338Y0189417D02*
X0289338Y0188236D01*
X0288157Y0188236D01*
X0255086Y0188236D02*
X0253905Y0189417D01*
X0265704Y0151752D02*
X0265704Y0132752D01*
X0268704Y0135252D02*
X0270204Y0133752D01*
X0271704Y0135252D01*
X0270204Y0133752D02*
X0270204Y0137252D01*
X0274704Y0132752D02*
X0274704Y0151752D01*
X0324634Y0358630D02*
X0322134Y0361130D01*
X0322134Y0376130D01*
X0324634Y0378630D01*
X0329634Y0378630D01*
X0332134Y0376130D01*
X0332134Y0361130D01*
X0329634Y0358630D01*
X0324634Y0358630D01*
X0332134Y0361130D02*
X0334634Y0358630D01*
X0339634Y0358630D01*
X0342134Y0361130D01*
X0342134Y0376130D01*
X0344634Y0378630D01*
X0349634Y0378630D01*
X0352134Y0376130D01*
X0352134Y0361130D01*
X0349634Y0358630D01*
X0344634Y0358630D01*
X0342134Y0361130D01*
X0342134Y0376130D02*
X0339634Y0378630D01*
X0334634Y0378630D01*
D17*
X0390975Y0350373D02*
X0390975Y0347339D01*
X0391582Y0346732D01*
X0392795Y0346732D01*
X0393402Y0347339D01*
X0393402Y0350373D01*
X0394600Y0349766D02*
X0395207Y0350373D01*
X0396420Y0350373D01*
X0397027Y0349766D01*
X0398225Y0349766D02*
X0398832Y0350373D01*
X0400045Y0350373D01*
X0400652Y0349766D01*
X0400652Y0349159D01*
X0398225Y0346732D01*
X0400652Y0346732D01*
X0397027Y0347339D02*
X0397027Y0347946D01*
X0396420Y0348552D01*
X0395207Y0348552D01*
X0394600Y0349159D01*
X0394600Y0349766D01*
X0395814Y0350979D02*
X0395814Y0346126D01*
X0396420Y0346732D02*
X0397027Y0347339D01*
X0396420Y0346732D02*
X0395207Y0346732D01*
X0394600Y0347339D01*
X0274815Y0288230D02*
X0274815Y0287624D01*
X0274208Y0287017D01*
X0272995Y0287017D01*
X0272388Y0287624D01*
X0272388Y0288230D01*
X0272995Y0288837D01*
X0274208Y0288837D01*
X0274815Y0288230D01*
X0274208Y0287017D02*
X0274815Y0286410D01*
X0274815Y0285804D01*
X0274208Y0285197D01*
X0272995Y0285197D01*
X0272388Y0285804D01*
X0272388Y0286410D01*
X0272995Y0287017D01*
X0271190Y0286410D02*
X0270583Y0287017D01*
X0269370Y0287017D01*
X0268763Y0287624D01*
X0268763Y0288230D01*
X0269370Y0288837D01*
X0270583Y0288837D01*
X0271190Y0288230D01*
X0269976Y0289444D02*
X0269976Y0284590D01*
X0269370Y0285197D02*
X0270583Y0285197D01*
X0271190Y0285804D01*
X0271190Y0286410D01*
X0269370Y0285197D02*
X0268763Y0285804D01*
X0267565Y0285804D02*
X0267565Y0288837D01*
X0265138Y0288837D02*
X0265138Y0285804D01*
X0265745Y0285197D01*
X0266958Y0285197D01*
X0267565Y0285804D01*
X0218730Y0249467D02*
X0218730Y0245827D01*
X0217517Y0245827D02*
X0219943Y0245827D01*
X0217517Y0248254D02*
X0218730Y0249467D01*
X0216318Y0248860D02*
X0215712Y0249467D01*
X0214498Y0249467D01*
X0213892Y0248860D01*
X0213892Y0248254D01*
X0214498Y0247647D01*
X0215712Y0247647D01*
X0216318Y0247040D01*
X0216318Y0246434D01*
X0215712Y0245827D01*
X0214498Y0245827D01*
X0213892Y0246434D01*
X0212693Y0246434D02*
X0212693Y0249467D01*
X0210266Y0249467D02*
X0210266Y0246434D01*
X0210873Y0245827D01*
X0212086Y0245827D01*
X0212693Y0246434D01*
X0215105Y0245220D02*
X0215105Y0250074D01*
X0188345Y0297126D02*
X0188952Y0297733D01*
X0188952Y0298946D01*
X0188345Y0299553D01*
X0185312Y0299553D01*
X0185919Y0300751D02*
X0185312Y0301358D01*
X0185312Y0302571D01*
X0185919Y0303178D01*
X0185919Y0304376D02*
X0186525Y0304376D01*
X0187132Y0304983D01*
X0187132Y0306803D01*
X0185919Y0306803D02*
X0185312Y0306196D01*
X0185312Y0304983D01*
X0185919Y0304376D01*
X0187132Y0302571D02*
X0187132Y0301358D01*
X0186525Y0300751D01*
X0185919Y0300751D01*
X0184705Y0301965D02*
X0189559Y0301965D01*
X0188952Y0302571D02*
X0188345Y0303178D01*
X0187739Y0303178D01*
X0187132Y0302571D01*
X0188952Y0302571D02*
X0188952Y0301358D01*
X0188345Y0300751D01*
X0188345Y0297126D02*
X0185312Y0297126D01*
X0188345Y0304376D02*
X0188952Y0304983D01*
X0188952Y0306196D01*
X0188345Y0306803D01*
X0185919Y0306803D01*
X0152014Y0352638D02*
X0150801Y0352638D01*
X0150194Y0353245D01*
X0148995Y0353245D02*
X0148995Y0353851D01*
X0148389Y0354458D01*
X0147175Y0354458D01*
X0146569Y0355065D01*
X0146569Y0355671D01*
X0147175Y0356278D01*
X0148389Y0356278D01*
X0148995Y0355671D01*
X0150194Y0356278D02*
X0150194Y0354458D01*
X0151407Y0355065D01*
X0152014Y0355065D01*
X0152621Y0354458D01*
X0152621Y0353245D01*
X0152014Y0352638D01*
X0148995Y0353245D02*
X0148389Y0352638D01*
X0147175Y0352638D01*
X0146569Y0353245D01*
X0145370Y0353245D02*
X0145370Y0356278D01*
X0142944Y0356278D02*
X0142944Y0353245D01*
X0143550Y0352638D01*
X0144764Y0352638D01*
X0145370Y0353245D01*
X0147782Y0352031D02*
X0147782Y0356885D01*
X0150194Y0356278D02*
X0152621Y0356278D01*
X0147634Y0196255D02*
X0147634Y0191401D01*
X0148241Y0192008D02*
X0148847Y0192615D01*
X0148847Y0193221D01*
X0148241Y0193828D01*
X0147027Y0193828D01*
X0146421Y0194435D01*
X0146421Y0195041D01*
X0147027Y0195648D01*
X0148241Y0195648D01*
X0148847Y0195041D01*
X0150046Y0193828D02*
X0151866Y0193828D01*
X0152472Y0193221D01*
X0152472Y0192615D01*
X0151866Y0192008D01*
X0150652Y0192008D01*
X0150046Y0192615D01*
X0150046Y0193828D01*
X0151259Y0195041D01*
X0152472Y0195648D01*
X0148241Y0192008D02*
X0147027Y0192008D01*
X0146421Y0192615D01*
X0145222Y0192615D02*
X0145222Y0195648D01*
X0142795Y0195648D02*
X0142795Y0192615D01*
X0143402Y0192008D01*
X0144615Y0192008D01*
X0145222Y0192615D01*
X0392795Y0192615D02*
X0393402Y0192008D01*
X0394615Y0192008D01*
X0395222Y0192615D01*
X0395222Y0195648D01*
X0396421Y0195041D02*
X0397027Y0195648D01*
X0398241Y0195648D01*
X0398847Y0195041D01*
X0400046Y0195648D02*
X0402472Y0195648D01*
X0402472Y0195041D01*
X0400046Y0192615D01*
X0400046Y0192008D01*
X0398847Y0192615D02*
X0398847Y0193221D01*
X0398241Y0193828D01*
X0397027Y0193828D01*
X0396421Y0194435D01*
X0396421Y0195041D01*
X0397634Y0196255D02*
X0397634Y0191401D01*
X0398241Y0192008D02*
X0398847Y0192615D01*
X0398241Y0192008D02*
X0397027Y0192008D01*
X0396421Y0192615D01*
X0392795Y0192615D02*
X0392795Y0195648D01*
D18*
X0252986Y0182944D02*
X0252986Y0180008D01*
X0252986Y0181476D02*
X0248583Y0181476D01*
X0250050Y0180008D01*
X0248583Y0178340D02*
X0252252Y0178340D01*
X0252986Y0177606D01*
X0252986Y0176138D01*
X0252252Y0175404D01*
X0248583Y0175404D01*
X0202252Y0266220D02*
X0195874Y0266220D01*
X0195874Y0266590D01*
X0195874Y0269763D02*
X0195874Y0273874D01*
X0195874Y0277047D02*
X0195874Y0277417D01*
X0202252Y0277417D01*
X0202252Y0277047D01*
X0202252Y0273874D02*
X0202252Y0273504D01*
X0202252Y0270134D02*
X0202252Y0269763D01*
X0202252Y0266590D02*
X0202252Y0266220D01*
M02*
