G75*
%MOIN*%
%OFA0B0*%
%FSLAX25Y25*%
%IPPOS*%
%LPD*%
%AMOC8*
5,1,8,0,0,1.08239X$1,22.5*
%
%ADD10C,0.05937*%
%ADD11R,0.07400X0.07400*%
%ADD12OC8,0.07400*%
%ADD13R,0.06496X0.06496*%
%ADD14C,0.06496*%
%ADD15C,0.07400*%
%ADD16C,0.04500*%
%ADD17C,0.00600*%
%ADD18C,0.01800*%
D10*
X0211704Y0272173D02*
X0217641Y0272173D01*
X0217641Y0282173D02*
X0211704Y0282173D01*
D11*
X0327134Y0363630D03*
D12*
X0337134Y0363630D03*
X0347134Y0363630D03*
X0347134Y0373630D03*
X0337134Y0373630D03*
X0327134Y0373630D03*
D13*
X0209063Y0293551D03*
X0411937Y0226897D03*
D14*
X0411937Y0236897D03*
X0411937Y0246897D03*
X0411937Y0256897D03*
X0411937Y0266897D03*
X0411937Y0276897D03*
X0411937Y0286897D03*
X0411937Y0296897D03*
X0411937Y0306897D03*
X0411937Y0316897D03*
X0199063Y0293551D03*
D15*
X0138708Y0296110D03*
X0138708Y0306110D03*
X0138708Y0316110D03*
X0138708Y0326110D03*
X0138708Y0336110D03*
X0138708Y0286110D03*
X0138708Y0263236D03*
X0138708Y0253236D03*
X0138708Y0243236D03*
X0138708Y0233236D03*
X0138708Y0223236D03*
X0138708Y0213236D03*
D16*
X0154063Y0150126D03*
X0154063Y0158000D03*
X0159476Y0182606D03*
X0157015Y0195401D03*
X0148157Y0203275D03*
X0169811Y0213118D03*
X0213118Y0205244D03*
X0247075Y0230834D03*
X0251504Y0234279D03*
X0251504Y0243630D03*
X0258393Y0241661D03*
X0258393Y0250519D03*
X0266267Y0254456D03*
X0276110Y0254456D03*
X0267252Y0235756D03*
X0258393Y0218531D03*
X0251504Y0224437D03*
X0259378Y0210165D03*
X0266267Y0210165D03*
X0273157Y0208197D03*
X0276602Y0202783D03*
X0272173Y0197370D03*
X0284476Y0206720D03*
X0296779Y0217055D03*
X0304161Y0217547D03*
X0290382Y0228374D03*
X0287921Y0235263D03*
X0307606Y0247567D03*
X0329260Y0238216D03*
X0347960Y0219515D03*
X0337134Y0213610D03*
X0374535Y0224929D03*
X0389791Y0230342D03*
X0398157Y0236740D03*
X0398157Y0248551D03*
X0374535Y0260362D03*
X0346976Y0272173D03*
X0318433Y0294319D03*
X0308098Y0274634D03*
X0283984Y0280047D03*
X0262823Y0278078D03*
X0262330Y0283984D03*
X0258393Y0271189D03*
X0242645Y0276110D03*
X0232803Y0245598D03*
X0232311Y0240185D03*
X0213118Y0240677D03*
X0205244Y0256425D03*
X0189496Y0256425D03*
X0189496Y0287921D03*
X0205244Y0283984D03*
X0171779Y0285952D03*
X0150126Y0341071D03*
X0154063Y0386346D03*
X0154063Y0394220D03*
X0272173Y0303669D03*
X0275618Y0307606D03*
X0390283Y0382409D03*
X0390283Y0390283D03*
X0396189Y0339102D03*
X0398157Y0205244D03*
X0390283Y0158000D03*
X0390283Y0150126D03*
X0295795Y0159968D03*
X0291858Y0156031D03*
X0283984Y0156031D03*
X0295795Y0167842D03*
X0295795Y0175716D03*
X0260362Y0173748D03*
X0260362Y0167842D03*
X0260362Y0161937D03*
X0260362Y0156031D03*
X0254456Y0159968D03*
X0254456Y0165874D03*
X0254456Y0171779D03*
D17*
X0282015Y0200323D02*
X0359771Y0200323D01*
X0389791Y0230342D01*
X0407015Y0252488D02*
X0413413Y0252488D01*
X0417842Y0256917D01*
X0417842Y0322370D01*
X0381425Y0358787D01*
X0331720Y0358787D01*
X0327291Y0363216D01*
X0327134Y0363630D01*
X0284476Y0321386D02*
X0246090Y0283000D01*
X0246090Y0253964D01*
X0232311Y0240185D01*
X0232803Y0245598D02*
X0228866Y0245598D01*
X0221484Y0252980D01*
X0192941Y0252980D01*
X0189496Y0256425D01*
X0160952Y0230834D02*
X0138807Y0252980D01*
X0138708Y0253236D01*
X0138708Y0263236D02*
X0138807Y0263315D01*
X0151602Y0276110D01*
X0242645Y0276110D01*
X0251504Y0278078D02*
X0251504Y0243630D01*
X0258393Y0241661D02*
X0258393Y0239693D01*
X0272665Y0225421D01*
X0285460Y0225421D01*
X0293826Y0217055D01*
X0296779Y0217055D01*
X0300224Y0216563D02*
X0300224Y0218531D01*
X0293826Y0224929D01*
X0287921Y0224929D01*
X0285952Y0226897D01*
X0276110Y0226897D01*
X0267252Y0235756D01*
X0280539Y0228374D02*
X0258393Y0250519D01*
X0265775Y0265775D02*
X0299240Y0265775D01*
X0304161Y0270697D01*
X0304161Y0217547D01*
X0300224Y0216563D02*
X0303177Y0213610D01*
X0337134Y0213610D01*
X0345500Y0210165D02*
X0411937Y0276602D01*
X0411937Y0276897D01*
X0411937Y0267252D02*
X0411937Y0266897D01*
X0411937Y0267252D02*
X0347960Y0203275D01*
X0283000Y0203275D01*
X0270697Y0215578D01*
X0264791Y0215578D01*
X0262823Y0213610D01*
X0256425Y0213610D01*
X0251504Y0218531D01*
X0251504Y0224437D01*
X0248551Y0227389D02*
X0251504Y0230342D01*
X0251504Y0234279D01*
X0247075Y0230834D02*
X0160952Y0230834D01*
X0154555Y0227389D02*
X0138708Y0243236D01*
X0154555Y0227389D02*
X0248551Y0227389D01*
X0254949Y0217055D02*
X0254949Y0272665D01*
X0260362Y0278078D01*
X0262823Y0278078D01*
X0265283Y0278078D01*
X0281523Y0294319D01*
X0318433Y0294319D01*
X0362232Y0294319D01*
X0384378Y0316464D01*
X0411937Y0316464D01*
X0411937Y0316897D01*
X0416366Y0318433D02*
X0413413Y0321386D01*
X0284476Y0321386D01*
X0275618Y0307606D02*
X0275618Y0302193D01*
X0251504Y0278078D01*
X0258393Y0271189D02*
X0260362Y0271189D01*
X0265775Y0265775D01*
X0276110Y0254456D02*
X0287921Y0242645D01*
X0287921Y0235263D01*
X0290382Y0228374D02*
X0280539Y0228374D01*
X0290382Y0218531D02*
X0298748Y0210165D01*
X0345500Y0210165D01*
X0347960Y0219515D02*
X0329260Y0238216D01*
X0327783Y0248059D02*
X0308098Y0248059D01*
X0307606Y0247567D01*
X0327783Y0248059D02*
X0376504Y0296779D01*
X0411937Y0296779D01*
X0411937Y0296897D01*
X0416366Y0295303D02*
X0411937Y0290874D01*
X0411937Y0286897D01*
X0416366Y0295303D02*
X0416366Y0318433D01*
X0411937Y0306897D02*
X0411937Y0306622D01*
X0376504Y0306622D01*
X0344515Y0274634D01*
X0308098Y0274634D01*
X0304161Y0270697D01*
X0290382Y0218531D02*
X0258393Y0218531D01*
X0254949Y0217055D02*
X0256917Y0215086D01*
X0259870Y0215086D01*
X0261838Y0217055D01*
X0271189Y0217055D01*
X0281523Y0206720D01*
X0284476Y0206720D01*
X0282508Y0201799D02*
X0356326Y0201799D01*
X0407015Y0252488D01*
X0282508Y0201799D02*
X0276110Y0208197D01*
X0273157Y0208197D01*
X0276602Y0202783D02*
X0279555Y0202783D01*
X0282015Y0200323D01*
X0266267Y0210165D02*
X0259378Y0210165D01*
D18*
X0159476Y0192941D02*
X0159476Y0182606D01*
X0159476Y0192941D02*
X0157015Y0195401D01*
M02*
