%
M48
M72
T01C0.01500
T02C0.03937
T03C0.04000
T04C0.04331
T05C0.05512
%
T01
X154063Y150126
X154063Y158000
X149634Y162429
X140283Y171779
X140283Y190972
X162921Y176701
X207704Y220008
X199338Y227882
X177685Y252488
X189496Y258393
X224929Y256425
X236248Y252980
X259378Y267252
X266267Y259378
X268236Y247567
X273649Y248551
X269712Y242153
X276110Y234771
X272173Y231326
X270697Y215578
X276602Y214594
X283984Y216071
X284476Y210657
X296779Y212134
X296779Y219023
X303669Y219023
X314988Y212626
X304161Y192449
X295795Y185559
X287921Y179653
X280047Y179653
X275618Y192941
X260362Y178669
X260362Y172763
X260362Y166858
X260362Y160952
X260362Y155047
X254456Y160952
X254456Y166858
X254456Y172763
X248551Y185559
X241169Y195401
X258393Y211641
X265283Y211641
X252980Y224437
X246582Y223945
X246090Y218531
X280047Y259378
X262823Y278078
X273157Y284968
X281523Y284968
X298256Y278571
X305145Y274141
X307114Y255441
X329752Y256425
X336641Y270204
X374535Y256425
X398157Y248551
X398157Y236740
X374535Y224929
X376012Y203767
X346484Y220500
X295795Y175716
X295795Y167842
X295795Y159968
X287921Y156031
X280047Y156031
X382409Y156523
X390283Y158000
X390283Y150126
X271189Y302193
X278078Y309575
X387823Y377488
X390283Y386346
X390283Y394220
X400126Y389791
X154063Y390283
X154063Y398157
X144220Y382409
T02
X214673Y282173
X214673Y272173
T03
X138708Y263236
X138708Y253236
X138708Y243236
X138708Y233236
X138708Y223236
X138708Y213236
X138708Y286110
X138708Y296110
X138708Y306110
X138708Y316110
X138708Y326110
X138708Y336110
X327134Y363630
X337134Y363630
X347134Y363630
X347134Y373630
X337134Y373630
X327134Y373630
T04
X411937Y316897
X411937Y306897
X411937Y296897
X411937Y286897
X411937Y276897
X411937Y266897
X411937Y256897
X411937Y246897
X411937Y236897
X411937Y226897
X238433Y301661
X238433Y311661
T05
X224732Y301110
X224732Y243236
X319614Y243236
X319614Y301110
M30
