%
M48
M72
T01C0.01500
T02C0.03937
T03C0.04000
T04C0.04331
T05C0.05512
%
T01
X154063Y150126
X154063Y158000
X159476Y182606
X157015Y195401
X148157Y203275
X169811Y213118
X213118Y205244
X247075Y230834
X251504Y234279
X251504Y243630
X258393Y241661
X258393Y250519
X266267Y254456
X276110Y254456
X267252Y235756
X258393Y218531
X251504Y224437
X259378Y210165
X266267Y210165
X273157Y208197
X276602Y202783
X272173Y197370
X284476Y206720
X296779Y217055
X304161Y217547
X290382Y228374
X287921Y235263
X307606Y247567
X329260Y238216
X347960Y219515
X337134Y213610
X374535Y224929
X389791Y230342
X398157Y236740
X398157Y248551
X374535Y260362
X346976Y272173
X318433Y294319
X308098Y274634
X283984Y280047
X262823Y278078
X262330Y283984
X258393Y271189
X242645Y276110
X232803Y245598
X232311Y240185
X213118Y240677
X205244Y256425
X189496Y256425
X189496Y287921
X205244Y283984
X171779Y285952
X150126Y341071
X154063Y386346
X154063Y394220
X272173Y303669
X275618Y307606
X390283Y382409
X390283Y390283
X396189Y339102
X398157Y205244
X390283Y158000
X390283Y150126
X295795Y159968
X291858Y156031
X283984Y156031
X295795Y167842
X295795Y175716
X260362Y173748
X260362Y167842
X260362Y161937
X260362Y156031
X254456Y159968
X254456Y165874
X254456Y171779
T02
X214673Y272173
X214673Y282173
T03
X138708Y286110
X138708Y296110
X138708Y306110
X138708Y316110
X138708Y326110
X138708Y336110
X138708Y263236
X138708Y253236
X138708Y243236
X138708Y233236
X138708Y223236
X138708Y213236
X327134Y363630
X337134Y363630
X347134Y363630
X347134Y373630
X337134Y373630
X327134Y373630
T04
X411937Y316897
X411937Y306897
X411937Y296897
X411937Y286897
X411937Y276897
X411937Y266897
X411937Y256897
X411937Y246897
X411937Y236897
X411937Y226897
X209063Y293551
X199063Y293551
T05
X224732Y301110
X224732Y243236
X319614Y243236
X319614Y301110
M30
