G75*
%MOIN*%
%OFA0B0*%
%FSLAX25Y25*%
%IPPOS*%
%LPD*%
%AMOC8*
5,1,8,0,0,1.08239X$1,22.5*
%
%ADD10C,0.06312*%
%ADD11C,0.06737*%
%ADD12R,0.08200X0.08200*%
%ADD13OC8,0.08200*%
%ADD14C,0.00039*%
%ADD15C,0.08200*%
%ADD16C,0.05300*%
D10*
X0224732Y0243236D03*
X0224732Y0301110D03*
X0319614Y0301110D03*
X0319614Y0243236D03*
D11*
X0217641Y0272173D02*
X0211704Y0272173D01*
X0211704Y0282173D02*
X0217641Y0282173D01*
D12*
X0327134Y0363630D03*
D13*
X0337134Y0363630D03*
X0347134Y0363630D03*
X0347134Y0373630D03*
X0337134Y0373630D03*
X0327134Y0373630D03*
D14*
X0409141Y0318512D02*
X0408903Y0318002D01*
X0408758Y0317458D01*
X0408708Y0316897D01*
X0408758Y0316337D01*
X0408903Y0315793D01*
X0409141Y0315283D01*
X0409463Y0314822D01*
X0409862Y0314424D01*
X0410323Y0314102D01*
X0410832Y0313864D01*
X0411376Y0313718D01*
X0411937Y0313669D01*
X0412497Y0313718D01*
X0413041Y0313864D01*
X0413551Y0314102D01*
X0414012Y0314424D01*
X0414410Y0314822D01*
X0414732Y0315283D01*
X0414970Y0315793D01*
X0415116Y0316337D01*
X0415165Y0316897D01*
X0415116Y0317458D01*
X0414970Y0318002D01*
X0414732Y0318512D01*
X0414410Y0318973D01*
X0414012Y0319371D01*
X0413551Y0319693D01*
X0413041Y0319931D01*
X0412497Y0320076D01*
X0411937Y0320126D01*
X0411376Y0320076D01*
X0410832Y0319931D01*
X0410323Y0319693D01*
X0409862Y0319371D01*
X0409463Y0318973D01*
X0409141Y0318512D01*
X0409152Y0318527D02*
X0414721Y0318527D01*
X0414743Y0318489D02*
X0409131Y0318489D01*
X0409113Y0318451D02*
X0414760Y0318451D01*
X0414778Y0318413D02*
X0409095Y0318413D01*
X0409078Y0318376D02*
X0414796Y0318376D01*
X0414813Y0318338D02*
X0409060Y0318338D01*
X0409042Y0318300D02*
X0414831Y0318300D01*
X0414849Y0318262D02*
X0409025Y0318262D01*
X0409007Y0318224D02*
X0414866Y0318224D01*
X0414884Y0318186D02*
X0408989Y0318186D01*
X0408972Y0318148D02*
X0414902Y0318148D01*
X0414919Y0318110D02*
X0408954Y0318110D01*
X0408936Y0318073D02*
X0414937Y0318073D01*
X0414955Y0318035D02*
X0408919Y0318035D01*
X0408902Y0317997D02*
X0414972Y0317997D01*
X0414982Y0317959D02*
X0408892Y0317959D01*
X0408882Y0317921D02*
X0414992Y0317921D01*
X0415002Y0317883D02*
X0408872Y0317883D01*
X0408861Y0317845D02*
X0415012Y0317845D01*
X0415022Y0317807D02*
X0408851Y0317807D01*
X0408841Y0317769D02*
X0415032Y0317769D01*
X0415043Y0317732D02*
X0408831Y0317732D01*
X0408821Y0317694D02*
X0415053Y0317694D01*
X0415063Y0317656D02*
X0408811Y0317656D01*
X0408800Y0317618D02*
X0415073Y0317618D01*
X0415083Y0317580D02*
X0408790Y0317580D01*
X0408780Y0317542D02*
X0415093Y0317542D01*
X0415103Y0317504D02*
X0408770Y0317504D01*
X0408760Y0317466D02*
X0415114Y0317466D01*
X0415118Y0317429D02*
X0408755Y0317429D01*
X0408752Y0317391D02*
X0415122Y0317391D01*
X0415125Y0317353D02*
X0408748Y0317353D01*
X0408745Y0317315D02*
X0415128Y0317315D01*
X0415132Y0317277D02*
X0408742Y0317277D01*
X0408738Y0317239D02*
X0415135Y0317239D01*
X0415138Y0317201D02*
X0408735Y0317201D01*
X0408732Y0317163D02*
X0415142Y0317163D01*
X0415145Y0317126D02*
X0408728Y0317126D01*
X0408725Y0317088D02*
X0415148Y0317088D01*
X0415152Y0317050D02*
X0408722Y0317050D01*
X0408718Y0317012D02*
X0415155Y0317012D01*
X0415158Y0316974D02*
X0408715Y0316974D01*
X0408712Y0316936D02*
X0415162Y0316936D01*
X0415165Y0316898D02*
X0408708Y0316898D01*
X0408712Y0316860D02*
X0415162Y0316860D01*
X0415158Y0316822D02*
X0408715Y0316822D01*
X0408718Y0316785D02*
X0415155Y0316785D01*
X0415152Y0316747D02*
X0408722Y0316747D01*
X0408725Y0316709D02*
X0415149Y0316709D01*
X0415145Y0316671D02*
X0408728Y0316671D01*
X0408732Y0316633D02*
X0415142Y0316633D01*
X0415139Y0316595D02*
X0408735Y0316595D01*
X0408738Y0316557D02*
X0415135Y0316557D01*
X0415132Y0316519D02*
X0408742Y0316519D01*
X0408745Y0316482D02*
X0415129Y0316482D01*
X0415125Y0316444D02*
X0408748Y0316444D01*
X0408752Y0316406D02*
X0415122Y0316406D01*
X0415119Y0316368D02*
X0408755Y0316368D01*
X0408759Y0316330D02*
X0415114Y0316330D01*
X0415104Y0316292D02*
X0408770Y0316292D01*
X0408780Y0316254D02*
X0415094Y0316254D01*
X0415084Y0316216D02*
X0408790Y0316216D01*
X0408800Y0316178D02*
X0415073Y0316178D01*
X0415063Y0316141D02*
X0408810Y0316141D01*
X0408820Y0316103D02*
X0415053Y0316103D01*
X0415043Y0316065D02*
X0408830Y0316065D01*
X0408841Y0316027D02*
X0415033Y0316027D01*
X0415023Y0315989D02*
X0408851Y0315989D01*
X0408861Y0315951D02*
X0415013Y0315951D01*
X0415002Y0315913D02*
X0408871Y0315913D01*
X0408881Y0315875D02*
X0414992Y0315875D01*
X0414982Y0315838D02*
X0408891Y0315838D01*
X0408901Y0315800D02*
X0414972Y0315800D01*
X0414956Y0315762D02*
X0408918Y0315762D01*
X0408935Y0315724D02*
X0414938Y0315724D01*
X0414920Y0315686D02*
X0408953Y0315686D01*
X0408971Y0315648D02*
X0414903Y0315648D01*
X0414885Y0315610D02*
X0408988Y0315610D01*
X0409006Y0315572D02*
X0414867Y0315572D01*
X0414850Y0315534D02*
X0409024Y0315534D01*
X0409042Y0315497D02*
X0414832Y0315497D01*
X0414814Y0315459D02*
X0409059Y0315459D01*
X0409077Y0315421D02*
X0414797Y0315421D01*
X0414779Y0315383D02*
X0409095Y0315383D01*
X0409112Y0315345D02*
X0414761Y0315345D01*
X0414744Y0315307D02*
X0409130Y0315307D01*
X0409151Y0315269D02*
X0414723Y0315269D01*
X0414696Y0315231D02*
X0409177Y0315231D01*
X0409204Y0315194D02*
X0414670Y0315194D01*
X0414643Y0315156D02*
X0409230Y0315156D01*
X0409257Y0315118D02*
X0414617Y0315118D01*
X0414590Y0315080D02*
X0409283Y0315080D01*
X0409310Y0315042D02*
X0414564Y0315042D01*
X0414537Y0315004D02*
X0409336Y0315004D01*
X0409363Y0314966D02*
X0414511Y0314966D01*
X0414484Y0314928D02*
X0409389Y0314928D01*
X0409416Y0314891D02*
X0414458Y0314891D01*
X0414431Y0314853D02*
X0409442Y0314853D01*
X0409471Y0314815D02*
X0414403Y0314815D01*
X0414365Y0314777D02*
X0409509Y0314777D01*
X0409547Y0314739D02*
X0414327Y0314739D01*
X0414289Y0314701D02*
X0409585Y0314701D01*
X0409622Y0314663D02*
X0414251Y0314663D01*
X0414213Y0314625D02*
X0409660Y0314625D01*
X0409698Y0314587D02*
X0414175Y0314587D01*
X0414137Y0314550D02*
X0409736Y0314550D01*
X0409774Y0314512D02*
X0414099Y0314512D01*
X0414062Y0314474D02*
X0409812Y0314474D01*
X0409850Y0314436D02*
X0414024Y0314436D01*
X0413975Y0314398D02*
X0409899Y0314398D01*
X0409953Y0314360D02*
X0413920Y0314360D01*
X0413866Y0314322D02*
X0410007Y0314322D01*
X0410061Y0314284D02*
X0413812Y0314284D01*
X0413758Y0314247D02*
X0410115Y0314247D01*
X0410170Y0314209D02*
X0413704Y0314209D01*
X0413650Y0314171D02*
X0410224Y0314171D01*
X0410278Y0314133D02*
X0413595Y0314133D01*
X0413537Y0314095D02*
X0410337Y0314095D01*
X0410418Y0314057D02*
X0413455Y0314057D01*
X0413374Y0314019D02*
X0410499Y0314019D01*
X0410581Y0313981D02*
X0413293Y0313981D01*
X0413212Y0313943D02*
X0410662Y0313943D01*
X0410743Y0313906D02*
X0413130Y0313906D01*
X0413049Y0313868D02*
X0410824Y0313868D01*
X0410960Y0313830D02*
X0412914Y0313830D01*
X0412773Y0313792D02*
X0411101Y0313792D01*
X0411242Y0313754D02*
X0412631Y0313754D01*
X0412474Y0313716D02*
X0411399Y0313716D01*
X0411831Y0313678D02*
X0412043Y0313678D01*
X0411937Y0310126D02*
X0412497Y0310076D01*
X0413041Y0309931D01*
X0413551Y0309693D01*
X0414012Y0309371D01*
X0414410Y0308973D01*
X0414732Y0308512D01*
X0414970Y0308002D01*
X0415116Y0307458D01*
X0415165Y0306897D01*
X0415116Y0306337D01*
X0414970Y0305793D01*
X0414732Y0305283D01*
X0414410Y0304822D01*
X0414012Y0304424D01*
X0413551Y0304102D01*
X0413041Y0303864D01*
X0412497Y0303718D01*
X0411937Y0303669D01*
X0411376Y0303718D01*
X0410832Y0303864D01*
X0410323Y0304102D01*
X0409862Y0304424D01*
X0409463Y0304822D01*
X0409141Y0305283D01*
X0408903Y0305793D01*
X0408758Y0306337D01*
X0408708Y0306897D01*
X0408758Y0307458D01*
X0408903Y0308002D01*
X0409141Y0308512D01*
X0409463Y0308973D01*
X0409862Y0309371D01*
X0410323Y0309693D01*
X0410832Y0309931D01*
X0411376Y0310076D01*
X0411937Y0310126D01*
X0411843Y0310117D02*
X0412031Y0310117D01*
X0412462Y0310080D02*
X0411411Y0310080D01*
X0411246Y0310042D02*
X0412627Y0310042D01*
X0412769Y0310004D02*
X0411105Y0310004D01*
X0410963Y0309966D02*
X0412910Y0309966D01*
X0413047Y0309928D02*
X0410826Y0309928D01*
X0410745Y0309890D02*
X0413128Y0309890D01*
X0413209Y0309852D02*
X0410664Y0309852D01*
X0410583Y0309814D02*
X0413291Y0309814D01*
X0413372Y0309777D02*
X0410502Y0309777D01*
X0410420Y0309739D02*
X0413453Y0309739D01*
X0413534Y0309701D02*
X0410339Y0309701D01*
X0410279Y0309663D02*
X0413594Y0309663D01*
X0413648Y0309625D02*
X0410225Y0309625D01*
X0410171Y0309587D02*
X0413702Y0309587D01*
X0413757Y0309549D02*
X0410117Y0309549D01*
X0410063Y0309511D02*
X0413811Y0309511D01*
X0413865Y0309473D02*
X0410009Y0309473D01*
X0409954Y0309436D02*
X0413919Y0309436D01*
X0413973Y0309398D02*
X0409900Y0309398D01*
X0409851Y0309360D02*
X0414023Y0309360D01*
X0414061Y0309322D02*
X0409813Y0309322D01*
X0409775Y0309284D02*
X0414098Y0309284D01*
X0414136Y0309246D02*
X0409737Y0309246D01*
X0409699Y0309208D02*
X0414174Y0309208D01*
X0414212Y0309170D02*
X0409661Y0309170D01*
X0409623Y0309133D02*
X0414250Y0309133D01*
X0414288Y0309095D02*
X0409586Y0309095D01*
X0409548Y0309057D02*
X0414326Y0309057D01*
X0414364Y0309019D02*
X0409510Y0309019D01*
X0409472Y0308981D02*
X0414402Y0308981D01*
X0414431Y0308943D02*
X0409443Y0308943D01*
X0409416Y0308905D02*
X0414457Y0308905D01*
X0414484Y0308867D02*
X0409390Y0308867D01*
X0409363Y0308829D02*
X0414510Y0308829D01*
X0414537Y0308792D02*
X0409337Y0308792D01*
X0409310Y0308754D02*
X0414563Y0308754D01*
X0414590Y0308716D02*
X0409284Y0308716D01*
X0409257Y0308678D02*
X0414616Y0308678D01*
X0414642Y0308640D02*
X0409231Y0308640D01*
X0409204Y0308602D02*
X0414669Y0308602D01*
X0414695Y0308564D02*
X0409178Y0308564D01*
X0409151Y0308526D02*
X0414722Y0308526D01*
X0414743Y0308489D02*
X0409130Y0308489D01*
X0409113Y0308451D02*
X0414761Y0308451D01*
X0414778Y0308413D02*
X0409095Y0308413D01*
X0409077Y0308375D02*
X0414796Y0308375D01*
X0414814Y0308337D02*
X0409060Y0308337D01*
X0409042Y0308299D02*
X0414831Y0308299D01*
X0414849Y0308261D02*
X0409024Y0308261D01*
X0409007Y0308223D02*
X0414867Y0308223D01*
X0414884Y0308185D02*
X0408989Y0308185D01*
X0408971Y0308148D02*
X0414902Y0308148D01*
X0414920Y0308110D02*
X0408954Y0308110D01*
X0408936Y0308072D02*
X0414937Y0308072D01*
X0414955Y0308034D02*
X0408918Y0308034D01*
X0408902Y0307996D02*
X0414972Y0307996D01*
X0414982Y0307958D02*
X0408892Y0307958D01*
X0408881Y0307920D02*
X0414992Y0307920D01*
X0415002Y0307882D02*
X0408871Y0307882D01*
X0408861Y0307845D02*
X0415012Y0307845D01*
X0415022Y0307807D02*
X0408851Y0307807D01*
X0408841Y0307769D02*
X0415033Y0307769D01*
X0415043Y0307731D02*
X0408831Y0307731D01*
X0408821Y0307693D02*
X0415053Y0307693D01*
X0415063Y0307655D02*
X0408810Y0307655D01*
X0408800Y0307617D02*
X0415073Y0307617D01*
X0415083Y0307579D02*
X0408790Y0307579D01*
X0408780Y0307542D02*
X0415093Y0307542D01*
X0415104Y0307504D02*
X0408770Y0307504D01*
X0408760Y0307466D02*
X0415114Y0307466D01*
X0415119Y0307428D02*
X0408755Y0307428D01*
X0408752Y0307390D02*
X0415122Y0307390D01*
X0415125Y0307352D02*
X0408748Y0307352D01*
X0408745Y0307314D02*
X0415128Y0307314D01*
X0415132Y0307276D02*
X0408742Y0307276D01*
X0408738Y0307238D02*
X0415135Y0307238D01*
X0415138Y0307201D02*
X0408735Y0307201D01*
X0408732Y0307163D02*
X0415142Y0307163D01*
X0415145Y0307125D02*
X0408728Y0307125D01*
X0408725Y0307087D02*
X0415148Y0307087D01*
X0415152Y0307049D02*
X0408722Y0307049D01*
X0408718Y0307011D02*
X0415155Y0307011D01*
X0415158Y0306973D02*
X0408715Y0306973D01*
X0408712Y0306935D02*
X0415162Y0306935D01*
X0415165Y0306898D02*
X0408708Y0306898D01*
X0408712Y0306860D02*
X0415162Y0306860D01*
X0415158Y0306822D02*
X0408715Y0306822D01*
X0408718Y0306784D02*
X0415155Y0306784D01*
X0415152Y0306746D02*
X0408722Y0306746D01*
X0408725Y0306708D02*
X0415148Y0306708D01*
X0415145Y0306670D02*
X0408728Y0306670D01*
X0408732Y0306632D02*
X0415142Y0306632D01*
X0415138Y0306594D02*
X0408735Y0306594D01*
X0408738Y0306557D02*
X0415135Y0306557D01*
X0415132Y0306519D02*
X0408742Y0306519D01*
X0408745Y0306481D02*
X0415129Y0306481D01*
X0415125Y0306443D02*
X0408748Y0306443D01*
X0408752Y0306405D02*
X0415122Y0306405D01*
X0415119Y0306367D02*
X0408755Y0306367D01*
X0408760Y0306329D02*
X0415114Y0306329D01*
X0415104Y0306291D02*
X0408770Y0306291D01*
X0408780Y0306254D02*
X0415094Y0306254D01*
X0415083Y0306216D02*
X0408790Y0306216D01*
X0408800Y0306178D02*
X0415073Y0306178D01*
X0415063Y0306140D02*
X0408810Y0306140D01*
X0408820Y0306102D02*
X0415053Y0306102D01*
X0415043Y0306064D02*
X0408831Y0306064D01*
X0408841Y0306026D02*
X0415033Y0306026D01*
X0415023Y0305988D02*
X0408851Y0305988D01*
X0408861Y0305950D02*
X0415012Y0305950D01*
X0415002Y0305913D02*
X0408871Y0305913D01*
X0408881Y0305875D02*
X0414992Y0305875D01*
X0414982Y0305837D02*
X0408892Y0305837D01*
X0408902Y0305799D02*
X0414972Y0305799D01*
X0414955Y0305761D02*
X0408918Y0305761D01*
X0408936Y0305723D02*
X0414938Y0305723D01*
X0414920Y0305685D02*
X0408953Y0305685D01*
X0408971Y0305647D02*
X0414902Y0305647D01*
X0414885Y0305610D02*
X0408989Y0305610D01*
X0409006Y0305572D02*
X0414867Y0305572D01*
X0414849Y0305534D02*
X0409024Y0305534D01*
X0409042Y0305496D02*
X0414832Y0305496D01*
X0414814Y0305458D02*
X0409059Y0305458D01*
X0409077Y0305420D02*
X0414796Y0305420D01*
X0414779Y0305382D02*
X0409095Y0305382D01*
X0409112Y0305344D02*
X0414761Y0305344D01*
X0414743Y0305307D02*
X0409130Y0305307D01*
X0409151Y0305269D02*
X0414722Y0305269D01*
X0414696Y0305231D02*
X0409178Y0305231D01*
X0409204Y0305193D02*
X0414669Y0305193D01*
X0414643Y0305155D02*
X0409231Y0305155D01*
X0409257Y0305117D02*
X0414616Y0305117D01*
X0414590Y0305079D02*
X0409284Y0305079D01*
X0409310Y0305041D02*
X0414563Y0305041D01*
X0414537Y0305003D02*
X0409337Y0305003D01*
X0409363Y0304966D02*
X0414510Y0304966D01*
X0414484Y0304928D02*
X0409390Y0304928D01*
X0409416Y0304890D02*
X0414457Y0304890D01*
X0414431Y0304852D02*
X0409443Y0304852D01*
X0409472Y0304814D02*
X0414402Y0304814D01*
X0414364Y0304776D02*
X0409509Y0304776D01*
X0409547Y0304738D02*
X0414326Y0304738D01*
X0414288Y0304700D02*
X0409585Y0304700D01*
X0409623Y0304663D02*
X0414250Y0304663D01*
X0414212Y0304625D02*
X0409661Y0304625D01*
X0409699Y0304587D02*
X0414175Y0304587D01*
X0414137Y0304549D02*
X0409737Y0304549D01*
X0409775Y0304511D02*
X0414099Y0304511D01*
X0414061Y0304473D02*
X0409813Y0304473D01*
X0409850Y0304435D02*
X0414023Y0304435D01*
X0413974Y0304397D02*
X0409900Y0304397D01*
X0409954Y0304359D02*
X0413919Y0304359D01*
X0413865Y0304322D02*
X0410008Y0304322D01*
X0410062Y0304284D02*
X0413811Y0304284D01*
X0413757Y0304246D02*
X0410116Y0304246D01*
X0410171Y0304208D02*
X0413703Y0304208D01*
X0413649Y0304170D02*
X0410225Y0304170D01*
X0410279Y0304132D02*
X0413595Y0304132D01*
X0413535Y0304094D02*
X0410338Y0304094D01*
X0410420Y0304056D02*
X0413454Y0304056D01*
X0413373Y0304019D02*
X0410501Y0304019D01*
X0410582Y0303981D02*
X0413291Y0303981D01*
X0413210Y0303943D02*
X0410663Y0303943D01*
X0410744Y0303905D02*
X0413129Y0303905D01*
X0413048Y0303867D02*
X0410826Y0303867D01*
X0410962Y0303829D02*
X0412911Y0303829D01*
X0412770Y0303791D02*
X0411104Y0303791D01*
X0411245Y0303753D02*
X0412629Y0303753D01*
X0412466Y0303715D02*
X0411407Y0303715D01*
X0411839Y0303678D02*
X0412035Y0303678D01*
X0411937Y0300126D02*
X0412497Y0300076D01*
X0413041Y0299931D01*
X0413551Y0299693D01*
X0414012Y0299371D01*
X0414410Y0298973D01*
X0414732Y0298512D01*
X0414970Y0298002D01*
X0415116Y0297458D01*
X0415165Y0296897D01*
X0408708Y0296897D01*
X0408758Y0296337D01*
X0408903Y0295793D01*
X0409141Y0295283D01*
X0409463Y0294822D01*
X0409862Y0294424D01*
X0410323Y0294102D01*
X0410832Y0293864D01*
X0411376Y0293718D01*
X0411937Y0293669D01*
X0412497Y0293718D01*
X0413041Y0293864D01*
X0413551Y0294102D01*
X0414012Y0294424D01*
X0414410Y0294822D01*
X0414732Y0295283D01*
X0414970Y0295793D01*
X0415116Y0296337D01*
X0415165Y0296897D01*
X0415162Y0296935D02*
X0408712Y0296935D01*
X0408715Y0296973D02*
X0415158Y0296973D01*
X0415155Y0297010D02*
X0408718Y0297010D01*
X0408722Y0297048D02*
X0415152Y0297048D01*
X0415148Y0297086D02*
X0408725Y0297086D01*
X0408728Y0297124D02*
X0415145Y0297124D01*
X0415142Y0297162D02*
X0408732Y0297162D01*
X0408735Y0297200D02*
X0415139Y0297200D01*
X0415135Y0297238D02*
X0408738Y0297238D01*
X0408742Y0297276D02*
X0415132Y0297276D01*
X0415129Y0297314D02*
X0408745Y0297314D01*
X0408748Y0297351D02*
X0415125Y0297351D01*
X0415122Y0297389D02*
X0408752Y0297389D01*
X0408755Y0297427D02*
X0415119Y0297427D01*
X0415114Y0297465D02*
X0408759Y0297465D01*
X0408758Y0297458D02*
X0408708Y0296897D01*
X0408712Y0296859D02*
X0415162Y0296859D01*
X0415158Y0296821D02*
X0408715Y0296821D01*
X0408718Y0296783D02*
X0415155Y0296783D01*
X0415152Y0296745D02*
X0408722Y0296745D01*
X0408725Y0296707D02*
X0415148Y0296707D01*
X0415145Y0296670D02*
X0408728Y0296670D01*
X0408732Y0296632D02*
X0415142Y0296632D01*
X0415138Y0296594D02*
X0408735Y0296594D01*
X0408738Y0296556D02*
X0415135Y0296556D01*
X0415132Y0296518D02*
X0408742Y0296518D01*
X0408745Y0296480D02*
X0415128Y0296480D01*
X0415125Y0296442D02*
X0408748Y0296442D01*
X0408752Y0296404D02*
X0415122Y0296404D01*
X0415118Y0296366D02*
X0408755Y0296366D01*
X0408760Y0296329D02*
X0415114Y0296329D01*
X0415104Y0296291D02*
X0408770Y0296291D01*
X0408780Y0296253D02*
X0415093Y0296253D01*
X0415083Y0296215D02*
X0408790Y0296215D01*
X0408800Y0296177D02*
X0415073Y0296177D01*
X0415063Y0296139D02*
X0408811Y0296139D01*
X0408821Y0296101D02*
X0415053Y0296101D01*
X0415043Y0296063D02*
X0408831Y0296063D01*
X0408841Y0296026D02*
X0415032Y0296026D01*
X0415022Y0295988D02*
X0408851Y0295988D01*
X0408861Y0295950D02*
X0415012Y0295950D01*
X0415002Y0295912D02*
X0408871Y0295912D01*
X0408882Y0295874D02*
X0414992Y0295874D01*
X0414982Y0295836D02*
X0408892Y0295836D01*
X0408902Y0295798D02*
X0414972Y0295798D01*
X0414955Y0295760D02*
X0408918Y0295760D01*
X0408936Y0295723D02*
X0414937Y0295723D01*
X0414920Y0295685D02*
X0408954Y0295685D01*
X0408971Y0295647D02*
X0414902Y0295647D01*
X0414884Y0295609D02*
X0408989Y0295609D01*
X0409007Y0295571D02*
X0414867Y0295571D01*
X0414849Y0295533D02*
X0409024Y0295533D01*
X0409042Y0295495D02*
X0414831Y0295495D01*
X0414814Y0295457D02*
X0409060Y0295457D01*
X0409077Y0295419D02*
X0414796Y0295419D01*
X0414778Y0295382D02*
X0409095Y0295382D01*
X0409113Y0295344D02*
X0414761Y0295344D01*
X0414743Y0295306D02*
X0409130Y0295306D01*
X0409152Y0295268D02*
X0414722Y0295268D01*
X0414695Y0295230D02*
X0409178Y0295230D01*
X0409205Y0295192D02*
X0414669Y0295192D01*
X0414642Y0295154D02*
X0409231Y0295154D01*
X0409258Y0295116D02*
X0414616Y0295116D01*
X0414589Y0295079D02*
X0409284Y0295079D01*
X0409311Y0295041D02*
X0414563Y0295041D01*
X0414536Y0295003D02*
X0409337Y0295003D01*
X0409364Y0294965D02*
X0414510Y0294965D01*
X0414483Y0294927D02*
X0409390Y0294927D01*
X0409417Y0294889D02*
X0414457Y0294889D01*
X0414430Y0294851D02*
X0409443Y0294851D01*
X0409472Y0294813D02*
X0414401Y0294813D01*
X0414363Y0294775D02*
X0409510Y0294775D01*
X0409548Y0294738D02*
X0414325Y0294738D01*
X0414288Y0294700D02*
X0409586Y0294700D01*
X0409624Y0294662D02*
X0414250Y0294662D01*
X0414212Y0294624D02*
X0409662Y0294624D01*
X0409700Y0294586D02*
X0414174Y0294586D01*
X0414136Y0294548D02*
X0409737Y0294548D01*
X0409775Y0294510D02*
X0414098Y0294510D01*
X0414060Y0294472D02*
X0409813Y0294472D01*
X0409851Y0294435D02*
X0414022Y0294435D01*
X0413973Y0294397D02*
X0409901Y0294397D01*
X0409955Y0294359D02*
X0413918Y0294359D01*
X0413864Y0294321D02*
X0410009Y0294321D01*
X0410063Y0294283D02*
X0413810Y0294283D01*
X0413756Y0294245D02*
X0410117Y0294245D01*
X0410172Y0294207D02*
X0413702Y0294207D01*
X0413648Y0294169D02*
X0410226Y0294169D01*
X0410280Y0294131D02*
X0413594Y0294131D01*
X0413534Y0294094D02*
X0410340Y0294094D01*
X0410421Y0294056D02*
X0413452Y0294056D01*
X0413371Y0294018D02*
X0410502Y0294018D01*
X0410584Y0293980D02*
X0413290Y0293980D01*
X0413209Y0293942D02*
X0410665Y0293942D01*
X0410746Y0293904D02*
X0413127Y0293904D01*
X0413046Y0293866D02*
X0410827Y0293866D01*
X0410965Y0293828D02*
X0412909Y0293828D01*
X0412767Y0293791D02*
X0411106Y0293791D01*
X0411247Y0293753D02*
X0412626Y0293753D01*
X0412458Y0293715D02*
X0411415Y0293715D01*
X0411847Y0293677D02*
X0412027Y0293677D01*
X0411937Y0290126D02*
X0412497Y0290076D01*
X0413041Y0289931D01*
X0413551Y0289693D01*
X0414012Y0289371D01*
X0414410Y0288973D01*
X0414732Y0288512D01*
X0414970Y0288002D01*
X0415116Y0287458D01*
X0415165Y0286897D01*
X0415116Y0286337D01*
X0414970Y0285793D01*
X0414732Y0285283D01*
X0414410Y0284822D01*
X0414012Y0284424D01*
X0413551Y0284102D01*
X0413041Y0283864D01*
X0412497Y0283718D01*
X0411937Y0283669D01*
X0411376Y0283718D01*
X0410832Y0283864D01*
X0410323Y0284102D01*
X0409862Y0284424D01*
X0409463Y0284822D01*
X0409141Y0285283D01*
X0408903Y0285793D01*
X0408758Y0286337D01*
X0408708Y0286897D01*
X0408758Y0287458D01*
X0408903Y0288002D01*
X0409141Y0288512D01*
X0409463Y0288973D01*
X0409862Y0289371D01*
X0410323Y0289693D01*
X0410832Y0289931D01*
X0411376Y0290076D01*
X0411937Y0290126D01*
X0412046Y0290116D02*
X0411827Y0290116D01*
X0411395Y0290078D02*
X0412478Y0290078D01*
X0412632Y0290040D02*
X0411241Y0290040D01*
X0411100Y0290002D02*
X0412774Y0290002D01*
X0412915Y0289965D02*
X0410958Y0289965D01*
X0410823Y0289927D02*
X0413050Y0289927D01*
X0413131Y0289889D02*
X0410742Y0289889D01*
X0410661Y0289851D02*
X0413212Y0289851D01*
X0413294Y0289813D02*
X0410580Y0289813D01*
X0410499Y0289775D02*
X0413375Y0289775D01*
X0413456Y0289737D02*
X0410417Y0289737D01*
X0410336Y0289699D02*
X0413537Y0289699D01*
X0413596Y0289661D02*
X0410277Y0289661D01*
X0410223Y0289624D02*
X0413650Y0289624D01*
X0413704Y0289586D02*
X0410169Y0289586D01*
X0410115Y0289548D02*
X0413758Y0289548D01*
X0413813Y0289510D02*
X0410061Y0289510D01*
X0410007Y0289472D02*
X0413867Y0289472D01*
X0413921Y0289434D02*
X0409952Y0289434D01*
X0409898Y0289396D02*
X0413975Y0289396D01*
X0414024Y0289358D02*
X0409849Y0289358D01*
X0409812Y0289321D02*
X0414062Y0289321D01*
X0414100Y0289283D02*
X0409774Y0289283D01*
X0409736Y0289245D02*
X0414138Y0289245D01*
X0414176Y0289207D02*
X0409698Y0289207D01*
X0409660Y0289169D02*
X0414213Y0289169D01*
X0414251Y0289131D02*
X0409622Y0289131D01*
X0409584Y0289093D02*
X0414289Y0289093D01*
X0414327Y0289055D02*
X0409546Y0289055D01*
X0409508Y0289018D02*
X0414365Y0289018D01*
X0414403Y0288980D02*
X0409471Y0288980D01*
X0409442Y0288942D02*
X0414432Y0288942D01*
X0414458Y0288904D02*
X0409415Y0288904D01*
X0409389Y0288866D02*
X0414484Y0288866D01*
X0414511Y0288828D02*
X0409362Y0288828D01*
X0409336Y0288790D02*
X0414537Y0288790D01*
X0414564Y0288752D02*
X0409309Y0288752D01*
X0409283Y0288714D02*
X0414590Y0288714D01*
X0414617Y0288677D02*
X0409256Y0288677D01*
X0409230Y0288639D02*
X0414643Y0288639D01*
X0414670Y0288601D02*
X0409204Y0288601D01*
X0409177Y0288563D02*
X0414696Y0288563D01*
X0414723Y0288525D02*
X0409151Y0288525D01*
X0409130Y0288487D02*
X0414744Y0288487D01*
X0414761Y0288449D02*
X0409112Y0288449D01*
X0409094Y0288411D02*
X0414779Y0288411D01*
X0414797Y0288374D02*
X0409077Y0288374D01*
X0409059Y0288336D02*
X0414814Y0288336D01*
X0414832Y0288298D02*
X0409041Y0288298D01*
X0409024Y0288260D02*
X0414850Y0288260D01*
X0414867Y0288222D02*
X0409006Y0288222D01*
X0408988Y0288184D02*
X0414885Y0288184D01*
X0414903Y0288146D02*
X0408971Y0288146D01*
X0408953Y0288108D02*
X0414920Y0288108D01*
X0414938Y0288070D02*
X0408935Y0288070D01*
X0408918Y0288033D02*
X0414956Y0288033D01*
X0414972Y0287995D02*
X0408901Y0287995D01*
X0408891Y0287957D02*
X0414982Y0287957D01*
X0414992Y0287919D02*
X0408881Y0287919D01*
X0408871Y0287881D02*
X0415003Y0287881D01*
X0415013Y0287843D02*
X0408861Y0287843D01*
X0408851Y0287805D02*
X0415023Y0287805D01*
X0415033Y0287767D02*
X0408841Y0287767D01*
X0408830Y0287730D02*
X0415043Y0287730D01*
X0415053Y0287692D02*
X0408820Y0287692D01*
X0408810Y0287654D02*
X0415063Y0287654D01*
X0415074Y0287616D02*
X0408800Y0287616D01*
X0408790Y0287578D02*
X0415084Y0287578D01*
X0415094Y0287540D02*
X0408780Y0287540D01*
X0408769Y0287502D02*
X0415104Y0287502D01*
X0415114Y0287464D02*
X0408759Y0287464D01*
X0408755Y0287426D02*
X0415119Y0287426D01*
X0415122Y0287389D02*
X0408752Y0287389D01*
X0408748Y0287351D02*
X0415125Y0287351D01*
X0415129Y0287313D02*
X0408745Y0287313D01*
X0408742Y0287275D02*
X0415132Y0287275D01*
X0415135Y0287237D02*
X0408738Y0287237D01*
X0408735Y0287199D02*
X0415139Y0287199D01*
X0415142Y0287161D02*
X0408732Y0287161D01*
X0408728Y0287123D02*
X0415145Y0287123D01*
X0415149Y0287086D02*
X0408725Y0287086D01*
X0408722Y0287048D02*
X0415152Y0287048D01*
X0415155Y0287010D02*
X0408718Y0287010D01*
X0408715Y0286972D02*
X0415159Y0286972D01*
X0415162Y0286934D02*
X0408712Y0286934D01*
X0408708Y0286896D02*
X0415165Y0286896D01*
X0415162Y0286858D02*
X0408712Y0286858D01*
X0408715Y0286820D02*
X0415158Y0286820D01*
X0415155Y0286783D02*
X0408718Y0286783D01*
X0408722Y0286745D02*
X0415152Y0286745D01*
X0415148Y0286707D02*
X0408725Y0286707D01*
X0408728Y0286669D02*
X0415145Y0286669D01*
X0415142Y0286631D02*
X0408732Y0286631D01*
X0408735Y0286593D02*
X0415138Y0286593D01*
X0415135Y0286555D02*
X0408738Y0286555D01*
X0408742Y0286517D02*
X0415132Y0286517D01*
X0415128Y0286479D02*
X0408745Y0286479D01*
X0408748Y0286442D02*
X0415125Y0286442D01*
X0415122Y0286404D02*
X0408752Y0286404D01*
X0408755Y0286366D02*
X0415118Y0286366D01*
X0415113Y0286328D02*
X0408760Y0286328D01*
X0408770Y0286290D02*
X0415103Y0286290D01*
X0415093Y0286252D02*
X0408780Y0286252D01*
X0408790Y0286214D02*
X0415083Y0286214D01*
X0415073Y0286176D02*
X0408801Y0286176D01*
X0408811Y0286139D02*
X0415063Y0286139D01*
X0415053Y0286101D02*
X0408821Y0286101D01*
X0408831Y0286063D02*
X0415042Y0286063D01*
X0415032Y0286025D02*
X0408841Y0286025D01*
X0408851Y0285987D02*
X0415022Y0285987D01*
X0415012Y0285949D02*
X0408861Y0285949D01*
X0408872Y0285911D02*
X0415002Y0285911D01*
X0414992Y0285873D02*
X0408882Y0285873D01*
X0408892Y0285835D02*
X0414982Y0285835D01*
X0414971Y0285798D02*
X0408902Y0285798D01*
X0408919Y0285760D02*
X0414955Y0285760D01*
X0414937Y0285722D02*
X0408936Y0285722D01*
X0408954Y0285684D02*
X0414919Y0285684D01*
X0414902Y0285646D02*
X0408972Y0285646D01*
X0408989Y0285608D02*
X0414884Y0285608D01*
X0414866Y0285570D02*
X0409007Y0285570D01*
X0409025Y0285532D02*
X0414849Y0285532D01*
X0414831Y0285495D02*
X0409042Y0285495D01*
X0409060Y0285457D02*
X0414813Y0285457D01*
X0414796Y0285419D02*
X0409078Y0285419D01*
X0409095Y0285381D02*
X0414778Y0285381D01*
X0414760Y0285343D02*
X0409113Y0285343D01*
X0409131Y0285305D02*
X0414743Y0285305D01*
X0414721Y0285267D02*
X0409152Y0285267D01*
X0409179Y0285229D02*
X0414695Y0285229D01*
X0414668Y0285191D02*
X0409205Y0285191D01*
X0409232Y0285154D02*
X0414642Y0285154D01*
X0414615Y0285116D02*
X0409258Y0285116D01*
X0409285Y0285078D02*
X0414589Y0285078D01*
X0414562Y0285040D02*
X0409311Y0285040D01*
X0409338Y0285002D02*
X0414536Y0285002D01*
X0414509Y0284964D02*
X0409364Y0284964D01*
X0409391Y0284926D02*
X0414483Y0284926D01*
X0414456Y0284888D02*
X0409417Y0284888D01*
X0409444Y0284851D02*
X0414430Y0284851D01*
X0414400Y0284813D02*
X0409473Y0284813D01*
X0409511Y0284775D02*
X0414363Y0284775D01*
X0414325Y0284737D02*
X0409549Y0284737D01*
X0409587Y0284699D02*
X0414287Y0284699D01*
X0414249Y0284661D02*
X0409625Y0284661D01*
X0409662Y0284623D02*
X0414211Y0284623D01*
X0414173Y0284585D02*
X0409700Y0284585D01*
X0409738Y0284548D02*
X0414135Y0284548D01*
X0414097Y0284510D02*
X0409776Y0284510D01*
X0409814Y0284472D02*
X0414060Y0284472D01*
X0414022Y0284434D02*
X0409852Y0284434D01*
X0409902Y0284396D02*
X0413972Y0284396D01*
X0413918Y0284358D02*
X0409956Y0284358D01*
X0410010Y0284320D02*
X0413863Y0284320D01*
X0413809Y0284282D02*
X0410064Y0284282D01*
X0410118Y0284244D02*
X0413755Y0284244D01*
X0413701Y0284207D02*
X0410173Y0284207D01*
X0410227Y0284169D02*
X0413647Y0284169D01*
X0413593Y0284131D02*
X0410281Y0284131D01*
X0410341Y0284093D02*
X0413532Y0284093D01*
X0413451Y0284055D02*
X0410423Y0284055D01*
X0410504Y0284017D02*
X0413370Y0284017D01*
X0413288Y0283979D02*
X0410585Y0283979D01*
X0410666Y0283941D02*
X0413207Y0283941D01*
X0413126Y0283904D02*
X0410747Y0283904D01*
X0410829Y0283866D02*
X0413045Y0283866D01*
X0412906Y0283828D02*
X0410967Y0283828D01*
X0411109Y0283790D02*
X0412765Y0283790D01*
X0412623Y0283752D02*
X0411250Y0283752D01*
X0411423Y0283714D02*
X0412451Y0283714D01*
X0412019Y0283676D02*
X0411854Y0283676D01*
X0411937Y0280126D02*
X0412497Y0280076D01*
X0413041Y0279931D01*
X0413551Y0279693D01*
X0414012Y0279371D01*
X0414410Y0278973D01*
X0414732Y0278512D01*
X0414970Y0278002D01*
X0415116Y0277458D01*
X0415165Y0276897D01*
X0415116Y0276337D01*
X0414970Y0275793D01*
X0414732Y0275283D01*
X0414410Y0274822D01*
X0414012Y0274424D01*
X0413551Y0274102D01*
X0413041Y0273864D01*
X0412497Y0273718D01*
X0411937Y0273669D01*
X0411376Y0273718D01*
X0410832Y0273864D01*
X0410323Y0274102D01*
X0409862Y0274424D01*
X0409463Y0274822D01*
X0409141Y0275283D01*
X0408903Y0275793D01*
X0408758Y0276337D01*
X0408708Y0276897D01*
X0408758Y0277458D01*
X0408903Y0278002D01*
X0409141Y0278512D01*
X0409463Y0278973D01*
X0409862Y0279371D01*
X0410323Y0279693D01*
X0410832Y0279931D01*
X0411376Y0280076D01*
X0411937Y0280126D01*
X0412054Y0280115D02*
X0411819Y0280115D01*
X0411388Y0280077D02*
X0412486Y0280077D01*
X0412635Y0280040D02*
X0411238Y0280040D01*
X0411097Y0280002D02*
X0412776Y0280002D01*
X0412918Y0279964D02*
X0410956Y0279964D01*
X0410822Y0279926D02*
X0413051Y0279926D01*
X0413133Y0279888D02*
X0410741Y0279888D01*
X0410660Y0279850D02*
X0413214Y0279850D01*
X0413295Y0279812D02*
X0410578Y0279812D01*
X0410497Y0279774D02*
X0413376Y0279774D01*
X0413458Y0279737D02*
X0410416Y0279737D01*
X0410335Y0279699D02*
X0413539Y0279699D01*
X0413597Y0279661D02*
X0410276Y0279661D01*
X0410222Y0279623D02*
X0413651Y0279623D01*
X0413705Y0279585D02*
X0410168Y0279585D01*
X0410114Y0279547D02*
X0413759Y0279547D01*
X0413814Y0279509D02*
X0410060Y0279509D01*
X0410006Y0279471D02*
X0413868Y0279471D01*
X0413922Y0279434D02*
X0409952Y0279434D01*
X0409897Y0279396D02*
X0413976Y0279396D01*
X0414025Y0279358D02*
X0409849Y0279358D01*
X0409811Y0279320D02*
X0414063Y0279320D01*
X0414101Y0279282D02*
X0409773Y0279282D01*
X0409735Y0279244D02*
X0414138Y0279244D01*
X0414176Y0279206D02*
X0409697Y0279206D01*
X0409659Y0279168D02*
X0414214Y0279168D01*
X0414252Y0279130D02*
X0409621Y0279130D01*
X0409584Y0279093D02*
X0414290Y0279093D01*
X0414328Y0279055D02*
X0409546Y0279055D01*
X0409508Y0279017D02*
X0414366Y0279017D01*
X0414404Y0278979D02*
X0409470Y0278979D01*
X0409441Y0278941D02*
X0414432Y0278941D01*
X0414458Y0278903D02*
X0409415Y0278903D01*
X0409388Y0278865D02*
X0414485Y0278865D01*
X0414511Y0278827D02*
X0409362Y0278827D01*
X0409335Y0278790D02*
X0414538Y0278790D01*
X0414564Y0278752D02*
X0409309Y0278752D01*
X0409283Y0278714D02*
X0414591Y0278714D01*
X0414617Y0278676D02*
X0409256Y0278676D01*
X0409230Y0278638D02*
X0414644Y0278638D01*
X0414670Y0278600D02*
X0409203Y0278600D01*
X0409177Y0278562D02*
X0414697Y0278562D01*
X0414723Y0278524D02*
X0409150Y0278524D01*
X0409129Y0278486D02*
X0414744Y0278486D01*
X0414762Y0278449D02*
X0409112Y0278449D01*
X0409094Y0278411D02*
X0414779Y0278411D01*
X0414797Y0278373D02*
X0409076Y0278373D01*
X0409059Y0278335D02*
X0414815Y0278335D01*
X0414832Y0278297D02*
X0409041Y0278297D01*
X0409023Y0278259D02*
X0414850Y0278259D01*
X0414868Y0278221D02*
X0409006Y0278221D01*
X0408988Y0278183D02*
X0414885Y0278183D01*
X0414903Y0278146D02*
X0408970Y0278146D01*
X0408953Y0278108D02*
X0414921Y0278108D01*
X0414938Y0278070D02*
X0408935Y0278070D01*
X0408917Y0278032D02*
X0414956Y0278032D01*
X0414972Y0277994D02*
X0408901Y0277994D01*
X0408891Y0277956D02*
X0414982Y0277956D01*
X0414993Y0277918D02*
X0408881Y0277918D01*
X0408871Y0277880D02*
X0415003Y0277880D01*
X0415013Y0277842D02*
X0408861Y0277842D01*
X0408850Y0277805D02*
X0415023Y0277805D01*
X0415033Y0277767D02*
X0408840Y0277767D01*
X0408830Y0277729D02*
X0415043Y0277729D01*
X0415053Y0277691D02*
X0408820Y0277691D01*
X0408810Y0277653D02*
X0415064Y0277653D01*
X0415074Y0277615D02*
X0408800Y0277615D01*
X0408790Y0277577D02*
X0415084Y0277577D01*
X0415094Y0277539D02*
X0408779Y0277539D01*
X0408769Y0277502D02*
X0415104Y0277502D01*
X0415114Y0277464D02*
X0408759Y0277464D01*
X0408755Y0277426D02*
X0415119Y0277426D01*
X0415122Y0277388D02*
X0408751Y0277388D01*
X0408748Y0277350D02*
X0415125Y0277350D01*
X0415129Y0277312D02*
X0408745Y0277312D01*
X0408741Y0277274D02*
X0415132Y0277274D01*
X0415135Y0277236D02*
X0408738Y0277236D01*
X0408735Y0277199D02*
X0415139Y0277199D01*
X0415142Y0277161D02*
X0408731Y0277161D01*
X0408728Y0277123D02*
X0415145Y0277123D01*
X0415149Y0277085D02*
X0408725Y0277085D01*
X0408722Y0277047D02*
X0415152Y0277047D01*
X0415155Y0277009D02*
X0408718Y0277009D01*
X0408715Y0276971D02*
X0415159Y0276971D01*
X0415162Y0276933D02*
X0408712Y0276933D01*
X0408709Y0276895D02*
X0415165Y0276895D01*
X0415162Y0276858D02*
X0408712Y0276858D01*
X0408715Y0276820D02*
X0415158Y0276820D01*
X0415155Y0276782D02*
X0408719Y0276782D01*
X0408722Y0276744D02*
X0415152Y0276744D01*
X0415148Y0276706D02*
X0408725Y0276706D01*
X0408728Y0276668D02*
X0415145Y0276668D01*
X0415142Y0276630D02*
X0408732Y0276630D01*
X0408735Y0276592D02*
X0415138Y0276592D01*
X0415135Y0276555D02*
X0408738Y0276555D01*
X0408742Y0276517D02*
X0415132Y0276517D01*
X0415128Y0276479D02*
X0408745Y0276479D01*
X0408748Y0276441D02*
X0415125Y0276441D01*
X0415122Y0276403D02*
X0408752Y0276403D01*
X0408755Y0276365D02*
X0415118Y0276365D01*
X0415113Y0276327D02*
X0408760Y0276327D01*
X0408770Y0276289D02*
X0415103Y0276289D01*
X0415093Y0276251D02*
X0408780Y0276251D01*
X0408791Y0276214D02*
X0415083Y0276214D01*
X0415073Y0276176D02*
X0408801Y0276176D01*
X0408811Y0276138D02*
X0415063Y0276138D01*
X0415052Y0276100D02*
X0408821Y0276100D01*
X0408831Y0276062D02*
X0415042Y0276062D01*
X0415032Y0276024D02*
X0408841Y0276024D01*
X0408851Y0275986D02*
X0415022Y0275986D01*
X0415012Y0275948D02*
X0408862Y0275948D01*
X0408872Y0275911D02*
X0415002Y0275911D01*
X0414992Y0275873D02*
X0408882Y0275873D01*
X0408892Y0275835D02*
X0414981Y0275835D01*
X0414971Y0275797D02*
X0408902Y0275797D01*
X0408919Y0275759D02*
X0414954Y0275759D01*
X0414937Y0275721D02*
X0408937Y0275721D01*
X0408954Y0275683D02*
X0414919Y0275683D01*
X0414901Y0275645D02*
X0408972Y0275645D01*
X0408990Y0275607D02*
X0414884Y0275607D01*
X0414866Y0275570D02*
X0409007Y0275570D01*
X0409025Y0275532D02*
X0414848Y0275532D01*
X0414831Y0275494D02*
X0409043Y0275494D01*
X0409060Y0275456D02*
X0414813Y0275456D01*
X0414795Y0275418D02*
X0409078Y0275418D01*
X0409096Y0275380D02*
X0414778Y0275380D01*
X0414760Y0275342D02*
X0409113Y0275342D01*
X0409131Y0275304D02*
X0414742Y0275304D01*
X0414721Y0275267D02*
X0409153Y0275267D01*
X0409179Y0275229D02*
X0414694Y0275229D01*
X0414668Y0275191D02*
X0409206Y0275191D01*
X0409232Y0275153D02*
X0414641Y0275153D01*
X0414615Y0275115D02*
X0409259Y0275115D01*
X0409285Y0275077D02*
X0414588Y0275077D01*
X0414562Y0275039D02*
X0409312Y0275039D01*
X0409338Y0275001D02*
X0414535Y0275001D01*
X0414509Y0274964D02*
X0409365Y0274964D01*
X0409391Y0274926D02*
X0414482Y0274926D01*
X0414456Y0274888D02*
X0409418Y0274888D01*
X0409444Y0274850D02*
X0414429Y0274850D01*
X0414400Y0274812D02*
X0409474Y0274812D01*
X0409512Y0274774D02*
X0414362Y0274774D01*
X0414324Y0274736D02*
X0409549Y0274736D01*
X0409587Y0274698D02*
X0414286Y0274698D01*
X0414248Y0274660D02*
X0409625Y0274660D01*
X0409663Y0274623D02*
X0414210Y0274623D01*
X0414172Y0274585D02*
X0409701Y0274585D01*
X0409739Y0274547D02*
X0414135Y0274547D01*
X0414097Y0274509D02*
X0409777Y0274509D01*
X0409815Y0274471D02*
X0414059Y0274471D01*
X0414021Y0274433D02*
X0409852Y0274433D01*
X0409903Y0274395D02*
X0413971Y0274395D01*
X0413917Y0274357D02*
X0409957Y0274357D01*
X0410011Y0274320D02*
X0413862Y0274320D01*
X0413808Y0274282D02*
X0410065Y0274282D01*
X0410119Y0274244D02*
X0413754Y0274244D01*
X0413700Y0274206D02*
X0410174Y0274206D01*
X0410228Y0274168D02*
X0413646Y0274168D01*
X0413592Y0274130D02*
X0410282Y0274130D01*
X0410343Y0274092D02*
X0413531Y0274092D01*
X0413449Y0274054D02*
X0410424Y0274054D01*
X0410505Y0274016D02*
X0413368Y0274016D01*
X0413287Y0273979D02*
X0410586Y0273979D01*
X0410668Y0273941D02*
X0413206Y0273941D01*
X0413125Y0273903D02*
X0410749Y0273903D01*
X0410830Y0273865D02*
X0413043Y0273865D01*
X0412904Y0273827D02*
X0410970Y0273827D01*
X0411111Y0273789D02*
X0412762Y0273789D01*
X0412621Y0273751D02*
X0411253Y0273751D01*
X0411431Y0273713D02*
X0412443Y0273713D01*
X0412011Y0273676D02*
X0411862Y0273676D01*
X0411937Y0270126D02*
X0412497Y0270076D01*
X0413041Y0269931D01*
X0413551Y0269693D01*
X0414012Y0269371D01*
X0414410Y0268973D01*
X0414732Y0268512D01*
X0414970Y0268002D01*
X0415116Y0267458D01*
X0415165Y0266897D01*
X0415116Y0266337D01*
X0414970Y0265793D01*
X0414732Y0265283D01*
X0414410Y0264822D01*
X0414012Y0264424D01*
X0413551Y0264102D01*
X0413041Y0263864D01*
X0412497Y0263718D01*
X0411937Y0263669D01*
X0411376Y0263718D01*
X0410832Y0263864D01*
X0410323Y0264102D01*
X0409862Y0264424D01*
X0409463Y0264822D01*
X0409141Y0265283D01*
X0408903Y0265793D01*
X0408758Y0266337D01*
X0408708Y0266897D01*
X0408758Y0267458D01*
X0408903Y0268002D01*
X0409141Y0268512D01*
X0409463Y0268973D01*
X0409862Y0269371D01*
X0410323Y0269693D01*
X0410832Y0269931D01*
X0411376Y0270076D01*
X0411937Y0270126D01*
X0412062Y0270115D02*
X0411811Y0270115D01*
X0411380Y0270077D02*
X0412494Y0270077D01*
X0412638Y0270039D02*
X0411236Y0270039D01*
X0411095Y0270001D02*
X0412779Y0270001D01*
X0412920Y0269963D02*
X0410953Y0269963D01*
X0410821Y0269925D02*
X0413053Y0269925D01*
X0413134Y0269887D02*
X0410739Y0269887D01*
X0410658Y0269850D02*
X0413215Y0269850D01*
X0413297Y0269812D02*
X0410577Y0269812D01*
X0410496Y0269774D02*
X0413378Y0269774D01*
X0413459Y0269736D02*
X0410414Y0269736D01*
X0410333Y0269698D02*
X0413540Y0269698D01*
X0413598Y0269660D02*
X0410276Y0269660D01*
X0410221Y0269622D02*
X0413652Y0269622D01*
X0413706Y0269584D02*
X0410167Y0269584D01*
X0410113Y0269546D02*
X0413760Y0269546D01*
X0413815Y0269509D02*
X0410059Y0269509D01*
X0410005Y0269471D02*
X0413869Y0269471D01*
X0413923Y0269433D02*
X0409951Y0269433D01*
X0409896Y0269395D02*
X0413977Y0269395D01*
X0414025Y0269357D02*
X0409848Y0269357D01*
X0409810Y0269319D02*
X0414063Y0269319D01*
X0414101Y0269281D02*
X0409772Y0269281D01*
X0409734Y0269243D02*
X0414139Y0269243D01*
X0414177Y0269206D02*
X0409696Y0269206D01*
X0409659Y0269168D02*
X0414215Y0269168D01*
X0414253Y0269130D02*
X0409621Y0269130D01*
X0409583Y0269092D02*
X0414291Y0269092D01*
X0414328Y0269054D02*
X0409545Y0269054D01*
X0409507Y0269016D02*
X0414366Y0269016D01*
X0414404Y0268978D02*
X0409469Y0268978D01*
X0409441Y0268940D02*
X0414432Y0268940D01*
X0414459Y0268902D02*
X0409414Y0268902D01*
X0409388Y0268865D02*
X0414485Y0268865D01*
X0414512Y0268827D02*
X0409362Y0268827D01*
X0409335Y0268789D02*
X0414538Y0268789D01*
X0414565Y0268751D02*
X0409309Y0268751D01*
X0409282Y0268713D02*
X0414591Y0268713D01*
X0414618Y0268675D02*
X0409256Y0268675D01*
X0409229Y0268637D02*
X0414644Y0268637D01*
X0414671Y0268599D02*
X0409203Y0268599D01*
X0409176Y0268562D02*
X0414697Y0268562D01*
X0414724Y0268524D02*
X0409150Y0268524D01*
X0409129Y0268486D02*
X0414744Y0268486D01*
X0414762Y0268448D02*
X0409111Y0268448D01*
X0409094Y0268410D02*
X0414780Y0268410D01*
X0414797Y0268372D02*
X0409076Y0268372D01*
X0409058Y0268334D02*
X0414815Y0268334D01*
X0414833Y0268296D02*
X0409041Y0268296D01*
X0409023Y0268259D02*
X0414850Y0268259D01*
X0414868Y0268221D02*
X0409005Y0268221D01*
X0408988Y0268183D02*
X0414886Y0268183D01*
X0414903Y0268145D02*
X0408970Y0268145D01*
X0408952Y0268107D02*
X0414921Y0268107D01*
X0414939Y0268069D02*
X0408935Y0268069D01*
X0408917Y0268031D02*
X0414956Y0268031D01*
X0414972Y0267993D02*
X0408901Y0267993D01*
X0408891Y0267955D02*
X0414983Y0267955D01*
X0414993Y0267918D02*
X0408881Y0267918D01*
X0408871Y0267880D02*
X0415003Y0267880D01*
X0415013Y0267842D02*
X0408860Y0267842D01*
X0408850Y0267804D02*
X0415023Y0267804D01*
X0415033Y0267766D02*
X0408840Y0267766D01*
X0408830Y0267728D02*
X0415043Y0267728D01*
X0415054Y0267690D02*
X0408820Y0267690D01*
X0408810Y0267652D02*
X0415064Y0267652D01*
X0415074Y0267615D02*
X0408800Y0267615D01*
X0408789Y0267577D02*
X0415084Y0267577D01*
X0415094Y0267539D02*
X0408779Y0267539D01*
X0408769Y0267501D02*
X0415104Y0267501D01*
X0415115Y0267463D02*
X0408759Y0267463D01*
X0408755Y0267425D02*
X0415119Y0267425D01*
X0415122Y0267387D02*
X0408751Y0267387D01*
X0408748Y0267349D02*
X0415125Y0267349D01*
X0415129Y0267311D02*
X0408745Y0267311D01*
X0408741Y0267274D02*
X0415132Y0267274D01*
X0415135Y0267236D02*
X0408738Y0267236D01*
X0408735Y0267198D02*
X0415139Y0267198D01*
X0415142Y0267160D02*
X0408731Y0267160D01*
X0408728Y0267122D02*
X0415145Y0267122D01*
X0415149Y0267084D02*
X0408725Y0267084D01*
X0408721Y0267046D02*
X0415152Y0267046D01*
X0415155Y0267008D02*
X0408718Y0267008D01*
X0408715Y0266971D02*
X0415159Y0266971D01*
X0415162Y0266933D02*
X0408711Y0266933D01*
X0408709Y0266895D02*
X0415165Y0266895D01*
X0415162Y0266857D02*
X0408712Y0266857D01*
X0408715Y0266819D02*
X0415158Y0266819D01*
X0415155Y0266781D02*
X0408719Y0266781D01*
X0408722Y0266743D02*
X0415152Y0266743D01*
X0415148Y0266705D02*
X0408725Y0266705D01*
X0408729Y0266667D02*
X0415145Y0266667D01*
X0415142Y0266630D02*
X0408732Y0266630D01*
X0408735Y0266592D02*
X0415138Y0266592D01*
X0415135Y0266554D02*
X0408739Y0266554D01*
X0408742Y0266516D02*
X0415132Y0266516D01*
X0415128Y0266478D02*
X0408745Y0266478D01*
X0408748Y0266440D02*
X0415125Y0266440D01*
X0415122Y0266402D02*
X0408752Y0266402D01*
X0408755Y0266364D02*
X0415118Y0266364D01*
X0415113Y0266327D02*
X0408760Y0266327D01*
X0408770Y0266289D02*
X0415103Y0266289D01*
X0415093Y0266251D02*
X0408781Y0266251D01*
X0408791Y0266213D02*
X0415083Y0266213D01*
X0415073Y0266175D02*
X0408801Y0266175D01*
X0408811Y0266137D02*
X0415062Y0266137D01*
X0415052Y0266099D02*
X0408821Y0266099D01*
X0408831Y0266061D02*
X0415042Y0266061D01*
X0415032Y0266023D02*
X0408842Y0266023D01*
X0408852Y0265986D02*
X0415022Y0265986D01*
X0415012Y0265948D02*
X0408862Y0265948D01*
X0408872Y0265910D02*
X0415001Y0265910D01*
X0414991Y0265872D02*
X0408882Y0265872D01*
X0408892Y0265834D02*
X0414981Y0265834D01*
X0414971Y0265796D02*
X0408902Y0265796D01*
X0408919Y0265758D02*
X0414954Y0265758D01*
X0414936Y0265720D02*
X0408937Y0265720D01*
X0408955Y0265683D02*
X0414919Y0265683D01*
X0414901Y0265645D02*
X0408972Y0265645D01*
X0408990Y0265607D02*
X0414883Y0265607D01*
X0414866Y0265569D02*
X0409008Y0265569D01*
X0409025Y0265531D02*
X0414848Y0265531D01*
X0414830Y0265493D02*
X0409043Y0265493D01*
X0409061Y0265455D02*
X0414813Y0265455D01*
X0414795Y0265417D02*
X0409078Y0265417D01*
X0409096Y0265380D02*
X0414777Y0265380D01*
X0414760Y0265342D02*
X0409114Y0265342D01*
X0409131Y0265304D02*
X0414742Y0265304D01*
X0414720Y0265266D02*
X0409153Y0265266D01*
X0409180Y0265228D02*
X0414694Y0265228D01*
X0414667Y0265190D02*
X0409206Y0265190D01*
X0409233Y0265152D02*
X0414641Y0265152D01*
X0414614Y0265114D02*
X0409259Y0265114D01*
X0409286Y0265076D02*
X0414588Y0265076D01*
X0414561Y0265039D02*
X0409312Y0265039D01*
X0409339Y0265001D02*
X0414535Y0265001D01*
X0414508Y0264963D02*
X0409365Y0264963D01*
X0409392Y0264925D02*
X0414482Y0264925D01*
X0414455Y0264887D02*
X0409418Y0264887D01*
X0409445Y0264849D02*
X0414429Y0264849D01*
X0414399Y0264811D02*
X0409474Y0264811D01*
X0409512Y0264773D02*
X0414361Y0264773D01*
X0414323Y0264736D02*
X0409550Y0264736D01*
X0409588Y0264698D02*
X0414285Y0264698D01*
X0414248Y0264660D02*
X0409626Y0264660D01*
X0409664Y0264622D02*
X0414210Y0264622D01*
X0414172Y0264584D02*
X0409702Y0264584D01*
X0409740Y0264546D02*
X0414134Y0264546D01*
X0414096Y0264508D02*
X0409777Y0264508D01*
X0409815Y0264470D02*
X0414058Y0264470D01*
X0414020Y0264432D02*
X0409853Y0264432D01*
X0409904Y0264395D02*
X0413970Y0264395D01*
X0413916Y0264357D02*
X0409958Y0264357D01*
X0410012Y0264319D02*
X0413861Y0264319D01*
X0413807Y0264281D02*
X0410066Y0264281D01*
X0410120Y0264243D02*
X0413753Y0264243D01*
X0413699Y0264205D02*
X0410175Y0264205D01*
X0410229Y0264167D02*
X0413645Y0264167D01*
X0413591Y0264129D02*
X0410283Y0264129D01*
X0410344Y0264092D02*
X0413529Y0264092D01*
X0413448Y0264054D02*
X0410426Y0264054D01*
X0410507Y0264016D02*
X0413367Y0264016D01*
X0413285Y0263978D02*
X0410588Y0263978D01*
X0410669Y0263940D02*
X0413204Y0263940D01*
X0413123Y0263902D02*
X0410750Y0263902D01*
X0410832Y0263864D02*
X0413042Y0263864D01*
X0412901Y0263826D02*
X0410972Y0263826D01*
X0411114Y0263788D02*
X0412760Y0263788D01*
X0412618Y0263751D02*
X0411255Y0263751D01*
X0411439Y0263713D02*
X0412435Y0263713D01*
X0412003Y0263675D02*
X0411870Y0263675D01*
X0411937Y0260126D02*
X0412497Y0260076D01*
X0413041Y0259931D01*
X0413551Y0259693D01*
X0414012Y0259371D01*
X0414410Y0258973D01*
X0414732Y0258512D01*
X0414970Y0258002D01*
X0415116Y0257458D01*
X0415165Y0256897D01*
X0415116Y0256337D01*
X0414970Y0255793D01*
X0414732Y0255283D01*
X0414410Y0254822D01*
X0414012Y0254424D01*
X0413551Y0254102D01*
X0413041Y0253864D01*
X0412497Y0253718D01*
X0411937Y0253669D01*
X0411376Y0253718D01*
X0410832Y0253864D01*
X0410323Y0254102D01*
X0409862Y0254424D01*
X0409463Y0254822D01*
X0409141Y0255283D01*
X0408903Y0255793D01*
X0408758Y0256337D01*
X0408708Y0256897D01*
X0408758Y0257458D01*
X0408903Y0258002D01*
X0409141Y0258512D01*
X0409463Y0258973D01*
X0409862Y0259371D01*
X0410323Y0259693D01*
X0410832Y0259931D01*
X0411376Y0260076D01*
X0411937Y0260126D01*
X0412070Y0260114D02*
X0411803Y0260114D01*
X0411375Y0260076D02*
X0412499Y0260076D01*
X0412640Y0260038D02*
X0411233Y0260038D01*
X0411092Y0260000D02*
X0412782Y0260000D01*
X0412923Y0259962D02*
X0410951Y0259962D01*
X0410819Y0259925D02*
X0413054Y0259925D01*
X0413136Y0259887D02*
X0410738Y0259887D01*
X0410657Y0259849D02*
X0413217Y0259849D01*
X0413298Y0259811D02*
X0410575Y0259811D01*
X0410494Y0259773D02*
X0413379Y0259773D01*
X0413461Y0259735D02*
X0410413Y0259735D01*
X0410332Y0259697D02*
X0413542Y0259697D01*
X0413599Y0259659D02*
X0410275Y0259659D01*
X0410220Y0259622D02*
X0413653Y0259622D01*
X0413707Y0259584D02*
X0410166Y0259584D01*
X0410112Y0259546D02*
X0413761Y0259546D01*
X0413816Y0259508D02*
X0410058Y0259508D01*
X0410004Y0259470D02*
X0413870Y0259470D01*
X0413924Y0259432D02*
X0409950Y0259432D01*
X0409895Y0259394D02*
X0413978Y0259394D01*
X0414026Y0259356D02*
X0409847Y0259356D01*
X0409809Y0259318D02*
X0414064Y0259318D01*
X0414102Y0259281D02*
X0409772Y0259281D01*
X0409734Y0259243D02*
X0414140Y0259243D01*
X0414178Y0259205D02*
X0409696Y0259205D01*
X0409658Y0259167D02*
X0414216Y0259167D01*
X0414253Y0259129D02*
X0409620Y0259129D01*
X0409582Y0259091D02*
X0414291Y0259091D01*
X0414329Y0259053D02*
X0409544Y0259053D01*
X0409506Y0259015D02*
X0414367Y0259015D01*
X0414405Y0258978D02*
X0409469Y0258978D01*
X0409441Y0258940D02*
X0414433Y0258940D01*
X0414459Y0258902D02*
X0409414Y0258902D01*
X0409388Y0258864D02*
X0414486Y0258864D01*
X0414512Y0258826D02*
X0409361Y0258826D01*
X0409335Y0258788D02*
X0414539Y0258788D01*
X0414565Y0258750D02*
X0409308Y0258750D01*
X0409282Y0258712D02*
X0414592Y0258712D01*
X0414618Y0258675D02*
X0409255Y0258675D01*
X0409229Y0258637D02*
X0414645Y0258637D01*
X0414671Y0258599D02*
X0409202Y0258599D01*
X0409176Y0258561D02*
X0414698Y0258561D01*
X0414724Y0258523D02*
X0409149Y0258523D01*
X0409129Y0258485D02*
X0414745Y0258485D01*
X0414762Y0258447D02*
X0409111Y0258447D01*
X0409093Y0258409D02*
X0414780Y0258409D01*
X0414798Y0258371D02*
X0409076Y0258371D01*
X0409058Y0258334D02*
X0414815Y0258334D01*
X0414833Y0258296D02*
X0409040Y0258296D01*
X0409023Y0258258D02*
X0414851Y0258258D01*
X0414868Y0258220D02*
X0409005Y0258220D01*
X0408987Y0258182D02*
X0414886Y0258182D01*
X0414904Y0258144D02*
X0408970Y0258144D01*
X0408952Y0258106D02*
X0414921Y0258106D01*
X0414939Y0258068D02*
X0408934Y0258068D01*
X0408917Y0258031D02*
X0414957Y0258031D01*
X0414973Y0257993D02*
X0408901Y0257993D01*
X0408891Y0257955D02*
X0414983Y0257955D01*
X0414993Y0257917D02*
X0408881Y0257917D01*
X0408870Y0257879D02*
X0415003Y0257879D01*
X0415013Y0257841D02*
X0408860Y0257841D01*
X0408850Y0257803D02*
X0415023Y0257803D01*
X0415034Y0257765D02*
X0408840Y0257765D01*
X0408830Y0257727D02*
X0415044Y0257727D01*
X0415054Y0257690D02*
X0408820Y0257690D01*
X0408809Y0257652D02*
X0415064Y0257652D01*
X0415074Y0257614D02*
X0408799Y0257614D01*
X0408789Y0257576D02*
X0415084Y0257576D01*
X0415094Y0257538D02*
X0408779Y0257538D01*
X0408769Y0257500D02*
X0415105Y0257500D01*
X0415115Y0257462D02*
X0408759Y0257462D01*
X0408755Y0257424D02*
X0415119Y0257424D01*
X0415122Y0257387D02*
X0408751Y0257387D01*
X0408748Y0257349D02*
X0415125Y0257349D01*
X0415129Y0257311D02*
X0408745Y0257311D01*
X0408741Y0257273D02*
X0415132Y0257273D01*
X0415135Y0257235D02*
X0408738Y0257235D01*
X0408735Y0257197D02*
X0415139Y0257197D01*
X0415142Y0257159D02*
X0408731Y0257159D01*
X0408728Y0257121D02*
X0415145Y0257121D01*
X0415149Y0257083D02*
X0408725Y0257083D01*
X0408721Y0257046D02*
X0415152Y0257046D01*
X0415155Y0257008D02*
X0408718Y0257008D01*
X0408715Y0256970D02*
X0415159Y0256970D01*
X0415162Y0256932D02*
X0408711Y0256932D01*
X0408709Y0256894D02*
X0415165Y0256894D01*
X0415161Y0256856D02*
X0408712Y0256856D01*
X0408715Y0256818D02*
X0415158Y0256818D01*
X0415155Y0256780D02*
X0408719Y0256780D01*
X0408722Y0256743D02*
X0415151Y0256743D01*
X0415148Y0256705D02*
X0408725Y0256705D01*
X0408729Y0256667D02*
X0415145Y0256667D01*
X0415141Y0256629D02*
X0408732Y0256629D01*
X0408735Y0256591D02*
X0415138Y0256591D01*
X0415135Y0256553D02*
X0408739Y0256553D01*
X0408742Y0256515D02*
X0415132Y0256515D01*
X0415128Y0256477D02*
X0408745Y0256477D01*
X0408749Y0256440D02*
X0415125Y0256440D01*
X0415122Y0256402D02*
X0408752Y0256402D01*
X0408755Y0256364D02*
X0415118Y0256364D01*
X0415113Y0256326D02*
X0408760Y0256326D01*
X0408771Y0256288D02*
X0415103Y0256288D01*
X0415093Y0256250D02*
X0408781Y0256250D01*
X0408791Y0256212D02*
X0415082Y0256212D01*
X0415072Y0256174D02*
X0408801Y0256174D01*
X0408811Y0256136D02*
X0415062Y0256136D01*
X0415052Y0256099D02*
X0408821Y0256099D01*
X0408832Y0256061D02*
X0415042Y0256061D01*
X0415032Y0256023D02*
X0408842Y0256023D01*
X0408852Y0255985D02*
X0415022Y0255985D01*
X0415011Y0255947D02*
X0408862Y0255947D01*
X0408872Y0255909D02*
X0415001Y0255909D01*
X0414991Y0255871D02*
X0408882Y0255871D01*
X0408892Y0255833D02*
X0414981Y0255833D01*
X0414971Y0255796D02*
X0408903Y0255796D01*
X0408920Y0255758D02*
X0414954Y0255758D01*
X0414936Y0255720D02*
X0408937Y0255720D01*
X0408955Y0255682D02*
X0414918Y0255682D01*
X0414901Y0255644D02*
X0408973Y0255644D01*
X0408990Y0255606D02*
X0414883Y0255606D01*
X0414865Y0255568D02*
X0409008Y0255568D01*
X0409026Y0255530D02*
X0414848Y0255530D01*
X0414830Y0255492D02*
X0409043Y0255492D01*
X0409061Y0255455D02*
X0414812Y0255455D01*
X0414795Y0255417D02*
X0409079Y0255417D01*
X0409096Y0255379D02*
X0414777Y0255379D01*
X0414759Y0255341D02*
X0409114Y0255341D01*
X0409132Y0255303D02*
X0414742Y0255303D01*
X0414720Y0255265D02*
X0409154Y0255265D01*
X0409180Y0255227D02*
X0414693Y0255227D01*
X0414667Y0255189D02*
X0409207Y0255189D01*
X0409233Y0255152D02*
X0414640Y0255152D01*
X0414614Y0255114D02*
X0409260Y0255114D01*
X0409286Y0255076D02*
X0414587Y0255076D01*
X0414561Y0255038D02*
X0409313Y0255038D01*
X0409339Y0255000D02*
X0414534Y0255000D01*
X0414508Y0254962D02*
X0409366Y0254962D01*
X0409392Y0254924D02*
X0414481Y0254924D01*
X0414455Y0254886D02*
X0409419Y0254886D01*
X0409445Y0254848D02*
X0414428Y0254848D01*
X0414398Y0254811D02*
X0409475Y0254811D01*
X0409513Y0254773D02*
X0414361Y0254773D01*
X0414323Y0254735D02*
X0409551Y0254735D01*
X0409589Y0254697D02*
X0414285Y0254697D01*
X0414247Y0254659D02*
X0409627Y0254659D01*
X0409664Y0254621D02*
X0414209Y0254621D01*
X0414171Y0254583D02*
X0409702Y0254583D01*
X0409740Y0254545D02*
X0414133Y0254545D01*
X0414095Y0254508D02*
X0409778Y0254508D01*
X0409816Y0254470D02*
X0414057Y0254470D01*
X0414020Y0254432D02*
X0409854Y0254432D01*
X0409905Y0254394D02*
X0413969Y0254394D01*
X0413915Y0254356D02*
X0409959Y0254356D01*
X0410013Y0254318D02*
X0413860Y0254318D01*
X0413806Y0254280D02*
X0410067Y0254280D01*
X0410121Y0254242D02*
X0413752Y0254242D01*
X0413698Y0254205D02*
X0410176Y0254205D01*
X0410230Y0254167D02*
X0413644Y0254167D01*
X0413590Y0254129D02*
X0410284Y0254129D01*
X0410346Y0254091D02*
X0413528Y0254091D01*
X0413446Y0254053D02*
X0410427Y0254053D01*
X0410508Y0254015D02*
X0413365Y0254015D01*
X0413284Y0253977D02*
X0410589Y0253977D01*
X0410671Y0253939D02*
X0413203Y0253939D01*
X0413122Y0253901D02*
X0410752Y0253901D01*
X0410834Y0253864D02*
X0413040Y0253864D01*
X0412898Y0253826D02*
X0410975Y0253826D01*
X0411116Y0253788D02*
X0412757Y0253788D01*
X0412616Y0253750D02*
X0411258Y0253750D01*
X0411446Y0253712D02*
X0412427Y0253712D01*
X0411995Y0253674D02*
X0411878Y0253674D01*
X0411937Y0250126D02*
X0412497Y0250076D01*
X0413041Y0249931D01*
X0413551Y0249693D01*
X0414012Y0249371D01*
X0414410Y0248973D01*
X0414732Y0248512D01*
X0414970Y0248002D01*
X0415116Y0247458D01*
X0415165Y0246897D01*
X0415116Y0246337D01*
X0414970Y0245793D01*
X0414732Y0245283D01*
X0414410Y0244822D01*
X0414012Y0244424D01*
X0413551Y0244102D01*
X0413041Y0243864D01*
X0412497Y0243718D01*
X0411937Y0243669D01*
X0411376Y0243718D01*
X0410832Y0243864D01*
X0410323Y0244102D01*
X0409862Y0244424D01*
X0409463Y0244822D01*
X0409141Y0245283D01*
X0408903Y0245793D01*
X0408758Y0246337D01*
X0408708Y0246897D01*
X0408758Y0247458D01*
X0408903Y0248002D01*
X0409141Y0248512D01*
X0409463Y0248973D01*
X0409862Y0249371D01*
X0410323Y0249693D01*
X0410832Y0249931D01*
X0411376Y0250076D01*
X0411937Y0250126D01*
X0411796Y0250113D02*
X0412078Y0250113D01*
X0412501Y0250075D02*
X0411372Y0250075D01*
X0411231Y0250038D02*
X0412643Y0250038D01*
X0412784Y0250000D02*
X0411089Y0250000D01*
X0410948Y0249962D02*
X0412925Y0249962D01*
X0413056Y0249924D02*
X0410818Y0249924D01*
X0410736Y0249886D02*
X0413137Y0249886D01*
X0413218Y0249848D02*
X0410655Y0249848D01*
X0410574Y0249810D02*
X0413300Y0249810D01*
X0413381Y0249772D02*
X0410493Y0249772D01*
X0410411Y0249734D02*
X0413462Y0249734D01*
X0413543Y0249697D02*
X0410330Y0249697D01*
X0410274Y0249659D02*
X0413600Y0249659D01*
X0413654Y0249621D02*
X0410219Y0249621D01*
X0410165Y0249583D02*
X0413708Y0249583D01*
X0413762Y0249545D02*
X0410111Y0249545D01*
X0410057Y0249507D02*
X0413817Y0249507D01*
X0413871Y0249469D02*
X0410003Y0249469D01*
X0409949Y0249431D02*
X0413925Y0249431D01*
X0413979Y0249394D02*
X0409894Y0249394D01*
X0409847Y0249356D02*
X0414027Y0249356D01*
X0414065Y0249318D02*
X0409809Y0249318D01*
X0409771Y0249280D02*
X0414103Y0249280D01*
X0414140Y0249242D02*
X0409733Y0249242D01*
X0409695Y0249204D02*
X0414178Y0249204D01*
X0414216Y0249166D02*
X0409657Y0249166D01*
X0409619Y0249128D02*
X0414254Y0249128D01*
X0414292Y0249091D02*
X0409581Y0249091D01*
X0409544Y0249053D02*
X0414330Y0249053D01*
X0414368Y0249015D02*
X0409506Y0249015D01*
X0409468Y0248977D02*
X0414406Y0248977D01*
X0414433Y0248939D02*
X0409440Y0248939D01*
X0409414Y0248901D02*
X0414460Y0248901D01*
X0414486Y0248863D02*
X0409387Y0248863D01*
X0409361Y0248825D02*
X0414513Y0248825D01*
X0414539Y0248787D02*
X0409334Y0248787D01*
X0409308Y0248750D02*
X0414566Y0248750D01*
X0414592Y0248712D02*
X0409281Y0248712D01*
X0409255Y0248674D02*
X0414619Y0248674D01*
X0414645Y0248636D02*
X0409228Y0248636D01*
X0409202Y0248598D02*
X0414672Y0248598D01*
X0414698Y0248560D02*
X0409175Y0248560D01*
X0409149Y0248522D02*
X0414725Y0248522D01*
X0414745Y0248484D02*
X0409128Y0248484D01*
X0409111Y0248447D02*
X0414763Y0248447D01*
X0414780Y0248409D02*
X0409093Y0248409D01*
X0409075Y0248371D02*
X0414798Y0248371D01*
X0414816Y0248333D02*
X0409058Y0248333D01*
X0409040Y0248295D02*
X0414833Y0248295D01*
X0414851Y0248257D02*
X0409022Y0248257D01*
X0409005Y0248219D02*
X0414869Y0248219D01*
X0414886Y0248181D02*
X0408987Y0248181D01*
X0408969Y0248143D02*
X0414904Y0248143D01*
X0414922Y0248106D02*
X0408952Y0248106D01*
X0408934Y0248068D02*
X0414939Y0248068D01*
X0414957Y0248030D02*
X0408916Y0248030D01*
X0408901Y0247992D02*
X0414973Y0247992D01*
X0414983Y0247954D02*
X0408891Y0247954D01*
X0408880Y0247916D02*
X0414993Y0247916D01*
X0415003Y0247878D02*
X0408870Y0247878D01*
X0408860Y0247840D02*
X0415013Y0247840D01*
X0415024Y0247803D02*
X0408850Y0247803D01*
X0408840Y0247765D02*
X0415034Y0247765D01*
X0415044Y0247727D02*
X0408830Y0247727D01*
X0408819Y0247689D02*
X0415054Y0247689D01*
X0415064Y0247651D02*
X0408809Y0247651D01*
X0408799Y0247613D02*
X0415074Y0247613D01*
X0415084Y0247575D02*
X0408789Y0247575D01*
X0408779Y0247537D02*
X0415095Y0247537D01*
X0415105Y0247499D02*
X0408769Y0247499D01*
X0408759Y0247462D02*
X0415115Y0247462D01*
X0415119Y0247424D02*
X0408755Y0247424D01*
X0408751Y0247386D02*
X0415122Y0247386D01*
X0415126Y0247348D02*
X0408748Y0247348D01*
X0408745Y0247310D02*
X0415129Y0247310D01*
X0415132Y0247272D02*
X0408741Y0247272D01*
X0408738Y0247234D02*
X0415135Y0247234D01*
X0415139Y0247196D02*
X0408735Y0247196D01*
X0408731Y0247159D02*
X0415142Y0247159D01*
X0415145Y0247121D02*
X0408728Y0247121D01*
X0408725Y0247083D02*
X0415149Y0247083D01*
X0415152Y0247045D02*
X0408721Y0247045D01*
X0408718Y0247007D02*
X0415155Y0247007D01*
X0415159Y0246969D02*
X0408715Y0246969D01*
X0408711Y0246931D02*
X0415162Y0246931D01*
X0415165Y0246893D02*
X0408709Y0246893D01*
X0408712Y0246856D02*
X0415161Y0246856D01*
X0415158Y0246818D02*
X0408715Y0246818D01*
X0408719Y0246780D02*
X0415155Y0246780D01*
X0415151Y0246742D02*
X0408722Y0246742D01*
X0408725Y0246704D02*
X0415148Y0246704D01*
X0415145Y0246666D02*
X0408729Y0246666D01*
X0408732Y0246628D02*
X0415141Y0246628D01*
X0415138Y0246590D02*
X0408735Y0246590D01*
X0408739Y0246552D02*
X0415135Y0246552D01*
X0415131Y0246515D02*
X0408742Y0246515D01*
X0408745Y0246477D02*
X0415128Y0246477D01*
X0415125Y0246439D02*
X0408749Y0246439D01*
X0408752Y0246401D02*
X0415121Y0246401D01*
X0415118Y0246363D02*
X0408755Y0246363D01*
X0408761Y0246325D02*
X0415113Y0246325D01*
X0415103Y0246287D02*
X0408771Y0246287D01*
X0408781Y0246249D02*
X0415092Y0246249D01*
X0415082Y0246212D02*
X0408791Y0246212D01*
X0408801Y0246174D02*
X0415072Y0246174D01*
X0415062Y0246136D02*
X0408811Y0246136D01*
X0408822Y0246098D02*
X0415052Y0246098D01*
X0415042Y0246060D02*
X0408832Y0246060D01*
X0408842Y0246022D02*
X0415032Y0246022D01*
X0415021Y0245984D02*
X0408852Y0245984D01*
X0408862Y0245946D02*
X0415011Y0245946D01*
X0415001Y0245908D02*
X0408872Y0245908D01*
X0408882Y0245871D02*
X0414991Y0245871D01*
X0414981Y0245833D02*
X0408893Y0245833D01*
X0408903Y0245795D02*
X0414971Y0245795D01*
X0414953Y0245757D02*
X0408920Y0245757D01*
X0408938Y0245719D02*
X0414936Y0245719D01*
X0414918Y0245681D02*
X0408955Y0245681D01*
X0408973Y0245643D02*
X0414900Y0245643D01*
X0414883Y0245605D02*
X0408991Y0245605D01*
X0409008Y0245568D02*
X0414865Y0245568D01*
X0414847Y0245530D02*
X0409026Y0245530D01*
X0409044Y0245492D02*
X0414830Y0245492D01*
X0414812Y0245454D02*
X0409061Y0245454D01*
X0409079Y0245416D02*
X0414794Y0245416D01*
X0414777Y0245378D02*
X0409097Y0245378D01*
X0409114Y0245340D02*
X0414759Y0245340D01*
X0414741Y0245302D02*
X0409132Y0245302D01*
X0409154Y0245264D02*
X0414719Y0245264D01*
X0414693Y0245227D02*
X0409181Y0245227D01*
X0409207Y0245189D02*
X0414666Y0245189D01*
X0414640Y0245151D02*
X0409234Y0245151D01*
X0409260Y0245113D02*
X0414613Y0245113D01*
X0414587Y0245075D02*
X0409287Y0245075D01*
X0409313Y0245037D02*
X0414560Y0245037D01*
X0414534Y0244999D02*
X0409340Y0244999D01*
X0409366Y0244961D02*
X0414507Y0244961D01*
X0414481Y0244924D02*
X0409393Y0244924D01*
X0409419Y0244886D02*
X0414454Y0244886D01*
X0414428Y0244848D02*
X0409446Y0244848D01*
X0409476Y0244810D02*
X0414398Y0244810D01*
X0414360Y0244772D02*
X0409514Y0244772D01*
X0409552Y0244734D02*
X0414322Y0244734D01*
X0414284Y0244696D02*
X0409589Y0244696D01*
X0409627Y0244658D02*
X0414246Y0244658D01*
X0414208Y0244621D02*
X0409665Y0244621D01*
X0409703Y0244583D02*
X0414170Y0244583D01*
X0414133Y0244545D02*
X0409741Y0244545D01*
X0409779Y0244507D02*
X0414095Y0244507D01*
X0414057Y0244469D02*
X0409817Y0244469D01*
X0409855Y0244431D02*
X0414019Y0244431D01*
X0413968Y0244393D02*
X0409906Y0244393D01*
X0409960Y0244355D02*
X0413914Y0244355D01*
X0413859Y0244317D02*
X0410014Y0244317D01*
X0410068Y0244280D02*
X0413805Y0244280D01*
X0413751Y0244242D02*
X0410122Y0244242D01*
X0410177Y0244204D02*
X0413697Y0244204D01*
X0413643Y0244166D02*
X0410231Y0244166D01*
X0410285Y0244128D02*
X0413589Y0244128D01*
X0413526Y0244090D02*
X0410347Y0244090D01*
X0410428Y0244052D02*
X0413445Y0244052D01*
X0413364Y0244014D02*
X0410510Y0244014D01*
X0410591Y0243977D02*
X0413283Y0243977D01*
X0413201Y0243939D02*
X0410672Y0243939D01*
X0410753Y0243901D02*
X0413120Y0243901D01*
X0413037Y0243863D02*
X0410836Y0243863D01*
X0410978Y0243825D02*
X0412896Y0243825D01*
X0412755Y0243787D02*
X0411119Y0243787D01*
X0411260Y0243749D02*
X0412613Y0243749D01*
X0412419Y0243711D02*
X0411454Y0243711D01*
X0411886Y0243673D02*
X0411988Y0243673D01*
X0411937Y0240126D02*
X0412497Y0240076D01*
X0413041Y0239931D01*
X0413551Y0239693D01*
X0414012Y0239371D01*
X0414410Y0238973D01*
X0414732Y0238512D01*
X0414970Y0238002D01*
X0415116Y0237458D01*
X0415165Y0236897D01*
X0415116Y0236337D01*
X0414970Y0235793D01*
X0414732Y0235283D01*
X0414410Y0234822D01*
X0414012Y0234424D01*
X0413551Y0234102D01*
X0413041Y0233864D01*
X0412497Y0233718D01*
X0411937Y0233669D01*
X0411376Y0233718D01*
X0410832Y0233864D01*
X0410323Y0234102D01*
X0409862Y0234424D01*
X0409463Y0234822D01*
X0409141Y0235283D01*
X0408903Y0235793D01*
X0408758Y0236337D01*
X0408708Y0236897D01*
X0408758Y0237458D01*
X0408903Y0238002D01*
X0409141Y0238512D01*
X0409463Y0238973D01*
X0409862Y0239371D01*
X0410323Y0239693D01*
X0410832Y0239931D01*
X0411376Y0240076D01*
X0411937Y0240126D01*
X0411788Y0240113D02*
X0412086Y0240113D01*
X0412504Y0240075D02*
X0411370Y0240075D01*
X0411228Y0240037D02*
X0412645Y0240037D01*
X0412787Y0239999D02*
X0411087Y0239999D01*
X0410945Y0239961D02*
X0412928Y0239961D01*
X0413057Y0239923D02*
X0410816Y0239923D01*
X0410735Y0239885D02*
X0413139Y0239885D01*
X0413220Y0239847D02*
X0410654Y0239847D01*
X0410572Y0239810D02*
X0413301Y0239810D01*
X0413382Y0239772D02*
X0410491Y0239772D01*
X0410410Y0239734D02*
X0413463Y0239734D01*
X0413545Y0239696D02*
X0410329Y0239696D01*
X0410273Y0239658D02*
X0413601Y0239658D01*
X0413655Y0239620D02*
X0410218Y0239620D01*
X0410164Y0239582D02*
X0413709Y0239582D01*
X0413763Y0239544D02*
X0410110Y0239544D01*
X0410056Y0239507D02*
X0413818Y0239507D01*
X0413872Y0239469D02*
X0410002Y0239469D01*
X0409948Y0239431D02*
X0413926Y0239431D01*
X0413980Y0239393D02*
X0409893Y0239393D01*
X0409846Y0239355D02*
X0414028Y0239355D01*
X0414065Y0239317D02*
X0409808Y0239317D01*
X0409770Y0239279D02*
X0414103Y0239279D01*
X0414141Y0239241D02*
X0409732Y0239241D01*
X0409694Y0239203D02*
X0414179Y0239203D01*
X0414217Y0239166D02*
X0409657Y0239166D01*
X0409619Y0239128D02*
X0414255Y0239128D01*
X0414293Y0239090D02*
X0409581Y0239090D01*
X0409543Y0239052D02*
X0414331Y0239052D01*
X0414368Y0239014D02*
X0409505Y0239014D01*
X0409467Y0238976D02*
X0414406Y0238976D01*
X0414434Y0238938D02*
X0409440Y0238938D01*
X0409413Y0238900D02*
X0414460Y0238900D01*
X0414487Y0238863D02*
X0409387Y0238863D01*
X0409360Y0238825D02*
X0414513Y0238825D01*
X0414540Y0238787D02*
X0409334Y0238787D01*
X0409307Y0238749D02*
X0414566Y0238749D01*
X0414593Y0238711D02*
X0409281Y0238711D01*
X0409254Y0238673D02*
X0414619Y0238673D01*
X0414646Y0238635D02*
X0409228Y0238635D01*
X0409201Y0238597D02*
X0414672Y0238597D01*
X0414699Y0238559D02*
X0409175Y0238559D01*
X0409148Y0238522D02*
X0414725Y0238522D01*
X0414745Y0238484D02*
X0409128Y0238484D01*
X0409110Y0238446D02*
X0414763Y0238446D01*
X0414781Y0238408D02*
X0409093Y0238408D01*
X0409075Y0238370D02*
X0414798Y0238370D01*
X0414816Y0238332D02*
X0409057Y0238332D01*
X0409040Y0238294D02*
X0414834Y0238294D01*
X0414851Y0238256D02*
X0409022Y0238256D01*
X0409004Y0238219D02*
X0414869Y0238219D01*
X0414887Y0238181D02*
X0408987Y0238181D01*
X0408969Y0238143D02*
X0414904Y0238143D01*
X0414922Y0238105D02*
X0408951Y0238105D01*
X0408934Y0238067D02*
X0414940Y0238067D01*
X0414957Y0238029D02*
X0408916Y0238029D01*
X0408900Y0237991D02*
X0414973Y0237991D01*
X0414983Y0237953D02*
X0408890Y0237953D01*
X0408880Y0237916D02*
X0414993Y0237916D01*
X0415003Y0237878D02*
X0408870Y0237878D01*
X0408860Y0237840D02*
X0415014Y0237840D01*
X0415024Y0237802D02*
X0408850Y0237802D01*
X0408840Y0237764D02*
X0415034Y0237764D01*
X0415044Y0237726D02*
X0408829Y0237726D01*
X0408819Y0237688D02*
X0415054Y0237688D01*
X0415064Y0237650D02*
X0408809Y0237650D01*
X0408799Y0237612D02*
X0415074Y0237612D01*
X0415085Y0237575D02*
X0408789Y0237575D01*
X0408779Y0237537D02*
X0415095Y0237537D01*
X0415105Y0237499D02*
X0408769Y0237499D01*
X0408758Y0237461D02*
X0415115Y0237461D01*
X0415119Y0237423D02*
X0408755Y0237423D01*
X0408751Y0237385D02*
X0415122Y0237385D01*
X0415126Y0237347D02*
X0408748Y0237347D01*
X0408745Y0237309D02*
X0415129Y0237309D01*
X0415132Y0237272D02*
X0408741Y0237272D01*
X0408738Y0237234D02*
X0415136Y0237234D01*
X0415139Y0237196D02*
X0408735Y0237196D01*
X0408731Y0237158D02*
X0415142Y0237158D01*
X0415146Y0237120D02*
X0408728Y0237120D01*
X0408725Y0237082D02*
X0415149Y0237082D01*
X0415152Y0237044D02*
X0408721Y0237044D01*
X0408718Y0237006D02*
X0415156Y0237006D01*
X0415159Y0236968D02*
X0408715Y0236968D01*
X0408711Y0236931D02*
X0415162Y0236931D01*
X0415165Y0236893D02*
X0408709Y0236893D01*
X0408712Y0236855D02*
X0415161Y0236855D01*
X0415158Y0236817D02*
X0408715Y0236817D01*
X0408719Y0236779D02*
X0415155Y0236779D01*
X0415151Y0236741D02*
X0408722Y0236741D01*
X0408725Y0236703D02*
X0415148Y0236703D01*
X0415145Y0236665D02*
X0408729Y0236665D01*
X0408732Y0236628D02*
X0415141Y0236628D01*
X0415138Y0236590D02*
X0408735Y0236590D01*
X0408739Y0236552D02*
X0415135Y0236552D01*
X0415131Y0236514D02*
X0408742Y0236514D01*
X0408745Y0236476D02*
X0415128Y0236476D01*
X0415125Y0236438D02*
X0408749Y0236438D01*
X0408752Y0236400D02*
X0415121Y0236400D01*
X0415118Y0236362D02*
X0408755Y0236362D01*
X0408761Y0236324D02*
X0415113Y0236324D01*
X0415102Y0236287D02*
X0408771Y0236287D01*
X0408781Y0236249D02*
X0415092Y0236249D01*
X0415082Y0236211D02*
X0408791Y0236211D01*
X0408801Y0236173D02*
X0415072Y0236173D01*
X0415062Y0236135D02*
X0408812Y0236135D01*
X0408822Y0236097D02*
X0415052Y0236097D01*
X0415042Y0236059D02*
X0408832Y0236059D01*
X0408842Y0236021D02*
X0415031Y0236021D01*
X0415021Y0235984D02*
X0408852Y0235984D01*
X0408862Y0235946D02*
X0415011Y0235946D01*
X0415001Y0235908D02*
X0408873Y0235908D01*
X0408883Y0235870D02*
X0414991Y0235870D01*
X0414981Y0235832D02*
X0408893Y0235832D01*
X0408903Y0235794D02*
X0414970Y0235794D01*
X0414953Y0235756D02*
X0408920Y0235756D01*
X0408938Y0235718D02*
X0414935Y0235718D01*
X0414918Y0235680D02*
X0408956Y0235680D01*
X0408973Y0235643D02*
X0414900Y0235643D01*
X0414882Y0235605D02*
X0408991Y0235605D01*
X0409009Y0235567D02*
X0414865Y0235567D01*
X0414847Y0235529D02*
X0409026Y0235529D01*
X0409044Y0235491D02*
X0414829Y0235491D01*
X0414812Y0235453D02*
X0409062Y0235453D01*
X0409079Y0235415D02*
X0414794Y0235415D01*
X0414776Y0235377D02*
X0409097Y0235377D01*
X0409115Y0235340D02*
X0414759Y0235340D01*
X0414741Y0235302D02*
X0409132Y0235302D01*
X0409155Y0235264D02*
X0414719Y0235264D01*
X0414692Y0235226D02*
X0409181Y0235226D01*
X0409208Y0235188D02*
X0414666Y0235188D01*
X0414639Y0235150D02*
X0409234Y0235150D01*
X0409261Y0235112D02*
X0414613Y0235112D01*
X0414586Y0235074D02*
X0409287Y0235074D01*
X0409314Y0235037D02*
X0414560Y0235037D01*
X0414533Y0234999D02*
X0409340Y0234999D01*
X0409367Y0234961D02*
X0414507Y0234961D01*
X0414480Y0234923D02*
X0409393Y0234923D01*
X0409420Y0234885D02*
X0414454Y0234885D01*
X0414427Y0234847D02*
X0409446Y0234847D01*
X0409476Y0234809D02*
X0414397Y0234809D01*
X0414359Y0234771D02*
X0409514Y0234771D01*
X0409552Y0234733D02*
X0414321Y0234733D01*
X0414283Y0234696D02*
X0409590Y0234696D01*
X0409628Y0234658D02*
X0414245Y0234658D01*
X0414208Y0234620D02*
X0409666Y0234620D01*
X0409704Y0234582D02*
X0414170Y0234582D01*
X0414132Y0234544D02*
X0409742Y0234544D01*
X0409779Y0234506D02*
X0414094Y0234506D01*
X0414056Y0234468D02*
X0409817Y0234468D01*
X0409855Y0234430D02*
X0414018Y0234430D01*
X0413967Y0234393D02*
X0409907Y0234393D01*
X0409961Y0234355D02*
X0413913Y0234355D01*
X0413858Y0234317D02*
X0410015Y0234317D01*
X0410069Y0234279D02*
X0413804Y0234279D01*
X0413750Y0234241D02*
X0410123Y0234241D01*
X0410178Y0234203D02*
X0413696Y0234203D01*
X0413642Y0234165D02*
X0410232Y0234165D01*
X0410286Y0234127D02*
X0413588Y0234127D01*
X0413525Y0234089D02*
X0410349Y0234089D01*
X0410430Y0234052D02*
X0413444Y0234052D01*
X0413362Y0234014D02*
X0410511Y0234014D01*
X0410592Y0233976D02*
X0413281Y0233976D01*
X0413200Y0233938D02*
X0410674Y0233938D01*
X0410755Y0233900D02*
X0413119Y0233900D01*
X0413035Y0233862D02*
X0410839Y0233862D01*
X0410980Y0233824D02*
X0412893Y0233824D01*
X0412752Y0233786D02*
X0411122Y0233786D01*
X0411263Y0233749D02*
X0412611Y0233749D01*
X0412411Y0233711D02*
X0411462Y0233711D01*
X0411894Y0233673D02*
X0411980Y0233673D01*
X0415185Y0230145D02*
X0408689Y0230145D01*
X0408689Y0223649D01*
X0415185Y0223649D01*
X0415185Y0230145D01*
X0415185Y0230112D02*
X0408689Y0230112D01*
X0408689Y0230074D02*
X0415185Y0230074D01*
X0415185Y0230036D02*
X0408689Y0230036D01*
X0408689Y0229998D02*
X0415185Y0229998D01*
X0415185Y0229960D02*
X0408689Y0229960D01*
X0408689Y0229923D02*
X0415185Y0229923D01*
X0415185Y0229885D02*
X0408689Y0229885D01*
X0408689Y0229847D02*
X0415185Y0229847D01*
X0415185Y0229809D02*
X0408689Y0229809D01*
X0408689Y0229771D02*
X0415185Y0229771D01*
X0415185Y0229733D02*
X0408689Y0229733D01*
X0408689Y0229695D02*
X0415185Y0229695D01*
X0415185Y0229657D02*
X0408689Y0229657D01*
X0408689Y0229619D02*
X0415185Y0229619D01*
X0415185Y0229582D02*
X0408689Y0229582D01*
X0408689Y0229544D02*
X0415185Y0229544D01*
X0415185Y0229506D02*
X0408689Y0229506D01*
X0408689Y0229468D02*
X0415185Y0229468D01*
X0415185Y0229430D02*
X0408689Y0229430D01*
X0408689Y0229392D02*
X0415185Y0229392D01*
X0415185Y0229354D02*
X0408689Y0229354D01*
X0408689Y0229316D02*
X0415185Y0229316D01*
X0415185Y0229279D02*
X0408689Y0229279D01*
X0408689Y0229241D02*
X0415185Y0229241D01*
X0415185Y0229203D02*
X0408689Y0229203D01*
X0408689Y0229165D02*
X0415185Y0229165D01*
X0415185Y0229127D02*
X0408689Y0229127D01*
X0408689Y0229089D02*
X0415185Y0229089D01*
X0415185Y0229051D02*
X0408689Y0229051D01*
X0408689Y0229013D02*
X0415185Y0229013D01*
X0415185Y0228975D02*
X0408689Y0228975D01*
X0408689Y0228938D02*
X0415185Y0228938D01*
X0415185Y0228900D02*
X0408689Y0228900D01*
X0408689Y0228862D02*
X0415185Y0228862D01*
X0415185Y0228824D02*
X0408689Y0228824D01*
X0408689Y0228786D02*
X0415185Y0228786D01*
X0415185Y0228748D02*
X0408689Y0228748D01*
X0408689Y0228710D02*
X0415185Y0228710D01*
X0415185Y0228672D02*
X0408689Y0228672D01*
X0408689Y0228635D02*
X0415185Y0228635D01*
X0415185Y0228597D02*
X0408689Y0228597D01*
X0408689Y0228559D02*
X0415185Y0228559D01*
X0415185Y0228521D02*
X0408689Y0228521D01*
X0408689Y0228483D02*
X0415185Y0228483D01*
X0415185Y0228445D02*
X0408689Y0228445D01*
X0408689Y0228407D02*
X0415185Y0228407D01*
X0415185Y0228369D02*
X0408689Y0228369D01*
X0408689Y0228332D02*
X0415185Y0228332D01*
X0415185Y0228294D02*
X0408689Y0228294D01*
X0408689Y0228256D02*
X0415185Y0228256D01*
X0415185Y0228218D02*
X0408689Y0228218D01*
X0408689Y0228180D02*
X0415185Y0228180D01*
X0415185Y0228142D02*
X0408689Y0228142D01*
X0408689Y0228104D02*
X0415185Y0228104D01*
X0415185Y0228066D02*
X0408689Y0228066D01*
X0408689Y0228028D02*
X0415185Y0228028D01*
X0415185Y0227991D02*
X0408689Y0227991D01*
X0408689Y0227953D02*
X0415185Y0227953D01*
X0415185Y0227915D02*
X0408689Y0227915D01*
X0408689Y0227877D02*
X0415185Y0227877D01*
X0415185Y0227839D02*
X0408689Y0227839D01*
X0408689Y0227801D02*
X0415185Y0227801D01*
X0415185Y0227763D02*
X0408689Y0227763D01*
X0408689Y0227725D02*
X0415185Y0227725D01*
X0415185Y0227688D02*
X0408689Y0227688D01*
X0408689Y0227650D02*
X0415185Y0227650D01*
X0415185Y0227612D02*
X0408689Y0227612D01*
X0408689Y0227574D02*
X0415185Y0227574D01*
X0415185Y0227536D02*
X0408689Y0227536D01*
X0408689Y0227498D02*
X0415185Y0227498D01*
X0415185Y0227460D02*
X0408689Y0227460D01*
X0408689Y0227422D02*
X0415185Y0227422D01*
X0415185Y0227384D02*
X0408689Y0227384D01*
X0408689Y0227347D02*
X0415185Y0227347D01*
X0415185Y0227309D02*
X0408689Y0227309D01*
X0408689Y0227271D02*
X0415185Y0227271D01*
X0415185Y0227233D02*
X0408689Y0227233D01*
X0408689Y0227195D02*
X0415185Y0227195D01*
X0415185Y0227157D02*
X0408689Y0227157D01*
X0408689Y0227119D02*
X0415185Y0227119D01*
X0415185Y0227081D02*
X0408689Y0227081D01*
X0408689Y0227044D02*
X0415185Y0227044D01*
X0415185Y0227006D02*
X0408689Y0227006D01*
X0408689Y0226968D02*
X0415185Y0226968D01*
X0415185Y0226930D02*
X0408689Y0226930D01*
X0408689Y0226892D02*
X0415185Y0226892D01*
X0415185Y0226854D02*
X0408689Y0226854D01*
X0408689Y0226816D02*
X0415185Y0226816D01*
X0415185Y0226778D02*
X0408689Y0226778D01*
X0408689Y0226740D02*
X0415185Y0226740D01*
X0415185Y0226703D02*
X0408689Y0226703D01*
X0408689Y0226665D02*
X0415185Y0226665D01*
X0415185Y0226627D02*
X0408689Y0226627D01*
X0408689Y0226589D02*
X0415185Y0226589D01*
X0415185Y0226551D02*
X0408689Y0226551D01*
X0408689Y0226513D02*
X0415185Y0226513D01*
X0415185Y0226475D02*
X0408689Y0226475D01*
X0408689Y0226437D02*
X0415185Y0226437D01*
X0415185Y0226400D02*
X0408689Y0226400D01*
X0408689Y0226362D02*
X0415185Y0226362D01*
X0415185Y0226324D02*
X0408689Y0226324D01*
X0408689Y0226286D02*
X0415185Y0226286D01*
X0415185Y0226248D02*
X0408689Y0226248D01*
X0408689Y0226210D02*
X0415185Y0226210D01*
X0415185Y0226172D02*
X0408689Y0226172D01*
X0408689Y0226134D02*
X0415185Y0226134D01*
X0415185Y0226097D02*
X0408689Y0226097D01*
X0408689Y0226059D02*
X0415185Y0226059D01*
X0415185Y0226021D02*
X0408689Y0226021D01*
X0408689Y0225983D02*
X0415185Y0225983D01*
X0415185Y0225945D02*
X0408689Y0225945D01*
X0408689Y0225907D02*
X0415185Y0225907D01*
X0415185Y0225869D02*
X0408689Y0225869D01*
X0408689Y0225831D02*
X0415185Y0225831D01*
X0415185Y0225793D02*
X0408689Y0225793D01*
X0408689Y0225756D02*
X0415185Y0225756D01*
X0415185Y0225718D02*
X0408689Y0225718D01*
X0408689Y0225680D02*
X0415185Y0225680D01*
X0415185Y0225642D02*
X0408689Y0225642D01*
X0408689Y0225604D02*
X0415185Y0225604D01*
X0415185Y0225566D02*
X0408689Y0225566D01*
X0408689Y0225528D02*
X0415185Y0225528D01*
X0415185Y0225490D02*
X0408689Y0225490D01*
X0408689Y0225453D02*
X0415185Y0225453D01*
X0415185Y0225415D02*
X0408689Y0225415D01*
X0408689Y0225377D02*
X0415185Y0225377D01*
X0415185Y0225339D02*
X0408689Y0225339D01*
X0408689Y0225301D02*
X0415185Y0225301D01*
X0415185Y0225263D02*
X0408689Y0225263D01*
X0408689Y0225225D02*
X0415185Y0225225D01*
X0415185Y0225187D02*
X0408689Y0225187D01*
X0408689Y0225149D02*
X0415185Y0225149D01*
X0415185Y0225112D02*
X0408689Y0225112D01*
X0408689Y0225074D02*
X0415185Y0225074D01*
X0415185Y0225036D02*
X0408689Y0225036D01*
X0408689Y0224998D02*
X0415185Y0224998D01*
X0415185Y0224960D02*
X0408689Y0224960D01*
X0408689Y0224922D02*
X0415185Y0224922D01*
X0415185Y0224884D02*
X0408689Y0224884D01*
X0408689Y0224846D02*
X0415185Y0224846D01*
X0415185Y0224809D02*
X0408689Y0224809D01*
X0408689Y0224771D02*
X0415185Y0224771D01*
X0415185Y0224733D02*
X0408689Y0224733D01*
X0408689Y0224695D02*
X0415185Y0224695D01*
X0415185Y0224657D02*
X0408689Y0224657D01*
X0408689Y0224619D02*
X0415185Y0224619D01*
X0415185Y0224581D02*
X0408689Y0224581D01*
X0408689Y0224543D02*
X0415185Y0224543D01*
X0415185Y0224505D02*
X0408689Y0224505D01*
X0408689Y0224468D02*
X0415185Y0224468D01*
X0415185Y0224430D02*
X0408689Y0224430D01*
X0408689Y0224392D02*
X0415185Y0224392D01*
X0415185Y0224354D02*
X0408689Y0224354D01*
X0408689Y0224316D02*
X0415185Y0224316D01*
X0415185Y0224278D02*
X0408689Y0224278D01*
X0408689Y0224240D02*
X0415185Y0224240D01*
X0415185Y0224202D02*
X0408689Y0224202D01*
X0408689Y0224165D02*
X0415185Y0224165D01*
X0415185Y0224127D02*
X0408689Y0224127D01*
X0408689Y0224089D02*
X0415185Y0224089D01*
X0415185Y0224051D02*
X0408689Y0224051D01*
X0408689Y0224013D02*
X0415185Y0224013D01*
X0415185Y0223975D02*
X0408689Y0223975D01*
X0408689Y0223937D02*
X0415185Y0223937D01*
X0415185Y0223899D02*
X0408689Y0223899D01*
X0408689Y0223862D02*
X0415185Y0223862D01*
X0415185Y0223824D02*
X0408689Y0223824D01*
X0408689Y0223786D02*
X0415185Y0223786D01*
X0415185Y0223748D02*
X0408689Y0223748D01*
X0408689Y0223710D02*
X0415185Y0223710D01*
X0415185Y0223672D02*
X0408689Y0223672D01*
X0408758Y0297458D02*
X0408903Y0298002D01*
X0409141Y0298512D01*
X0409463Y0298973D01*
X0409862Y0299371D01*
X0410323Y0299693D01*
X0410832Y0299931D01*
X0411376Y0300076D01*
X0411937Y0300126D01*
X0411835Y0300117D02*
X0412039Y0300117D01*
X0412470Y0300079D02*
X0411403Y0300079D01*
X0411244Y0300041D02*
X0412630Y0300041D01*
X0412771Y0300003D02*
X0411102Y0300003D01*
X0410961Y0299965D02*
X0412913Y0299965D01*
X0413048Y0299927D02*
X0410825Y0299927D01*
X0410744Y0299889D02*
X0413130Y0299889D01*
X0413211Y0299852D02*
X0410663Y0299852D01*
X0410581Y0299814D02*
X0413292Y0299814D01*
X0413373Y0299776D02*
X0410500Y0299776D01*
X0410419Y0299738D02*
X0413455Y0299738D01*
X0413536Y0299700D02*
X0410338Y0299700D01*
X0410278Y0299662D02*
X0413595Y0299662D01*
X0413649Y0299624D02*
X0410224Y0299624D01*
X0410170Y0299586D02*
X0413703Y0299586D01*
X0413757Y0299549D02*
X0410116Y0299549D01*
X0410062Y0299511D02*
X0413812Y0299511D01*
X0413866Y0299473D02*
X0410008Y0299473D01*
X0409953Y0299435D02*
X0413920Y0299435D01*
X0413974Y0299397D02*
X0409899Y0299397D01*
X0409850Y0299359D02*
X0414023Y0299359D01*
X0414061Y0299321D02*
X0409812Y0299321D01*
X0409774Y0299283D02*
X0414099Y0299283D01*
X0414137Y0299245D02*
X0409736Y0299245D01*
X0409699Y0299208D02*
X0414175Y0299208D01*
X0414213Y0299170D02*
X0409661Y0299170D01*
X0409623Y0299132D02*
X0414251Y0299132D01*
X0414289Y0299094D02*
X0409585Y0299094D01*
X0409547Y0299056D02*
X0414326Y0299056D01*
X0414364Y0299018D02*
X0409509Y0299018D01*
X0409471Y0298980D02*
X0414402Y0298980D01*
X0414431Y0298942D02*
X0409442Y0298942D01*
X0409416Y0298905D02*
X0414458Y0298905D01*
X0414484Y0298867D02*
X0409389Y0298867D01*
X0409363Y0298829D02*
X0414511Y0298829D01*
X0414537Y0298791D02*
X0409336Y0298791D01*
X0409310Y0298753D02*
X0414563Y0298753D01*
X0414590Y0298715D02*
X0409283Y0298715D01*
X0409257Y0298677D02*
X0414616Y0298677D01*
X0414643Y0298639D02*
X0409230Y0298639D01*
X0409204Y0298602D02*
X0414669Y0298602D01*
X0414696Y0298564D02*
X0409177Y0298564D01*
X0409151Y0298526D02*
X0414722Y0298526D01*
X0414743Y0298488D02*
X0409130Y0298488D01*
X0409112Y0298450D02*
X0414761Y0298450D01*
X0414779Y0298412D02*
X0409095Y0298412D01*
X0409077Y0298374D02*
X0414796Y0298374D01*
X0414814Y0298336D02*
X0409059Y0298336D01*
X0409042Y0298298D02*
X0414832Y0298298D01*
X0414849Y0298261D02*
X0409024Y0298261D01*
X0409006Y0298223D02*
X0414867Y0298223D01*
X0414885Y0298185D02*
X0408989Y0298185D01*
X0408971Y0298147D02*
X0414902Y0298147D01*
X0414920Y0298109D02*
X0408953Y0298109D01*
X0408936Y0298071D02*
X0414938Y0298071D01*
X0414955Y0298033D02*
X0408918Y0298033D01*
X0408902Y0297995D02*
X0414972Y0297995D01*
X0414982Y0297958D02*
X0408891Y0297958D01*
X0408881Y0297920D02*
X0414992Y0297920D01*
X0415002Y0297882D02*
X0408871Y0297882D01*
X0408861Y0297844D02*
X0415012Y0297844D01*
X0415023Y0297806D02*
X0408851Y0297806D01*
X0408841Y0297768D02*
X0415033Y0297768D01*
X0415043Y0297730D02*
X0408831Y0297730D01*
X0408820Y0297692D02*
X0415053Y0297692D01*
X0415063Y0297654D02*
X0408810Y0297654D01*
X0408800Y0297617D02*
X0415073Y0297617D01*
X0415084Y0297579D02*
X0408790Y0297579D01*
X0408780Y0297541D02*
X0415094Y0297541D01*
X0415104Y0297503D02*
X0408770Y0297503D01*
X0409178Y0318565D02*
X0414695Y0318565D01*
X0414669Y0318603D02*
X0409205Y0318603D01*
X0409231Y0318641D02*
X0414642Y0318641D01*
X0414616Y0318679D02*
X0409258Y0318679D01*
X0409284Y0318717D02*
X0414589Y0318717D01*
X0414563Y0318754D02*
X0409311Y0318754D01*
X0409337Y0318792D02*
X0414536Y0318792D01*
X0414510Y0318830D02*
X0409364Y0318830D01*
X0409390Y0318868D02*
X0414483Y0318868D01*
X0414457Y0318906D02*
X0409417Y0318906D01*
X0409443Y0318944D02*
X0414430Y0318944D01*
X0414401Y0318982D02*
X0409473Y0318982D01*
X0409511Y0319020D02*
X0414363Y0319020D01*
X0414325Y0319057D02*
X0409548Y0319057D01*
X0409586Y0319095D02*
X0414287Y0319095D01*
X0414249Y0319133D02*
X0409624Y0319133D01*
X0409662Y0319171D02*
X0414211Y0319171D01*
X0414174Y0319209D02*
X0409700Y0319209D01*
X0409738Y0319247D02*
X0414136Y0319247D01*
X0414098Y0319285D02*
X0409776Y0319285D01*
X0409814Y0319323D02*
X0414060Y0319323D01*
X0414022Y0319361D02*
X0409851Y0319361D01*
X0409901Y0319398D02*
X0413972Y0319398D01*
X0413918Y0319436D02*
X0409955Y0319436D01*
X0410010Y0319474D02*
X0413864Y0319474D01*
X0413810Y0319512D02*
X0410064Y0319512D01*
X0410118Y0319550D02*
X0413756Y0319550D01*
X0413701Y0319588D02*
X0410172Y0319588D01*
X0410226Y0319626D02*
X0413647Y0319626D01*
X0413593Y0319664D02*
X0410280Y0319664D01*
X0410341Y0319701D02*
X0413533Y0319701D01*
X0413452Y0319739D02*
X0410422Y0319739D01*
X0410503Y0319777D02*
X0413370Y0319777D01*
X0413289Y0319815D02*
X0410584Y0319815D01*
X0410665Y0319853D02*
X0413208Y0319853D01*
X0413127Y0319891D02*
X0410747Y0319891D01*
X0410828Y0319929D02*
X0413046Y0319929D01*
X0412907Y0319967D02*
X0410966Y0319967D01*
X0411107Y0320004D02*
X0412766Y0320004D01*
X0412625Y0320042D02*
X0411249Y0320042D01*
X0411419Y0320080D02*
X0412454Y0320080D01*
X0412023Y0320118D02*
X0411851Y0320118D01*
X0212311Y0296799D02*
X0212311Y0290303D01*
X0205815Y0290303D01*
X0205815Y0296799D01*
X0212311Y0296799D01*
X0212311Y0296783D02*
X0205815Y0296783D01*
X0205815Y0296745D02*
X0212311Y0296745D01*
X0212311Y0296707D02*
X0205815Y0296707D01*
X0205815Y0296670D02*
X0212311Y0296670D01*
X0212311Y0296632D02*
X0205815Y0296632D01*
X0205815Y0296594D02*
X0212311Y0296594D01*
X0212311Y0296556D02*
X0205815Y0296556D01*
X0205815Y0296518D02*
X0212311Y0296518D01*
X0212311Y0296480D02*
X0205815Y0296480D01*
X0205815Y0296442D02*
X0212311Y0296442D01*
X0212311Y0296404D02*
X0205815Y0296404D01*
X0205815Y0296366D02*
X0212311Y0296366D01*
X0212311Y0296329D02*
X0205815Y0296329D01*
X0205815Y0296291D02*
X0212311Y0296291D01*
X0212311Y0296253D02*
X0205815Y0296253D01*
X0205815Y0296215D02*
X0212311Y0296215D01*
X0212311Y0296177D02*
X0205815Y0296177D01*
X0205815Y0296139D02*
X0212311Y0296139D01*
X0212311Y0296101D02*
X0205815Y0296101D01*
X0205815Y0296063D02*
X0212311Y0296063D01*
X0212311Y0296026D02*
X0205815Y0296026D01*
X0205815Y0295988D02*
X0212311Y0295988D01*
X0212311Y0295950D02*
X0205815Y0295950D01*
X0205815Y0295912D02*
X0212311Y0295912D01*
X0212311Y0295874D02*
X0205815Y0295874D01*
X0205815Y0295836D02*
X0212311Y0295836D01*
X0212311Y0295798D02*
X0205815Y0295798D01*
X0205815Y0295760D02*
X0212311Y0295760D01*
X0212311Y0295723D02*
X0205815Y0295723D01*
X0205815Y0295685D02*
X0212311Y0295685D01*
X0212311Y0295647D02*
X0205815Y0295647D01*
X0205815Y0295609D02*
X0212311Y0295609D01*
X0212311Y0295571D02*
X0205815Y0295571D01*
X0205815Y0295533D02*
X0212311Y0295533D01*
X0212311Y0295495D02*
X0205815Y0295495D01*
X0205815Y0295457D02*
X0212311Y0295457D01*
X0212311Y0295419D02*
X0205815Y0295419D01*
X0205815Y0295382D02*
X0212311Y0295382D01*
X0212311Y0295344D02*
X0205815Y0295344D01*
X0205815Y0295306D02*
X0212311Y0295306D01*
X0212311Y0295268D02*
X0205815Y0295268D01*
X0205815Y0295230D02*
X0212311Y0295230D01*
X0212311Y0295192D02*
X0205815Y0295192D01*
X0205815Y0295154D02*
X0212311Y0295154D01*
X0212311Y0295116D02*
X0205815Y0295116D01*
X0205815Y0295079D02*
X0212311Y0295079D01*
X0212311Y0295041D02*
X0205815Y0295041D01*
X0205815Y0295003D02*
X0212311Y0295003D01*
X0212311Y0294965D02*
X0205815Y0294965D01*
X0205815Y0294927D02*
X0212311Y0294927D01*
X0212311Y0294889D02*
X0205815Y0294889D01*
X0205815Y0294851D02*
X0212311Y0294851D01*
X0212311Y0294813D02*
X0205815Y0294813D01*
X0205815Y0294775D02*
X0212311Y0294775D01*
X0212311Y0294738D02*
X0205815Y0294738D01*
X0205815Y0294700D02*
X0212311Y0294700D01*
X0212311Y0294662D02*
X0205815Y0294662D01*
X0205815Y0294624D02*
X0212311Y0294624D01*
X0212311Y0294586D02*
X0205815Y0294586D01*
X0205815Y0294548D02*
X0212311Y0294548D01*
X0212311Y0294510D02*
X0205815Y0294510D01*
X0205815Y0294472D02*
X0212311Y0294472D01*
X0212311Y0294435D02*
X0205815Y0294435D01*
X0205815Y0294397D02*
X0212311Y0294397D01*
X0212311Y0294359D02*
X0205815Y0294359D01*
X0205815Y0294321D02*
X0212311Y0294321D01*
X0212311Y0294283D02*
X0205815Y0294283D01*
X0205815Y0294245D02*
X0212311Y0294245D01*
X0212311Y0294207D02*
X0205815Y0294207D01*
X0205815Y0294169D02*
X0212311Y0294169D01*
X0212311Y0294131D02*
X0205815Y0294131D01*
X0205815Y0294094D02*
X0212311Y0294094D01*
X0212311Y0294056D02*
X0205815Y0294056D01*
X0205815Y0294018D02*
X0212311Y0294018D01*
X0212311Y0293980D02*
X0205815Y0293980D01*
X0205815Y0293942D02*
X0212311Y0293942D01*
X0212311Y0293904D02*
X0205815Y0293904D01*
X0205815Y0293866D02*
X0212311Y0293866D01*
X0212311Y0293828D02*
X0205815Y0293828D01*
X0205815Y0293791D02*
X0212311Y0293791D01*
X0212311Y0293753D02*
X0205815Y0293753D01*
X0205815Y0293715D02*
X0212311Y0293715D01*
X0212311Y0293677D02*
X0205815Y0293677D01*
X0205815Y0293639D02*
X0212311Y0293639D01*
X0212311Y0293601D02*
X0205815Y0293601D01*
X0205815Y0293563D02*
X0212311Y0293563D01*
X0212311Y0293525D02*
X0205815Y0293525D01*
X0205815Y0293488D02*
X0212311Y0293488D01*
X0212311Y0293450D02*
X0205815Y0293450D01*
X0205815Y0293412D02*
X0212311Y0293412D01*
X0212311Y0293374D02*
X0205815Y0293374D01*
X0205815Y0293336D02*
X0212311Y0293336D01*
X0212311Y0293298D02*
X0205815Y0293298D01*
X0205815Y0293260D02*
X0212311Y0293260D01*
X0212311Y0293222D02*
X0205815Y0293222D01*
X0205815Y0293184D02*
X0212311Y0293184D01*
X0212311Y0293147D02*
X0205815Y0293147D01*
X0205815Y0293109D02*
X0212311Y0293109D01*
X0212311Y0293071D02*
X0205815Y0293071D01*
X0205815Y0293033D02*
X0212311Y0293033D01*
X0212311Y0292995D02*
X0205815Y0292995D01*
X0205815Y0292957D02*
X0212311Y0292957D01*
X0212311Y0292919D02*
X0205815Y0292919D01*
X0205815Y0292881D02*
X0212311Y0292881D01*
X0212311Y0292844D02*
X0205815Y0292844D01*
X0205815Y0292806D02*
X0212311Y0292806D01*
X0212311Y0292768D02*
X0205815Y0292768D01*
X0205815Y0292730D02*
X0212311Y0292730D01*
X0212311Y0292692D02*
X0205815Y0292692D01*
X0205815Y0292654D02*
X0212311Y0292654D01*
X0212311Y0292616D02*
X0205815Y0292616D01*
X0205815Y0292578D02*
X0212311Y0292578D01*
X0212311Y0292540D02*
X0205815Y0292540D01*
X0205815Y0292503D02*
X0212311Y0292503D01*
X0212311Y0292465D02*
X0205815Y0292465D01*
X0205815Y0292427D02*
X0212311Y0292427D01*
X0212311Y0292389D02*
X0205815Y0292389D01*
X0205815Y0292351D02*
X0212311Y0292351D01*
X0212311Y0292313D02*
X0205815Y0292313D01*
X0205815Y0292275D02*
X0212311Y0292275D01*
X0212311Y0292237D02*
X0205815Y0292237D01*
X0205815Y0292200D02*
X0212311Y0292200D01*
X0212311Y0292162D02*
X0205815Y0292162D01*
X0205815Y0292124D02*
X0212311Y0292124D01*
X0212311Y0292086D02*
X0205815Y0292086D01*
X0205815Y0292048D02*
X0212311Y0292048D01*
X0212311Y0292010D02*
X0205815Y0292010D01*
X0205815Y0291972D02*
X0212311Y0291972D01*
X0212311Y0291934D02*
X0205815Y0291934D01*
X0205815Y0291896D02*
X0212311Y0291896D01*
X0212311Y0291859D02*
X0205815Y0291859D01*
X0205815Y0291821D02*
X0212311Y0291821D01*
X0212311Y0291783D02*
X0205815Y0291783D01*
X0205815Y0291745D02*
X0212311Y0291745D01*
X0212311Y0291707D02*
X0205815Y0291707D01*
X0205815Y0291669D02*
X0212311Y0291669D01*
X0212311Y0291631D02*
X0205815Y0291631D01*
X0205815Y0291593D02*
X0212311Y0291593D01*
X0212311Y0291556D02*
X0205815Y0291556D01*
X0205815Y0291518D02*
X0212311Y0291518D01*
X0212311Y0291480D02*
X0205815Y0291480D01*
X0205815Y0291442D02*
X0212311Y0291442D01*
X0212311Y0291404D02*
X0205815Y0291404D01*
X0205815Y0291366D02*
X0212311Y0291366D01*
X0212311Y0291328D02*
X0205815Y0291328D01*
X0205815Y0291290D02*
X0212311Y0291290D01*
X0212311Y0291253D02*
X0205815Y0291253D01*
X0205815Y0291215D02*
X0212311Y0291215D01*
X0212311Y0291177D02*
X0205815Y0291177D01*
X0205815Y0291139D02*
X0212311Y0291139D01*
X0212311Y0291101D02*
X0205815Y0291101D01*
X0205815Y0291063D02*
X0212311Y0291063D01*
X0212311Y0291025D02*
X0205815Y0291025D01*
X0205815Y0290987D02*
X0212311Y0290987D01*
X0212311Y0290949D02*
X0205815Y0290949D01*
X0205815Y0290912D02*
X0212311Y0290912D01*
X0212311Y0290874D02*
X0205815Y0290874D01*
X0205815Y0290836D02*
X0212311Y0290836D01*
X0212311Y0290798D02*
X0205815Y0290798D01*
X0205815Y0290760D02*
X0212311Y0290760D01*
X0212311Y0290722D02*
X0205815Y0290722D01*
X0205815Y0290684D02*
X0212311Y0290684D01*
X0212311Y0290646D02*
X0205815Y0290646D01*
X0205815Y0290609D02*
X0212311Y0290609D01*
X0212311Y0290571D02*
X0205815Y0290571D01*
X0205815Y0290533D02*
X0212311Y0290533D01*
X0212311Y0290495D02*
X0205815Y0290495D01*
X0205815Y0290457D02*
X0212311Y0290457D01*
X0212311Y0290419D02*
X0205815Y0290419D01*
X0205815Y0290381D02*
X0212311Y0290381D01*
X0212311Y0290343D02*
X0205815Y0290343D01*
X0205815Y0290305D02*
X0212311Y0290305D01*
X0202242Y0292990D02*
X0202291Y0293551D01*
X0202242Y0294112D01*
X0202096Y0294655D01*
X0201858Y0295165D01*
X0201536Y0295626D01*
X0201138Y0296024D01*
X0200677Y0296347D01*
X0200167Y0296584D01*
X0199623Y0296730D01*
X0199063Y0296779D01*
X0198502Y0296730D01*
X0197958Y0296584D01*
X0197449Y0296347D01*
X0196988Y0296024D01*
X0196589Y0295626D01*
X0196267Y0295165D01*
X0196029Y0294655D01*
X0195884Y0294112D01*
X0195834Y0293551D01*
X0195884Y0292990D01*
X0196029Y0292447D01*
X0196267Y0291937D01*
X0196589Y0291476D01*
X0196988Y0291078D01*
X0197449Y0290755D01*
X0197958Y0290517D01*
X0198502Y0290372D01*
X0199063Y0290323D01*
X0199623Y0290372D01*
X0200167Y0290517D01*
X0200677Y0290755D01*
X0201138Y0291078D01*
X0201536Y0291476D01*
X0201858Y0291937D01*
X0202096Y0292447D01*
X0202242Y0292990D01*
X0202242Y0292995D02*
X0195883Y0292995D01*
X0195880Y0293033D02*
X0202246Y0293033D01*
X0202249Y0293071D02*
X0195877Y0293071D01*
X0195873Y0293109D02*
X0202252Y0293109D01*
X0202256Y0293147D02*
X0195870Y0293147D01*
X0195867Y0293184D02*
X0202259Y0293184D01*
X0202262Y0293222D02*
X0195863Y0293222D01*
X0195860Y0293260D02*
X0202266Y0293260D01*
X0202269Y0293298D02*
X0195857Y0293298D01*
X0195853Y0293336D02*
X0202272Y0293336D01*
X0202276Y0293374D02*
X0195850Y0293374D01*
X0195847Y0293412D02*
X0202279Y0293412D01*
X0202282Y0293450D02*
X0195843Y0293450D01*
X0195840Y0293488D02*
X0202285Y0293488D01*
X0202289Y0293525D02*
X0195837Y0293525D01*
X0195835Y0293563D02*
X0202290Y0293563D01*
X0202287Y0293601D02*
X0195839Y0293601D01*
X0195842Y0293639D02*
X0202283Y0293639D01*
X0202280Y0293677D02*
X0195845Y0293677D01*
X0195849Y0293715D02*
X0202277Y0293715D01*
X0202273Y0293753D02*
X0195852Y0293753D01*
X0195855Y0293791D02*
X0202270Y0293791D01*
X0202267Y0293828D02*
X0195859Y0293828D01*
X0195862Y0293866D02*
X0202263Y0293866D01*
X0202260Y0293904D02*
X0195865Y0293904D01*
X0195869Y0293942D02*
X0202257Y0293942D01*
X0202253Y0293980D02*
X0195872Y0293980D01*
X0195875Y0294018D02*
X0202250Y0294018D01*
X0202247Y0294056D02*
X0195879Y0294056D01*
X0195882Y0294094D02*
X0202243Y0294094D01*
X0202237Y0294131D02*
X0195889Y0294131D01*
X0195899Y0294169D02*
X0202226Y0294169D01*
X0202216Y0294207D02*
X0195909Y0294207D01*
X0195919Y0294245D02*
X0202206Y0294245D01*
X0202196Y0294283D02*
X0195930Y0294283D01*
X0195940Y0294321D02*
X0202186Y0294321D01*
X0202176Y0294359D02*
X0195950Y0294359D01*
X0195960Y0294397D02*
X0202165Y0294397D01*
X0202155Y0294435D02*
X0195970Y0294435D01*
X0195980Y0294472D02*
X0202145Y0294472D01*
X0202135Y0294510D02*
X0195990Y0294510D01*
X0196001Y0294548D02*
X0202125Y0294548D01*
X0202115Y0294586D02*
X0196011Y0294586D01*
X0196021Y0294624D02*
X0202105Y0294624D01*
X0202093Y0294662D02*
X0196032Y0294662D01*
X0196050Y0294700D02*
X0202075Y0294700D01*
X0202058Y0294738D02*
X0196068Y0294738D01*
X0196085Y0294775D02*
X0202040Y0294775D01*
X0202022Y0294813D02*
X0196103Y0294813D01*
X0196121Y0294851D02*
X0202005Y0294851D01*
X0201987Y0294889D02*
X0196138Y0294889D01*
X0196156Y0294927D02*
X0201969Y0294927D01*
X0201952Y0294965D02*
X0196174Y0294965D01*
X0196191Y0295003D02*
X0201934Y0295003D01*
X0201916Y0295041D02*
X0196209Y0295041D01*
X0196227Y0295079D02*
X0201899Y0295079D01*
X0201881Y0295116D02*
X0196244Y0295116D01*
X0196262Y0295154D02*
X0201863Y0295154D01*
X0201839Y0295192D02*
X0196286Y0295192D01*
X0196312Y0295230D02*
X0201813Y0295230D01*
X0201786Y0295268D02*
X0196339Y0295268D01*
X0196365Y0295306D02*
X0201760Y0295306D01*
X0201733Y0295344D02*
X0196392Y0295344D01*
X0196418Y0295382D02*
X0201707Y0295382D01*
X0201680Y0295419D02*
X0196445Y0295419D01*
X0196471Y0295457D02*
X0201654Y0295457D01*
X0201627Y0295495D02*
X0196498Y0295495D01*
X0196524Y0295533D02*
X0201601Y0295533D01*
X0201574Y0295571D02*
X0196551Y0295571D01*
X0196577Y0295609D02*
X0201548Y0295609D01*
X0201515Y0295647D02*
X0196610Y0295647D01*
X0196648Y0295685D02*
X0201477Y0295685D01*
X0201440Y0295723D02*
X0196686Y0295723D01*
X0196724Y0295760D02*
X0201402Y0295760D01*
X0201364Y0295798D02*
X0196762Y0295798D01*
X0196800Y0295836D02*
X0201326Y0295836D01*
X0201288Y0295874D02*
X0196837Y0295874D01*
X0196875Y0295912D02*
X0201250Y0295912D01*
X0201212Y0295950D02*
X0196913Y0295950D01*
X0196951Y0295988D02*
X0201174Y0295988D01*
X0201136Y0296026D02*
X0196990Y0296026D01*
X0197044Y0296063D02*
X0201082Y0296063D01*
X0201028Y0296101D02*
X0197098Y0296101D01*
X0197152Y0296139D02*
X0200973Y0296139D01*
X0200919Y0296177D02*
X0197206Y0296177D01*
X0197260Y0296215D02*
X0200865Y0296215D01*
X0200811Y0296253D02*
X0197315Y0296253D01*
X0197369Y0296291D02*
X0200757Y0296291D01*
X0200703Y0296329D02*
X0197423Y0296329D01*
X0197491Y0296366D02*
X0200634Y0296366D01*
X0200553Y0296404D02*
X0197572Y0296404D01*
X0197654Y0296442D02*
X0200472Y0296442D01*
X0200391Y0296480D02*
X0197735Y0296480D01*
X0197816Y0296518D02*
X0200309Y0296518D01*
X0200228Y0296556D02*
X0197897Y0296556D01*
X0197994Y0296594D02*
X0200132Y0296594D01*
X0199990Y0296632D02*
X0198135Y0296632D01*
X0198276Y0296670D02*
X0199849Y0296670D01*
X0199708Y0296707D02*
X0198418Y0296707D01*
X0198676Y0296745D02*
X0199449Y0296745D01*
X0202233Y0292957D02*
X0195892Y0292957D01*
X0195903Y0292919D02*
X0202223Y0292919D01*
X0202213Y0292881D02*
X0195913Y0292881D01*
X0195923Y0292844D02*
X0202203Y0292844D01*
X0202192Y0292806D02*
X0195933Y0292806D01*
X0195943Y0292768D02*
X0202182Y0292768D01*
X0202172Y0292730D02*
X0195953Y0292730D01*
X0195963Y0292692D02*
X0202162Y0292692D01*
X0202152Y0292654D02*
X0195974Y0292654D01*
X0195984Y0292616D02*
X0202142Y0292616D01*
X0202131Y0292578D02*
X0195994Y0292578D01*
X0196004Y0292540D02*
X0202121Y0292540D01*
X0202111Y0292503D02*
X0196014Y0292503D01*
X0196024Y0292465D02*
X0202101Y0292465D01*
X0202087Y0292427D02*
X0196038Y0292427D01*
X0196056Y0292389D02*
X0202069Y0292389D01*
X0202052Y0292351D02*
X0196074Y0292351D01*
X0196091Y0292313D02*
X0202034Y0292313D01*
X0202016Y0292275D02*
X0196109Y0292275D01*
X0196127Y0292237D02*
X0201999Y0292237D01*
X0201981Y0292200D02*
X0196144Y0292200D01*
X0196162Y0292162D02*
X0201963Y0292162D01*
X0201946Y0292124D02*
X0196180Y0292124D01*
X0196197Y0292086D02*
X0201928Y0292086D01*
X0201910Y0292048D02*
X0196215Y0292048D01*
X0196233Y0292010D02*
X0201893Y0292010D01*
X0201875Y0291972D02*
X0196250Y0291972D01*
X0196269Y0291934D02*
X0201857Y0291934D01*
X0201830Y0291896D02*
X0196295Y0291896D01*
X0196322Y0291859D02*
X0201804Y0291859D01*
X0201777Y0291821D02*
X0196348Y0291821D01*
X0196375Y0291783D02*
X0201751Y0291783D01*
X0201724Y0291745D02*
X0196401Y0291745D01*
X0196428Y0291707D02*
X0201698Y0291707D01*
X0201671Y0291669D02*
X0196454Y0291669D01*
X0196481Y0291631D02*
X0201645Y0291631D01*
X0201618Y0291593D02*
X0196507Y0291593D01*
X0196534Y0291556D02*
X0201592Y0291556D01*
X0201565Y0291518D02*
X0196560Y0291518D01*
X0196587Y0291480D02*
X0201539Y0291480D01*
X0201502Y0291442D02*
X0196623Y0291442D01*
X0196661Y0291404D02*
X0201464Y0291404D01*
X0201426Y0291366D02*
X0196699Y0291366D01*
X0196737Y0291328D02*
X0201389Y0291328D01*
X0201351Y0291290D02*
X0196775Y0291290D01*
X0196813Y0291253D02*
X0201313Y0291253D01*
X0201275Y0291215D02*
X0196851Y0291215D01*
X0196888Y0291177D02*
X0201237Y0291177D01*
X0201199Y0291139D02*
X0196926Y0291139D01*
X0196964Y0291101D02*
X0201161Y0291101D01*
X0201117Y0291063D02*
X0197008Y0291063D01*
X0197062Y0291025D02*
X0201063Y0291025D01*
X0201009Y0290987D02*
X0197117Y0290987D01*
X0197171Y0290949D02*
X0200955Y0290949D01*
X0200900Y0290912D02*
X0197225Y0290912D01*
X0197279Y0290874D02*
X0200846Y0290874D01*
X0200792Y0290836D02*
X0197333Y0290836D01*
X0197387Y0290798D02*
X0200738Y0290798D01*
X0200684Y0290760D02*
X0197442Y0290760D01*
X0197519Y0290722D02*
X0200606Y0290722D01*
X0200525Y0290684D02*
X0197601Y0290684D01*
X0197682Y0290646D02*
X0200444Y0290646D01*
X0200362Y0290609D02*
X0197763Y0290609D01*
X0197844Y0290571D02*
X0200281Y0290571D01*
X0200200Y0290533D02*
X0197926Y0290533D01*
X0198043Y0290495D02*
X0200083Y0290495D01*
X0199941Y0290457D02*
X0198184Y0290457D01*
X0198325Y0290419D02*
X0199800Y0290419D01*
X0199659Y0290381D02*
X0198467Y0290381D01*
X0198826Y0290343D02*
X0199300Y0290343D01*
D15*
X0138708Y0286110D03*
X0138708Y0296110D03*
X0138708Y0306110D03*
X0138708Y0316110D03*
X0138708Y0326110D03*
X0138708Y0336110D03*
X0138708Y0263236D03*
X0138708Y0253236D03*
X0138708Y0243236D03*
X0138708Y0233236D03*
X0138708Y0223236D03*
X0138708Y0213236D03*
D16*
X0154063Y0150126D03*
X0154063Y0158000D03*
X0159476Y0182606D03*
X0157015Y0195401D03*
X0148157Y0203275D03*
X0169811Y0213118D03*
X0213118Y0205244D03*
X0247075Y0230834D03*
X0251504Y0234279D03*
X0251504Y0243630D03*
X0258393Y0241661D03*
X0258393Y0250519D03*
X0266267Y0254456D03*
X0276110Y0254456D03*
X0267252Y0235756D03*
X0258393Y0218531D03*
X0251504Y0224437D03*
X0259378Y0210165D03*
X0266267Y0210165D03*
X0273157Y0208197D03*
X0276602Y0202783D03*
X0272173Y0197370D03*
X0284476Y0206720D03*
X0296779Y0217055D03*
X0304161Y0217547D03*
X0290382Y0228374D03*
X0287921Y0235263D03*
X0307606Y0247567D03*
X0329260Y0238216D03*
X0347960Y0219515D03*
X0337134Y0213610D03*
X0374535Y0224929D03*
X0389791Y0230342D03*
X0398157Y0236740D03*
X0398157Y0248551D03*
X0374535Y0260362D03*
X0346976Y0272173D03*
X0318433Y0294319D03*
X0308098Y0274634D03*
X0283984Y0280047D03*
X0262823Y0278078D03*
X0262330Y0283984D03*
X0258393Y0271189D03*
X0242645Y0276110D03*
X0232803Y0245598D03*
X0232311Y0240185D03*
X0213118Y0240677D03*
X0205244Y0256425D03*
X0189496Y0256425D03*
X0189496Y0287921D03*
X0205244Y0283984D03*
X0171779Y0285952D03*
X0150126Y0341071D03*
X0154063Y0386346D03*
X0154063Y0394220D03*
X0272173Y0303669D03*
X0275618Y0307606D03*
X0390283Y0382409D03*
X0390283Y0390283D03*
X0396189Y0339102D03*
X0398157Y0205244D03*
X0390283Y0158000D03*
X0390283Y0150126D03*
X0295795Y0159968D03*
X0291858Y0156031D03*
X0283984Y0156031D03*
X0295795Y0167842D03*
X0295795Y0175716D03*
X0260362Y0173748D03*
X0260362Y0167842D03*
X0260362Y0161937D03*
X0260362Y0156031D03*
X0254456Y0159968D03*
X0254456Y0165874D03*
X0254456Y0171779D03*
M02*
