G75*
%MOIN*%
%OFA0B0*%
%FSLAX25Y25*%
%IPPOS*%
%LPD*%
%AMOC8*
5,1,8,0,0,1.08239X$1,22.5*
%
%ADD10R,0.03150X0.01378*%
%ADD11C,0.05937*%
%ADD12C,0.01956*%
%ADD13C,0.01959*%
%ADD14C,0.01575*%
%ADD15C,0.01887*%
%ADD16R,0.07400X0.07400*%
%ADD17OC8,0.07400*%
%ADD18R,0.06496X0.06496*%
%ADD19C,0.06496*%
%ADD20C,0.07400*%
%ADD21R,0.07874X0.07874*%
%ADD22C,0.01811*%
%ADD23R,0.04921X0.03937*%
%ADD24R,0.03937X0.05906*%
%ADD25R,0.11417X0.08071*%
%ADD26R,0.10000X0.04000*%
%ADD27R,0.04724X0.02165*%
%ADD28R,0.00882X0.05512*%
%ADD29R,0.00886X0.05512*%
%ADD30R,0.05512X0.00882*%
%ADD31R,0.05512X0.00886*%
%ADD32C,0.02362*%
%ADD33R,0.04724X0.05512*%
%ADD34R,0.01102X0.06150*%
%ADD35R,0.06150X0.01102*%
%ADD36R,0.04331X0.07480*%
%ADD37R,0.05512X0.08268*%
%ADD38C,0.04500*%
%ADD39C,0.01800*%
%ADD40C,0.00600*%
%ADD41C,0.01600*%
D10*
X0268433Y0163315D03*
X0268433Y0165874D03*
X0268433Y0168433D03*
X0274732Y0168433D03*
X0274732Y0165874D03*
X0274732Y0163315D03*
D11*
X0217641Y0272173D02*
X0211704Y0272173D01*
X0211704Y0282173D02*
X0217641Y0282173D01*
D12*
X0199187Y0261097D02*
X0199187Y0258801D01*
X0195553Y0258801D01*
X0195553Y0261097D01*
X0199187Y0261097D01*
X0199187Y0260756D02*
X0195553Y0260756D01*
X0195553Y0254049D02*
X0195553Y0251753D01*
X0195553Y0254049D02*
X0199187Y0254049D01*
X0199187Y0251753D01*
X0195553Y0251753D01*
X0195553Y0253708D02*
X0199187Y0253708D01*
X0182356Y0266419D02*
X0180060Y0266419D01*
X0180060Y0270053D01*
X0182356Y0270053D01*
X0182356Y0266419D01*
X0182356Y0268374D02*
X0180060Y0268374D01*
X0180060Y0274293D02*
X0182356Y0274293D01*
X0180060Y0274293D02*
X0180060Y0277927D01*
X0182356Y0277927D01*
X0182356Y0274293D01*
X0182356Y0276248D02*
X0180060Y0276248D01*
X0175309Y0277927D02*
X0173013Y0277927D01*
X0175309Y0277927D02*
X0175309Y0274293D01*
X0173013Y0274293D01*
X0173013Y0277927D01*
X0173013Y0276248D02*
X0175309Y0276248D01*
X0175309Y0270053D02*
X0173013Y0270053D01*
X0175309Y0270053D02*
X0175309Y0266419D01*
X0173013Y0266419D01*
X0173013Y0270053D01*
X0173013Y0268374D02*
X0175309Y0268374D01*
X0224777Y0216805D02*
X0224777Y0214509D01*
X0221143Y0214509D01*
X0221143Y0216805D01*
X0224777Y0216805D01*
X0224777Y0216464D02*
X0221143Y0216464D01*
X0221143Y0209758D02*
X0221143Y0207462D01*
X0221143Y0209758D02*
X0224777Y0209758D01*
X0224777Y0207462D01*
X0221143Y0207462D01*
X0221143Y0209417D02*
X0224777Y0209417D01*
X0224777Y0203026D02*
X0224777Y0200730D01*
X0221143Y0200730D01*
X0221143Y0203026D01*
X0224777Y0203026D01*
X0224777Y0202685D02*
X0221143Y0202685D01*
X0221143Y0195978D02*
X0221143Y0193682D01*
X0221143Y0195978D02*
X0224777Y0195978D01*
X0224777Y0193682D01*
X0221143Y0193682D01*
X0221143Y0195637D02*
X0224777Y0195637D01*
X0232068Y0189344D02*
X0234364Y0189344D01*
X0234364Y0185710D01*
X0232068Y0185710D01*
X0232068Y0189344D01*
X0232068Y0187665D02*
X0234364Y0187665D01*
X0239115Y0185710D02*
X0241411Y0185710D01*
X0239115Y0185710D02*
X0239115Y0189344D01*
X0241411Y0189344D01*
X0241411Y0185710D01*
X0241411Y0187665D02*
X0239115Y0187665D01*
X0241084Y0225080D02*
X0243380Y0225080D01*
X0241084Y0225080D02*
X0241084Y0228714D01*
X0243380Y0228714D01*
X0243380Y0225080D01*
X0243380Y0227035D02*
X0241084Y0227035D01*
X0236333Y0228714D02*
X0234037Y0228714D01*
X0236333Y0228714D02*
X0236333Y0225080D01*
X0234037Y0225080D01*
X0234037Y0228714D01*
X0234037Y0227035D02*
X0236333Y0227035D01*
X0236333Y0236588D02*
X0234037Y0236588D01*
X0236333Y0236588D02*
X0236333Y0232954D01*
X0234037Y0232954D01*
X0234037Y0236588D01*
X0234037Y0234909D02*
X0236333Y0234909D01*
X0241084Y0232954D02*
X0243380Y0232954D01*
X0241084Y0232954D02*
X0241084Y0236588D01*
X0243380Y0236588D01*
X0243380Y0232954D01*
X0243380Y0234909D02*
X0241084Y0234909D01*
X0250671Y0271438D02*
X0250671Y0273734D01*
X0254305Y0273734D01*
X0254305Y0271438D01*
X0250671Y0271438D01*
X0250671Y0273393D02*
X0254305Y0273393D01*
X0254305Y0278486D02*
X0254305Y0280782D01*
X0254305Y0278486D02*
X0250671Y0278486D01*
X0250671Y0280782D01*
X0254305Y0280782D01*
X0254305Y0280441D02*
X0250671Y0280441D01*
X0258545Y0289155D02*
X0258545Y0291451D01*
X0262179Y0291451D01*
X0262179Y0289155D01*
X0258545Y0289155D01*
X0258545Y0291110D02*
X0262179Y0291110D01*
X0266419Y0291451D02*
X0266419Y0289155D01*
X0266419Y0291451D02*
X0270053Y0291451D01*
X0270053Y0289155D01*
X0266419Y0289155D01*
X0266419Y0291110D02*
X0270053Y0291110D01*
X0274293Y0291451D02*
X0274293Y0289155D01*
X0274293Y0291451D02*
X0277927Y0291451D01*
X0277927Y0289155D01*
X0274293Y0289155D01*
X0274293Y0291110D02*
X0277927Y0291110D01*
X0282167Y0291451D02*
X0282167Y0289155D01*
X0282167Y0291451D02*
X0285801Y0291451D01*
X0285801Y0289155D01*
X0282167Y0289155D01*
X0282167Y0291110D02*
X0285801Y0291110D01*
X0285801Y0296202D02*
X0285801Y0298498D01*
X0285801Y0296202D02*
X0282167Y0296202D01*
X0282167Y0298498D01*
X0285801Y0298498D01*
X0285801Y0298157D02*
X0282167Y0298157D01*
X0277927Y0298498D02*
X0277927Y0296202D01*
X0274293Y0296202D01*
X0274293Y0298498D01*
X0277927Y0298498D01*
X0277927Y0298157D02*
X0274293Y0298157D01*
X0270053Y0298498D02*
X0270053Y0296202D01*
X0266419Y0296202D01*
X0266419Y0298498D01*
X0270053Y0298498D01*
X0270053Y0298157D02*
X0266419Y0298157D01*
X0262179Y0298498D02*
X0262179Y0296202D01*
X0258545Y0296202D01*
X0258545Y0298498D01*
X0262179Y0298498D01*
X0262179Y0298157D02*
X0258545Y0298157D01*
X0350139Y0230092D02*
X0352435Y0230092D01*
X0352435Y0226458D01*
X0350139Y0226458D01*
X0350139Y0230092D01*
X0350139Y0228413D02*
X0352435Y0228413D01*
X0357186Y0226458D02*
X0359482Y0226458D01*
X0357186Y0226458D02*
X0357186Y0230092D01*
X0359482Y0230092D01*
X0359482Y0226458D01*
X0359482Y0228413D02*
X0357186Y0228413D01*
X0382258Y0200073D02*
X0382258Y0197777D01*
X0378624Y0197777D01*
X0378624Y0200073D01*
X0382258Y0200073D01*
X0382258Y0199732D02*
X0378624Y0199732D01*
X0378624Y0193026D02*
X0378624Y0190730D01*
X0378624Y0193026D02*
X0382258Y0193026D01*
X0382258Y0190730D01*
X0378624Y0190730D01*
X0378624Y0192685D02*
X0382258Y0192685D01*
X0299884Y0192698D02*
X0299884Y0194994D01*
X0303518Y0194994D01*
X0303518Y0192698D01*
X0299884Y0192698D01*
X0299884Y0194653D02*
X0303518Y0194653D01*
X0303518Y0199745D02*
X0303518Y0202041D01*
X0303518Y0199745D02*
X0299884Y0199745D01*
X0299884Y0202041D01*
X0303518Y0202041D01*
X0303518Y0201700D02*
X0299884Y0201700D01*
X0289246Y0169962D02*
X0286950Y0169962D01*
X0286950Y0173596D01*
X0289246Y0173596D01*
X0289246Y0169962D01*
X0289246Y0171917D02*
X0286950Y0171917D01*
X0282199Y0173596D02*
X0279903Y0173596D01*
X0282199Y0173596D02*
X0282199Y0169962D01*
X0279903Y0169962D01*
X0279903Y0173596D01*
X0279903Y0171917D02*
X0282199Y0171917D01*
X0282199Y0165329D02*
X0279903Y0165329D01*
X0282199Y0165329D02*
X0282199Y0161695D01*
X0279903Y0161695D01*
X0279903Y0165329D01*
X0279903Y0163650D02*
X0282199Y0163650D01*
X0286950Y0161695D02*
X0289246Y0161695D01*
X0286950Y0161695D02*
X0286950Y0165329D01*
X0289246Y0165329D01*
X0289246Y0161695D01*
X0289246Y0163650D02*
X0286950Y0163650D01*
X0160120Y0190730D02*
X0160120Y0193026D01*
X0163754Y0193026D01*
X0163754Y0190730D01*
X0160120Y0190730D01*
X0160120Y0192685D02*
X0163754Y0192685D01*
X0163754Y0197777D02*
X0163754Y0200073D01*
X0163754Y0197777D02*
X0160120Y0197777D01*
X0160120Y0200073D01*
X0163754Y0200073D01*
X0163754Y0199732D02*
X0160120Y0199732D01*
X0160120Y0344273D02*
X0160120Y0346569D01*
X0163754Y0346569D01*
X0163754Y0344273D01*
X0160120Y0344273D01*
X0160120Y0346228D02*
X0163754Y0346228D01*
X0163754Y0351320D02*
X0163754Y0353616D01*
X0163754Y0351320D02*
X0160120Y0351320D01*
X0160120Y0353616D01*
X0163754Y0353616D01*
X0163754Y0353275D02*
X0160120Y0353275D01*
X0384226Y0353616D02*
X0384226Y0351320D01*
X0380592Y0351320D01*
X0380592Y0353616D01*
X0384226Y0353616D01*
X0384226Y0353275D02*
X0380592Y0353275D01*
X0380592Y0346569D02*
X0380592Y0344273D01*
X0380592Y0346569D02*
X0384226Y0346569D01*
X0384226Y0344273D01*
X0380592Y0344273D01*
X0380592Y0346228D02*
X0384226Y0346228D01*
D13*
X0370731Y0384156D02*
X0370731Y0391528D01*
X0378339Y0391528D01*
X0378339Y0384156D01*
X0370731Y0384156D01*
X0370731Y0386114D02*
X0378339Y0386114D01*
X0378339Y0388072D02*
X0370731Y0388072D01*
X0370731Y0390030D02*
X0378339Y0390030D01*
X0378339Y0408723D02*
X0378339Y0416095D01*
X0378339Y0408723D02*
X0370731Y0408723D01*
X0370731Y0416095D01*
X0378339Y0416095D01*
X0378339Y0410681D02*
X0370731Y0410681D01*
X0370731Y0412639D02*
X0378339Y0412639D01*
X0378339Y0414597D02*
X0370731Y0414597D01*
X0173615Y0416095D02*
X0173615Y0408723D01*
X0166007Y0408723D01*
X0166007Y0416095D01*
X0173615Y0416095D01*
X0173615Y0410681D02*
X0166007Y0410681D01*
X0166007Y0412639D02*
X0173615Y0412639D01*
X0173615Y0414597D02*
X0166007Y0414597D01*
X0166007Y0391528D02*
X0166007Y0384156D01*
X0166007Y0391528D02*
X0173615Y0391528D01*
X0173615Y0384156D01*
X0166007Y0384156D01*
X0166007Y0386114D02*
X0173615Y0386114D01*
X0173615Y0388072D02*
X0166007Y0388072D01*
X0166007Y0390030D02*
X0173615Y0390030D01*
X0173615Y0160190D02*
X0173615Y0152818D01*
X0166007Y0152818D01*
X0166007Y0160190D01*
X0173615Y0160190D01*
X0173615Y0154776D02*
X0166007Y0154776D01*
X0166007Y0156734D02*
X0173615Y0156734D01*
X0173615Y0158692D02*
X0166007Y0158692D01*
X0166007Y0135623D02*
X0166007Y0128251D01*
X0166007Y0135623D02*
X0173615Y0135623D01*
X0173615Y0128251D01*
X0166007Y0128251D01*
X0166007Y0130209D02*
X0173615Y0130209D01*
X0173615Y0132167D02*
X0166007Y0132167D01*
X0166007Y0134125D02*
X0173615Y0134125D01*
X0370731Y0135623D02*
X0370731Y0128251D01*
X0370731Y0135623D02*
X0378339Y0135623D01*
X0378339Y0128251D01*
X0370731Y0128251D01*
X0370731Y0130209D02*
X0378339Y0130209D01*
X0378339Y0132167D02*
X0370731Y0132167D01*
X0370731Y0134125D02*
X0378339Y0134125D01*
X0378339Y0152818D02*
X0378339Y0160190D01*
X0378339Y0152818D02*
X0370731Y0152818D01*
X0370731Y0160190D01*
X0378339Y0160190D01*
X0378339Y0154776D02*
X0370731Y0154776D01*
X0370731Y0156734D02*
X0378339Y0156734D01*
X0378339Y0158692D02*
X0370731Y0158692D01*
D14*
X0379653Y0167488D02*
X0379653Y0170834D01*
X0381229Y0170834D01*
X0381229Y0167488D01*
X0379653Y0167488D01*
X0379653Y0169062D02*
X0381229Y0169062D01*
X0381229Y0170636D02*
X0379653Y0170636D01*
X0381229Y0180598D02*
X0381229Y0183944D01*
X0381229Y0180598D02*
X0379653Y0180598D01*
X0379653Y0183944D01*
X0381229Y0183944D01*
X0381229Y0182172D02*
X0379653Y0182172D01*
X0379653Y0183746D02*
X0381229Y0183746D01*
X0379653Y0360402D02*
X0379653Y0363748D01*
X0381229Y0363748D01*
X0381229Y0360402D01*
X0379653Y0360402D01*
X0379653Y0361976D02*
X0381229Y0361976D01*
X0381229Y0363550D02*
X0379653Y0363550D01*
X0381229Y0373512D02*
X0381229Y0376858D01*
X0381229Y0373512D02*
X0379653Y0373512D01*
X0379653Y0376858D01*
X0381229Y0376858D01*
X0381229Y0375086D02*
X0379653Y0375086D01*
X0379653Y0376660D02*
X0381229Y0376660D01*
X0164693Y0376858D02*
X0164693Y0373512D01*
X0163117Y0373512D01*
X0163117Y0376858D01*
X0164693Y0376858D01*
X0164693Y0375086D02*
X0163117Y0375086D01*
X0163117Y0376660D02*
X0164693Y0376660D01*
X0163117Y0363748D02*
X0163117Y0360402D01*
X0163117Y0363748D02*
X0164693Y0363748D01*
X0164693Y0360402D01*
X0163117Y0360402D01*
X0163117Y0361976D02*
X0164693Y0361976D01*
X0164693Y0363550D02*
X0163117Y0363550D01*
X0164693Y0183944D02*
X0164693Y0180598D01*
X0163117Y0180598D01*
X0163117Y0183944D01*
X0164693Y0183944D01*
X0164693Y0182172D02*
X0163117Y0182172D01*
X0163117Y0183746D02*
X0164693Y0183746D01*
X0163117Y0170834D02*
X0163117Y0167488D01*
X0163117Y0170834D02*
X0164693Y0170834D01*
X0164693Y0167488D01*
X0163117Y0167488D01*
X0163117Y0169062D02*
X0164693Y0169062D01*
X0164693Y0170636D02*
X0163117Y0170636D01*
D15*
X0332112Y0198376D02*
X0333926Y0198376D01*
X0333926Y0196364D01*
X0332112Y0196364D01*
X0332112Y0198376D01*
X0332112Y0198250D02*
X0333926Y0198250D01*
X0340341Y0196364D02*
X0342155Y0196364D01*
X0340341Y0196364D02*
X0340341Y0198376D01*
X0342155Y0198376D01*
X0342155Y0196364D01*
X0342155Y0198250D02*
X0340341Y0198250D01*
X0349829Y0198376D02*
X0351643Y0198376D01*
X0351643Y0196364D01*
X0349829Y0196364D01*
X0349829Y0198376D01*
X0349829Y0198250D02*
X0351643Y0198250D01*
X0358057Y0196364D02*
X0359871Y0196364D01*
X0358057Y0196364D02*
X0358057Y0198376D01*
X0359871Y0198376D01*
X0359871Y0196364D01*
X0359871Y0198250D02*
X0358057Y0198250D01*
X0302785Y0412899D02*
X0300971Y0412899D01*
X0300971Y0414911D01*
X0302785Y0414911D01*
X0302785Y0412899D01*
X0302785Y0414785D02*
X0300971Y0414785D01*
X0294556Y0414911D02*
X0292742Y0414911D01*
X0294556Y0414911D02*
X0294556Y0412899D01*
X0292742Y0412899D01*
X0292742Y0414911D01*
X0292742Y0414785D02*
X0294556Y0414785D01*
D16*
X0327134Y0363630D03*
D17*
X0337134Y0363630D03*
X0347134Y0363630D03*
X0347134Y0373630D03*
X0337134Y0373630D03*
X0327134Y0373630D03*
D18*
X0209063Y0293551D03*
X0411937Y0226897D03*
D19*
X0411937Y0236897D03*
X0411937Y0246897D03*
X0411937Y0256897D03*
X0411937Y0266897D03*
X0411937Y0276897D03*
X0411937Y0286897D03*
X0411937Y0296897D03*
X0411937Y0306897D03*
X0411937Y0316897D03*
X0199063Y0293551D03*
D20*
X0138708Y0296110D03*
X0138708Y0306110D03*
X0138708Y0316110D03*
X0138708Y0326110D03*
X0138708Y0336110D03*
X0138708Y0286110D03*
X0138708Y0263236D03*
X0138708Y0253236D03*
X0138708Y0243236D03*
X0138708Y0233236D03*
X0138708Y0223236D03*
X0138708Y0213236D03*
D21*
G36*
X0133085Y0147819D02*
X0138652Y0153386D01*
X0144219Y0147819D01*
X0138652Y0142252D01*
X0133085Y0147819D01*
G37*
G36*
X0141437Y0139468D02*
X0147004Y0145035D01*
X0152571Y0139468D01*
X0147004Y0133901D01*
X0141437Y0139468D01*
G37*
G36*
X0396526Y0133085D02*
X0390959Y0138652D01*
X0396526Y0144219D01*
X0402093Y0138652D01*
X0396526Y0133085D01*
G37*
G36*
X0404878Y0141437D02*
X0399311Y0147004D01*
X0404878Y0152571D01*
X0410445Y0147004D01*
X0404878Y0141437D01*
G37*
G36*
X0409292Y0396526D02*
X0403725Y0390959D01*
X0398158Y0396526D01*
X0403725Y0402093D01*
X0409292Y0396526D01*
G37*
G36*
X0400940Y0404878D02*
X0395373Y0399311D01*
X0389806Y0404878D01*
X0395373Y0410445D01*
X0400940Y0404878D01*
G37*
G36*
X0147819Y0413229D02*
X0153386Y0407662D01*
X0147819Y0402095D01*
X0142252Y0407662D01*
X0147819Y0413229D01*
G37*
G36*
X0139468Y0404877D02*
X0145035Y0399310D01*
X0139468Y0393743D01*
X0133901Y0399310D01*
X0139468Y0404877D01*
G37*
D22*
X0143491Y0378315D02*
X0145303Y0378315D01*
X0145303Y0374693D01*
X0143491Y0374693D01*
X0143491Y0378315D01*
X0143491Y0376503D02*
X0145303Y0376503D01*
X0145303Y0378313D02*
X0143491Y0378313D01*
X0151011Y0374693D02*
X0152823Y0374693D01*
X0151011Y0374693D02*
X0151011Y0378315D01*
X0152823Y0378315D01*
X0152823Y0374693D01*
X0152823Y0376503D02*
X0151011Y0376503D01*
X0151011Y0378313D02*
X0152823Y0378313D01*
X0152823Y0347134D02*
X0151011Y0347134D01*
X0151011Y0350756D01*
X0152823Y0350756D01*
X0152823Y0347134D01*
X0152823Y0348944D02*
X0151011Y0348944D01*
X0151011Y0350754D02*
X0152823Y0350754D01*
X0145303Y0350756D02*
X0143491Y0350756D01*
X0145303Y0350756D02*
X0145303Y0347134D01*
X0143491Y0347134D01*
X0143491Y0350756D01*
X0143491Y0348944D02*
X0145303Y0348944D01*
X0145303Y0350754D02*
X0143491Y0350754D01*
X0175559Y0308335D02*
X0175559Y0306523D01*
X0171937Y0306523D01*
X0171937Y0308335D01*
X0175559Y0308335D01*
X0175559Y0308333D02*
X0171937Y0308333D01*
X0171937Y0300815D02*
X0171937Y0299003D01*
X0171937Y0300815D02*
X0175559Y0300815D01*
X0175559Y0299003D01*
X0171937Y0299003D01*
X0171937Y0300813D02*
X0175559Y0300813D01*
X0152823Y0193590D02*
X0151011Y0193590D01*
X0151011Y0197212D01*
X0152823Y0197212D01*
X0152823Y0193590D01*
X0152823Y0195400D02*
X0151011Y0195400D01*
X0151011Y0197210D02*
X0152823Y0197210D01*
X0145303Y0197212D02*
X0143491Y0197212D01*
X0145303Y0197212D02*
X0145303Y0193590D01*
X0143491Y0193590D01*
X0143491Y0197212D01*
X0143491Y0195400D02*
X0145303Y0195400D01*
X0145303Y0197210D02*
X0143491Y0197210D01*
X0143491Y0169653D02*
X0145303Y0169653D01*
X0145303Y0166031D01*
X0143491Y0166031D01*
X0143491Y0169653D01*
X0143491Y0167841D02*
X0145303Y0167841D01*
X0145303Y0169651D02*
X0143491Y0169651D01*
X0151011Y0166031D02*
X0152823Y0166031D01*
X0151011Y0166031D02*
X0151011Y0169653D01*
X0152823Y0169653D01*
X0152823Y0166031D01*
X0152823Y0167841D02*
X0151011Y0167841D01*
X0151011Y0169651D02*
X0152823Y0169651D01*
X0302940Y0270047D02*
X0304752Y0270047D01*
X0304752Y0266425D01*
X0302940Y0266425D01*
X0302940Y0270047D01*
X0302940Y0268235D02*
X0304752Y0268235D01*
X0304752Y0270045D02*
X0302940Y0270045D01*
X0310460Y0266425D02*
X0312272Y0266425D01*
X0310460Y0266425D02*
X0310460Y0270047D01*
X0312272Y0270047D01*
X0312272Y0266425D01*
X0312272Y0268235D02*
X0310460Y0268235D01*
X0310460Y0270045D02*
X0312272Y0270045D01*
X0312272Y0278236D02*
X0310460Y0278236D01*
X0310460Y0281858D01*
X0312272Y0281858D01*
X0312272Y0278236D01*
X0312272Y0280046D02*
X0310460Y0280046D01*
X0310460Y0281856D02*
X0312272Y0281856D01*
X0304752Y0281858D02*
X0302940Y0281858D01*
X0304752Y0281858D02*
X0304752Y0278236D01*
X0302940Y0278236D01*
X0302940Y0281858D01*
X0302940Y0280046D02*
X0304752Y0280046D01*
X0304752Y0281856D02*
X0302940Y0281856D01*
X0332468Y0210992D02*
X0334280Y0210992D01*
X0334280Y0207370D01*
X0332468Y0207370D01*
X0332468Y0210992D01*
X0332468Y0209180D02*
X0334280Y0209180D01*
X0334280Y0210990D02*
X0332468Y0210990D01*
X0339987Y0207370D02*
X0341799Y0207370D01*
X0339987Y0207370D02*
X0339987Y0210992D01*
X0341799Y0210992D01*
X0341799Y0207370D01*
X0341799Y0209180D02*
X0339987Y0209180D01*
X0339987Y0210990D02*
X0341799Y0210990D01*
X0350184Y0210992D02*
X0351996Y0210992D01*
X0351996Y0207370D01*
X0350184Y0207370D01*
X0350184Y0210992D01*
X0350184Y0209180D02*
X0351996Y0209180D01*
X0351996Y0210990D02*
X0350184Y0210990D01*
X0357704Y0207370D02*
X0359516Y0207370D01*
X0357704Y0207370D02*
X0357704Y0210992D01*
X0359516Y0210992D01*
X0359516Y0207370D01*
X0359516Y0209180D02*
X0357704Y0209180D01*
X0357704Y0210990D02*
X0359516Y0210990D01*
X0393491Y0199181D02*
X0395303Y0199181D01*
X0395303Y0195559D01*
X0393491Y0195559D01*
X0393491Y0199181D01*
X0393491Y0197369D02*
X0395303Y0197369D01*
X0395303Y0199179D02*
X0393491Y0199179D01*
X0401011Y0195559D02*
X0402823Y0195559D01*
X0401011Y0195559D02*
X0401011Y0199181D01*
X0402823Y0199181D01*
X0402823Y0195559D01*
X0402823Y0197369D02*
X0401011Y0197369D01*
X0401011Y0199179D02*
X0402823Y0199179D01*
X0402823Y0166031D02*
X0401011Y0166031D01*
X0401011Y0169653D01*
X0402823Y0169653D01*
X0402823Y0166031D01*
X0402823Y0167841D02*
X0401011Y0167841D01*
X0401011Y0169651D02*
X0402823Y0169651D01*
X0395303Y0169653D02*
X0393491Y0169653D01*
X0395303Y0169653D02*
X0395303Y0166031D01*
X0393491Y0166031D01*
X0393491Y0169653D01*
X0393491Y0167841D02*
X0395303Y0167841D01*
X0395303Y0169651D02*
X0393491Y0169651D01*
X0307764Y0192704D02*
X0307764Y0194516D01*
X0311386Y0194516D01*
X0311386Y0192704D01*
X0307764Y0192704D01*
X0307764Y0194514D02*
X0311386Y0194514D01*
X0311386Y0200224D02*
X0311386Y0202036D01*
X0311386Y0200224D02*
X0307764Y0200224D01*
X0307764Y0202036D01*
X0311386Y0202036D01*
X0311386Y0202034D02*
X0307764Y0202034D01*
X0391523Y0348787D02*
X0393335Y0348787D01*
X0393335Y0345165D01*
X0391523Y0345165D01*
X0391523Y0348787D01*
X0391523Y0346975D02*
X0393335Y0346975D01*
X0393335Y0348785D02*
X0391523Y0348785D01*
X0399043Y0345165D02*
X0400855Y0345165D01*
X0399043Y0345165D02*
X0399043Y0348787D01*
X0400855Y0348787D01*
X0400855Y0345165D01*
X0400855Y0346975D02*
X0399043Y0346975D01*
X0399043Y0348785D02*
X0400855Y0348785D01*
X0400855Y0372724D02*
X0399043Y0372724D01*
X0399043Y0376346D01*
X0400855Y0376346D01*
X0400855Y0372724D01*
X0400855Y0374534D02*
X0399043Y0374534D01*
X0399043Y0376344D02*
X0400855Y0376344D01*
X0393335Y0376346D02*
X0391523Y0376346D01*
X0393335Y0376346D02*
X0393335Y0372724D01*
X0391523Y0372724D01*
X0391523Y0376346D01*
X0391523Y0374534D02*
X0393335Y0374534D01*
X0393335Y0376344D02*
X0391523Y0376344D01*
X0276839Y0412094D02*
X0275027Y0412094D01*
X0275027Y0415716D01*
X0276839Y0415716D01*
X0276839Y0412094D01*
X0276839Y0413904D02*
X0275027Y0413904D01*
X0275027Y0415714D02*
X0276839Y0415714D01*
X0269319Y0415716D02*
X0267507Y0415716D01*
X0269319Y0415716D02*
X0269319Y0412094D01*
X0267507Y0412094D01*
X0267507Y0415716D01*
X0267507Y0413904D02*
X0269319Y0413904D01*
X0269319Y0415714D02*
X0267507Y0415714D01*
D23*
X0214693Y0258393D03*
X0214693Y0254456D03*
D24*
X0151897Y0177094D03*
X0144417Y0177094D03*
X0144417Y0367252D03*
X0151897Y0367252D03*
X0392449Y0365283D03*
X0399929Y0365283D03*
X0401897Y0177094D03*
X0394417Y0177094D03*
D25*
X0398157Y0185067D03*
X0396189Y0357311D03*
X0148157Y0359279D03*
X0148157Y0185067D03*
D26*
X0272173Y0153283D03*
X0272173Y0127283D03*
D27*
X0200244Y0268078D03*
X0200244Y0271819D03*
X0200244Y0275559D03*
X0190008Y0275559D03*
X0190008Y0268078D03*
D28*
X0266248Y0265382D03*
X0267941Y0265382D03*
X0269634Y0265382D03*
X0271326Y0265382D03*
X0273019Y0265382D03*
X0274712Y0265382D03*
X0276405Y0265382D03*
X0278098Y0265382D03*
X0276405Y0278964D03*
X0274712Y0278964D03*
X0273019Y0278964D03*
X0271326Y0278964D03*
X0269634Y0278964D03*
X0267941Y0278964D03*
X0266248Y0278964D03*
D29*
X0278098Y0278964D03*
D30*
X0264279Y0274712D03*
X0264279Y0273019D03*
X0264279Y0271326D03*
X0264279Y0269634D03*
D31*
X0280067Y0269634D03*
X0280067Y0271326D03*
X0280067Y0273019D03*
X0280067Y0274712D03*
D32*
X0186346Y0297566D02*
X0186346Y0300716D01*
X0188708Y0300716D01*
X0188708Y0297566D01*
X0186346Y0297566D01*
X0186346Y0299927D02*
X0188708Y0299927D01*
D33*
X0187527Y0308197D03*
D34*
X0256858Y0225169D03*
X0258826Y0225169D03*
X0260795Y0225169D03*
X0262763Y0225169D03*
X0264732Y0225169D03*
X0266701Y0225169D03*
X0268669Y0225169D03*
X0270638Y0225169D03*
X0272606Y0225169D03*
X0274575Y0225169D03*
X0276543Y0225169D03*
X0278512Y0225169D03*
X0280480Y0225169D03*
X0282449Y0225169D03*
X0284417Y0225169D03*
X0286386Y0225169D03*
X0286386Y0186736D03*
X0284417Y0186736D03*
X0282449Y0186736D03*
X0280480Y0186736D03*
X0278512Y0186736D03*
X0276543Y0186736D03*
X0274575Y0186736D03*
X0272606Y0186736D03*
X0270638Y0186736D03*
X0268669Y0186736D03*
X0266701Y0186736D03*
X0264732Y0186736D03*
X0262763Y0186736D03*
X0260795Y0186736D03*
X0258826Y0186736D03*
X0256858Y0186736D03*
D35*
X0252405Y0191189D03*
X0252405Y0193157D03*
X0252405Y0195126D03*
X0252405Y0197094D03*
X0252405Y0199063D03*
X0252405Y0201031D03*
X0252405Y0203000D03*
X0252405Y0204968D03*
X0252405Y0206937D03*
X0252405Y0208905D03*
X0252405Y0210874D03*
X0252405Y0212842D03*
X0252405Y0214811D03*
X0252405Y0216779D03*
X0252405Y0218748D03*
X0252405Y0220716D03*
X0290838Y0220716D03*
X0290838Y0218748D03*
X0290838Y0216779D03*
X0290838Y0214811D03*
X0290838Y0212842D03*
X0290838Y0210874D03*
X0290838Y0208905D03*
X0290838Y0206937D03*
X0290838Y0204968D03*
X0290838Y0203000D03*
X0290838Y0201031D03*
X0290838Y0199063D03*
X0290838Y0197094D03*
X0290838Y0195126D03*
X0290838Y0193157D03*
X0290838Y0191189D03*
D36*
X0241267Y0197960D03*
X0232212Y0197960D03*
X0232212Y0212527D03*
X0241267Y0212527D03*
D37*
X0345992Y0252291D03*
X0363708Y0252291D03*
X0363708Y0288118D03*
X0345992Y0288118D03*
D38*
X0346976Y0272173D03*
X0374535Y0260362D03*
X0398157Y0248551D03*
X0398157Y0236740D03*
X0389791Y0230342D03*
X0374535Y0224929D03*
X0347960Y0219515D03*
X0337134Y0213610D03*
X0329260Y0238216D03*
X0307606Y0247567D03*
X0287921Y0235263D03*
X0290382Y0228374D03*
X0296779Y0217055D03*
X0304161Y0217547D03*
X0284476Y0206720D03*
X0276602Y0202783D03*
X0273157Y0208197D03*
X0266267Y0210165D03*
X0259378Y0210165D03*
X0258393Y0218531D03*
X0251504Y0224437D03*
X0247075Y0230834D03*
X0251504Y0234279D03*
X0251504Y0243630D03*
X0258393Y0241661D03*
X0258393Y0250519D03*
X0266267Y0254456D03*
X0276110Y0254456D03*
X0267252Y0235756D03*
X0258393Y0271189D03*
X0262823Y0278078D03*
X0262330Y0283984D03*
X0272173Y0303669D03*
X0275618Y0307606D03*
X0283984Y0280047D03*
X0308098Y0274634D03*
X0318433Y0294319D03*
X0242645Y0276110D03*
X0232803Y0245598D03*
X0232311Y0240185D03*
X0213118Y0240677D03*
X0205244Y0256425D03*
X0189496Y0256425D03*
X0189496Y0287921D03*
X0205244Y0283984D03*
X0171779Y0285952D03*
X0150126Y0341071D03*
X0154063Y0386346D03*
X0154063Y0394220D03*
X0169811Y0213118D03*
X0157015Y0195401D03*
X0148157Y0203275D03*
X0159476Y0182606D03*
X0154063Y0158000D03*
X0154063Y0150126D03*
X0213118Y0205244D03*
X0254456Y0171779D03*
X0254456Y0165874D03*
X0254456Y0159968D03*
X0260362Y0161937D03*
X0260362Y0167842D03*
X0260362Y0173748D03*
X0260362Y0156031D03*
X0283984Y0156031D03*
X0291858Y0156031D03*
X0295795Y0159968D03*
X0295795Y0167842D03*
X0295795Y0175716D03*
X0272173Y0197370D03*
X0390283Y0158000D03*
X0390283Y0150126D03*
X0398157Y0205244D03*
X0396189Y0339102D03*
X0390283Y0382409D03*
X0390283Y0390283D03*
D39*
X0393728Y0393728D01*
X0393236Y0394220D01*
X0368138Y0394220D01*
X0368138Y0382901D01*
X0375519Y0375519D01*
X0380441Y0375519D01*
X0380441Y0375185D01*
X0391760Y0375027D02*
X0392429Y0374535D01*
X0392744Y0374535D01*
X0392744Y0365677D01*
X0392669Y0360830D02*
X0389859Y0360830D01*
X0388615Y0362075D01*
X0380441Y0362075D01*
X0382409Y0352468D02*
X0389166Y0352468D01*
X0389859Y0351775D01*
X0396189Y0351775D01*
X0396189Y0339102D01*
X0399949Y0346976D02*
X0400126Y0346976D01*
X0400126Y0348945D01*
X0403571Y0352389D01*
X0403571Y0362232D01*
X0400126Y0365677D01*
X0399929Y0365283D01*
X0400126Y0366169D01*
X0400126Y0374535D01*
X0399949Y0374535D01*
X0391760Y0375027D02*
X0391760Y0380933D01*
X0390283Y0382409D01*
X0384870Y0387823D01*
X0374535Y0387823D01*
X0374535Y0387842D01*
X0368138Y0394220D02*
X0368138Y0405539D01*
X0374535Y0411937D01*
X0374535Y0412409D01*
X0395204Y0404555D02*
X0395204Y0395204D01*
X0393728Y0393728D01*
X0396189Y0388990D02*
X0396189Y0357311D01*
X0392669Y0360830D01*
X0396189Y0388990D02*
X0403725Y0396526D01*
X0395204Y0404555D02*
X0395373Y0404878D01*
X0398157Y0248551D02*
X0399634Y0247075D01*
X0411937Y0247075D01*
X0411937Y0246897D01*
X0411937Y0236897D02*
X0411937Y0236740D01*
X0398157Y0236740D01*
X0398157Y0205244D02*
X0395697Y0205244D01*
X0382409Y0191956D01*
X0380441Y0191956D01*
X0380441Y0191878D01*
X0378964Y0186543D02*
X0381917Y0186543D01*
X0392744Y0197370D01*
X0394397Y0197370D01*
X0398157Y0185067D02*
X0395697Y0182606D01*
X0380441Y0182606D01*
X0380441Y0182271D01*
X0376996Y0184575D02*
X0376996Y0179653D01*
X0378964Y0177685D01*
X0393728Y0177685D01*
X0394417Y0177094D01*
X0394712Y0176701D01*
X0394712Y0167842D01*
X0394397Y0167842D01*
X0401110Y0167842D02*
X0391267Y0158000D01*
X0390283Y0158000D01*
X0388807Y0156523D01*
X0374535Y0156523D01*
X0374535Y0156504D01*
X0368138Y0161445D02*
X0368138Y0150126D01*
X0390283Y0150126D01*
X0393236Y0147173D01*
X0404555Y0147173D01*
X0404878Y0147004D01*
X0412429Y0146681D02*
X0412429Y0173748D01*
X0401602Y0184575D01*
X0398649Y0184575D01*
X0398157Y0185067D01*
X0401897Y0177094D02*
X0402094Y0176701D01*
X0402094Y0167842D01*
X0401917Y0167842D01*
X0401110Y0167842D01*
X0380441Y0168826D02*
X0380441Y0169161D01*
X0380441Y0168826D02*
X0375519Y0168826D01*
X0368138Y0161445D01*
X0368138Y0150126D02*
X0368138Y0138807D01*
X0374535Y0132409D01*
X0374535Y0131937D01*
X0396526Y0138652D02*
X0396681Y0138807D01*
X0404555Y0138807D01*
X0412429Y0146681D01*
X0376996Y0184575D02*
X0378964Y0186543D01*
X0281051Y0163512D02*
X0274732Y0163512D01*
X0274732Y0163315D01*
X0272173Y0160756D01*
X0272173Y0153283D01*
X0213118Y0240677D02*
X0213118Y0254456D01*
X0214693Y0254456D01*
X0208579Y0254456D01*
X0206797Y0252675D01*
X0203690Y0252675D01*
X0203464Y0252901D01*
X0199830Y0252980D02*
X0204752Y0257901D01*
X0205244Y0256425D01*
X0205244Y0258393D01*
X0214693Y0258393D01*
X0214673Y0258393D01*
X0214673Y0272173D01*
X0214673Y0282173D02*
X0214673Y0287941D01*
X0209063Y0293551D01*
X0205244Y0283984D02*
X0204106Y0282846D01*
X0204106Y0273855D01*
X0203227Y0272976D01*
X0201401Y0272976D01*
X0200244Y0271819D01*
X0199086Y0274401D02*
X0197260Y0274401D01*
X0196382Y0273523D01*
X0196382Y0270115D01*
X0197260Y0269236D01*
X0199086Y0269236D01*
X0200244Y0268078D01*
X0197370Y0268078D01*
X0197370Y0259949D01*
X0197370Y0252980D02*
X0197370Y0252901D01*
X0197370Y0252980D02*
X0199830Y0252980D01*
X0189496Y0256425D02*
X0189496Y0268078D01*
X0190008Y0268078D01*
X0186051Y0268078D01*
X0181208Y0268078D01*
X0181208Y0268236D01*
X0199086Y0274401D02*
X0200244Y0275559D01*
X0189496Y0286307D01*
X0189496Y0287921D01*
X0195126Y0293551D01*
X0199063Y0293551D01*
X0150618Y0341071D02*
X0150126Y0341071D01*
X0150618Y0341071D02*
X0161937Y0352389D01*
X0161937Y0352468D01*
X0155539Y0354358D02*
X0155539Y0364201D01*
X0152094Y0367645D01*
X0151897Y0367252D01*
X0152094Y0368138D01*
X0152094Y0376504D01*
X0151917Y0376504D01*
X0155539Y0377488D02*
X0155539Y0379456D01*
X0154063Y0380933D01*
X0150126Y0380933D01*
X0148157Y0378964D01*
X0148157Y0359279D01*
X0147665Y0362724D01*
X0141760Y0362724D01*
X0131917Y0372567D01*
X0131917Y0399634D01*
X0139791Y0407508D01*
X0147665Y0407508D01*
X0147819Y0407662D01*
X0149141Y0399141D02*
X0154063Y0394220D01*
X0176208Y0394220D01*
X0176208Y0382901D01*
X0168826Y0375519D01*
X0163905Y0375519D01*
X0163905Y0375185D01*
X0163905Y0369122D02*
X0155539Y0377488D01*
X0154063Y0386346D02*
X0152094Y0386346D01*
X0145204Y0379456D01*
X0145204Y0376996D01*
X0144397Y0376504D01*
X0144712Y0376504D01*
X0144712Y0367645D01*
X0144417Y0367252D01*
X0155539Y0354358D02*
X0152094Y0350913D01*
X0152094Y0348945D01*
X0151917Y0348945D01*
X0163905Y0362075D02*
X0163905Y0369122D01*
X0154063Y0386346D02*
X0155539Y0387823D01*
X0169811Y0387823D01*
X0169811Y0387842D01*
X0176208Y0394220D02*
X0176208Y0405539D01*
X0169811Y0411937D01*
X0169811Y0412409D01*
X0149141Y0399141D02*
X0139791Y0399141D01*
X0139468Y0399310D01*
X0142252Y0199830D02*
X0146189Y0199830D01*
X0146681Y0199338D01*
X0149634Y0199338D01*
X0150126Y0199830D01*
X0154063Y0199830D01*
X0156523Y0197370D01*
X0156523Y0195893D01*
X0157015Y0195401D01*
X0157015Y0193925D01*
X0148157Y0185067D01*
X0155539Y0187035D02*
X0155539Y0180145D01*
X0152094Y0176701D01*
X0151897Y0177094D01*
X0152586Y0176208D01*
X0152586Y0173748D01*
X0155539Y0170795D01*
X0155539Y0157508D01*
X0154063Y0158000D01*
X0155539Y0156523D01*
X0169811Y0156523D01*
X0169811Y0156504D01*
X0176208Y0161445D02*
X0176208Y0150126D01*
X0154063Y0150126D01*
X0147173Y0143236D01*
X0147173Y0139791D01*
X0147004Y0139468D01*
X0138652Y0147819D02*
X0138315Y0148157D01*
X0138315Y0176701D01*
X0136838Y0178177D01*
X0136838Y0194417D01*
X0142252Y0199830D01*
X0141760Y0190972D02*
X0140775Y0189988D01*
X0140775Y0180145D01*
X0143728Y0177193D01*
X0144417Y0177094D01*
X0144712Y0176701D01*
X0151602Y0169811D01*
X0151602Y0167842D01*
X0151917Y0167842D01*
X0144712Y0167842D02*
X0154063Y0158492D01*
X0154063Y0158000D01*
X0144712Y0167842D02*
X0144397Y0167842D01*
X0159476Y0182606D02*
X0163905Y0182606D01*
X0163905Y0182271D01*
X0161937Y0191464D02*
X0161937Y0191878D01*
X0161937Y0191464D02*
X0159968Y0191464D01*
X0155539Y0187035D01*
X0151917Y0195401D02*
X0150618Y0195401D01*
X0146189Y0190972D01*
X0141760Y0190972D01*
X0163905Y0169161D02*
X0163905Y0168826D01*
X0168826Y0168826D01*
X0176208Y0161445D01*
X0176208Y0150126D02*
X0176208Y0138807D01*
X0169811Y0132409D01*
X0169811Y0131937D01*
D40*
X0138315Y0141267D02*
X0131917Y0147665D01*
X0131917Y0192449D01*
X0146189Y0206720D01*
X0154555Y0206720D01*
X0161937Y0199338D01*
X0161937Y0198925D01*
X0161937Y0199338D02*
X0186543Y0199338D01*
X0225913Y0238708D01*
X0232311Y0238708D01*
X0232311Y0240185D01*
X0232311Y0238708D02*
X0237232Y0238708D01*
X0238216Y0237724D01*
X0238216Y0224929D01*
X0246090Y0217055D01*
X0251996Y0217055D01*
X0252405Y0216779D01*
X0252488Y0218531D02*
X0252405Y0218748D01*
X0252488Y0218531D02*
X0258393Y0218531D01*
X0252405Y0220716D02*
X0251996Y0220992D01*
X0251996Y0223945D01*
X0251504Y0224437D01*
X0258393Y0225421D02*
X0258393Y0228866D01*
X0256425Y0230834D01*
X0247075Y0230834D01*
X0251504Y0234279D02*
X0254949Y0234279D01*
X0260362Y0228866D01*
X0260362Y0225421D01*
X0260795Y0225169D01*
X0262763Y0225169D02*
X0262823Y0224929D01*
X0262823Y0197370D01*
X0252681Y0197370D01*
X0252405Y0197094D01*
X0252287Y0198945D02*
X0247370Y0198945D01*
X0244333Y0195908D01*
X0244333Y0193847D01*
X0240263Y0189778D01*
X0240263Y0187527D01*
X0233216Y0187527D02*
X0229850Y0187527D01*
X0222960Y0194417D01*
X0222960Y0194830D01*
X0222960Y0194909D01*
X0213118Y0204752D01*
X0213118Y0205244D01*
X0213118Y0205736D01*
X0222960Y0215578D01*
X0222960Y0215657D01*
X0222960Y0216071D01*
X0233787Y0226897D01*
X0235185Y0226897D01*
X0235263Y0226897D01*
X0235263Y0225913D01*
X0244614Y0216563D01*
X0244614Y0213610D01*
X0249043Y0209181D01*
X0251996Y0209181D01*
X0252405Y0208905D01*
X0252488Y0208689D01*
X0255933Y0208689D01*
X0256425Y0208197D01*
X0256425Y0203767D01*
X0255933Y0203275D01*
X0252488Y0203275D01*
X0252405Y0203000D01*
X0252488Y0201307D02*
X0252405Y0201031D01*
X0252488Y0201307D02*
X0255933Y0201307D01*
X0257901Y0203275D01*
X0257901Y0208689D01*
X0259378Y0210165D01*
X0257901Y0208689D02*
X0255933Y0210657D01*
X0252488Y0210657D01*
X0252405Y0210874D01*
X0252405Y0206937D02*
X0232803Y0206937D01*
X0232212Y0206937D01*
X0222960Y0206937D01*
X0222960Y0208610D01*
X0222960Y0204968D02*
X0222960Y0201878D01*
X0222960Y0204968D02*
X0241267Y0204968D01*
X0241267Y0197960D01*
X0241267Y0204968D02*
X0242645Y0204968D01*
X0252405Y0204968D01*
X0252405Y0199063D02*
X0252287Y0198945D01*
X0262823Y0197370D02*
X0272173Y0197370D01*
X0281031Y0197370D01*
X0281031Y0208197D01*
X0283492Y0210657D01*
X0283492Y0220992D01*
X0285460Y0220992D01*
X0285952Y0221484D01*
X0285952Y0224929D01*
X0286386Y0225169D01*
X0284476Y0225421D02*
X0284417Y0225169D01*
X0284476Y0225421D02*
X0284476Y0228374D01*
X0287921Y0231819D01*
X0287921Y0235263D01*
X0287921Y0231819D02*
X0294811Y0231819D01*
X0307606Y0219023D01*
X0307606Y0201307D01*
X0309575Y0201130D01*
X0309575Y0201307D01*
X0307606Y0201307D01*
X0307114Y0201307D01*
X0304161Y0204260D01*
X0295303Y0204260D01*
X0294319Y0203275D01*
X0290874Y0203275D01*
X0290838Y0203000D01*
X0290321Y0204451D02*
X0287391Y0204451D01*
X0286863Y0203924D01*
X0286863Y0198139D01*
X0287391Y0197612D01*
X0290321Y0197612D01*
X0290838Y0197094D01*
X0290874Y0196878D01*
X0294319Y0196878D01*
X0297271Y0193925D01*
X0301701Y0193925D01*
X0301701Y0193846D01*
X0307114Y0193433D02*
X0296287Y0182606D01*
X0279555Y0182606D01*
X0278571Y0183590D01*
X0278571Y0186543D01*
X0278512Y0186736D01*
X0276602Y0186543D02*
X0276602Y0183590D01*
X0287921Y0172271D01*
X0288098Y0171779D01*
X0281051Y0171779D02*
X0277207Y0167935D01*
X0277207Y0167371D01*
X0275710Y0165874D01*
X0274732Y0165874D01*
X0274732Y0168433D02*
X0274929Y0168630D01*
X0274929Y0172960D01*
X0272606Y0174889D01*
X0272606Y0186736D01*
X0270638Y0186736D02*
X0270638Y0174968D01*
X0268236Y0172960D01*
X0268236Y0168630D01*
X0268433Y0168433D01*
X0268669Y0186736D02*
X0268669Y0193866D01*
X0272173Y0197370D01*
X0276543Y0193000D01*
X0276543Y0186736D01*
X0276602Y0186543D01*
X0276543Y0186736D02*
X0274575Y0186736D01*
X0281031Y0197370D02*
X0290563Y0197370D01*
X0290838Y0197094D01*
X0290838Y0199063D02*
X0290874Y0199338D01*
X0290874Y0200815D01*
X0290838Y0201031D01*
X0290874Y0201307D01*
X0301701Y0201307D01*
X0301701Y0200893D01*
X0307114Y0193433D02*
X0309575Y0193433D01*
X0309575Y0193610D01*
X0309575Y0193925D01*
X0312527Y0193925D01*
X0341563Y0222960D01*
X0353866Y0222960D01*
X0358787Y0227882D01*
X0358334Y0228275D01*
X0358787Y0228374D01*
X0358787Y0247075D01*
X0363708Y0251996D01*
X0363708Y0252291D01*
X0363708Y0288118D01*
X0363708Y0289397D01*
X0347468Y0305638D01*
X0347468Y0363216D01*
X0347134Y0363630D01*
X0348945Y0368630D02*
X0342055Y0368630D01*
X0337134Y0373551D01*
X0337134Y0373630D01*
X0346976Y0374043D02*
X0347134Y0373630D01*
X0346976Y0374043D02*
X0307114Y0413905D01*
X0301878Y0413905D01*
X0293649Y0413905D02*
X0281523Y0413905D01*
X0277586Y0417842D01*
X0272665Y0417842D01*
X0268728Y0413905D01*
X0268413Y0413905D01*
X0275618Y0413905D02*
X0275933Y0413905D01*
X0275618Y0413905D02*
X0275618Y0307606D01*
X0272173Y0303669D02*
X0272173Y0297763D01*
X0276110Y0297763D01*
X0276110Y0297350D01*
X0276110Y0297763D02*
X0283984Y0297763D01*
X0283984Y0297350D01*
X0283984Y0290303D02*
X0283984Y0289889D01*
X0281031Y0286937D01*
X0278078Y0286937D01*
X0273157Y0282015D01*
X0273157Y0279063D01*
X0273019Y0278964D01*
X0271326Y0278964D02*
X0271189Y0279063D01*
X0269712Y0279063D01*
X0269634Y0278964D01*
X0269712Y0279063D02*
X0269712Y0290382D01*
X0268236Y0290303D01*
X0268236Y0290382D01*
X0266267Y0290382D01*
X0263315Y0293334D01*
X0257409Y0293334D01*
X0256425Y0292350D01*
X0256425Y0274141D01*
X0256917Y0274634D01*
X0259378Y0274634D01*
X0259378Y0280047D01*
X0262823Y0283492D01*
X0262330Y0283984D01*
X0262823Y0283492D02*
X0266267Y0280047D01*
X0266267Y0279063D01*
X0266248Y0278964D01*
X0267744Y0279063D02*
X0267744Y0283492D01*
X0261346Y0289889D01*
X0260362Y0289889D01*
X0260362Y0290303D01*
X0260362Y0297271D02*
X0260362Y0297350D01*
X0260362Y0297763D01*
X0268236Y0297763D01*
X0268236Y0297350D01*
X0268236Y0297763D02*
X0272173Y0297763D01*
X0269712Y0290382D02*
X0268236Y0290382D01*
X0269712Y0290382D02*
X0276110Y0290382D01*
X0276110Y0290303D01*
X0279181Y0280047D02*
X0283984Y0280047D01*
X0280067Y0276130D01*
X0280067Y0274712D01*
X0280067Y0273019D01*
X0280067Y0271326D01*
X0280067Y0269634D01*
X0278098Y0265382D02*
X0278078Y0264299D01*
X0305638Y0264299D01*
X0309575Y0268236D01*
X0311366Y0268236D01*
X0311543Y0268236D01*
X0311543Y0280047D01*
X0311366Y0280047D01*
X0308098Y0274634D02*
X0304161Y0270697D01*
X0304161Y0268236D01*
X0303846Y0268236D01*
X0303846Y0280047D02*
X0304161Y0280047D01*
X0318433Y0294319D01*
X0337134Y0314004D02*
X0337134Y0363630D01*
X0348945Y0368630D02*
X0367645Y0349929D01*
X0367645Y0262330D01*
X0389791Y0240185D01*
X0389791Y0230342D01*
X0376504Y0226897D02*
X0374535Y0224929D01*
X0374535Y0219515D01*
X0359279Y0204260D01*
X0359279Y0197370D01*
X0358964Y0197370D01*
X0358787Y0197370D01*
X0355834Y0194417D01*
X0348945Y0194417D01*
X0345992Y0197370D01*
X0341248Y0197370D01*
X0333197Y0197370D02*
X0333019Y0197370D01*
X0333197Y0197370D02*
X0333197Y0209181D01*
X0333374Y0209181D01*
X0337134Y0213610D02*
X0340578Y0210165D01*
X0340578Y0209181D01*
X0340893Y0209181D01*
X0350913Y0209181D02*
X0350913Y0197370D01*
X0350736Y0197370D01*
X0350913Y0209181D02*
X0351090Y0209181D01*
X0358295Y0209181D02*
X0358610Y0209181D01*
X0358295Y0209181D02*
X0347960Y0219515D01*
X0353374Y0224437D02*
X0354358Y0225421D01*
X0354358Y0296779D01*
X0337134Y0314004D01*
X0345992Y0288118D02*
X0345992Y0271189D01*
X0346976Y0272173D01*
X0345992Y0271189D02*
X0345992Y0252291D01*
X0329260Y0238216D02*
X0296779Y0238216D01*
X0294811Y0240185D01*
X0283492Y0240185D01*
X0272665Y0229358D01*
X0272665Y0225421D01*
X0272606Y0225169D01*
X0274141Y0224929D02*
X0274575Y0225169D01*
X0274141Y0224929D02*
X0274141Y0209181D01*
X0273157Y0208197D01*
X0276602Y0202783D02*
X0276602Y0224929D01*
X0276543Y0225169D01*
X0278512Y0225169D02*
X0278571Y0225421D01*
X0278571Y0230834D01*
X0286445Y0238708D01*
X0294319Y0238708D01*
X0308590Y0224437D01*
X0353374Y0224437D01*
X0351287Y0228275D02*
X0350913Y0228374D01*
X0344023Y0228374D01*
X0321386Y0251012D01*
X0264791Y0251012D01*
X0242645Y0273157D01*
X0242645Y0276110D01*
X0252488Y0279634D02*
X0252488Y0290382D01*
X0259378Y0297271D01*
X0260362Y0297271D01*
X0262823Y0278078D02*
X0263807Y0277094D01*
X0263807Y0275126D01*
X0264279Y0274712D01*
X0263807Y0273157D02*
X0264279Y0273019D01*
X0263807Y0273157D02*
X0261346Y0273157D01*
X0259870Y0274634D01*
X0259378Y0274634D01*
X0256425Y0274141D02*
X0253472Y0271189D01*
X0252488Y0272586D01*
X0252488Y0272173D01*
X0253472Y0271189D01*
X0256917Y0267744D01*
X0259870Y0267744D01*
X0261346Y0269220D01*
X0263807Y0269220D01*
X0264279Y0269634D01*
X0263807Y0271189D02*
X0264279Y0271326D01*
X0263807Y0271189D02*
X0258393Y0271189D01*
X0266248Y0265382D02*
X0266267Y0265362D01*
X0266267Y0254456D01*
X0266267Y0247567D02*
X0307606Y0247567D01*
X0290382Y0228374D02*
X0300224Y0218531D01*
X0300224Y0215578D01*
X0295795Y0211149D01*
X0290874Y0211149D01*
X0290838Y0210874D01*
X0290874Y0209181D02*
X0290838Y0208905D01*
X0290874Y0209181D02*
X0295795Y0209181D01*
X0304161Y0217547D01*
X0296779Y0217055D02*
X0296779Y0215578D01*
X0294319Y0213118D01*
X0290874Y0213118D01*
X0290838Y0212842D01*
X0290838Y0206937D02*
X0290382Y0206720D01*
X0284476Y0206720D01*
X0290321Y0204451D02*
X0290838Y0204968D01*
X0283492Y0220992D02*
X0282508Y0221976D01*
X0282508Y0224929D01*
X0282449Y0225169D01*
X0270697Y0225421D02*
X0270638Y0225169D01*
X0270697Y0225421D02*
X0270697Y0243138D01*
X0266267Y0247567D01*
X0168826Y0345008D01*
X0161937Y0345008D01*
X0161937Y0345421D01*
X0161937Y0345008D02*
X0154555Y0337626D01*
X0148649Y0337626D01*
X0144712Y0341563D01*
X0144712Y0348945D01*
X0144397Y0348945D01*
X0138708Y0326110D02*
X0138315Y0325815D01*
X0133886Y0321386D01*
X0133886Y0283984D01*
X0180638Y0237232D01*
X0214594Y0237232D01*
X0216563Y0239201D01*
X0216563Y0241661D01*
X0223945Y0249043D01*
X0251012Y0249043D01*
X0258393Y0241661D01*
X0255441Y0237724D02*
X0245598Y0237724D01*
X0243138Y0235263D01*
X0242232Y0234771D01*
X0242645Y0234771D01*
X0243138Y0235263D01*
X0232803Y0245598D01*
X0235185Y0234771D02*
X0235263Y0234771D01*
X0235263Y0226897D01*
X0242153Y0226897D02*
X0242232Y0226897D01*
X0242153Y0226897D02*
X0242153Y0234771D01*
X0242232Y0234771D01*
X0251504Y0243630D02*
X0266267Y0228866D01*
X0266267Y0225421D01*
X0266701Y0225169D01*
X0268236Y0225421D02*
X0268236Y0228866D01*
X0267252Y0229850D01*
X0267252Y0235756D01*
X0264299Y0228866D02*
X0255441Y0237724D01*
X0264299Y0228866D02*
X0264299Y0225421D01*
X0264732Y0225169D01*
X0264791Y0224929D01*
X0264791Y0221976D01*
X0266267Y0220500D01*
X0266267Y0210165D01*
X0268669Y0225169D02*
X0268236Y0225421D01*
X0258826Y0225169D02*
X0258393Y0225421D01*
X0258393Y0250519D02*
X0258393Y0251996D01*
X0194417Y0315972D01*
X0138807Y0315972D01*
X0138708Y0316110D01*
X0138708Y0286110D02*
X0138807Y0285952D01*
X0171779Y0285952D01*
X0173748Y0287921D01*
X0173748Y0276110D01*
X0174161Y0276110D01*
X0174240Y0276110D01*
X0174240Y0268236D01*
X0174161Y0268236D01*
X0178177Y0273157D02*
X0178177Y0262823D01*
X0188019Y0252980D01*
X0190972Y0252980D01*
X0193433Y0255441D01*
X0193433Y0269712D01*
X0190480Y0272665D01*
X0190480Y0275126D01*
X0190008Y0275559D01*
X0186051Y0268078D02*
X0186051Y0289397D01*
X0187527Y0290874D01*
X0187527Y0299141D01*
X0187035Y0307606D02*
X0187527Y0308098D01*
X0187527Y0308197D01*
X0187035Y0307606D02*
X0173748Y0307606D01*
X0173748Y0307429D01*
X0173748Y0299909D02*
X0173748Y0287921D01*
X0181130Y0276110D02*
X0178177Y0273157D01*
X0181130Y0276110D02*
X0181208Y0276110D01*
X0169811Y0213118D02*
X0138807Y0213118D01*
X0138708Y0213236D01*
X0143236Y0195401D02*
X0138807Y0190972D01*
X0138807Y0179161D01*
X0141267Y0176701D01*
X0141267Y0152094D01*
X0145204Y0148157D01*
X0145204Y0147173D01*
X0139299Y0141267D01*
X0138315Y0141267D01*
X0143236Y0195401D02*
X0144397Y0195401D01*
X0232212Y0206937D02*
X0232212Y0212527D01*
X0276110Y0254456D02*
X0276602Y0254949D01*
X0269712Y0261838D01*
X0269712Y0265283D01*
X0269634Y0265382D01*
X0269220Y0265283D01*
X0268236Y0265283D01*
X0267941Y0265382D01*
X0278078Y0265283D02*
X0278098Y0265382D01*
X0278078Y0265283D02*
X0278078Y0264299D01*
X0278078Y0256425D01*
X0276602Y0254949D01*
X0276405Y0278964D02*
X0278098Y0278964D01*
X0279181Y0280047D01*
X0276405Y0278964D02*
X0274712Y0278964D01*
X0267941Y0278964D02*
X0267744Y0279063D01*
X0374535Y0260362D02*
X0377980Y0256917D01*
X0411937Y0256917D01*
X0411937Y0256897D01*
X0411937Y0266897D02*
X0411937Y0267252D01*
X0392744Y0286445D01*
X0392744Y0346976D01*
X0392429Y0346976D01*
X0383886Y0346976D01*
X0382409Y0345500D01*
X0382409Y0345421D01*
X0411937Y0276897D02*
X0411937Y0276602D01*
X0416366Y0272173D01*
X0416366Y0223452D01*
X0400618Y0207704D01*
X0401602Y0206720D01*
X0401602Y0197370D01*
X0401917Y0197370D01*
X0400618Y0207704D02*
X0399634Y0208689D01*
X0389791Y0208689D01*
X0380441Y0199338D01*
X0380441Y0198925D01*
X0376504Y0226897D02*
X0411937Y0226897D01*
D41*
X0299732Y0177685D02*
X0299732Y0152094D01*
X0278573Y0152094D01*
X0278573Y0155863D01*
X0277753Y0156683D01*
X0274473Y0156683D01*
X0274473Y0159803D01*
X0275882Y0161212D01*
X0277525Y0161212D01*
X0277525Y0160709D01*
X0278918Y0159316D01*
X0283184Y0159316D01*
X0284417Y0160550D01*
X0284488Y0160378D01*
X0284792Y0159923D01*
X0285179Y0159536D01*
X0285634Y0159232D01*
X0286140Y0159023D01*
X0286677Y0158916D01*
X0287835Y0158916D01*
X0287835Y0163248D01*
X0288361Y0163248D01*
X0288361Y0158916D01*
X0289520Y0158916D01*
X0290056Y0159023D01*
X0290562Y0159232D01*
X0291017Y0159536D01*
X0291404Y0159923D01*
X0291708Y0160378D01*
X0291917Y0160884D01*
X0292024Y0161421D01*
X0292024Y0163249D01*
X0288361Y0163249D01*
X0288361Y0163775D01*
X0287835Y0163775D01*
X0287835Y0171516D01*
X0288361Y0171516D01*
X0288361Y0168107D01*
X0288361Y0163775D01*
X0292024Y0163775D01*
X0292024Y0165602D01*
X0291917Y0166139D01*
X0291708Y0166645D01*
X0291404Y0167100D01*
X0291017Y0167487D01*
X0290779Y0167645D01*
X0291017Y0167804D01*
X0291404Y0168191D01*
X0291708Y0168646D01*
X0291917Y0169152D01*
X0292024Y0169688D01*
X0292024Y0171516D01*
X0288361Y0171516D01*
X0288361Y0172042D01*
X0292024Y0172042D01*
X0292024Y0173870D01*
X0291917Y0174407D01*
X0291708Y0174912D01*
X0291404Y0175367D01*
X0291017Y0175754D01*
X0290562Y0176058D01*
X0290056Y0176268D01*
X0289520Y0176375D01*
X0288361Y0176374D01*
X0288361Y0172042D01*
X0287835Y0172042D01*
X0287835Y0176375D01*
X0286677Y0176375D01*
X0286140Y0176268D01*
X0285634Y0176058D01*
X0285179Y0175754D01*
X0284792Y0175367D01*
X0284488Y0174912D01*
X0284417Y0174741D01*
X0283184Y0175975D01*
X0278918Y0175975D01*
X0277525Y0174582D01*
X0277525Y0170657D01*
X0277138Y0170270D01*
X0276887Y0170522D01*
X0276629Y0170522D01*
X0277389Y0170522D01*
X0276629Y0170522D02*
X0276629Y0172346D01*
X0276687Y0172416D01*
X0276629Y0173039D01*
X0276629Y0173665D01*
X0276565Y0173728D01*
X0276557Y0173818D01*
X0276075Y0174218D01*
X0275633Y0174660D01*
X0275543Y0174660D01*
X0274306Y0175687D01*
X0274306Y0177685D01*
X0299732Y0177685D01*
X0299732Y0176916D02*
X0274306Y0176916D01*
X0274751Y0175318D02*
X0278261Y0175318D01*
X0277525Y0173719D02*
X0276574Y0173719D01*
X0276629Y0172120D02*
X0277525Y0172120D01*
X0268938Y0175763D02*
X0267619Y0174660D01*
X0267532Y0174660D01*
X0267087Y0174216D01*
X0266605Y0173813D01*
X0266598Y0173726D01*
X0266536Y0173665D01*
X0266536Y0173036D01*
X0266480Y0172410D01*
X0266536Y0172343D01*
X0266536Y0170522D01*
X0248551Y0170522D01*
X0248551Y0172120D02*
X0266536Y0172120D01*
X0266536Y0170522D02*
X0266278Y0170522D01*
X0265458Y0169702D01*
X0265458Y0167708D01*
X0265418Y0167668D01*
X0265181Y0167257D01*
X0265058Y0166800D01*
X0265058Y0165874D01*
X0268433Y0165874D01*
X0268433Y0165874D01*
X0265058Y0165874D01*
X0265058Y0164948D01*
X0265181Y0164490D01*
X0265418Y0164080D01*
X0265458Y0164039D01*
X0265458Y0162046D01*
X0266278Y0161226D01*
X0269873Y0161226D01*
X0269873Y0156683D01*
X0266593Y0156683D01*
X0265773Y0155863D01*
X0265773Y0152094D01*
X0248551Y0152094D01*
X0248551Y0177685D01*
X0268938Y0177685D01*
X0268938Y0175763D01*
X0268405Y0175318D02*
X0248551Y0175318D01*
X0248551Y0176916D02*
X0268938Y0176916D01*
X0266590Y0173719D02*
X0248551Y0173719D01*
X0248551Y0168923D02*
X0265458Y0168923D01*
X0265220Y0167325D02*
X0248551Y0167325D01*
X0248551Y0165726D02*
X0265058Y0165726D01*
X0265390Y0164128D02*
X0248551Y0164128D01*
X0248551Y0162529D02*
X0265458Y0162529D01*
X0269873Y0160931D02*
X0248551Y0160931D01*
X0248551Y0159332D02*
X0269873Y0159332D01*
X0269873Y0157734D02*
X0248551Y0157734D01*
X0248551Y0156135D02*
X0266045Y0156135D01*
X0265773Y0154537D02*
X0248551Y0154537D01*
X0248551Y0152938D02*
X0265773Y0152938D01*
X0274473Y0157734D02*
X0299732Y0157734D01*
X0299732Y0159332D02*
X0290712Y0159332D01*
X0291927Y0160931D02*
X0299732Y0160931D01*
X0299732Y0162529D02*
X0292024Y0162529D01*
X0292024Y0164128D02*
X0299732Y0164128D01*
X0299732Y0165726D02*
X0291999Y0165726D01*
X0291179Y0167325D02*
X0299732Y0167325D01*
X0299732Y0168923D02*
X0291823Y0168923D01*
X0292024Y0170522D02*
X0299732Y0170522D01*
X0299732Y0172120D02*
X0292024Y0172120D01*
X0292024Y0173719D02*
X0299732Y0173719D01*
X0299732Y0175318D02*
X0291437Y0175318D01*
X0288361Y0175318D02*
X0287835Y0175318D01*
X0287835Y0173719D02*
X0288361Y0173719D01*
X0288361Y0172120D02*
X0287835Y0172120D01*
X0287835Y0170522D02*
X0288361Y0170522D01*
X0288361Y0168923D02*
X0287835Y0168923D01*
X0287835Y0167325D02*
X0288361Y0167325D01*
X0288361Y0165726D02*
X0287835Y0165726D01*
X0287835Y0164128D02*
X0288361Y0164128D01*
X0288361Y0162529D02*
X0287835Y0162529D01*
X0287835Y0160931D02*
X0288361Y0160931D01*
X0288361Y0159332D02*
X0287835Y0159332D01*
X0285485Y0159332D02*
X0283200Y0159332D01*
X0278902Y0159332D02*
X0274473Y0159332D01*
X0275601Y0160931D02*
X0277525Y0160931D01*
X0278301Y0156135D02*
X0299732Y0156135D01*
X0299732Y0154537D02*
X0278573Y0154537D01*
X0278573Y0152938D02*
X0299732Y0152938D01*
X0284759Y0175318D02*
X0283841Y0175318D01*
M02*
