%
M48
M72
T01C0.01500
T02C0.02362
T03C0.03937
T04C0.04000
T05C0.04331
T06C0.05512
%
T01
X148649Y171779
X148649Y191464
X207212Y264791
X227389Y286445
X257901Y272173
X260362Y267252
X265775Y257409
X270204Y251504
X278078Y255441
X281523Y261838
X269712Y283984
X260854Y280539
X297271Y286445
X311543Y241661
X330736Y225421
X333689Y204260
X349929Y204260
X375519Y206720
X305145Y198846
X296287Y211149
X301208Y216071
X284476Y214594
X284476Y210657
X283984Y201799
X275618Y192941
X272665Y216563
X268728Y216563
X281031Y230834
X283984Y235263
X254949Y232311
X247075Y209673
X247075Y202291
X223452Y216563
X225421Y220008
X164889Y341071
X384378Y341071
T02
X154063Y150126
X154063Y158000
X244614Y185559
X260362Y175716
X264299Y179653
X260362Y169811
X260362Y165874
X260362Y161937
X260362Y158000
X252488Y161937
X252488Y165874
X280047Y158000
X287921Y158000
X295795Y161937
X295795Y169811
X295795Y177685
X287921Y179653
X280047Y179653
X299732Y185559
X374535Y228866
X398157Y236740
X398157Y248551
X374535Y260362
X390283Y158000
X390283Y150126
X224929Y256425
X224929Y264299
X205244Y252488
X154063Y390283
X154063Y398157
X390283Y394220
X390283Y386346
T03
X214673Y282173
X214673Y272173
T04
X138708Y263236
X138708Y253236
X138708Y243236
X138708Y233236
X138708Y223236
X138708Y213236
X138708Y286110
X138708Y296110
X138708Y306110
X138708Y316110
X138708Y326110
X138708Y336110
X327134Y363630
X337134Y363630
X347134Y363630
X347134Y373630
X337134Y373630
X327134Y373630
T05
X411937Y316897
X411937Y306897
X411937Y296897
X411937Y286897
X411937Y276897
X411937Y266897
X411937Y256897
X411937Y246897
X411937Y236897
X411937Y226897
X238433Y301661
X238433Y311661
T06
X224732Y301110
X224732Y243236
X319614Y243236
X319614Y301110
M30
