G75*
%MOIN*%
%OFA0B0*%
%FSLAX25Y25*%
%IPPOS*%
%LPD*%
%AMOC8*
5,1,8,0,0,1.08239X$1,22.5*
%
%ADD10R,0.03150X0.01378*%
%ADD11C,0.05937*%
%ADD12C,0.01956*%
%ADD13C,0.01959*%
%ADD14C,0.01575*%
%ADD15C,0.01887*%
%ADD16R,0.07400X0.07400*%
%ADD17OC8,0.07400*%
%ADD18R,0.06496X0.06496*%
%ADD19C,0.06496*%
%ADD20C,0.07400*%
%ADD21R,0.07874X0.07874*%
%ADD22C,0.01811*%
%ADD23R,0.03937X0.04921*%
%ADD24R,0.03937X0.05906*%
%ADD25R,0.11417X0.08071*%
%ADD26R,0.10000X0.04000*%
%ADD27R,0.04724X0.02165*%
%ADD28R,0.00882X0.05512*%
%ADD29R,0.00886X0.05512*%
%ADD30R,0.05512X0.00882*%
%ADD31R,0.05512X0.00886*%
%ADD32C,0.02362*%
%ADD33R,0.04724X0.05512*%
%ADD34R,0.01102X0.06150*%
%ADD35R,0.06150X0.01102*%
%ADD36R,0.07480X0.04331*%
%ADD37C,0.03962*%
%ADD38C,0.00600*%
%ADD39C,0.03100*%
%ADD40C,0.01600*%
%ADD41C,0.01800*%
D10*
X0268236Y0165283D03*
X0268236Y0167842D03*
X0268236Y0170401D03*
X0274535Y0170401D03*
X0274535Y0167842D03*
X0274535Y0165283D03*
D11*
X0217641Y0272173D02*
X0211704Y0272173D01*
X0211704Y0282173D02*
X0217641Y0282173D01*
D12*
X0234620Y0284391D02*
X0234620Y0286687D01*
X0234620Y0284391D02*
X0230986Y0284391D01*
X0230986Y0286687D01*
X0234620Y0286687D01*
X0234620Y0286346D02*
X0230986Y0286346D01*
X0230986Y0279640D02*
X0230986Y0277344D01*
X0230986Y0279640D02*
X0234620Y0279640D01*
X0234620Y0277344D01*
X0230986Y0277344D01*
X0230986Y0279299D02*
X0234620Y0279299D01*
X0254305Y0278486D02*
X0254305Y0280782D01*
X0254305Y0278486D02*
X0250671Y0278486D01*
X0250671Y0280782D01*
X0254305Y0280782D01*
X0254305Y0280441D02*
X0250671Y0280441D01*
X0250671Y0273734D02*
X0250671Y0271438D01*
X0250671Y0273734D02*
X0254305Y0273734D01*
X0254305Y0271438D01*
X0250671Y0271438D01*
X0250671Y0273393D02*
X0254305Y0273393D01*
X0258545Y0289155D02*
X0258545Y0291451D01*
X0262179Y0291451D01*
X0262179Y0289155D01*
X0258545Y0289155D01*
X0258545Y0291110D02*
X0262179Y0291110D01*
X0266419Y0291451D02*
X0266419Y0289155D01*
X0266419Y0291451D02*
X0270053Y0291451D01*
X0270053Y0289155D01*
X0266419Y0289155D01*
X0266419Y0291110D02*
X0270053Y0291110D01*
X0274293Y0291451D02*
X0274293Y0289155D01*
X0274293Y0291451D02*
X0277927Y0291451D01*
X0277927Y0289155D01*
X0274293Y0289155D01*
X0274293Y0291110D02*
X0277927Y0291110D01*
X0282167Y0291451D02*
X0282167Y0289155D01*
X0282167Y0291451D02*
X0285801Y0291451D01*
X0285801Y0289155D01*
X0282167Y0289155D01*
X0282167Y0291110D02*
X0285801Y0291110D01*
X0285801Y0296202D02*
X0285801Y0298498D01*
X0285801Y0296202D02*
X0282167Y0296202D01*
X0282167Y0298498D01*
X0285801Y0298498D01*
X0285801Y0298157D02*
X0282167Y0298157D01*
X0277927Y0298498D02*
X0277927Y0296202D01*
X0274293Y0296202D01*
X0274293Y0298498D01*
X0277927Y0298498D01*
X0277927Y0298157D02*
X0274293Y0298157D01*
X0270053Y0298498D02*
X0270053Y0296202D01*
X0266419Y0296202D01*
X0266419Y0298498D01*
X0270053Y0298498D01*
X0270053Y0298157D02*
X0266419Y0298157D01*
X0262179Y0298498D02*
X0262179Y0296202D01*
X0258545Y0296202D01*
X0258545Y0298498D01*
X0262179Y0298498D01*
X0262179Y0298157D02*
X0258545Y0298157D01*
X0196136Y0248702D02*
X0193840Y0248702D01*
X0193840Y0252336D01*
X0196136Y0252336D01*
X0196136Y0248702D01*
X0196136Y0250657D02*
X0193840Y0250657D01*
X0189089Y0252336D02*
X0186793Y0252336D01*
X0189089Y0252336D02*
X0189089Y0248702D01*
X0186793Y0248702D01*
X0186793Y0252336D01*
X0186793Y0250657D02*
X0189089Y0250657D01*
X0189089Y0244462D02*
X0186793Y0244462D01*
X0189089Y0244462D02*
X0189089Y0240828D01*
X0186793Y0240828D01*
X0186793Y0244462D01*
X0186793Y0242783D02*
X0189089Y0242783D01*
X0193840Y0240828D02*
X0196136Y0240828D01*
X0193840Y0240828D02*
X0193840Y0244462D01*
X0196136Y0244462D01*
X0196136Y0240828D01*
X0196136Y0242783D02*
X0193840Y0242783D01*
X0194128Y0218584D02*
X0191832Y0218584D01*
X0191832Y0222218D01*
X0194128Y0222218D01*
X0194128Y0218584D01*
X0194128Y0220539D02*
X0191832Y0220539D01*
X0187081Y0222218D02*
X0184785Y0222218D01*
X0187081Y0222218D02*
X0187081Y0218584D01*
X0184785Y0218584D01*
X0184785Y0222218D01*
X0184785Y0220539D02*
X0187081Y0220539D01*
X0214935Y0214837D02*
X0214935Y0212541D01*
X0211301Y0212541D01*
X0211301Y0214837D01*
X0214935Y0214837D01*
X0214935Y0214496D02*
X0211301Y0214496D01*
X0211301Y0207789D02*
X0211301Y0205493D01*
X0211301Y0207789D02*
X0214935Y0207789D01*
X0214935Y0205493D01*
X0211301Y0205493D01*
X0211301Y0207448D02*
X0214935Y0207448D01*
X0214935Y0199089D02*
X0214935Y0196793D01*
X0211301Y0196793D01*
X0211301Y0199089D01*
X0214935Y0199089D01*
X0214935Y0198748D02*
X0211301Y0198748D01*
X0211301Y0192041D02*
X0211301Y0189745D01*
X0211301Y0192041D02*
X0214935Y0192041D01*
X0214935Y0189745D01*
X0211301Y0189745D01*
X0211301Y0191700D02*
X0214935Y0191700D01*
X0228131Y0193281D02*
X0230427Y0193281D01*
X0230427Y0189647D01*
X0228131Y0189647D01*
X0228131Y0193281D01*
X0228131Y0191602D02*
X0230427Y0191602D01*
X0235178Y0189647D02*
X0237474Y0189647D01*
X0235178Y0189647D02*
X0235178Y0193281D01*
X0237474Y0193281D01*
X0237474Y0189647D01*
X0237474Y0191602D02*
X0235178Y0191602D01*
X0279706Y0175565D02*
X0282002Y0175565D01*
X0282002Y0171931D01*
X0279706Y0171931D01*
X0279706Y0175565D01*
X0279706Y0173886D02*
X0282002Y0173886D01*
X0286753Y0171931D02*
X0289049Y0171931D01*
X0286753Y0171931D02*
X0286753Y0175565D01*
X0289049Y0175565D01*
X0289049Y0171931D01*
X0289049Y0173886D02*
X0286753Y0173886D01*
X0286753Y0163663D02*
X0289049Y0163663D01*
X0286753Y0163663D02*
X0286753Y0167297D01*
X0289049Y0167297D01*
X0289049Y0163663D01*
X0289049Y0165618D02*
X0286753Y0165618D01*
X0282002Y0167297D02*
X0279706Y0167297D01*
X0282002Y0167297D02*
X0282002Y0163663D01*
X0279706Y0163663D01*
X0279706Y0167297D01*
X0279706Y0165618D02*
X0282002Y0165618D01*
X0307758Y0194667D02*
X0307758Y0196963D01*
X0311392Y0196963D01*
X0311392Y0194667D01*
X0307758Y0194667D01*
X0307758Y0196622D02*
X0311392Y0196622D01*
X0311392Y0201714D02*
X0311392Y0204010D01*
X0311392Y0201714D02*
X0307758Y0201714D01*
X0307758Y0204010D01*
X0311392Y0204010D01*
X0311392Y0203669D02*
X0307758Y0203669D01*
X0382258Y0200073D02*
X0382258Y0197777D01*
X0378624Y0197777D01*
X0378624Y0200073D01*
X0382258Y0200073D01*
X0382258Y0199732D02*
X0378624Y0199732D01*
X0378624Y0193026D02*
X0378624Y0190730D01*
X0378624Y0193026D02*
X0382258Y0193026D01*
X0382258Y0190730D01*
X0378624Y0190730D01*
X0378624Y0192685D02*
X0382258Y0192685D01*
X0380592Y0344273D02*
X0380592Y0346569D01*
X0384226Y0346569D01*
X0384226Y0344273D01*
X0380592Y0344273D01*
X0380592Y0346228D02*
X0384226Y0346228D01*
X0384226Y0351320D02*
X0384226Y0353616D01*
X0384226Y0351320D02*
X0380592Y0351320D01*
X0380592Y0353616D01*
X0384226Y0353616D01*
X0384226Y0353275D02*
X0380592Y0353275D01*
X0186293Y0274293D02*
X0183997Y0274293D01*
X0183997Y0277927D01*
X0186293Y0277927D01*
X0186293Y0274293D01*
X0186293Y0276248D02*
X0183997Y0276248D01*
X0179246Y0277927D02*
X0176950Y0277927D01*
X0179246Y0277927D02*
X0179246Y0274293D01*
X0176950Y0274293D01*
X0176950Y0277927D01*
X0176950Y0276248D02*
X0179246Y0276248D01*
X0179246Y0270053D02*
X0176950Y0270053D01*
X0179246Y0270053D02*
X0179246Y0266419D01*
X0176950Y0266419D01*
X0176950Y0270053D01*
X0176950Y0268374D02*
X0179246Y0268374D01*
X0183997Y0266419D02*
X0186293Y0266419D01*
X0183997Y0266419D02*
X0183997Y0270053D01*
X0186293Y0270053D01*
X0186293Y0266419D01*
X0186293Y0268374D02*
X0183997Y0268374D01*
X0163754Y0200073D02*
X0163754Y0197777D01*
X0160120Y0197777D01*
X0160120Y0200073D01*
X0163754Y0200073D01*
X0163754Y0199732D02*
X0160120Y0199732D01*
X0160120Y0193026D02*
X0160120Y0190730D01*
X0160120Y0193026D02*
X0163754Y0193026D01*
X0163754Y0190730D01*
X0160120Y0190730D01*
X0160120Y0192685D02*
X0163754Y0192685D01*
X0160120Y0344273D02*
X0160120Y0346569D01*
X0163754Y0346569D01*
X0163754Y0344273D01*
X0160120Y0344273D01*
X0160120Y0346228D02*
X0163754Y0346228D01*
X0163754Y0351320D02*
X0163754Y0353616D01*
X0163754Y0351320D02*
X0160120Y0351320D01*
X0160120Y0353616D01*
X0163754Y0353616D01*
X0163754Y0353275D02*
X0160120Y0353275D01*
D13*
X0166007Y0384156D02*
X0166007Y0391528D01*
X0173615Y0391528D01*
X0173615Y0384156D01*
X0166007Y0384156D01*
X0166007Y0386114D02*
X0173615Y0386114D01*
X0173615Y0388072D02*
X0166007Y0388072D01*
X0166007Y0390030D02*
X0173615Y0390030D01*
X0173615Y0408723D02*
X0173615Y0416095D01*
X0173615Y0408723D02*
X0166007Y0408723D01*
X0166007Y0416095D01*
X0173615Y0416095D01*
X0173615Y0410681D02*
X0166007Y0410681D01*
X0166007Y0412639D02*
X0173615Y0412639D01*
X0173615Y0414597D02*
X0166007Y0414597D01*
X0378339Y0416095D02*
X0378339Y0408723D01*
X0370731Y0408723D01*
X0370731Y0416095D01*
X0378339Y0416095D01*
X0378339Y0410681D02*
X0370731Y0410681D01*
X0370731Y0412639D02*
X0378339Y0412639D01*
X0378339Y0414597D02*
X0370731Y0414597D01*
X0370731Y0391528D02*
X0370731Y0384156D01*
X0370731Y0391528D02*
X0378339Y0391528D01*
X0378339Y0384156D01*
X0370731Y0384156D01*
X0370731Y0386114D02*
X0378339Y0386114D01*
X0378339Y0388072D02*
X0370731Y0388072D01*
X0370731Y0390030D02*
X0378339Y0390030D01*
X0378339Y0160190D02*
X0378339Y0152818D01*
X0370731Y0152818D01*
X0370731Y0160190D01*
X0378339Y0160190D01*
X0378339Y0154776D02*
X0370731Y0154776D01*
X0370731Y0156734D02*
X0378339Y0156734D01*
X0378339Y0158692D02*
X0370731Y0158692D01*
X0370731Y0135623D02*
X0370731Y0128251D01*
X0370731Y0135623D02*
X0378339Y0135623D01*
X0378339Y0128251D01*
X0370731Y0128251D01*
X0370731Y0130209D02*
X0378339Y0130209D01*
X0378339Y0132167D02*
X0370731Y0132167D01*
X0370731Y0134125D02*
X0378339Y0134125D01*
X0166007Y0135623D02*
X0166007Y0128251D01*
X0166007Y0135623D02*
X0173615Y0135623D01*
X0173615Y0128251D01*
X0166007Y0128251D01*
X0166007Y0130209D02*
X0173615Y0130209D01*
X0173615Y0132167D02*
X0166007Y0132167D01*
X0166007Y0134125D02*
X0173615Y0134125D01*
X0173615Y0152818D02*
X0173615Y0160190D01*
X0173615Y0152818D02*
X0166007Y0152818D01*
X0166007Y0160190D01*
X0173615Y0160190D01*
X0173615Y0154776D02*
X0166007Y0154776D01*
X0166007Y0156734D02*
X0173615Y0156734D01*
X0173615Y0158692D02*
X0166007Y0158692D01*
D14*
X0163117Y0167488D02*
X0163117Y0170834D01*
X0164693Y0170834D01*
X0164693Y0167488D01*
X0163117Y0167488D01*
X0163117Y0169062D02*
X0164693Y0169062D01*
X0164693Y0170636D02*
X0163117Y0170636D01*
X0164693Y0180598D02*
X0164693Y0183944D01*
X0164693Y0180598D02*
X0163117Y0180598D01*
X0163117Y0183944D01*
X0164693Y0183944D01*
X0164693Y0182172D02*
X0163117Y0182172D01*
X0163117Y0183746D02*
X0164693Y0183746D01*
X0163117Y0360402D02*
X0163117Y0363748D01*
X0164693Y0363748D01*
X0164693Y0360402D01*
X0163117Y0360402D01*
X0163117Y0361976D02*
X0164693Y0361976D01*
X0164693Y0363550D02*
X0163117Y0363550D01*
X0164693Y0373512D02*
X0164693Y0376858D01*
X0164693Y0373512D02*
X0163117Y0373512D01*
X0163117Y0376858D01*
X0164693Y0376858D01*
X0164693Y0375086D02*
X0163117Y0375086D01*
X0163117Y0376660D02*
X0164693Y0376660D01*
X0381229Y0376858D02*
X0381229Y0373512D01*
X0379653Y0373512D01*
X0379653Y0376858D01*
X0381229Y0376858D01*
X0381229Y0375086D02*
X0379653Y0375086D01*
X0379653Y0376660D02*
X0381229Y0376660D01*
X0379653Y0363748D02*
X0379653Y0360402D01*
X0379653Y0363748D02*
X0381229Y0363748D01*
X0381229Y0360402D01*
X0379653Y0360402D01*
X0379653Y0361976D02*
X0381229Y0361976D01*
X0381229Y0363550D02*
X0379653Y0363550D01*
X0381229Y0183944D02*
X0381229Y0180598D01*
X0379653Y0180598D01*
X0379653Y0183944D01*
X0381229Y0183944D01*
X0381229Y0182172D02*
X0379653Y0182172D01*
X0379653Y0183746D02*
X0381229Y0183746D01*
X0379653Y0170834D02*
X0379653Y0167488D01*
X0379653Y0170834D02*
X0381229Y0170834D01*
X0381229Y0167488D01*
X0379653Y0167488D01*
X0379653Y0169062D02*
X0381229Y0169062D01*
X0381229Y0170636D02*
X0379653Y0170636D01*
D15*
X0357903Y0196364D02*
X0356089Y0196364D01*
X0356089Y0198376D01*
X0357903Y0198376D01*
X0357903Y0196364D01*
X0357903Y0198250D02*
X0356089Y0198250D01*
X0349674Y0198376D02*
X0347860Y0198376D01*
X0349674Y0198376D02*
X0349674Y0196364D01*
X0347860Y0196364D01*
X0347860Y0198376D01*
X0347860Y0198250D02*
X0349674Y0198250D01*
X0336249Y0196364D02*
X0334435Y0196364D01*
X0334435Y0198376D01*
X0336249Y0198376D01*
X0336249Y0196364D01*
X0336249Y0198250D02*
X0334435Y0198250D01*
X0328021Y0198376D02*
X0326207Y0198376D01*
X0328021Y0198376D02*
X0328021Y0196364D01*
X0326207Y0196364D01*
X0326207Y0198376D01*
X0326207Y0198250D02*
X0328021Y0198250D01*
X0302785Y0412899D02*
X0300971Y0412899D01*
X0300971Y0414911D01*
X0302785Y0414911D01*
X0302785Y0412899D01*
X0302785Y0414785D02*
X0300971Y0414785D01*
X0294556Y0414911D02*
X0292742Y0414911D01*
X0294556Y0414911D02*
X0294556Y0412899D01*
X0292742Y0412899D01*
X0292742Y0414911D01*
X0292742Y0414785D02*
X0294556Y0414785D01*
D16*
X0327134Y0363630D03*
D17*
X0337134Y0363630D03*
X0347134Y0363630D03*
X0347134Y0373630D03*
X0337134Y0373630D03*
X0327134Y0373630D03*
D18*
X0238433Y0311661D03*
X0411937Y0226897D03*
D19*
X0411937Y0236897D03*
X0411937Y0246897D03*
X0411937Y0256897D03*
X0411937Y0266897D03*
X0411937Y0276897D03*
X0411937Y0286897D03*
X0411937Y0296897D03*
X0411937Y0306897D03*
X0411937Y0316897D03*
X0238433Y0301661D03*
D20*
X0138708Y0306110D03*
X0138708Y0316110D03*
X0138708Y0326110D03*
X0138708Y0336110D03*
X0138708Y0296110D03*
X0138708Y0286110D03*
X0138708Y0263236D03*
X0138708Y0253236D03*
X0138708Y0243236D03*
X0138708Y0233236D03*
X0138708Y0223236D03*
X0138708Y0213236D03*
D21*
G36*
X0141437Y0139468D02*
X0147004Y0145035D01*
X0152571Y0139468D01*
X0147004Y0133901D01*
X0141437Y0139468D01*
G37*
G36*
X0133085Y0147819D02*
X0138652Y0153386D01*
X0144219Y0147819D01*
X0138652Y0142252D01*
X0133085Y0147819D01*
G37*
G36*
X0139468Y0404877D02*
X0145035Y0399310D01*
X0139468Y0393743D01*
X0133901Y0399310D01*
X0139468Y0404877D01*
G37*
G36*
X0147819Y0413229D02*
X0153386Y0407662D01*
X0147819Y0402095D01*
X0142252Y0407662D01*
X0147819Y0413229D01*
G37*
G36*
X0400940Y0404878D02*
X0395373Y0399311D01*
X0389806Y0404878D01*
X0395373Y0410445D01*
X0400940Y0404878D01*
G37*
G36*
X0409292Y0396526D02*
X0403725Y0390959D01*
X0398158Y0396526D01*
X0403725Y0402093D01*
X0409292Y0396526D01*
G37*
G36*
X0404878Y0141437D02*
X0399311Y0147004D01*
X0404878Y0152571D01*
X0410445Y0147004D01*
X0404878Y0141437D01*
G37*
G36*
X0396526Y0133085D02*
X0390959Y0138652D01*
X0396526Y0144219D01*
X0402093Y0138652D01*
X0396526Y0133085D01*
G37*
D22*
X0395303Y0169653D02*
X0393491Y0169653D01*
X0395303Y0169653D02*
X0395303Y0166031D01*
X0393491Y0166031D01*
X0393491Y0169653D01*
X0393491Y0167841D02*
X0395303Y0167841D01*
X0395303Y0169651D02*
X0393491Y0169651D01*
X0401011Y0166031D02*
X0402823Y0166031D01*
X0401011Y0166031D02*
X0401011Y0169653D01*
X0402823Y0169653D01*
X0402823Y0166031D01*
X0402823Y0167841D02*
X0401011Y0167841D01*
X0401011Y0169651D02*
X0402823Y0169651D01*
X0402823Y0195559D02*
X0401011Y0195559D01*
X0401011Y0199181D01*
X0402823Y0199181D01*
X0402823Y0195559D01*
X0402823Y0197369D02*
X0401011Y0197369D01*
X0401011Y0199179D02*
X0402823Y0199179D01*
X0395303Y0199181D02*
X0393491Y0199181D01*
X0395303Y0199181D02*
X0395303Y0195559D01*
X0393491Y0195559D01*
X0393491Y0199181D01*
X0393491Y0197369D02*
X0395303Y0197369D01*
X0395303Y0199179D02*
X0393491Y0199179D01*
X0355579Y0207370D02*
X0353767Y0207370D01*
X0353767Y0210992D01*
X0355579Y0210992D01*
X0355579Y0207370D01*
X0355579Y0209180D02*
X0353767Y0209180D01*
X0353767Y0210990D02*
X0355579Y0210990D01*
X0348059Y0210992D02*
X0346247Y0210992D01*
X0348059Y0210992D02*
X0348059Y0207370D01*
X0346247Y0207370D01*
X0346247Y0210992D01*
X0346247Y0209180D02*
X0348059Y0209180D01*
X0348059Y0210990D02*
X0346247Y0210990D01*
X0339831Y0207370D02*
X0338019Y0207370D01*
X0338019Y0210992D01*
X0339831Y0210992D01*
X0339831Y0207370D01*
X0339831Y0209180D02*
X0338019Y0209180D01*
X0338019Y0210990D02*
X0339831Y0210990D01*
X0332311Y0210992D02*
X0330499Y0210992D01*
X0332311Y0210992D02*
X0332311Y0207370D01*
X0330499Y0207370D01*
X0330499Y0210992D01*
X0330499Y0209180D02*
X0332311Y0209180D01*
X0332311Y0210990D02*
X0330499Y0210990D01*
X0319260Y0204004D02*
X0319260Y0202192D01*
X0315638Y0202192D01*
X0315638Y0204004D01*
X0319260Y0204004D01*
X0319260Y0204002D02*
X0315638Y0204002D01*
X0315638Y0196484D02*
X0315638Y0194672D01*
X0315638Y0196484D02*
X0319260Y0196484D01*
X0319260Y0194672D01*
X0315638Y0194672D01*
X0315638Y0196482D02*
X0319260Y0196482D01*
X0312272Y0266425D02*
X0310460Y0266425D01*
X0310460Y0270047D01*
X0312272Y0270047D01*
X0312272Y0266425D01*
X0312272Y0268235D02*
X0310460Y0268235D01*
X0310460Y0270045D02*
X0312272Y0270045D01*
X0304752Y0270047D02*
X0302940Y0270047D01*
X0304752Y0270047D02*
X0304752Y0266425D01*
X0302940Y0266425D01*
X0302940Y0270047D01*
X0302940Y0268235D02*
X0304752Y0268235D01*
X0304752Y0270045D02*
X0302940Y0270045D01*
X0302940Y0281858D02*
X0304752Y0281858D01*
X0304752Y0278236D01*
X0302940Y0278236D01*
X0302940Y0281858D01*
X0302940Y0280046D02*
X0304752Y0280046D01*
X0304752Y0281856D02*
X0302940Y0281856D01*
X0310460Y0278236D02*
X0312272Y0278236D01*
X0310460Y0278236D02*
X0310460Y0281858D01*
X0312272Y0281858D01*
X0312272Y0278236D01*
X0312272Y0280046D02*
X0310460Y0280046D01*
X0310460Y0281856D02*
X0312272Y0281856D01*
X0391523Y0348787D02*
X0393335Y0348787D01*
X0393335Y0345165D01*
X0391523Y0345165D01*
X0391523Y0348787D01*
X0391523Y0346975D02*
X0393335Y0346975D01*
X0393335Y0348785D02*
X0391523Y0348785D01*
X0399043Y0345165D02*
X0400855Y0345165D01*
X0399043Y0345165D02*
X0399043Y0348787D01*
X0400855Y0348787D01*
X0400855Y0345165D01*
X0400855Y0346975D02*
X0399043Y0346975D01*
X0399043Y0348785D02*
X0400855Y0348785D01*
X0400855Y0372724D02*
X0399043Y0372724D01*
X0399043Y0376346D01*
X0400855Y0376346D01*
X0400855Y0372724D01*
X0400855Y0374534D02*
X0399043Y0374534D01*
X0399043Y0376344D02*
X0400855Y0376344D01*
X0393335Y0376346D02*
X0391523Y0376346D01*
X0393335Y0376346D02*
X0393335Y0372724D01*
X0391523Y0372724D01*
X0391523Y0376346D01*
X0391523Y0374534D02*
X0393335Y0374534D01*
X0393335Y0376344D02*
X0391523Y0376344D01*
X0276839Y0412094D02*
X0275027Y0412094D01*
X0275027Y0415716D01*
X0276839Y0415716D01*
X0276839Y0412094D01*
X0276839Y0413904D02*
X0275027Y0413904D01*
X0275027Y0415714D02*
X0276839Y0415714D01*
X0269319Y0415716D02*
X0267507Y0415716D01*
X0269319Y0415716D02*
X0269319Y0412094D01*
X0267507Y0412094D01*
X0267507Y0415716D01*
X0267507Y0413904D02*
X0269319Y0413904D01*
X0269319Y0415714D02*
X0267507Y0415714D01*
X0183433Y0308335D02*
X0183433Y0306523D01*
X0179811Y0306523D01*
X0179811Y0308335D01*
X0183433Y0308335D01*
X0183433Y0308333D02*
X0179811Y0308333D01*
X0179811Y0300815D02*
X0179811Y0299003D01*
X0179811Y0300815D02*
X0183433Y0300815D01*
X0183433Y0299003D01*
X0179811Y0299003D01*
X0179811Y0300813D02*
X0183433Y0300813D01*
X0152823Y0351071D02*
X0151011Y0351071D01*
X0151011Y0354693D01*
X0152823Y0354693D01*
X0152823Y0351071D01*
X0152823Y0352881D02*
X0151011Y0352881D01*
X0151011Y0354691D02*
X0152823Y0354691D01*
X0145303Y0354693D02*
X0143491Y0354693D01*
X0145303Y0354693D02*
X0145303Y0351071D01*
X0143491Y0351071D01*
X0143491Y0354693D01*
X0143491Y0352881D02*
X0145303Y0352881D01*
X0145303Y0354691D02*
X0143491Y0354691D01*
X0143491Y0382252D02*
X0145303Y0382252D01*
X0145303Y0378630D01*
X0143491Y0378630D01*
X0143491Y0382252D01*
X0143491Y0380440D02*
X0145303Y0380440D01*
X0145303Y0382250D02*
X0143491Y0382250D01*
X0151011Y0378630D02*
X0152823Y0378630D01*
X0151011Y0378630D02*
X0151011Y0382252D01*
X0152823Y0382252D01*
X0152823Y0378630D01*
X0152823Y0380440D02*
X0151011Y0380440D01*
X0151011Y0382250D02*
X0152823Y0382250D01*
X0152823Y0193590D02*
X0151011Y0193590D01*
X0151011Y0197212D01*
X0152823Y0197212D01*
X0152823Y0193590D01*
X0152823Y0195400D02*
X0151011Y0195400D01*
X0151011Y0197210D02*
X0152823Y0197210D01*
X0145303Y0197212D02*
X0143491Y0197212D01*
X0145303Y0197212D02*
X0145303Y0193590D01*
X0143491Y0193590D01*
X0143491Y0197212D01*
X0143491Y0195400D02*
X0145303Y0195400D01*
X0145303Y0197210D02*
X0143491Y0197210D01*
X0143491Y0169653D02*
X0145303Y0169653D01*
X0145303Y0166031D01*
X0143491Y0166031D01*
X0143491Y0169653D01*
X0143491Y0167841D02*
X0145303Y0167841D01*
X0145303Y0169651D02*
X0143491Y0169651D01*
X0151011Y0166031D02*
X0152823Y0166031D01*
X0151011Y0166031D02*
X0151011Y0169653D01*
X0152823Y0169653D01*
X0152823Y0166031D01*
X0152823Y0167841D02*
X0151011Y0167841D01*
X0151011Y0169651D02*
X0152823Y0169651D01*
D23*
X0213118Y0254063D03*
X0217055Y0254063D03*
D24*
X0151897Y0177094D03*
X0144417Y0177094D03*
X0144417Y0371189D03*
X0151897Y0371189D03*
X0392449Y0365283D03*
X0399929Y0365283D03*
X0401897Y0177094D03*
X0394417Y0177094D03*
D25*
X0398157Y0185067D03*
X0396189Y0357311D03*
X0148157Y0363216D03*
X0148157Y0185067D03*
D26*
X0270204Y0155252D03*
X0270204Y0129252D03*
D27*
X0204181Y0268078D03*
X0204181Y0271819D03*
X0204181Y0275559D03*
X0193945Y0275559D03*
X0193945Y0268078D03*
D28*
X0266248Y0265382D03*
X0267941Y0265382D03*
X0269634Y0265382D03*
X0271326Y0265382D03*
X0273019Y0265382D03*
X0274712Y0265382D03*
X0276405Y0265382D03*
X0278098Y0265382D03*
X0276405Y0278964D03*
X0274712Y0278964D03*
X0273019Y0278964D03*
X0271326Y0278964D03*
X0269634Y0278964D03*
X0267941Y0278964D03*
X0266248Y0278964D03*
D29*
X0278098Y0278964D03*
D30*
X0264279Y0274712D03*
X0264279Y0273019D03*
X0264279Y0271326D03*
X0264279Y0269634D03*
D31*
X0280067Y0269634D03*
X0280067Y0271326D03*
X0280067Y0273019D03*
X0280067Y0274712D03*
D32*
X0194220Y0297566D02*
X0194220Y0300716D01*
X0196582Y0300716D01*
X0196582Y0297566D01*
X0194220Y0297566D01*
X0194220Y0299927D02*
X0196582Y0299927D01*
D33*
X0195401Y0308197D03*
D34*
X0256858Y0225169D03*
X0258826Y0225169D03*
X0260795Y0225169D03*
X0262763Y0225169D03*
X0264732Y0225169D03*
X0266701Y0225169D03*
X0268669Y0225169D03*
X0270638Y0225169D03*
X0272606Y0225169D03*
X0274575Y0225169D03*
X0276543Y0225169D03*
X0278512Y0225169D03*
X0280480Y0225169D03*
X0282449Y0225169D03*
X0284417Y0225169D03*
X0286386Y0225169D03*
X0286386Y0186736D03*
X0284417Y0186736D03*
X0282449Y0186736D03*
X0280480Y0186736D03*
X0278512Y0186736D03*
X0276543Y0186736D03*
X0274575Y0186736D03*
X0272606Y0186736D03*
X0270638Y0186736D03*
X0268669Y0186736D03*
X0266701Y0186736D03*
X0264732Y0186736D03*
X0262763Y0186736D03*
X0260795Y0186736D03*
X0258826Y0186736D03*
X0256858Y0186736D03*
D35*
X0252405Y0191189D03*
X0252405Y0193157D03*
X0252405Y0195126D03*
X0252405Y0197094D03*
X0252405Y0199063D03*
X0252405Y0201031D03*
X0252405Y0203000D03*
X0252405Y0204968D03*
X0252405Y0206937D03*
X0252405Y0208905D03*
X0252405Y0210874D03*
X0252405Y0212842D03*
X0252405Y0214811D03*
X0252405Y0216779D03*
X0252405Y0218748D03*
X0252405Y0220716D03*
X0290838Y0220716D03*
X0290838Y0218748D03*
X0290838Y0216779D03*
X0290838Y0214811D03*
X0290838Y0212842D03*
X0290838Y0210874D03*
X0290838Y0208905D03*
X0290838Y0206937D03*
X0290838Y0204968D03*
X0290838Y0203000D03*
X0290838Y0201031D03*
X0290838Y0199063D03*
X0290838Y0197094D03*
X0290838Y0195126D03*
X0290838Y0193157D03*
X0290838Y0191189D03*
D36*
X0240086Y0200716D03*
X0240086Y0209771D03*
X0225519Y0209771D03*
X0225519Y0200716D03*
D37*
X0244614Y0185559D03*
X0260362Y0175716D03*
X0264299Y0179653D03*
X0260362Y0169811D03*
X0260362Y0165874D03*
X0260362Y0161937D03*
X0260362Y0158000D03*
X0252488Y0161937D03*
X0252488Y0165874D03*
X0280047Y0158000D03*
X0287921Y0158000D03*
X0295795Y0161937D03*
X0295795Y0169811D03*
X0295795Y0177685D03*
X0287921Y0179653D03*
X0280047Y0179653D03*
X0299732Y0185559D03*
X0374535Y0228866D03*
X0398157Y0236740D03*
X0398157Y0248551D03*
X0374535Y0260362D03*
X0390283Y0158000D03*
X0390283Y0150126D03*
X0224929Y0256425D03*
X0224929Y0264299D03*
X0205244Y0252488D03*
X0154063Y0158000D03*
X0154063Y0150126D03*
X0390283Y0386346D03*
X0390283Y0394220D03*
X0154063Y0390283D03*
X0154063Y0398157D03*
D38*
X0144712Y0352882D02*
X0144397Y0352882D01*
X0144712Y0352882D02*
X0152094Y0345500D01*
X0161937Y0345500D01*
X0161937Y0345421D01*
X0161937Y0344023D01*
X0164889Y0341071D01*
X0181622Y0307606D02*
X0181622Y0307429D01*
X0181622Y0307606D02*
X0195401Y0307606D01*
X0195401Y0308197D01*
X0195401Y0299141D02*
X0195401Y0298748D01*
X0197370Y0296779D01*
X0197370Y0286445D01*
X0227389Y0286445D01*
X0232803Y0278571D02*
X0232803Y0278492D01*
X0232803Y0278078D01*
X0230342Y0275618D01*
X0230342Y0261838D01*
X0224929Y0256425D01*
X0224929Y0254456D01*
X0217055Y0254456D01*
X0217055Y0254063D01*
X0217055Y0245598D01*
X0194909Y0245598D01*
X0194909Y0242645D01*
X0194988Y0242645D01*
X0194909Y0242645D02*
X0194909Y0238708D01*
X0186051Y0238708D01*
X0184575Y0240185D01*
X0184575Y0261838D01*
X0178177Y0268236D01*
X0178098Y0268236D01*
X0178177Y0268236D02*
X0178177Y0276110D01*
X0178098Y0276110D01*
X0178177Y0276110D02*
X0178177Y0286445D01*
X0138807Y0286445D01*
X0138708Y0286110D01*
X0140283Y0268236D02*
X0133886Y0268236D01*
X0133886Y0248059D01*
X0138708Y0243236D01*
X0144220Y0247567D02*
X0138807Y0252980D01*
X0138708Y0253236D01*
X0144220Y0247567D02*
X0144220Y0216563D01*
X0188019Y0216563D01*
X0189004Y0217547D01*
X0189004Y0234771D01*
X0256425Y0234771D01*
X0258393Y0232803D01*
X0258393Y0225421D01*
X0258826Y0225169D01*
X0260362Y0225421D02*
X0260795Y0225169D01*
X0260362Y0225421D02*
X0260362Y0232803D01*
X0255933Y0237232D01*
X0170795Y0237232D01*
X0170795Y0237724D01*
X0140283Y0268236D01*
X0138708Y0263236D02*
X0138807Y0262823D01*
X0143236Y0262823D01*
X0185559Y0220500D01*
X0185933Y0220401D01*
X0192980Y0220401D02*
X0193433Y0220008D01*
X0225421Y0220008D01*
X0223452Y0217055D02*
X0223452Y0216563D01*
X0223452Y0217055D02*
X0251996Y0217055D01*
X0252405Y0216779D01*
X0252488Y0218531D02*
X0252405Y0218748D01*
X0252488Y0218531D02*
X0266267Y0218531D01*
X0266267Y0215086D01*
X0267252Y0214102D01*
X0272665Y0214102D01*
X0272665Y0216563D01*
X0275126Y0219515D02*
X0275126Y0210657D01*
X0283984Y0201799D01*
X0286445Y0204752D02*
X0282015Y0209181D01*
X0282015Y0224929D01*
X0282449Y0225169D01*
X0282508Y0225421D01*
X0282508Y0228374D01*
X0283492Y0229358D01*
X0285952Y0229358D01*
X0285952Y0225421D01*
X0286386Y0225169D01*
X0284476Y0224929D02*
X0284417Y0225169D01*
X0284476Y0224929D02*
X0284476Y0214594D01*
X0284476Y0210657D02*
X0290382Y0210657D01*
X0290838Y0210874D01*
X0290874Y0209181D02*
X0290838Y0208905D01*
X0290874Y0209181D02*
X0294319Y0209181D01*
X0296287Y0211149D01*
X0296779Y0211641D01*
X0296779Y0222468D01*
X0283984Y0235263D01*
X0286445Y0230834D02*
X0281031Y0230834D01*
X0286445Y0230834D02*
X0295303Y0221976D01*
X0295303Y0214102D01*
X0294319Y0213118D01*
X0290874Y0213118D01*
X0290838Y0212842D01*
X0290874Y0207212D02*
X0290838Y0206937D01*
X0290874Y0207212D02*
X0296287Y0207212D01*
X0298748Y0209673D01*
X0298748Y0275126D01*
X0303669Y0280047D01*
X0303846Y0280047D01*
X0303669Y0280047D02*
X0297271Y0286445D01*
X0342055Y0331228D01*
X0342055Y0368630D01*
X0348945Y0368630D01*
X0351897Y0365677D01*
X0351897Y0335165D01*
X0393728Y0335165D01*
X0411937Y0316956D01*
X0411937Y0316897D01*
X0411937Y0306897D02*
X0411937Y0306622D01*
X0330736Y0225421D01*
X0331228Y0209181D02*
X0331405Y0209181D01*
X0331228Y0209181D02*
X0331228Y0201307D01*
X0327291Y0197370D01*
X0327114Y0197370D01*
X0330244Y0192449D02*
X0309575Y0192449D01*
X0309575Y0195815D01*
X0309575Y0195893D01*
X0299732Y0195893D01*
X0299732Y0196878D01*
X0290874Y0196878D01*
X0290838Y0197094D01*
X0290382Y0197370D01*
X0287429Y0197370D01*
X0286445Y0198354D01*
X0286445Y0204752D01*
X0290382Y0204752D01*
X0290838Y0204968D01*
X0290874Y0203275D02*
X0290838Y0203000D01*
X0290874Y0203275D02*
X0294319Y0203275D01*
X0298256Y0207212D01*
X0311543Y0207212D01*
X0311543Y0241661D01*
X0311543Y0268236D01*
X0311366Y0268236D01*
X0311543Y0268236D02*
X0311543Y0280047D01*
X0311366Y0280047D01*
X0303846Y0268236D02*
X0303669Y0268236D01*
X0301208Y0265775D01*
X0301208Y0216071D01*
X0311543Y0207212D02*
X0313512Y0207212D01*
X0317449Y0203275D01*
X0317449Y0203098D01*
X0320401Y0198846D02*
X0305145Y0198846D01*
X0309575Y0202783D02*
X0309575Y0202862D01*
X0309575Y0202783D02*
X0295795Y0202783D01*
X0294319Y0201307D01*
X0290874Y0201307D01*
X0290838Y0201031D01*
X0290874Y0200815D01*
X0290874Y0199338D01*
X0290838Y0199063D01*
X0299732Y0195893D02*
X0299732Y0185559D01*
X0317449Y0195578D02*
X0317449Y0195893D01*
X0320401Y0198846D01*
X0328275Y0206720D01*
X0328275Y0315480D01*
X0346976Y0334181D01*
X0346976Y0363216D01*
X0347134Y0363630D01*
X0347134Y0373630D02*
X0346976Y0374043D01*
X0346976Y0378472D01*
X0337626Y0378472D01*
X0302193Y0413905D01*
X0301878Y0413905D01*
X0293649Y0413905D02*
X0279063Y0413905D01*
X0279063Y0416366D01*
X0277586Y0417842D01*
X0268728Y0417842D01*
X0268728Y0413905D01*
X0268413Y0413905D01*
X0275933Y0413905D02*
X0276110Y0413905D01*
X0289397Y0400618D01*
X0289397Y0271189D01*
X0283984Y0265775D01*
X0283984Y0257409D01*
X0279555Y0252980D01*
X0272665Y0252980D01*
X0271681Y0253964D01*
X0267744Y0253964D01*
X0267744Y0229358D01*
X0266760Y0228374D01*
X0266760Y0225421D01*
X0266701Y0225169D01*
X0264791Y0225421D02*
X0264732Y0225169D01*
X0264791Y0225421D02*
X0264791Y0256425D01*
X0265775Y0257409D01*
X0269712Y0261346D01*
X0269712Y0265283D01*
X0269634Y0265382D01*
X0269220Y0265775D01*
X0268236Y0265775D01*
X0267941Y0265382D01*
X0266267Y0265283D02*
X0266248Y0265382D01*
X0266267Y0265283D02*
X0262823Y0261838D01*
X0248551Y0261838D01*
X0248551Y0278571D01*
X0232803Y0278571D01*
X0248551Y0278571D02*
X0252488Y0278571D01*
X0252488Y0279634D01*
X0252488Y0280047D01*
X0256425Y0283984D01*
X0256425Y0293334D01*
X0260362Y0297271D01*
X0260362Y0297350D01*
X0260362Y0297271D02*
X0268236Y0297271D01*
X0268236Y0297350D01*
X0268236Y0297271D02*
X0276110Y0297271D01*
X0276110Y0297350D01*
X0276110Y0297271D02*
X0283984Y0297271D01*
X0283984Y0297350D01*
X0283984Y0297271D02*
X0287921Y0293334D01*
X0287921Y0286445D01*
X0280047Y0278571D01*
X0280047Y0275126D01*
X0280067Y0274712D01*
X0280047Y0274634D01*
X0280047Y0273157D01*
X0280067Y0273019D01*
X0280047Y0272665D01*
X0280047Y0271681D01*
X0280067Y0271326D01*
X0280047Y0271189D01*
X0280047Y0269712D01*
X0280067Y0269634D01*
X0278098Y0265382D02*
X0278078Y0265283D01*
X0278078Y0262330D01*
X0277094Y0261346D01*
X0269712Y0261346D01*
X0262823Y0261838D02*
X0262823Y0225421D01*
X0262763Y0225169D01*
X0268669Y0225169D02*
X0268728Y0224929D01*
X0268728Y0216563D01*
X0272665Y0221976D02*
X0272665Y0224929D01*
X0272606Y0225169D01*
X0270638Y0225169D02*
X0270204Y0225421D01*
X0270204Y0251504D01*
X0274634Y0246090D02*
X0291858Y0263315D01*
X0291858Y0328275D01*
X0326799Y0363216D01*
X0327134Y0363630D01*
X0332212Y0359771D02*
X0332212Y0368630D01*
X0337134Y0373551D01*
X0337134Y0373630D01*
X0337134Y0363630D02*
X0337134Y0362724D01*
X0294811Y0320401D01*
X0294811Y0262330D01*
X0278571Y0246090D01*
X0278571Y0225421D01*
X0278512Y0225169D01*
X0276602Y0225421D02*
X0276543Y0225169D01*
X0276602Y0225421D02*
X0276602Y0246090D01*
X0293334Y0262823D01*
X0293334Y0320893D01*
X0332212Y0359771D01*
X0382409Y0346976D02*
X0382409Y0345421D01*
X0382409Y0345008D01*
X0384378Y0343039D01*
X0384378Y0341071D01*
X0382409Y0346976D02*
X0392429Y0346976D01*
X0411937Y0276897D02*
X0411937Y0276602D01*
X0395204Y0259870D01*
X0395204Y0201799D01*
X0397173Y0201799D01*
X0401602Y0197370D01*
X0401917Y0197370D01*
X0395204Y0201799D02*
X0380441Y0201799D01*
X0375519Y0206720D01*
X0380441Y0201799D02*
X0380441Y0198925D01*
X0356996Y0197370D02*
X0356819Y0197370D01*
X0351897Y0192449D01*
X0335657Y0192449D01*
X0335657Y0197370D01*
X0335342Y0197370D01*
X0335165Y0197370D01*
X0330244Y0192449D01*
X0333689Y0204260D02*
X0338610Y0209181D01*
X0338925Y0209181D01*
X0347153Y0209181D02*
X0347468Y0209181D01*
X0347468Y0198354D01*
X0348452Y0197370D01*
X0348767Y0197370D01*
X0349929Y0204260D02*
X0349929Y0204752D01*
X0354358Y0209181D01*
X0354673Y0209181D01*
X0278078Y0190480D02*
X0278078Y0187035D01*
X0278512Y0186736D01*
X0276543Y0186736D02*
X0276110Y0187035D01*
X0274634Y0187035D01*
X0274575Y0186736D01*
X0274634Y0186543D01*
X0274634Y0180145D01*
X0274306Y0179653D01*
X0272606Y0177252D02*
X0274535Y0174535D01*
X0274535Y0170401D01*
X0274535Y0167842D02*
X0276110Y0167842D01*
X0280539Y0172271D01*
X0280539Y0173748D01*
X0280854Y0173748D01*
X0272606Y0177252D02*
X0272606Y0186736D01*
X0270638Y0186736D02*
X0270638Y0177134D01*
X0268236Y0174732D01*
X0268236Y0170401D01*
X0268728Y0179653D02*
X0268728Y0186543D01*
X0268669Y0186736D01*
X0275618Y0192941D02*
X0278078Y0190480D01*
X0256425Y0197862D02*
X0255933Y0197370D01*
X0252488Y0197370D01*
X0252405Y0197094D01*
X0251996Y0196878D01*
X0249043Y0196878D01*
X0244614Y0192449D01*
X0244614Y0187527D01*
X0244614Y0185559D01*
X0244614Y0187527D02*
X0233295Y0187527D01*
X0229358Y0191464D01*
X0229279Y0191464D01*
X0228866Y0191464D01*
X0228866Y0190972D01*
X0213118Y0190972D01*
X0213118Y0190893D01*
X0213118Y0190972D02*
X0209181Y0194909D01*
X0209181Y0202291D01*
X0209181Y0213118D01*
X0138807Y0213118D01*
X0138708Y0213236D01*
X0140775Y0218039D02*
X0133886Y0218039D01*
X0133886Y0211149D01*
X0147173Y0197862D01*
X0144712Y0195401D01*
X0144397Y0195401D01*
X0147173Y0197862D02*
X0148649Y0199338D01*
X0161937Y0199338D01*
X0161937Y0198925D01*
X0143728Y0215086D02*
X0140775Y0218039D01*
X0143728Y0215086D02*
X0193433Y0215086D01*
X0195401Y0217055D01*
X0223452Y0217055D01*
X0213118Y0213689D02*
X0240086Y0213689D01*
X0240086Y0209771D01*
X0240086Y0206937D01*
X0252405Y0206937D01*
X0252488Y0208689D02*
X0252405Y0208905D01*
X0252488Y0208689D02*
X0256425Y0208689D01*
X0256425Y0202783D01*
X0256425Y0197862D01*
X0252405Y0199063D02*
X0252405Y0199338D01*
X0249535Y0199338D01*
X0241661Y0191464D01*
X0236326Y0191464D01*
X0225519Y0197941D02*
X0225519Y0200716D01*
X0225519Y0204968D01*
X0252405Y0204968D01*
X0252405Y0203000D02*
X0252488Y0202783D01*
X0256425Y0202783D01*
X0252405Y0201031D02*
X0251996Y0201307D01*
X0247075Y0201307D01*
X0247075Y0202291D01*
X0247075Y0209673D02*
X0248059Y0209673D01*
X0249043Y0210657D01*
X0251996Y0210657D01*
X0252405Y0210874D01*
X0252405Y0220716D02*
X0252488Y0220992D01*
X0254949Y0223452D01*
X0254949Y0232311D01*
X0272665Y0221976D02*
X0275126Y0219515D01*
X0274575Y0225169D02*
X0274634Y0225421D01*
X0274634Y0246090D01*
X0278078Y0255441D02*
X0281523Y0258886D01*
X0281523Y0261838D01*
X0280047Y0278571D02*
X0278078Y0278571D01*
X0278098Y0278964D01*
X0278078Y0279063D01*
X0276602Y0279063D01*
X0276405Y0278964D01*
X0276110Y0279063D01*
X0275126Y0279063D01*
X0274712Y0278964D01*
X0273157Y0279063D02*
X0273019Y0278964D01*
X0273157Y0279063D02*
X0273157Y0282015D01*
X0278078Y0286937D01*
X0283984Y0286937D01*
X0283984Y0290303D01*
X0276110Y0290382D02*
X0276110Y0290303D01*
X0276110Y0290382D02*
X0269712Y0290382D01*
X0268236Y0290303D01*
X0268236Y0290382D01*
X0269712Y0290382D01*
X0269712Y0283984D01*
X0269712Y0279063D01*
X0269634Y0278964D01*
X0269712Y0279063D02*
X0271189Y0279063D01*
X0271326Y0278964D01*
X0267941Y0278964D02*
X0267744Y0279063D01*
X0267744Y0282015D01*
X0260362Y0289397D01*
X0260362Y0290303D01*
X0258393Y0283000D02*
X0262330Y0283000D01*
X0266267Y0279063D01*
X0266248Y0278964D01*
X0263807Y0275126D02*
X0264279Y0274712D01*
X0263807Y0275126D02*
X0260854Y0278078D01*
X0260854Y0280539D01*
X0258393Y0283000D02*
X0258393Y0273157D01*
X0263807Y0273157D01*
X0264279Y0273019D01*
X0264279Y0271326D02*
X0263807Y0271189D01*
X0260362Y0271189D01*
X0260362Y0267252D01*
X0262823Y0268236D02*
X0262823Y0265775D01*
X0261838Y0264791D01*
X0252488Y0264791D01*
X0252488Y0272586D01*
X0252488Y0273157D01*
X0257901Y0273157D01*
X0257901Y0272173D01*
X0257901Y0273157D02*
X0258393Y0273157D01*
X0262823Y0268236D02*
X0263807Y0269220D01*
X0264279Y0269634D01*
X0204181Y0271819D02*
X0203767Y0271681D01*
X0198846Y0271681D01*
X0198846Y0253964D01*
X0195401Y0250519D01*
X0194988Y0250519D01*
X0194909Y0250519D01*
X0194909Y0245598D01*
X0188019Y0242645D02*
X0187941Y0242645D01*
X0188019Y0242645D02*
X0188019Y0250519D01*
X0187941Y0250519D01*
X0188019Y0250519D02*
X0188019Y0268236D01*
X0193925Y0268236D01*
X0193945Y0268078D01*
X0194417Y0268236D01*
X0197370Y0271189D01*
X0197370Y0286445D01*
X0193925Y0275618D02*
X0185559Y0275618D01*
X0185559Y0276110D01*
X0185145Y0276110D01*
X0185145Y0268236D02*
X0188019Y0268236D01*
X0193945Y0275559D02*
X0193925Y0275618D01*
X0178177Y0286445D02*
X0178177Y0296287D01*
X0181622Y0299732D01*
X0181622Y0299909D01*
X0213118Y0206641D02*
X0213118Y0206228D01*
X0209181Y0202291D01*
X0213118Y0197941D02*
X0225519Y0197941D01*
D39*
X0223452Y0216563D03*
X0225421Y0220008D03*
X0247075Y0209673D03*
X0247075Y0202291D03*
X0268728Y0216563D03*
X0272665Y0216563D03*
X0284476Y0214594D03*
X0284476Y0210657D03*
X0283984Y0201799D03*
X0275618Y0192941D03*
X0296287Y0211149D03*
X0301208Y0216071D03*
X0305145Y0198846D03*
X0333689Y0204260D03*
X0349929Y0204260D03*
X0375519Y0206720D03*
X0330736Y0225421D03*
X0311543Y0241661D03*
X0283984Y0235263D03*
X0281031Y0230834D03*
X0270204Y0251504D03*
X0265775Y0257409D03*
X0260362Y0267252D03*
X0257901Y0272173D03*
X0260854Y0280539D03*
X0269712Y0283984D03*
X0281523Y0261838D03*
X0278078Y0255441D03*
X0254949Y0232311D03*
X0207212Y0264791D03*
X0227389Y0286445D03*
X0164889Y0341071D03*
X0297271Y0286445D03*
X0384378Y0341071D03*
X0148649Y0191464D03*
X0148649Y0171779D03*
D40*
X0244614Y0172120D02*
X0265711Y0172120D01*
X0266081Y0172490D02*
X0265261Y0171670D01*
X0265261Y0169677D01*
X0265221Y0169636D01*
X0264984Y0169226D01*
X0264861Y0168768D01*
X0264861Y0167842D01*
X0264861Y0166916D01*
X0264984Y0166458D01*
X0265221Y0166048D01*
X0265261Y0166008D01*
X0265261Y0164014D01*
X0266081Y0163194D01*
X0270391Y0163194D01*
X0271211Y0164014D01*
X0271211Y0166008D01*
X0271251Y0166048D01*
X0271488Y0166458D01*
X0271560Y0166728D01*
X0271560Y0166573D01*
X0271571Y0166563D01*
X0271560Y0166552D01*
X0271560Y0164577D01*
X0271349Y0164366D01*
X0271349Y0160921D01*
X0269252Y0158823D01*
X0269252Y0158823D01*
X0269080Y0158652D01*
X0264625Y0158652D01*
X0263804Y0157832D01*
X0263804Y0154063D01*
X0244614Y0154063D01*
X0244614Y0179653D01*
X0268938Y0179653D01*
X0268938Y0177838D01*
X0267532Y0176432D01*
X0266536Y0175436D01*
X0266536Y0172490D01*
X0266081Y0172490D01*
X0266536Y0173719D02*
X0244614Y0173719D01*
X0244614Y0175318D02*
X0266536Y0175318D01*
X0268016Y0176916D02*
X0244614Y0176916D01*
X0244614Y0178515D02*
X0268938Y0178515D01*
X0274306Y0178515D02*
X0299732Y0178515D01*
X0299732Y0179653D02*
X0299732Y0154063D01*
X0276604Y0154063D01*
X0276604Y0157832D01*
X0275784Y0158652D01*
X0275585Y0158652D01*
X0275949Y0159016D01*
X0275949Y0162360D01*
X0276350Y0162861D01*
X0276571Y0163082D01*
X0277328Y0163082D01*
X0277328Y0162678D01*
X0278721Y0161285D01*
X0282987Y0161285D01*
X0284220Y0162518D01*
X0284291Y0162347D01*
X0284595Y0161892D01*
X0284982Y0161505D01*
X0285437Y0161201D01*
X0285943Y0160992D01*
X0286480Y0160885D01*
X0287638Y0160885D01*
X0287638Y0165217D01*
X0288164Y0165217D01*
X0288164Y0160885D01*
X0289323Y0160885D01*
X0289860Y0160992D01*
X0290365Y0161201D01*
X0290820Y0161505D01*
X0291207Y0161892D01*
X0291511Y0162347D01*
X0291721Y0162852D01*
X0291827Y0163389D01*
X0291827Y0165217D01*
X0288164Y0165217D01*
X0288164Y0165743D01*
X0287638Y0165743D01*
X0287638Y0173485D01*
X0288164Y0173485D01*
X0288164Y0170075D01*
X0288164Y0165743D01*
X0291827Y0165743D01*
X0291827Y0167571D01*
X0291721Y0168108D01*
X0291511Y0168613D01*
X0291207Y0169068D01*
X0290820Y0169455D01*
X0290583Y0169614D01*
X0290820Y0169773D01*
X0291207Y0170160D01*
X0291511Y0170615D01*
X0291721Y0171120D01*
X0291827Y0171657D01*
X0291827Y0173485D01*
X0288164Y0173485D01*
X0288164Y0174011D01*
X0287638Y0174011D01*
X0287638Y0178343D01*
X0286480Y0178343D01*
X0285943Y0178236D01*
X0285437Y0178027D01*
X0284982Y0177723D01*
X0284595Y0177336D01*
X0284291Y0176881D01*
X0284220Y0176710D01*
X0282987Y0177943D01*
X0278721Y0177943D01*
X0277328Y0176550D01*
X0277328Y0171852D01*
X0276690Y0172490D01*
X0276235Y0172490D01*
X0276235Y0174392D01*
X0276329Y0174945D01*
X0276235Y0175077D01*
X0276235Y0175239D01*
X0275838Y0175636D01*
X0274306Y0177794D01*
X0274306Y0179653D01*
X0299732Y0179653D01*
X0299732Y0176916D02*
X0291488Y0176916D01*
X0291511Y0176881D02*
X0291207Y0177336D01*
X0290820Y0177723D01*
X0290365Y0178027D01*
X0289860Y0178236D01*
X0289323Y0178343D01*
X0288164Y0178343D01*
X0288164Y0174011D01*
X0291827Y0174011D01*
X0291827Y0175839D01*
X0291721Y0176375D01*
X0291511Y0176881D01*
X0291827Y0175318D02*
X0299732Y0175318D01*
X0299732Y0173719D02*
X0288164Y0173719D01*
X0288164Y0172120D02*
X0287638Y0172120D01*
X0287638Y0170522D02*
X0288164Y0170522D01*
X0288164Y0168923D02*
X0287638Y0168923D01*
X0287638Y0167325D02*
X0288164Y0167325D01*
X0288164Y0165726D02*
X0299732Y0165726D01*
X0299732Y0164128D02*
X0291827Y0164128D01*
X0291587Y0162529D02*
X0299732Y0162529D01*
X0299732Y0160931D02*
X0289555Y0160931D01*
X0288164Y0160931D02*
X0287638Y0160931D01*
X0286248Y0160931D02*
X0275949Y0160931D01*
X0275949Y0159332D02*
X0299732Y0159332D01*
X0299732Y0157734D02*
X0276604Y0157734D01*
X0276604Y0156135D02*
X0299732Y0156135D01*
X0299732Y0154537D02*
X0276604Y0154537D01*
X0276085Y0162529D02*
X0277476Y0162529D01*
X0271349Y0162529D02*
X0244614Y0162529D01*
X0244614Y0160931D02*
X0271349Y0160931D01*
X0269761Y0159332D02*
X0244614Y0159332D01*
X0244614Y0157734D02*
X0263804Y0157734D01*
X0263804Y0156135D02*
X0244614Y0156135D01*
X0244614Y0154537D02*
X0263804Y0154537D01*
X0265261Y0164128D02*
X0244614Y0164128D01*
X0244614Y0165726D02*
X0265261Y0165726D01*
X0264861Y0167325D02*
X0244614Y0167325D01*
X0244614Y0168923D02*
X0264903Y0168923D01*
X0264861Y0167842D02*
X0268236Y0167842D01*
X0264861Y0167842D01*
X0265261Y0170522D02*
X0244614Y0170522D01*
X0268236Y0167842D02*
X0268236Y0167842D01*
X0271211Y0165726D02*
X0271560Y0165726D01*
X0271349Y0164128D02*
X0271211Y0164128D01*
X0277060Y0172120D02*
X0277328Y0172120D01*
X0277328Y0173719D02*
X0276235Y0173719D01*
X0276157Y0175318D02*
X0277328Y0175318D01*
X0277694Y0176916D02*
X0274929Y0176916D01*
X0284014Y0176916D02*
X0284315Y0176916D01*
X0287638Y0176916D02*
X0288164Y0176916D01*
X0288164Y0175318D02*
X0287638Y0175318D01*
X0291827Y0172120D02*
X0299732Y0172120D01*
X0299732Y0170522D02*
X0291449Y0170522D01*
X0291304Y0168923D02*
X0299732Y0168923D01*
X0299732Y0167325D02*
X0291827Y0167325D01*
X0288164Y0164128D02*
X0287638Y0164128D01*
X0287638Y0162529D02*
X0288164Y0162529D01*
D41*
X0280854Y0165480D02*
X0280539Y0165874D01*
X0280539Y0166366D01*
X0277586Y0166366D01*
X0277094Y0165874D01*
X0277094Y0165382D01*
X0274634Y0165382D01*
X0274535Y0165283D01*
X0274634Y0164397D01*
X0273649Y0163413D01*
X0273649Y0159968D01*
X0270204Y0156523D01*
X0270204Y0155252D01*
X0169811Y0156504D02*
X0169811Y0156523D01*
X0167350Y0158984D01*
X0167350Y0185067D01*
X0161937Y0190480D01*
X0161937Y0191878D01*
X0161937Y0191464D01*
X0155539Y0185067D01*
X0155539Y0180145D01*
X0152094Y0176701D01*
X0151897Y0177094D01*
X0152586Y0176208D01*
X0155539Y0173256D01*
X0155539Y0164889D01*
X0151602Y0160952D01*
X0144712Y0167842D01*
X0144397Y0167842D01*
X0148157Y0171287D02*
X0148649Y0171779D01*
X0148157Y0171287D02*
X0151602Y0167842D01*
X0151917Y0167842D01*
X0148157Y0171287D02*
X0144712Y0174732D01*
X0144712Y0176701D01*
X0144417Y0177094D01*
X0140775Y0185067D02*
X0140775Y0154063D01*
X0155539Y0154063D01*
X0158000Y0156523D01*
X0158000Y0176208D01*
X0163905Y0182114D01*
X0163905Y0182271D01*
X0163905Y0169161D02*
X0163905Y0168826D01*
X0160460Y0165382D01*
X0160460Y0155539D01*
X0155047Y0150126D01*
X0154063Y0150126D01*
X0154063Y0148157D01*
X0169811Y0132409D01*
X0169811Y0131937D01*
X0153571Y0146189D02*
X0153571Y0149634D01*
X0154063Y0150126D01*
X0153571Y0146189D02*
X0147173Y0139791D01*
X0147004Y0139468D01*
X0138652Y0147819D02*
X0138807Y0148157D01*
X0138807Y0154063D01*
X0140775Y0154063D01*
X0151602Y0160952D02*
X0154063Y0158492D01*
X0154063Y0158000D01*
X0148157Y0185067D02*
X0140775Y0185067D01*
X0148649Y0191464D02*
X0148649Y0192449D01*
X0151602Y0195401D01*
X0151917Y0195401D01*
X0205244Y0252488D02*
X0213118Y0252488D01*
X0213118Y0254063D01*
X0213118Y0270697D01*
X0214594Y0272173D01*
X0214673Y0272173D01*
X0210165Y0277094D02*
X0228374Y0277094D01*
X0228374Y0267744D01*
X0224929Y0264299D01*
X0228374Y0277094D02*
X0228374Y0281031D01*
X0232803Y0285460D01*
X0232803Y0285539D01*
X0233295Y0285952D01*
X0233295Y0296287D01*
X0238216Y0301208D01*
X0238433Y0301661D01*
X0237724Y0302193D01*
X0176701Y0363216D01*
X0176701Y0375027D01*
X0176208Y0375519D01*
X0176208Y0405539D01*
X0169811Y0411937D01*
X0169811Y0412409D01*
X0169319Y0412921D01*
X0169319Y0414889D01*
X0155047Y0414889D01*
X0155047Y0399141D01*
X0154063Y0398157D01*
X0146681Y0406523D02*
X0147819Y0407662D01*
X0146681Y0406523D02*
X0146681Y0389299D01*
X0140775Y0383393D01*
X0140775Y0356819D01*
X0141267Y0356326D01*
X0140775Y0355834D01*
X0140775Y0349929D01*
X0144220Y0346484D01*
X0144220Y0337626D01*
X0165874Y0337626D01*
X0168334Y0340086D01*
X0168334Y0357311D01*
X0163905Y0361740D01*
X0163905Y0362075D01*
X0160460Y0354358D02*
X0160460Y0378472D01*
X0151602Y0387330D01*
X0145204Y0380933D01*
X0144397Y0380441D01*
X0144712Y0380441D01*
X0144712Y0371582D01*
X0144417Y0371189D01*
X0151897Y0371189D02*
X0152094Y0372075D01*
X0152094Y0380441D01*
X0151917Y0380441D01*
X0152094Y0371582D02*
X0151897Y0371189D01*
X0152094Y0371582D02*
X0155539Y0368138D01*
X0155539Y0356326D01*
X0152094Y0352882D01*
X0151917Y0352882D01*
X0160460Y0354358D02*
X0161937Y0352882D01*
X0161937Y0352468D01*
X0148157Y0363216D02*
X0141267Y0356326D01*
X0160460Y0378472D02*
X0169811Y0387823D01*
X0169811Y0387842D01*
X0163905Y0375519D02*
X0163905Y0375185D01*
X0163905Y0375519D02*
X0176208Y0375519D01*
X0154063Y0389791D02*
X0154063Y0390283D01*
X0154063Y0389791D02*
X0151602Y0387330D01*
X0139468Y0399310D02*
X0140283Y0400126D01*
X0140283Y0408000D01*
X0147173Y0414889D01*
X0155047Y0414889D01*
X0204260Y0275618D02*
X0204181Y0275559D01*
X0204260Y0275618D02*
X0208689Y0275618D01*
X0210165Y0277094D01*
X0204181Y0268078D02*
X0204260Y0267744D01*
X0207212Y0264791D01*
X0374535Y0185559D02*
X0374535Y0173256D01*
X0385854Y0173256D01*
X0385854Y0162429D01*
X0390283Y0158000D01*
X0393236Y0160460D02*
X0390775Y0162921D01*
X0390775Y0171779D01*
X0380441Y0182114D01*
X0380441Y0182271D01*
X0374535Y0185559D02*
X0380441Y0191464D01*
X0380441Y0191878D01*
X0390775Y0193925D02*
X0390775Y0180145D01*
X0393728Y0177193D01*
X0394417Y0177094D01*
X0394712Y0176701D01*
X0394712Y0167842D01*
X0394397Y0167842D01*
X0398157Y0165382D02*
X0393236Y0160460D01*
X0396189Y0157508D01*
X0396189Y0138807D01*
X0396526Y0138652D01*
X0397173Y0131425D02*
X0389299Y0131425D01*
X0389299Y0150126D01*
X0390283Y0150126D01*
X0383393Y0157015D01*
X0383393Y0165874D01*
X0380441Y0168826D01*
X0380441Y0169161D01*
X0374535Y0173256D02*
X0374535Y0156504D01*
X0374535Y0131937D02*
X0374535Y0131425D01*
X0389299Y0131425D01*
X0397173Y0131425D02*
X0404063Y0138315D01*
X0404063Y0146189D01*
X0404878Y0147004D01*
X0398157Y0165382D02*
X0398157Y0185067D01*
X0402586Y0177685D02*
X0401897Y0177094D01*
X0402094Y0176701D01*
X0402094Y0167842D01*
X0401917Y0167842D01*
X0402586Y0177685D02*
X0405539Y0177685D01*
X0405539Y0229358D01*
X0405047Y0229850D01*
X0411937Y0236740D01*
X0411937Y0236897D01*
X0405047Y0229850D02*
X0398157Y0236740D01*
X0398157Y0247075D02*
X0398157Y0248551D01*
X0398157Y0247075D02*
X0411937Y0247075D01*
X0411937Y0246897D01*
X0394397Y0197370D02*
X0394220Y0197370D01*
X0390775Y0193925D01*
X0396189Y0337626D02*
X0383393Y0337626D01*
X0377980Y0343039D01*
X0377980Y0359279D01*
X0380441Y0361740D01*
X0380441Y0362075D01*
X0388315Y0361248D02*
X0376996Y0372567D01*
X0376996Y0385362D01*
X0374535Y0387823D01*
X0374535Y0387842D01*
X0386346Y0390283D02*
X0386346Y0381425D01*
X0380441Y0375519D01*
X0380441Y0375185D01*
X0390283Y0376504D02*
X0390283Y0386346D01*
X0386346Y0390283D02*
X0390283Y0394220D01*
X0390283Y0396189D01*
X0374535Y0411937D01*
X0374535Y0412409D01*
X0390775Y0400126D02*
X0390775Y0394712D01*
X0390283Y0394220D01*
X0390775Y0400126D02*
X0395204Y0404555D01*
X0395373Y0404878D01*
X0403725Y0396526D02*
X0403571Y0396189D01*
X0396189Y0388807D01*
X0396189Y0357311D01*
X0396189Y0337626D01*
X0399949Y0346976D02*
X0400126Y0346976D01*
X0403571Y0350421D01*
X0403571Y0362232D01*
X0400126Y0365677D01*
X0399929Y0365283D01*
X0400126Y0366169D01*
X0400126Y0374535D01*
X0399949Y0374535D01*
X0392744Y0374535D02*
X0392744Y0365677D01*
X0392449Y0365283D01*
X0391760Y0365185D01*
X0388807Y0362232D01*
X0388807Y0361248D01*
X0388315Y0361248D01*
X0388807Y0361248D02*
X0388807Y0359279D01*
X0382409Y0352882D01*
X0382409Y0352468D01*
X0392429Y0374535D02*
X0391760Y0375027D01*
X0390283Y0376504D01*
X0392429Y0374535D02*
X0392744Y0374535D01*
M02*
