G75*
%MOIN*%
%OFA0B0*%
%FSLAX25Y25*%
%IPPOS*%
%LPD*%
%AMOC8*
5,1,8,0,0,1.08239X$1,22.5*
%
%ADD10R,0.03150X0.01378*%
%ADD11C,0.05937*%
%ADD12C,0.01956*%
%ADD13C,0.01959*%
%ADD14C,0.01575*%
%ADD15C,0.01887*%
%ADD16R,0.07400X0.07400*%
%ADD17OC8,0.07400*%
%ADD18R,0.06496X0.06496*%
%ADD19C,0.06496*%
%ADD20C,0.07400*%
%ADD21R,0.07874X0.07874*%
%ADD22C,0.01811*%
%ADD23R,0.03937X0.04921*%
%ADD24R,0.03937X0.05906*%
%ADD25R,0.11417X0.08071*%
%ADD26R,0.10000X0.04000*%
%ADD27R,0.04724X0.02165*%
%ADD28R,0.00882X0.05512*%
%ADD29R,0.00886X0.05512*%
%ADD30R,0.05512X0.00882*%
%ADD31R,0.05512X0.00886*%
%ADD32C,0.02362*%
%ADD33R,0.04724X0.05512*%
%ADD34R,0.01102X0.06150*%
%ADD35R,0.06150X0.01102*%
%ADD36R,0.07480X0.04331*%
%ADD37C,0.04500*%
%ADD38C,0.00600*%
%ADD39C,0.01600*%
%ADD40C,0.01800*%
D10*
X0268433Y0163315D03*
X0268433Y0165874D03*
X0268433Y0168433D03*
X0274732Y0168433D03*
X0274732Y0165874D03*
X0274732Y0163315D03*
D11*
X0217641Y0272173D02*
X0211704Y0272173D01*
X0211704Y0282173D02*
X0217641Y0282173D01*
D12*
X0234620Y0284391D02*
X0234620Y0286687D01*
X0234620Y0284391D02*
X0230986Y0284391D01*
X0230986Y0286687D01*
X0234620Y0286687D01*
X0234620Y0286346D02*
X0230986Y0286346D01*
X0230986Y0279640D02*
X0230986Y0277344D01*
X0230986Y0279640D02*
X0234620Y0279640D01*
X0234620Y0277344D01*
X0230986Y0277344D01*
X0230986Y0279299D02*
X0234620Y0279299D01*
X0254305Y0278486D02*
X0254305Y0280782D01*
X0254305Y0278486D02*
X0250671Y0278486D01*
X0250671Y0280782D01*
X0254305Y0280782D01*
X0254305Y0280441D02*
X0250671Y0280441D01*
X0250671Y0273734D02*
X0250671Y0271438D01*
X0250671Y0273734D02*
X0254305Y0273734D01*
X0254305Y0271438D01*
X0250671Y0271438D01*
X0250671Y0273393D02*
X0254305Y0273393D01*
X0258545Y0289155D02*
X0258545Y0291451D01*
X0262179Y0291451D01*
X0262179Y0289155D01*
X0258545Y0289155D01*
X0258545Y0291110D02*
X0262179Y0291110D01*
X0266419Y0291451D02*
X0266419Y0289155D01*
X0266419Y0291451D02*
X0270053Y0291451D01*
X0270053Y0289155D01*
X0266419Y0289155D01*
X0266419Y0291110D02*
X0270053Y0291110D01*
X0274293Y0291451D02*
X0274293Y0289155D01*
X0274293Y0291451D02*
X0277927Y0291451D01*
X0277927Y0289155D01*
X0274293Y0289155D01*
X0274293Y0291110D02*
X0277927Y0291110D01*
X0282167Y0291451D02*
X0282167Y0289155D01*
X0282167Y0291451D02*
X0285801Y0291451D01*
X0285801Y0289155D01*
X0282167Y0289155D01*
X0282167Y0291110D02*
X0285801Y0291110D01*
X0285801Y0296202D02*
X0285801Y0298498D01*
X0285801Y0296202D02*
X0282167Y0296202D01*
X0282167Y0298498D01*
X0285801Y0298498D01*
X0285801Y0298157D02*
X0282167Y0298157D01*
X0277927Y0298498D02*
X0277927Y0296202D01*
X0274293Y0296202D01*
X0274293Y0298498D01*
X0277927Y0298498D01*
X0277927Y0298157D02*
X0274293Y0298157D01*
X0270053Y0298498D02*
X0270053Y0296202D01*
X0266419Y0296202D01*
X0266419Y0298498D01*
X0270053Y0298498D01*
X0270053Y0298157D02*
X0266419Y0298157D01*
X0262179Y0298498D02*
X0262179Y0296202D01*
X0258545Y0296202D01*
X0258545Y0298498D01*
X0262179Y0298498D01*
X0262179Y0298157D02*
X0258545Y0298157D01*
X0196136Y0248702D02*
X0193840Y0248702D01*
X0193840Y0252336D01*
X0196136Y0252336D01*
X0196136Y0248702D01*
X0196136Y0250657D02*
X0193840Y0250657D01*
X0189089Y0252336D02*
X0186793Y0252336D01*
X0189089Y0252336D02*
X0189089Y0248702D01*
X0186793Y0248702D01*
X0186793Y0252336D01*
X0186793Y0250657D02*
X0189089Y0250657D01*
X0189089Y0244462D02*
X0186793Y0244462D01*
X0189089Y0244462D02*
X0189089Y0240828D01*
X0186793Y0240828D01*
X0186793Y0244462D01*
X0186793Y0242783D02*
X0189089Y0242783D01*
X0193840Y0240828D02*
X0196136Y0240828D01*
X0193840Y0240828D02*
X0193840Y0244462D01*
X0196136Y0244462D01*
X0196136Y0240828D01*
X0196136Y0242783D02*
X0193840Y0242783D01*
X0194128Y0218584D02*
X0191832Y0218584D01*
X0191832Y0222218D01*
X0194128Y0222218D01*
X0194128Y0218584D01*
X0194128Y0220539D02*
X0191832Y0220539D01*
X0187081Y0222218D02*
X0184785Y0222218D01*
X0187081Y0222218D02*
X0187081Y0218584D01*
X0184785Y0218584D01*
X0184785Y0222218D01*
X0184785Y0220539D02*
X0187081Y0220539D01*
X0214935Y0214837D02*
X0214935Y0212541D01*
X0211301Y0212541D01*
X0211301Y0214837D01*
X0214935Y0214837D01*
X0214935Y0214496D02*
X0211301Y0214496D01*
X0211301Y0207789D02*
X0211301Y0205493D01*
X0211301Y0207789D02*
X0214935Y0207789D01*
X0214935Y0205493D01*
X0211301Y0205493D01*
X0211301Y0207448D02*
X0214935Y0207448D01*
X0214935Y0199089D02*
X0214935Y0196793D01*
X0211301Y0196793D01*
X0211301Y0199089D01*
X0214935Y0199089D01*
X0214935Y0198748D02*
X0211301Y0198748D01*
X0211301Y0192041D02*
X0211301Y0189745D01*
X0211301Y0192041D02*
X0214935Y0192041D01*
X0214935Y0189745D01*
X0211301Y0189745D01*
X0211301Y0191700D02*
X0214935Y0191700D01*
X0228131Y0193281D02*
X0230427Y0193281D01*
X0230427Y0189647D01*
X0228131Y0189647D01*
X0228131Y0193281D01*
X0228131Y0191602D02*
X0230427Y0191602D01*
X0235178Y0189647D02*
X0237474Y0189647D01*
X0235178Y0189647D02*
X0235178Y0193281D01*
X0237474Y0193281D01*
X0237474Y0189647D01*
X0237474Y0191602D02*
X0235178Y0191602D01*
X0279903Y0173596D02*
X0282199Y0173596D01*
X0282199Y0169962D01*
X0279903Y0169962D01*
X0279903Y0173596D01*
X0279903Y0171917D02*
X0282199Y0171917D01*
X0286950Y0169962D02*
X0289246Y0169962D01*
X0286950Y0169962D02*
X0286950Y0173596D01*
X0289246Y0173596D01*
X0289246Y0169962D01*
X0289246Y0171917D02*
X0286950Y0171917D01*
X0286950Y0161695D02*
X0289246Y0161695D01*
X0286950Y0161695D02*
X0286950Y0165329D01*
X0289246Y0165329D01*
X0289246Y0161695D01*
X0289246Y0163650D02*
X0286950Y0163650D01*
X0282199Y0165329D02*
X0279903Y0165329D01*
X0282199Y0165329D02*
X0282199Y0161695D01*
X0279903Y0161695D01*
X0279903Y0165329D01*
X0279903Y0163650D02*
X0282199Y0163650D01*
X0307758Y0194667D02*
X0307758Y0196963D01*
X0311392Y0196963D01*
X0311392Y0194667D01*
X0307758Y0194667D01*
X0307758Y0196622D02*
X0311392Y0196622D01*
X0311392Y0201714D02*
X0311392Y0204010D01*
X0311392Y0201714D02*
X0307758Y0201714D01*
X0307758Y0204010D01*
X0311392Y0204010D01*
X0311392Y0203669D02*
X0307758Y0203669D01*
X0382258Y0200073D02*
X0382258Y0197777D01*
X0378624Y0197777D01*
X0378624Y0200073D01*
X0382258Y0200073D01*
X0382258Y0199732D02*
X0378624Y0199732D01*
X0378624Y0193026D02*
X0378624Y0190730D01*
X0378624Y0193026D02*
X0382258Y0193026D01*
X0382258Y0190730D01*
X0378624Y0190730D01*
X0378624Y0192685D02*
X0382258Y0192685D01*
X0380592Y0344273D02*
X0380592Y0346569D01*
X0384226Y0346569D01*
X0384226Y0344273D01*
X0380592Y0344273D01*
X0380592Y0346228D02*
X0384226Y0346228D01*
X0384226Y0351320D02*
X0384226Y0353616D01*
X0384226Y0351320D02*
X0380592Y0351320D01*
X0380592Y0353616D01*
X0384226Y0353616D01*
X0384226Y0353275D02*
X0380592Y0353275D01*
X0186293Y0274293D02*
X0183997Y0274293D01*
X0183997Y0277927D01*
X0186293Y0277927D01*
X0186293Y0274293D01*
X0186293Y0276248D02*
X0183997Y0276248D01*
X0179246Y0277927D02*
X0176950Y0277927D01*
X0179246Y0277927D02*
X0179246Y0274293D01*
X0176950Y0274293D01*
X0176950Y0277927D01*
X0176950Y0276248D02*
X0179246Y0276248D01*
X0179246Y0270053D02*
X0176950Y0270053D01*
X0179246Y0270053D02*
X0179246Y0266419D01*
X0176950Y0266419D01*
X0176950Y0270053D01*
X0176950Y0268374D02*
X0179246Y0268374D01*
X0183997Y0266419D02*
X0186293Y0266419D01*
X0183997Y0266419D02*
X0183997Y0270053D01*
X0186293Y0270053D01*
X0186293Y0266419D01*
X0186293Y0268374D02*
X0183997Y0268374D01*
X0163754Y0200073D02*
X0163754Y0197777D01*
X0160120Y0197777D01*
X0160120Y0200073D01*
X0163754Y0200073D01*
X0163754Y0199732D02*
X0160120Y0199732D01*
X0160120Y0193026D02*
X0160120Y0190730D01*
X0160120Y0193026D02*
X0163754Y0193026D01*
X0163754Y0190730D01*
X0160120Y0190730D01*
X0160120Y0192685D02*
X0163754Y0192685D01*
X0160120Y0344273D02*
X0160120Y0346569D01*
X0163754Y0346569D01*
X0163754Y0344273D01*
X0160120Y0344273D01*
X0160120Y0346228D02*
X0163754Y0346228D01*
X0163754Y0351320D02*
X0163754Y0353616D01*
X0163754Y0351320D02*
X0160120Y0351320D01*
X0160120Y0353616D01*
X0163754Y0353616D01*
X0163754Y0353275D02*
X0160120Y0353275D01*
D13*
X0166007Y0384156D02*
X0166007Y0391528D01*
X0173615Y0391528D01*
X0173615Y0384156D01*
X0166007Y0384156D01*
X0166007Y0386114D02*
X0173615Y0386114D01*
X0173615Y0388072D02*
X0166007Y0388072D01*
X0166007Y0390030D02*
X0173615Y0390030D01*
X0173615Y0408723D02*
X0173615Y0416095D01*
X0173615Y0408723D02*
X0166007Y0408723D01*
X0166007Y0416095D01*
X0173615Y0416095D01*
X0173615Y0410681D02*
X0166007Y0410681D01*
X0166007Y0412639D02*
X0173615Y0412639D01*
X0173615Y0414597D02*
X0166007Y0414597D01*
X0378339Y0416095D02*
X0378339Y0408723D01*
X0370731Y0408723D01*
X0370731Y0416095D01*
X0378339Y0416095D01*
X0378339Y0410681D02*
X0370731Y0410681D01*
X0370731Y0412639D02*
X0378339Y0412639D01*
X0378339Y0414597D02*
X0370731Y0414597D01*
X0370731Y0391528D02*
X0370731Y0384156D01*
X0370731Y0391528D02*
X0378339Y0391528D01*
X0378339Y0384156D01*
X0370731Y0384156D01*
X0370731Y0386114D02*
X0378339Y0386114D01*
X0378339Y0388072D02*
X0370731Y0388072D01*
X0370731Y0390030D02*
X0378339Y0390030D01*
X0378339Y0160190D02*
X0378339Y0152818D01*
X0370731Y0152818D01*
X0370731Y0160190D01*
X0378339Y0160190D01*
X0378339Y0154776D02*
X0370731Y0154776D01*
X0370731Y0156734D02*
X0378339Y0156734D01*
X0378339Y0158692D02*
X0370731Y0158692D01*
X0370731Y0135623D02*
X0370731Y0128251D01*
X0370731Y0135623D02*
X0378339Y0135623D01*
X0378339Y0128251D01*
X0370731Y0128251D01*
X0370731Y0130209D02*
X0378339Y0130209D01*
X0378339Y0132167D02*
X0370731Y0132167D01*
X0370731Y0134125D02*
X0378339Y0134125D01*
X0166007Y0135623D02*
X0166007Y0128251D01*
X0166007Y0135623D02*
X0173615Y0135623D01*
X0173615Y0128251D01*
X0166007Y0128251D01*
X0166007Y0130209D02*
X0173615Y0130209D01*
X0173615Y0132167D02*
X0166007Y0132167D01*
X0166007Y0134125D02*
X0173615Y0134125D01*
X0173615Y0152818D02*
X0173615Y0160190D01*
X0173615Y0152818D02*
X0166007Y0152818D01*
X0166007Y0160190D01*
X0173615Y0160190D01*
X0173615Y0154776D02*
X0166007Y0154776D01*
X0166007Y0156734D02*
X0173615Y0156734D01*
X0173615Y0158692D02*
X0166007Y0158692D01*
D14*
X0163117Y0167488D02*
X0163117Y0170834D01*
X0164693Y0170834D01*
X0164693Y0167488D01*
X0163117Y0167488D01*
X0163117Y0169062D02*
X0164693Y0169062D01*
X0164693Y0170636D02*
X0163117Y0170636D01*
X0164693Y0180598D02*
X0164693Y0183944D01*
X0164693Y0180598D02*
X0163117Y0180598D01*
X0163117Y0183944D01*
X0164693Y0183944D01*
X0164693Y0182172D02*
X0163117Y0182172D01*
X0163117Y0183746D02*
X0164693Y0183746D01*
X0163117Y0360402D02*
X0163117Y0363748D01*
X0164693Y0363748D01*
X0164693Y0360402D01*
X0163117Y0360402D01*
X0163117Y0361976D02*
X0164693Y0361976D01*
X0164693Y0363550D02*
X0163117Y0363550D01*
X0164693Y0373512D02*
X0164693Y0376858D01*
X0164693Y0373512D02*
X0163117Y0373512D01*
X0163117Y0376858D01*
X0164693Y0376858D01*
X0164693Y0375086D02*
X0163117Y0375086D01*
X0163117Y0376660D02*
X0164693Y0376660D01*
X0381229Y0376858D02*
X0381229Y0373512D01*
X0379653Y0373512D01*
X0379653Y0376858D01*
X0381229Y0376858D01*
X0381229Y0375086D02*
X0379653Y0375086D01*
X0379653Y0376660D02*
X0381229Y0376660D01*
X0379653Y0363748D02*
X0379653Y0360402D01*
X0379653Y0363748D02*
X0381229Y0363748D01*
X0381229Y0360402D01*
X0379653Y0360402D01*
X0379653Y0361976D02*
X0381229Y0361976D01*
X0381229Y0363550D02*
X0379653Y0363550D01*
X0381229Y0183944D02*
X0381229Y0180598D01*
X0379653Y0180598D01*
X0379653Y0183944D01*
X0381229Y0183944D01*
X0381229Y0182172D02*
X0379653Y0182172D01*
X0379653Y0183746D02*
X0381229Y0183746D01*
X0379653Y0170834D02*
X0379653Y0167488D01*
X0379653Y0170834D02*
X0381229Y0170834D01*
X0381229Y0167488D01*
X0379653Y0167488D01*
X0379653Y0169062D02*
X0381229Y0169062D01*
X0381229Y0170636D02*
X0379653Y0170636D01*
D15*
X0357903Y0196364D02*
X0356089Y0196364D01*
X0356089Y0198376D01*
X0357903Y0198376D01*
X0357903Y0196364D01*
X0357903Y0198250D02*
X0356089Y0198250D01*
X0349674Y0198376D02*
X0347860Y0198376D01*
X0349674Y0198376D02*
X0349674Y0196364D01*
X0347860Y0196364D01*
X0347860Y0198376D01*
X0347860Y0198250D02*
X0349674Y0198250D01*
X0336249Y0196364D02*
X0334435Y0196364D01*
X0334435Y0198376D01*
X0336249Y0198376D01*
X0336249Y0196364D01*
X0336249Y0198250D02*
X0334435Y0198250D01*
X0328021Y0198376D02*
X0326207Y0198376D01*
X0328021Y0198376D02*
X0328021Y0196364D01*
X0326207Y0196364D01*
X0326207Y0198376D01*
X0326207Y0198250D02*
X0328021Y0198250D01*
X0302785Y0412899D02*
X0300971Y0412899D01*
X0300971Y0414911D01*
X0302785Y0414911D01*
X0302785Y0412899D01*
X0302785Y0414785D02*
X0300971Y0414785D01*
X0294556Y0414911D02*
X0292742Y0414911D01*
X0294556Y0414911D02*
X0294556Y0412899D01*
X0292742Y0412899D01*
X0292742Y0414911D01*
X0292742Y0414785D02*
X0294556Y0414785D01*
D16*
X0327134Y0363630D03*
D17*
X0337134Y0363630D03*
X0347134Y0363630D03*
X0347134Y0373630D03*
X0337134Y0373630D03*
X0327134Y0373630D03*
D18*
X0238433Y0311661D03*
X0411937Y0226897D03*
D19*
X0411937Y0236897D03*
X0411937Y0246897D03*
X0411937Y0256897D03*
X0411937Y0266897D03*
X0411937Y0276897D03*
X0411937Y0286897D03*
X0411937Y0296897D03*
X0411937Y0306897D03*
X0411937Y0316897D03*
X0238433Y0301661D03*
D20*
X0138708Y0306110D03*
X0138708Y0316110D03*
X0138708Y0326110D03*
X0138708Y0336110D03*
X0138708Y0296110D03*
X0138708Y0286110D03*
X0138708Y0263236D03*
X0138708Y0253236D03*
X0138708Y0243236D03*
X0138708Y0233236D03*
X0138708Y0223236D03*
X0138708Y0213236D03*
D21*
G36*
X0133085Y0147819D02*
X0138652Y0153386D01*
X0144219Y0147819D01*
X0138652Y0142252D01*
X0133085Y0147819D01*
G37*
G36*
X0141437Y0139468D02*
X0147004Y0145035D01*
X0152571Y0139468D01*
X0147004Y0133901D01*
X0141437Y0139468D01*
G37*
G36*
X0396526Y0133085D02*
X0390959Y0138652D01*
X0396526Y0144219D01*
X0402093Y0138652D01*
X0396526Y0133085D01*
G37*
G36*
X0404878Y0141437D02*
X0399311Y0147004D01*
X0404878Y0152571D01*
X0410445Y0147004D01*
X0404878Y0141437D01*
G37*
G36*
X0409292Y0396526D02*
X0403725Y0390959D01*
X0398158Y0396526D01*
X0403725Y0402093D01*
X0409292Y0396526D01*
G37*
G36*
X0400940Y0404878D02*
X0395373Y0399311D01*
X0389806Y0404878D01*
X0395373Y0410445D01*
X0400940Y0404878D01*
G37*
G36*
X0147819Y0413229D02*
X0153386Y0407662D01*
X0147819Y0402095D01*
X0142252Y0407662D01*
X0147819Y0413229D01*
G37*
G36*
X0139468Y0404877D02*
X0145035Y0399310D01*
X0139468Y0393743D01*
X0133901Y0399310D01*
X0139468Y0404877D01*
G37*
D22*
X0143491Y0378315D02*
X0145303Y0378315D01*
X0145303Y0374693D01*
X0143491Y0374693D01*
X0143491Y0378315D01*
X0143491Y0376503D02*
X0145303Y0376503D01*
X0145303Y0378313D02*
X0143491Y0378313D01*
X0151011Y0374693D02*
X0152823Y0374693D01*
X0151011Y0374693D02*
X0151011Y0378315D01*
X0152823Y0378315D01*
X0152823Y0374693D01*
X0152823Y0376503D02*
X0151011Y0376503D01*
X0151011Y0378313D02*
X0152823Y0378313D01*
X0152823Y0347134D02*
X0151011Y0347134D01*
X0151011Y0350756D01*
X0152823Y0350756D01*
X0152823Y0347134D01*
X0152823Y0348944D02*
X0151011Y0348944D01*
X0151011Y0350754D02*
X0152823Y0350754D01*
X0145303Y0350756D02*
X0143491Y0350756D01*
X0145303Y0350756D02*
X0145303Y0347134D01*
X0143491Y0347134D01*
X0143491Y0350756D01*
X0143491Y0348944D02*
X0145303Y0348944D01*
X0145303Y0350754D02*
X0143491Y0350754D01*
X0183433Y0308335D02*
X0183433Y0306523D01*
X0179811Y0306523D01*
X0179811Y0308335D01*
X0183433Y0308335D01*
X0183433Y0308333D02*
X0179811Y0308333D01*
X0179811Y0300815D02*
X0179811Y0299003D01*
X0179811Y0300815D02*
X0183433Y0300815D01*
X0183433Y0299003D01*
X0179811Y0299003D01*
X0179811Y0300813D02*
X0183433Y0300813D01*
X0152823Y0193590D02*
X0151011Y0193590D01*
X0151011Y0197212D01*
X0152823Y0197212D01*
X0152823Y0193590D01*
X0152823Y0195400D02*
X0151011Y0195400D01*
X0151011Y0197210D02*
X0152823Y0197210D01*
X0145303Y0197212D02*
X0143491Y0197212D01*
X0145303Y0197212D02*
X0145303Y0193590D01*
X0143491Y0193590D01*
X0143491Y0197212D01*
X0143491Y0195400D02*
X0145303Y0195400D01*
X0145303Y0197210D02*
X0143491Y0197210D01*
X0143491Y0169653D02*
X0145303Y0169653D01*
X0145303Y0166031D01*
X0143491Y0166031D01*
X0143491Y0169653D01*
X0143491Y0167841D02*
X0145303Y0167841D01*
X0145303Y0169651D02*
X0143491Y0169651D01*
X0151011Y0166031D02*
X0152823Y0166031D01*
X0151011Y0166031D02*
X0151011Y0169653D01*
X0152823Y0169653D01*
X0152823Y0166031D01*
X0152823Y0167841D02*
X0151011Y0167841D01*
X0151011Y0169651D02*
X0152823Y0169651D01*
X0302940Y0270047D02*
X0304752Y0270047D01*
X0304752Y0266425D01*
X0302940Y0266425D01*
X0302940Y0270047D01*
X0302940Y0268235D02*
X0304752Y0268235D01*
X0304752Y0270045D02*
X0302940Y0270045D01*
X0310460Y0266425D02*
X0312272Y0266425D01*
X0310460Y0266425D02*
X0310460Y0270047D01*
X0312272Y0270047D01*
X0312272Y0266425D01*
X0312272Y0268235D02*
X0310460Y0268235D01*
X0310460Y0270045D02*
X0312272Y0270045D01*
X0312272Y0278236D02*
X0310460Y0278236D01*
X0310460Y0281858D01*
X0312272Y0281858D01*
X0312272Y0278236D01*
X0312272Y0280046D02*
X0310460Y0280046D01*
X0310460Y0281856D02*
X0312272Y0281856D01*
X0304752Y0281858D02*
X0302940Y0281858D01*
X0304752Y0281858D02*
X0304752Y0278236D01*
X0302940Y0278236D01*
X0302940Y0281858D01*
X0302940Y0280046D02*
X0304752Y0280046D01*
X0304752Y0281856D02*
X0302940Y0281856D01*
X0330499Y0210992D02*
X0332311Y0210992D01*
X0332311Y0207370D01*
X0330499Y0207370D01*
X0330499Y0210992D01*
X0330499Y0209180D02*
X0332311Y0209180D01*
X0332311Y0210990D02*
X0330499Y0210990D01*
X0338019Y0207370D02*
X0339831Y0207370D01*
X0338019Y0207370D02*
X0338019Y0210992D01*
X0339831Y0210992D01*
X0339831Y0207370D01*
X0339831Y0209180D02*
X0338019Y0209180D01*
X0338019Y0210990D02*
X0339831Y0210990D01*
X0346247Y0210992D02*
X0348059Y0210992D01*
X0348059Y0207370D01*
X0346247Y0207370D01*
X0346247Y0210992D01*
X0346247Y0209180D02*
X0348059Y0209180D01*
X0348059Y0210990D02*
X0346247Y0210990D01*
X0353767Y0207370D02*
X0355579Y0207370D01*
X0353767Y0207370D02*
X0353767Y0210992D01*
X0355579Y0210992D01*
X0355579Y0207370D01*
X0355579Y0209180D02*
X0353767Y0209180D01*
X0353767Y0210990D02*
X0355579Y0210990D01*
X0319260Y0204004D02*
X0319260Y0202192D01*
X0315638Y0202192D01*
X0315638Y0204004D01*
X0319260Y0204004D01*
X0319260Y0204002D02*
X0315638Y0204002D01*
X0315638Y0196484D02*
X0315638Y0194672D01*
X0315638Y0196484D02*
X0319260Y0196484D01*
X0319260Y0194672D01*
X0315638Y0194672D01*
X0315638Y0196482D02*
X0319260Y0196482D01*
X0393491Y0199181D02*
X0395303Y0199181D01*
X0395303Y0195559D01*
X0393491Y0195559D01*
X0393491Y0199181D01*
X0393491Y0197369D02*
X0395303Y0197369D01*
X0395303Y0199179D02*
X0393491Y0199179D01*
X0401011Y0195559D02*
X0402823Y0195559D01*
X0401011Y0195559D02*
X0401011Y0199181D01*
X0402823Y0199181D01*
X0402823Y0195559D01*
X0402823Y0197369D02*
X0401011Y0197369D01*
X0401011Y0199179D02*
X0402823Y0199179D01*
X0402823Y0166031D02*
X0401011Y0166031D01*
X0401011Y0169653D01*
X0402823Y0169653D01*
X0402823Y0166031D01*
X0402823Y0167841D02*
X0401011Y0167841D01*
X0401011Y0169651D02*
X0402823Y0169651D01*
X0395303Y0169653D02*
X0393491Y0169653D01*
X0395303Y0169653D02*
X0395303Y0166031D01*
X0393491Y0166031D01*
X0393491Y0169653D01*
X0393491Y0167841D02*
X0395303Y0167841D01*
X0395303Y0169651D02*
X0393491Y0169651D01*
X0393335Y0348787D02*
X0391523Y0348787D01*
X0393335Y0348787D02*
X0393335Y0345165D01*
X0391523Y0345165D01*
X0391523Y0348787D01*
X0391523Y0346975D02*
X0393335Y0346975D01*
X0393335Y0348785D02*
X0391523Y0348785D01*
X0399043Y0345165D02*
X0400855Y0345165D01*
X0399043Y0345165D02*
X0399043Y0348787D01*
X0400855Y0348787D01*
X0400855Y0345165D01*
X0400855Y0346975D02*
X0399043Y0346975D01*
X0399043Y0348785D02*
X0400855Y0348785D01*
X0400855Y0372724D02*
X0399043Y0372724D01*
X0399043Y0376346D01*
X0400855Y0376346D01*
X0400855Y0372724D01*
X0400855Y0374534D02*
X0399043Y0374534D01*
X0399043Y0376344D02*
X0400855Y0376344D01*
X0393335Y0376346D02*
X0391523Y0376346D01*
X0393335Y0376346D02*
X0393335Y0372724D01*
X0391523Y0372724D01*
X0391523Y0376346D01*
X0391523Y0374534D02*
X0393335Y0374534D01*
X0393335Y0376344D02*
X0391523Y0376344D01*
X0276839Y0412094D02*
X0275027Y0412094D01*
X0275027Y0415716D01*
X0276839Y0415716D01*
X0276839Y0412094D01*
X0276839Y0413904D02*
X0275027Y0413904D01*
X0275027Y0415714D02*
X0276839Y0415714D01*
X0269319Y0415716D02*
X0267507Y0415716D01*
X0269319Y0415716D02*
X0269319Y0412094D01*
X0267507Y0412094D01*
X0267507Y0415716D01*
X0267507Y0413904D02*
X0269319Y0413904D01*
X0269319Y0415714D02*
X0267507Y0415714D01*
D23*
X0217055Y0254063D03*
X0213118Y0254063D03*
D24*
X0151897Y0177094D03*
X0144417Y0177094D03*
X0144417Y0367252D03*
X0151897Y0367252D03*
X0392449Y0365283D03*
X0399929Y0365283D03*
X0401897Y0177094D03*
X0394417Y0177094D03*
D25*
X0398157Y0185067D03*
X0396189Y0357311D03*
X0148157Y0359279D03*
X0148157Y0185067D03*
D26*
X0270204Y0153283D03*
X0270204Y0127283D03*
D27*
X0204181Y0268078D03*
X0204181Y0271819D03*
X0204181Y0275559D03*
X0193945Y0275559D03*
X0193945Y0268078D03*
D28*
X0266248Y0265382D03*
X0267941Y0265382D03*
X0269634Y0265382D03*
X0271326Y0265382D03*
X0273019Y0265382D03*
X0274712Y0265382D03*
X0276405Y0265382D03*
X0278098Y0265382D03*
X0276405Y0278964D03*
X0274712Y0278964D03*
X0273019Y0278964D03*
X0271326Y0278964D03*
X0269634Y0278964D03*
X0267941Y0278964D03*
X0266248Y0278964D03*
D29*
X0278098Y0278964D03*
D30*
X0264279Y0274712D03*
X0264279Y0273019D03*
X0264279Y0271326D03*
X0264279Y0269634D03*
D31*
X0280067Y0269634D03*
X0280067Y0271326D03*
X0280067Y0273019D03*
X0280067Y0274712D03*
D32*
X0194220Y0297566D02*
X0194220Y0300716D01*
X0196582Y0300716D01*
X0196582Y0297566D01*
X0194220Y0297566D01*
X0194220Y0299927D02*
X0196582Y0299927D01*
D33*
X0195401Y0308197D03*
D34*
X0256858Y0225169D03*
X0258826Y0225169D03*
X0260795Y0225169D03*
X0262763Y0225169D03*
X0264732Y0225169D03*
X0266701Y0225169D03*
X0268669Y0225169D03*
X0270638Y0225169D03*
X0272606Y0225169D03*
X0274575Y0225169D03*
X0276543Y0225169D03*
X0278512Y0225169D03*
X0280480Y0225169D03*
X0282449Y0225169D03*
X0284417Y0225169D03*
X0286386Y0225169D03*
X0286386Y0186736D03*
X0284417Y0186736D03*
X0282449Y0186736D03*
X0280480Y0186736D03*
X0278512Y0186736D03*
X0276543Y0186736D03*
X0274575Y0186736D03*
X0272606Y0186736D03*
X0270638Y0186736D03*
X0268669Y0186736D03*
X0266701Y0186736D03*
X0264732Y0186736D03*
X0262763Y0186736D03*
X0260795Y0186736D03*
X0258826Y0186736D03*
X0256858Y0186736D03*
D35*
X0252405Y0191189D03*
X0252405Y0193157D03*
X0252405Y0195126D03*
X0252405Y0197094D03*
X0252405Y0199063D03*
X0252405Y0201031D03*
X0252405Y0203000D03*
X0252405Y0204968D03*
X0252405Y0206937D03*
X0252405Y0208905D03*
X0252405Y0210874D03*
X0252405Y0212842D03*
X0252405Y0214811D03*
X0252405Y0216779D03*
X0252405Y0218748D03*
X0252405Y0220716D03*
X0290838Y0220716D03*
X0290838Y0218748D03*
X0290838Y0216779D03*
X0290838Y0214811D03*
X0290838Y0212842D03*
X0290838Y0210874D03*
X0290838Y0208905D03*
X0290838Y0206937D03*
X0290838Y0204968D03*
X0290838Y0203000D03*
X0290838Y0201031D03*
X0290838Y0199063D03*
X0290838Y0197094D03*
X0290838Y0195126D03*
X0290838Y0193157D03*
X0290838Y0191189D03*
D36*
X0240086Y0200716D03*
X0240086Y0209771D03*
X0225519Y0209771D03*
X0225519Y0200716D03*
D37*
X0241169Y0195401D03*
X0248551Y0185559D03*
X0260362Y0178669D03*
X0260362Y0172763D03*
X0260362Y0166858D03*
X0260362Y0160952D03*
X0260362Y0155047D03*
X0254456Y0160952D03*
X0254456Y0166858D03*
X0254456Y0172763D03*
X0275618Y0192941D03*
X0280047Y0179653D03*
X0287921Y0179653D03*
X0295795Y0175716D03*
X0295795Y0167842D03*
X0295795Y0159968D03*
X0287921Y0156031D03*
X0280047Y0156031D03*
X0295795Y0185559D03*
X0304161Y0192449D03*
X0296779Y0212134D03*
X0296779Y0219023D03*
X0303669Y0219023D03*
X0314988Y0212626D03*
X0284476Y0210657D03*
X0283984Y0216071D03*
X0276602Y0214594D03*
X0270697Y0215578D03*
X0265283Y0211641D03*
X0258393Y0211641D03*
X0246090Y0218531D03*
X0246582Y0223945D03*
X0252980Y0224437D03*
X0269712Y0242153D03*
X0268236Y0247567D03*
X0273649Y0248551D03*
X0280047Y0259378D03*
X0266267Y0259378D03*
X0259378Y0267252D03*
X0262823Y0278078D03*
X0273157Y0284968D03*
X0281523Y0284968D03*
X0298256Y0278571D03*
X0305145Y0274141D03*
X0307114Y0255441D03*
X0329752Y0256425D03*
X0336641Y0270204D03*
X0374535Y0256425D03*
X0398157Y0248551D03*
X0398157Y0236740D03*
X0374535Y0224929D03*
X0376012Y0203767D03*
X0346484Y0220500D03*
X0390283Y0158000D03*
X0382409Y0156523D03*
X0390283Y0150126D03*
X0276110Y0234771D03*
X0272173Y0231326D03*
X0236248Y0252980D03*
X0224929Y0256425D03*
X0199338Y0227882D03*
X0207704Y0220008D03*
X0177685Y0252488D03*
X0189496Y0258393D03*
X0140283Y0190972D03*
X0140283Y0171779D03*
X0149634Y0162429D03*
X0154063Y0158000D03*
X0154063Y0150126D03*
X0162921Y0176701D03*
X0271189Y0302193D03*
X0278078Y0309575D03*
X0387823Y0377488D03*
X0390283Y0386346D03*
X0390283Y0394220D03*
X0400126Y0389791D03*
X0154063Y0390283D03*
X0154063Y0398157D03*
X0144220Y0382409D03*
D38*
X0151917Y0348945D02*
X0161937Y0348945D01*
X0161937Y0345421D01*
X0161937Y0345008D01*
X0174240Y0332704D01*
X0174240Y0250519D01*
X0196878Y0227882D01*
X0199338Y0227882D01*
X0202783Y0229358D02*
X0202783Y0226405D01*
X0200815Y0224437D01*
X0189004Y0224437D01*
X0189004Y0217547D01*
X0188019Y0216563D01*
X0143728Y0216563D01*
X0143728Y0248059D01*
X0138807Y0252980D01*
X0138708Y0253236D01*
X0138807Y0262823D02*
X0138708Y0263236D01*
X0138807Y0262823D02*
X0143236Y0262823D01*
X0185559Y0220500D01*
X0185933Y0220401D01*
X0192980Y0220401D02*
X0193433Y0220008D01*
X0207704Y0220008D01*
X0209673Y0217055D02*
X0191956Y0199338D01*
X0161937Y0199338D01*
X0161937Y0198925D01*
X0161937Y0195401D01*
X0151917Y0195401D01*
X0138708Y0213236D02*
X0138315Y0213610D01*
X0133886Y0218039D01*
X0133886Y0281523D01*
X0138315Y0285952D01*
X0138708Y0286110D01*
X0178098Y0276110D02*
X0178177Y0276110D01*
X0178177Y0268236D01*
X0178098Y0268236D01*
X0177685Y0268236D01*
X0177685Y0252488D01*
X0177685Y0250519D01*
X0187941Y0250519D01*
X0188019Y0250519D01*
X0188019Y0242645D01*
X0187941Y0242645D01*
X0194909Y0242645D02*
X0194988Y0242645D01*
X0216563Y0242645D01*
X0228374Y0254456D01*
X0228374Y0263807D01*
X0252488Y0263807D01*
X0252488Y0272586D01*
X0252488Y0273157D01*
X0259378Y0273157D01*
X0259378Y0281523D01*
X0256425Y0284476D01*
X0256425Y0294319D01*
X0264299Y0294319D01*
X0268236Y0290382D01*
X0268236Y0290303D01*
X0269712Y0290382D01*
X0269712Y0279063D01*
X0269634Y0278964D01*
X0269712Y0279063D02*
X0271189Y0279063D01*
X0271326Y0278964D01*
X0273019Y0278964D02*
X0273157Y0279063D01*
X0273157Y0284968D01*
X0278078Y0286445D02*
X0278078Y0279063D01*
X0278098Y0278964D01*
X0278078Y0278571D01*
X0280047Y0278571D01*
X0280047Y0275126D01*
X0280067Y0274712D01*
X0280047Y0274634D01*
X0280047Y0273157D01*
X0280067Y0273019D01*
X0280047Y0272665D01*
X0280047Y0271681D01*
X0280067Y0271326D01*
X0280047Y0271189D01*
X0280047Y0269712D01*
X0280067Y0269634D01*
X0280047Y0269220D01*
X0280047Y0259378D01*
X0281031Y0258393D01*
X0281031Y0231819D01*
X0283492Y0229358D01*
X0285952Y0229358D01*
X0285952Y0225421D01*
X0286386Y0225169D01*
X0284417Y0225169D02*
X0283984Y0224929D01*
X0283984Y0220992D01*
X0280047Y0217055D01*
X0280047Y0213118D01*
X0278078Y0211149D01*
X0264791Y0211149D01*
X0264791Y0211641D01*
X0265283Y0211641D01*
X0264791Y0211641D02*
X0264791Y0224929D01*
X0264732Y0225169D01*
X0264791Y0225421D01*
X0264791Y0252980D01*
X0266267Y0254456D01*
X0262823Y0257901D01*
X0262823Y0261838D01*
X0260854Y0263807D01*
X0252488Y0263807D01*
X0259378Y0267252D02*
X0259378Y0271189D01*
X0263807Y0271189D01*
X0264279Y0271326D01*
X0264279Y0269634D02*
X0263807Y0269220D01*
X0262823Y0268236D01*
X0262823Y0265775D01*
X0260854Y0263807D01*
X0266267Y0265283D02*
X0266267Y0259378D01*
X0269712Y0257901D02*
X0266267Y0254456D01*
X0269712Y0257901D02*
X0269712Y0261346D01*
X0269712Y0265283D01*
X0269634Y0265382D01*
X0269220Y0265283D01*
X0268236Y0265283D01*
X0267941Y0265382D01*
X0266267Y0265283D02*
X0266248Y0265382D01*
X0269712Y0261346D02*
X0277094Y0261346D01*
X0278078Y0262330D01*
X0278078Y0265283D01*
X0278098Y0265382D01*
X0278078Y0279063D02*
X0276602Y0279063D01*
X0276405Y0278964D01*
X0276110Y0279063D01*
X0275126Y0279063D01*
X0274712Y0278964D01*
X0267941Y0278964D02*
X0267744Y0279063D01*
X0267744Y0282508D01*
X0260362Y0289889D01*
X0260362Y0290303D01*
X0260362Y0297271D02*
X0252488Y0297271D01*
X0252488Y0279634D01*
X0252488Y0278571D01*
X0232803Y0278571D01*
X0232803Y0278492D01*
X0232803Y0278078D01*
X0224929Y0270204D01*
X0224929Y0256425D01*
X0224929Y0254456D01*
X0217055Y0254456D01*
X0217055Y0254063D01*
X0217055Y0245106D01*
X0211641Y0245106D01*
X0207704Y0249043D01*
X0207704Y0271681D01*
X0204260Y0271681D01*
X0204181Y0271819D01*
X0197370Y0271189D02*
X0194417Y0268236D01*
X0193945Y0268078D01*
X0193925Y0268236D01*
X0189496Y0268236D01*
X0189496Y0258393D01*
X0189496Y0255933D01*
X0194909Y0250519D01*
X0194988Y0250519D01*
X0194909Y0250519D02*
X0194909Y0242645D01*
X0202783Y0229358D02*
X0257901Y0229358D01*
X0258393Y0228866D01*
X0258393Y0225421D01*
X0258826Y0225169D01*
X0260362Y0225421D02*
X0260795Y0225169D01*
X0260362Y0225421D02*
X0260362Y0228866D01*
X0236248Y0252980D01*
X0259378Y0273157D02*
X0263807Y0273157D01*
X0264279Y0273019D01*
X0264279Y0274712D02*
X0263807Y0275126D01*
X0262823Y0276110D01*
X0262823Y0278078D01*
X0266248Y0278964D02*
X0266267Y0279063D01*
X0266267Y0279555D01*
X0264299Y0281523D01*
X0259378Y0281523D01*
X0268236Y0290382D02*
X0269712Y0290382D01*
X0276110Y0290382D01*
X0276110Y0290303D01*
X0278078Y0286445D02*
X0280047Y0288413D01*
X0280047Y0297763D01*
X0283984Y0297763D01*
X0283984Y0297350D01*
X0280047Y0297763D02*
X0276110Y0297763D01*
X0276110Y0297350D01*
X0276110Y0297763D02*
X0268236Y0297763D01*
X0268236Y0297350D01*
X0268236Y0297763D02*
X0260362Y0297763D01*
X0260362Y0297350D01*
X0260362Y0297271D01*
X0271189Y0302193D02*
X0271189Y0409476D01*
X0275618Y0413905D01*
X0275933Y0413905D01*
X0279063Y0413905D02*
X0279063Y0416366D01*
X0277586Y0417842D01*
X0268728Y0417842D01*
X0268728Y0413905D01*
X0268413Y0413905D01*
X0279063Y0413905D02*
X0293649Y0413905D01*
X0301878Y0413905D02*
X0302193Y0413905D01*
X0337626Y0378472D01*
X0346976Y0378472D01*
X0346976Y0374043D01*
X0347134Y0373630D01*
X0347134Y0363630D02*
X0346976Y0363216D01*
X0343039Y0359279D01*
X0343039Y0194417D01*
X0325323Y0194417D01*
X0324338Y0195401D01*
X0317449Y0195401D01*
X0317449Y0195578D01*
X0317449Y0195401D02*
X0317449Y0192449D01*
X0304161Y0192449D01*
X0309575Y0195815D02*
X0309575Y0195893D01*
X0295795Y0195893D01*
X0295795Y0196878D01*
X0290874Y0196878D01*
X0290838Y0197094D01*
X0290382Y0197370D01*
X0287429Y0197370D01*
X0286445Y0198354D01*
X0286445Y0204752D01*
X0290382Y0204752D01*
X0290838Y0204968D01*
X0290874Y0203275D02*
X0290838Y0203000D01*
X0290874Y0203275D02*
X0294811Y0203275D01*
X0298748Y0207212D01*
X0311543Y0207212D01*
X0311543Y0256425D01*
X0329752Y0256425D01*
X0336641Y0270204D02*
X0336641Y0211149D01*
X0338610Y0209181D01*
X0338925Y0209181D01*
X0334181Y0212134D02*
X0333197Y0213118D01*
X0321386Y0213118D01*
X0321386Y0201307D01*
X0318433Y0198354D01*
X0309575Y0198354D01*
X0309575Y0195893D01*
X0309575Y0202783D02*
X0296287Y0202783D01*
X0294811Y0201307D01*
X0290874Y0201307D01*
X0290838Y0201031D01*
X0290874Y0200815D01*
X0290874Y0199338D01*
X0290838Y0199063D01*
X0295795Y0195893D02*
X0295795Y0185559D01*
X0278512Y0186736D02*
X0278078Y0187035D01*
X0278078Y0190480D01*
X0275618Y0192941D01*
X0276110Y0187035D02*
X0276543Y0186736D01*
X0276110Y0187035D02*
X0274634Y0187035D01*
X0274575Y0186736D01*
X0274634Y0186543D01*
X0274634Y0180145D01*
X0274306Y0179653D01*
X0272606Y0176071D02*
X0274732Y0173748D01*
X0274732Y0168433D01*
X0274732Y0165874D02*
X0276602Y0165874D01*
X0276602Y0166366D01*
X0281031Y0170795D01*
X0281031Y0171779D01*
X0281051Y0171779D01*
X0272606Y0176071D02*
X0272606Y0186736D01*
X0270638Y0186736D02*
X0270638Y0176149D01*
X0268433Y0173748D01*
X0268433Y0168433D01*
X0268728Y0179653D02*
X0268728Y0186543D01*
X0268669Y0186736D01*
X0256425Y0197862D02*
X0255933Y0197370D01*
X0252488Y0197370D01*
X0252405Y0197094D01*
X0251996Y0196878D01*
X0249043Y0196878D01*
X0246090Y0193925D01*
X0246090Y0187769D01*
X0246341Y0187769D01*
X0248551Y0185559D01*
X0246090Y0187769D02*
X0234401Y0187769D01*
X0230705Y0191464D01*
X0229279Y0191464D01*
X0229279Y0190893D01*
X0213118Y0190893D01*
X0213118Y0192319D01*
X0209423Y0196015D01*
X0209423Y0199867D01*
X0213118Y0203562D01*
X0213118Y0206641D01*
X0213118Y0200716D02*
X0213118Y0197941D01*
X0213118Y0200716D02*
X0225519Y0200716D01*
X0225519Y0204968D01*
X0252405Y0204968D01*
X0252488Y0203275D02*
X0252405Y0203000D01*
X0252488Y0203275D02*
X0256425Y0203275D01*
X0256425Y0197862D01*
X0252405Y0199063D02*
X0251888Y0198545D01*
X0248958Y0198545D01*
X0241877Y0191464D01*
X0236326Y0191464D01*
X0241169Y0195401D02*
X0242153Y0195401D01*
X0245106Y0198354D01*
X0245106Y0200815D01*
X0251996Y0200815D01*
X0252405Y0201031D01*
X0256425Y0203275D02*
X0256425Y0204752D01*
X0261838Y0210165D01*
X0261838Y0213118D01*
X0262330Y0213610D01*
X0262330Y0224929D01*
X0262763Y0225169D01*
X0266267Y0225421D02*
X0266701Y0225169D01*
X0266267Y0225421D02*
X0266267Y0245598D01*
X0268236Y0247567D01*
X0273649Y0248551D02*
X0279555Y0242645D01*
X0279555Y0233295D01*
X0278571Y0232311D01*
X0278571Y0225421D01*
X0278512Y0225169D01*
X0276602Y0224929D02*
X0276543Y0225169D01*
X0276602Y0224929D02*
X0276602Y0214594D01*
X0270697Y0215578D02*
X0270697Y0224929D01*
X0270638Y0225169D01*
X0272173Y0225421D02*
X0272173Y0231326D01*
X0274634Y0228866D02*
X0276110Y0230342D01*
X0276110Y0234771D01*
X0274634Y0228866D02*
X0274634Y0225421D01*
X0274575Y0225169D01*
X0272606Y0225169D02*
X0272173Y0225421D01*
X0268728Y0225421D02*
X0268669Y0225169D01*
X0268728Y0225421D02*
X0268728Y0241169D01*
X0269712Y0242153D01*
X0283492Y0229358D02*
X0282508Y0228374D01*
X0282508Y0225421D01*
X0282449Y0225169D01*
X0283984Y0216071D02*
X0286937Y0213118D01*
X0290382Y0213118D01*
X0290838Y0212842D01*
X0290838Y0210874D02*
X0290382Y0210657D01*
X0284476Y0210657D01*
X0290874Y0209181D02*
X0290838Y0208905D01*
X0290874Y0209181D02*
X0296779Y0209181D01*
X0296779Y0212134D01*
X0300224Y0210657D02*
X0296779Y0207212D01*
X0290874Y0207212D01*
X0290838Y0206937D01*
X0300224Y0210657D02*
X0300224Y0276602D01*
X0298256Y0278571D01*
X0300224Y0276602D02*
X0303669Y0280047D01*
X0303846Y0280047D01*
X0305145Y0274141D02*
X0305145Y0269220D01*
X0304161Y0268236D01*
X0303846Y0268236D01*
X0303669Y0268236D01*
X0303669Y0219023D01*
X0296779Y0219023D02*
X0295303Y0220500D01*
X0295303Y0276602D01*
X0287921Y0283984D01*
X0287921Y0299732D01*
X0278078Y0309575D01*
X0283984Y0290303D02*
X0283984Y0287429D01*
X0281523Y0284968D01*
X0308590Y0256917D02*
X0308590Y0345008D01*
X0326799Y0363216D01*
X0327134Y0363630D01*
X0332212Y0361740D02*
X0332212Y0368630D01*
X0337134Y0373551D01*
X0337134Y0373630D01*
X0332212Y0361740D02*
X0333197Y0360756D01*
X0333197Y0230834D01*
X0314988Y0212626D01*
X0313512Y0207212D02*
X0311543Y0207212D01*
X0313512Y0207212D02*
X0317449Y0203275D01*
X0317449Y0203098D01*
X0309575Y0202862D02*
X0309575Y0202783D01*
X0327114Y0197370D02*
X0327291Y0197370D01*
X0331228Y0201307D01*
X0331228Y0209181D01*
X0331405Y0209181D01*
X0334181Y0212134D02*
X0334181Y0198354D01*
X0335165Y0197370D01*
X0335342Y0197370D01*
X0347468Y0198354D02*
X0347468Y0209181D01*
X0347153Y0209181D01*
X0354358Y0209181D02*
X0346484Y0217055D01*
X0346484Y0220500D01*
X0354358Y0209181D02*
X0354673Y0209181D01*
X0356996Y0197370D02*
X0357311Y0197370D01*
X0374535Y0214594D01*
X0374535Y0224929D01*
X0376012Y0203767D02*
X0380441Y0199338D01*
X0380441Y0198925D01*
X0380441Y0197370D01*
X0394397Y0197370D01*
X0394712Y0197370D01*
X0394712Y0259378D01*
X0411937Y0276602D01*
X0411937Y0276897D01*
X0416366Y0271681D02*
X0411937Y0267252D01*
X0411937Y0266897D01*
X0416366Y0271681D02*
X0416366Y0321386D01*
X0397173Y0340578D01*
X0378472Y0340578D01*
X0378472Y0348452D01*
X0382409Y0352389D01*
X0382409Y0352468D01*
X0397173Y0340578D02*
X0398157Y0341563D01*
X0398157Y0345500D01*
X0399634Y0346976D01*
X0399949Y0346976D01*
X0311543Y0280047D02*
X0311543Y0268236D01*
X0311366Y0268236D01*
X0311543Y0268236D02*
X0311543Y0256425D01*
X0308590Y0256917D02*
X0307114Y0255441D01*
X0311366Y0280047D02*
X0311543Y0280047D01*
X0252980Y0224437D02*
X0252980Y0221484D01*
X0252488Y0220992D01*
X0252405Y0220716D01*
X0252405Y0218748D02*
X0251996Y0218531D01*
X0246090Y0218531D01*
X0249043Y0216563D02*
X0247567Y0215086D01*
X0242645Y0215086D01*
X0242645Y0220008D01*
X0246582Y0223945D01*
X0249043Y0216563D02*
X0251996Y0216563D01*
X0252405Y0216779D01*
X0252488Y0211149D02*
X0252405Y0210874D01*
X0252488Y0211149D02*
X0255933Y0211149D01*
X0256425Y0211641D01*
X0258393Y0211641D01*
X0255933Y0208689D02*
X0252488Y0208689D01*
X0252405Y0208905D01*
X0252405Y0206937D02*
X0240086Y0206937D01*
X0240086Y0209771D01*
X0240086Y0213689D01*
X0213118Y0213689D01*
X0215578Y0217055D02*
X0209673Y0217055D01*
X0215578Y0217055D02*
X0217055Y0215578D01*
X0217055Y0215086D01*
X0242645Y0215086D01*
X0255933Y0208689D02*
X0256425Y0208197D01*
X0256425Y0204752D01*
X0197370Y0271189D02*
X0197370Y0296779D01*
X0195401Y0298748D01*
X0195401Y0299141D01*
X0195401Y0307606D02*
X0181622Y0307606D01*
X0181622Y0307429D01*
X0181622Y0299909D02*
X0181622Y0299732D01*
X0178177Y0296287D01*
X0178177Y0276110D01*
X0185145Y0276110D02*
X0185559Y0276110D01*
X0185559Y0275618D01*
X0193925Y0275618D01*
X0193945Y0275559D01*
X0189496Y0268236D02*
X0185145Y0268236D01*
X0214673Y0282173D02*
X0215086Y0282508D01*
X0233787Y0301208D01*
X0233787Y0307114D01*
X0238216Y0311543D01*
X0238433Y0311661D01*
X0195401Y0308197D02*
X0195401Y0307606D01*
X0347468Y0198354D02*
X0348452Y0197370D01*
X0348767Y0197370D01*
D39*
X0299732Y0179653D02*
X0299732Y0152094D01*
X0276604Y0152094D01*
X0276604Y0155863D01*
X0275784Y0156683D01*
X0275585Y0156683D01*
X0276441Y0157539D01*
X0276441Y0160930D01*
X0276671Y0161113D01*
X0277525Y0161113D01*
X0277525Y0160709D01*
X0278918Y0159316D01*
X0283184Y0159316D01*
X0284417Y0160550D01*
X0284488Y0160378D01*
X0284792Y0159923D01*
X0285179Y0159536D01*
X0285634Y0159232D01*
X0286140Y0159023D01*
X0286677Y0158916D01*
X0287835Y0158916D01*
X0287835Y0163248D01*
X0288361Y0163248D01*
X0288361Y0158916D01*
X0289520Y0158916D01*
X0290056Y0159023D01*
X0290562Y0159232D01*
X0291017Y0159536D01*
X0291404Y0159923D01*
X0291708Y0160378D01*
X0291917Y0160884D01*
X0292024Y0161421D01*
X0292024Y0163249D01*
X0288361Y0163249D01*
X0288361Y0163775D01*
X0287835Y0163775D01*
X0287835Y0171516D01*
X0288361Y0171516D01*
X0288361Y0168107D01*
X0288361Y0163775D01*
X0292024Y0163775D01*
X0292024Y0165602D01*
X0291917Y0166139D01*
X0291708Y0166645D01*
X0291404Y0167100D01*
X0291017Y0167487D01*
X0290779Y0167645D01*
X0291017Y0167804D01*
X0291404Y0168191D01*
X0291708Y0168646D01*
X0291917Y0169152D01*
X0292024Y0169688D01*
X0292024Y0171516D01*
X0288361Y0171516D01*
X0288361Y0172042D01*
X0292024Y0172042D01*
X0292024Y0173870D01*
X0291917Y0174407D01*
X0291708Y0174912D01*
X0291404Y0175367D01*
X0291017Y0175754D01*
X0290562Y0176058D01*
X0290056Y0176268D01*
X0289520Y0176375D01*
X0288361Y0176374D01*
X0288361Y0172042D01*
X0287835Y0172042D01*
X0287835Y0176375D01*
X0286677Y0176375D01*
X0286140Y0176268D01*
X0285634Y0176058D01*
X0285179Y0175754D01*
X0284792Y0175367D01*
X0284488Y0174912D01*
X0284417Y0174741D01*
X0283184Y0175975D01*
X0278918Y0175975D01*
X0277525Y0174582D01*
X0277525Y0169884D01*
X0276887Y0170522D01*
X0276432Y0170522D01*
X0277525Y0170522D01*
X0276432Y0170522D02*
X0276432Y0173710D01*
X0276461Y0174376D01*
X0276432Y0174408D01*
X0276432Y0174452D01*
X0275961Y0174923D01*
X0274306Y0176731D01*
X0274306Y0179653D01*
X0299732Y0179653D01*
X0299732Y0178515D02*
X0274306Y0178515D01*
X0274306Y0176916D02*
X0299732Y0176916D01*
X0299732Y0175318D02*
X0291437Y0175318D01*
X0292024Y0173719D02*
X0299732Y0173719D01*
X0299732Y0172120D02*
X0292024Y0172120D01*
X0292024Y0170522D02*
X0299732Y0170522D01*
X0299732Y0168923D02*
X0291823Y0168923D01*
X0291179Y0167325D02*
X0299732Y0167325D01*
X0299732Y0165726D02*
X0291999Y0165726D01*
X0292024Y0164128D02*
X0299732Y0164128D01*
X0299732Y0162529D02*
X0292024Y0162529D01*
X0291927Y0160931D02*
X0299732Y0160931D01*
X0299732Y0159332D02*
X0290712Y0159332D01*
X0288361Y0159332D02*
X0287835Y0159332D01*
X0287835Y0160931D02*
X0288361Y0160931D01*
X0288361Y0162529D02*
X0287835Y0162529D01*
X0287835Y0164128D02*
X0288361Y0164128D01*
X0288361Y0165726D02*
X0287835Y0165726D01*
X0287835Y0167325D02*
X0288361Y0167325D01*
X0288361Y0168923D02*
X0287835Y0168923D01*
X0287835Y0170522D02*
X0288361Y0170522D01*
X0288361Y0172120D02*
X0287835Y0172120D01*
X0287835Y0173719D02*
X0288361Y0173719D01*
X0288361Y0175318D02*
X0287835Y0175318D01*
X0284759Y0175318D02*
X0283841Y0175318D01*
X0278261Y0175318D02*
X0275600Y0175318D01*
X0276432Y0173719D02*
X0277525Y0173719D01*
X0277525Y0172120D02*
X0276432Y0172120D01*
X0271757Y0164760D02*
X0271757Y0164605D01*
X0271768Y0164594D01*
X0271757Y0164584D01*
X0271757Y0162046D01*
X0271841Y0161962D01*
X0271841Y0159445D01*
X0269252Y0156855D01*
X0269080Y0156683D01*
X0264625Y0156683D01*
X0263804Y0155863D01*
X0263804Y0152094D01*
X0244614Y0152094D01*
X0244614Y0179653D01*
X0268938Y0179653D01*
X0268938Y0176811D01*
X0267205Y0174924D01*
X0266733Y0174452D01*
X0266733Y0174410D01*
X0266704Y0174379D01*
X0266733Y0173711D01*
X0266733Y0170522D01*
X0244614Y0170522D01*
X0244614Y0172120D02*
X0266733Y0172120D01*
X0266733Y0170522D02*
X0266278Y0170522D01*
X0265458Y0169702D01*
X0265458Y0167708D01*
X0265418Y0167668D01*
X0265181Y0167257D01*
X0265058Y0166800D01*
X0265058Y0165874D01*
X0268433Y0165874D01*
X0268433Y0165874D01*
X0265058Y0165874D01*
X0265058Y0164948D01*
X0265181Y0164490D01*
X0265418Y0164080D01*
X0265458Y0164039D01*
X0265458Y0162046D01*
X0266278Y0161226D01*
X0270587Y0161226D01*
X0271408Y0162046D01*
X0271408Y0164039D01*
X0271448Y0164080D01*
X0271685Y0164490D01*
X0271757Y0164760D01*
X0271757Y0164128D02*
X0271476Y0164128D01*
X0271408Y0162529D02*
X0271757Y0162529D01*
X0271841Y0160931D02*
X0244614Y0160931D01*
X0244614Y0162529D02*
X0265458Y0162529D01*
X0265390Y0164128D02*
X0244614Y0164128D01*
X0244614Y0165726D02*
X0265058Y0165726D01*
X0265220Y0167325D02*
X0244614Y0167325D01*
X0244614Y0168923D02*
X0265458Y0168923D01*
X0266732Y0173719D02*
X0244614Y0173719D01*
X0244614Y0175318D02*
X0267566Y0175318D01*
X0268938Y0176916D02*
X0244614Y0176916D01*
X0244614Y0178515D02*
X0268938Y0178515D01*
X0276443Y0160931D02*
X0277525Y0160931D01*
X0276441Y0159332D02*
X0278902Y0159332D01*
X0276441Y0157734D02*
X0299732Y0157734D01*
X0299732Y0156135D02*
X0276332Y0156135D01*
X0276604Y0154537D02*
X0299732Y0154537D01*
X0299732Y0152938D02*
X0276604Y0152938D01*
X0271729Y0159332D02*
X0244614Y0159332D01*
X0244614Y0157734D02*
X0270131Y0157734D01*
X0264077Y0156135D02*
X0244614Y0156135D01*
X0244614Y0154537D02*
X0263804Y0154537D01*
X0263804Y0152938D02*
X0244614Y0152938D01*
X0283200Y0159332D02*
X0285485Y0159332D01*
D40*
X0139791Y0140283D02*
X0138315Y0140283D01*
X0131425Y0147173D01*
X0131425Y0195401D01*
X0144397Y0195401D01*
X0148157Y0190972D02*
X0140283Y0190972D01*
X0136346Y0187035D01*
X0136346Y0150126D01*
X0138315Y0148157D01*
X0138652Y0147819D01*
X0139791Y0141267D02*
X0152586Y0154063D01*
X0145697Y0160952D01*
X0145697Y0166858D01*
X0145204Y0167350D01*
X0144397Y0167842D01*
X0144712Y0167842D01*
X0151602Y0174732D01*
X0151602Y0176701D01*
X0151897Y0177094D01*
X0156523Y0172271D02*
X0156523Y0187527D01*
X0160460Y0191464D01*
X0161937Y0191464D01*
X0161937Y0191878D01*
X0158984Y0186543D02*
X0158984Y0162921D01*
X0154063Y0158000D01*
X0154063Y0155539D01*
X0152586Y0154063D01*
X0154063Y0150126D02*
X0154063Y0148157D01*
X0169811Y0132409D01*
X0169811Y0131937D01*
X0153571Y0146189D02*
X0153571Y0149634D01*
X0154063Y0150126D01*
X0161445Y0157508D01*
X0161445Y0166366D01*
X0163905Y0168826D01*
X0163905Y0169161D01*
X0162921Y0176701D02*
X0162921Y0181130D01*
X0163905Y0182114D01*
X0163905Y0182271D01*
X0167842Y0184082D02*
X0165382Y0186543D01*
X0158984Y0186543D01*
X0167842Y0184082D02*
X0167842Y0158492D01*
X0169811Y0156523D01*
X0169811Y0156504D01*
X0153571Y0146189D02*
X0147173Y0139791D01*
X0147004Y0139468D01*
X0139791Y0140283D02*
X0139791Y0141267D01*
X0149634Y0162429D02*
X0151602Y0164397D01*
X0151602Y0167350D01*
X0151917Y0167842D01*
X0152094Y0167842D01*
X0156523Y0172271D01*
X0144417Y0177094D02*
X0144220Y0176701D01*
X0140283Y0172763D01*
X0140283Y0171779D01*
X0148157Y0185067D02*
X0148157Y0190972D01*
X0213118Y0254063D02*
X0213118Y0270697D01*
X0214594Y0272173D01*
X0214673Y0272173D01*
X0210657Y0277586D02*
X0228374Y0277586D01*
X0228374Y0281031D01*
X0232311Y0284968D01*
X0232803Y0285539D01*
X0232803Y0285952D01*
X0238216Y0291366D01*
X0238216Y0301208D01*
X0238433Y0301661D01*
X0210657Y0277586D02*
X0209181Y0276110D01*
X0204752Y0276110D01*
X0204181Y0275559D01*
X0203767Y0275126D01*
X0201799Y0275126D01*
X0199338Y0277586D01*
X0199338Y0352389D01*
X0176208Y0375519D01*
X0176208Y0405539D01*
X0169811Y0411937D01*
X0169811Y0412409D01*
X0169319Y0412921D01*
X0169319Y0414889D01*
X0155047Y0414889D01*
X0155047Y0399141D01*
X0154063Y0398157D01*
X0150126Y0405539D02*
X0150126Y0387823D01*
X0155539Y0382409D01*
X0155539Y0361740D01*
X0163905Y0361740D01*
X0163905Y0362075D01*
X0155539Y0361740D02*
X0148157Y0361740D01*
X0148157Y0359279D01*
X0144417Y0367252D02*
X0144712Y0368138D01*
X0144712Y0376504D01*
X0144397Y0376504D01*
X0144220Y0376996D01*
X0144220Y0382409D01*
X0142744Y0386346D02*
X0148157Y0386346D01*
X0148157Y0380441D01*
X0151602Y0376996D01*
X0151917Y0376504D01*
X0152094Y0376504D01*
X0152094Y0367645D01*
X0151897Y0367252D01*
X0144417Y0367252D02*
X0144220Y0367645D01*
X0140775Y0364201D01*
X0140775Y0352389D01*
X0144220Y0348945D01*
X0144397Y0348945D01*
X0148157Y0346484D02*
X0146189Y0344515D01*
X0138315Y0344515D01*
X0138315Y0381917D01*
X0142744Y0386346D01*
X0154063Y0388315D02*
X0154063Y0390283D01*
X0154063Y0388315D02*
X0169811Y0388315D01*
X0169811Y0387842D01*
X0163905Y0375519D02*
X0163905Y0375185D01*
X0163905Y0375519D02*
X0176208Y0375519D01*
X0161937Y0352882D02*
X0154063Y0352882D01*
X0153571Y0353374D01*
X0148157Y0353374D01*
X0148157Y0346484D01*
X0161937Y0352468D02*
X0161937Y0352882D01*
X0139468Y0399310D02*
X0140283Y0400126D01*
X0140283Y0408000D01*
X0147173Y0414889D01*
X0155047Y0414889D01*
X0148157Y0407508D02*
X0147819Y0407662D01*
X0148157Y0407508D02*
X0150126Y0405539D01*
X0201799Y0275126D02*
X0199830Y0273157D01*
X0199830Y0268236D01*
X0203767Y0268236D01*
X0204181Y0268078D01*
X0274732Y0163315D02*
X0274634Y0162429D01*
X0274141Y0161937D01*
X0274141Y0158492D01*
X0270204Y0154555D01*
X0270204Y0153283D01*
X0274732Y0163315D02*
X0275126Y0163413D01*
X0281031Y0163413D01*
X0281051Y0163512D01*
X0374535Y0156523D02*
X0374535Y0156504D01*
X0374535Y0156523D02*
X0382409Y0156523D01*
X0386346Y0154063D02*
X0390283Y0150126D01*
X0389299Y0150126D01*
X0389299Y0131425D01*
X0397173Y0131425D01*
X0404063Y0138315D01*
X0404063Y0146189D01*
X0404878Y0147004D01*
X0396526Y0138652D02*
X0396189Y0138807D01*
X0396189Y0157508D01*
X0393236Y0160460D01*
X0398157Y0165382D01*
X0398157Y0185067D01*
X0394417Y0177094D02*
X0393728Y0177193D01*
X0390775Y0180145D01*
X0390775Y0181130D01*
X0380441Y0191464D01*
X0380441Y0191878D01*
X0380441Y0182271D02*
X0380441Y0182114D01*
X0390775Y0171779D01*
X0390775Y0162921D01*
X0393236Y0160460D01*
X0394397Y0167842D02*
X0394712Y0167842D01*
X0394712Y0176701D01*
X0394417Y0177094D01*
X0401897Y0177094D02*
X0402586Y0177193D01*
X0405539Y0180145D01*
X0405539Y0193925D01*
X0402094Y0197370D01*
X0401917Y0197370D01*
X0402094Y0197862D01*
X0402094Y0236740D01*
X0411937Y0236740D01*
X0411937Y0236897D01*
X0402094Y0236740D02*
X0398157Y0236740D01*
X0398157Y0247075D02*
X0398157Y0248551D01*
X0398157Y0247075D02*
X0411937Y0247075D01*
X0411937Y0246897D01*
X0401897Y0177094D02*
X0402094Y0176701D01*
X0402094Y0167842D01*
X0401917Y0167842D01*
X0386346Y0162921D02*
X0386346Y0154063D01*
X0386346Y0162921D02*
X0380441Y0168826D01*
X0380441Y0169161D01*
X0374535Y0131937D02*
X0374535Y0131425D01*
X0389299Y0131425D01*
X0390283Y0342547D02*
X0396189Y0342547D01*
X0396189Y0349437D01*
X0398157Y0351405D01*
X0403571Y0351405D01*
X0403571Y0362232D01*
X0400618Y0365185D01*
X0399929Y0365283D01*
X0400126Y0365677D01*
X0400126Y0374535D01*
X0399949Y0374535D01*
X0392744Y0374535D02*
X0392744Y0366169D01*
X0392449Y0365283D01*
X0392252Y0365677D01*
X0388807Y0362232D01*
X0388807Y0357803D01*
X0378964Y0357803D01*
X0376996Y0359771D01*
X0376996Y0385362D01*
X0374535Y0387823D01*
X0374535Y0387842D01*
X0386346Y0390283D02*
X0386346Y0381425D01*
X0380441Y0375519D01*
X0380441Y0375185D01*
X0387823Y0377488D02*
X0387823Y0369614D01*
X0380441Y0362232D01*
X0380441Y0362075D01*
X0388807Y0357803D02*
X0388807Y0350421D01*
X0392252Y0346976D01*
X0392429Y0346976D01*
X0388807Y0345008D02*
X0388807Y0344023D01*
X0390283Y0342547D01*
X0388807Y0345008D02*
X0382409Y0345008D01*
X0382409Y0345421D01*
X0396189Y0357311D02*
X0396189Y0385854D01*
X0400126Y0389791D01*
X0403571Y0393236D01*
X0403571Y0396189D01*
X0403725Y0396526D01*
X0395204Y0404555D02*
X0395373Y0404878D01*
X0395204Y0404555D02*
X0390775Y0400126D01*
X0390775Y0394712D01*
X0390283Y0394220D01*
X0390283Y0396189D01*
X0374535Y0411937D01*
X0374535Y0412409D01*
X0390283Y0394220D02*
X0386346Y0390283D01*
X0390283Y0386346D02*
X0391760Y0384870D01*
X0391760Y0375027D01*
X0392429Y0374535D01*
X0392744Y0374535D01*
M02*
